<svg xmlns="http://www.w3.org/2000/svg" viewBox="0 0 65.2 113.4"><path d="M63.4 75.3c0 2.1-.7 3.8-1.5 5.7-.6 1.3-.6 2.5-.7 3.9-.1 2.1-.4 4.2-.7 6.3l-.8 5.2c-.3 2.2-.4 4.7-1.4 6.8-.8 1.6-2.1 3-3.6 4-1.4 1-3.3 1.3-4.9 1.5-4.5.7-9.1.8-13.7.7l-10.4-.4c-3.1-.1-5.9-1.2-8.5-2.9-1.4-.9-2.8-1.9-3.8-3.2-.7-.9-.9-1.9-1.5-2.9-1.8-3-4.4-5.5-5.9-8.8-1.6-3.5-1.6-7.3-1.5-11s-.2-7.3-.8-10.9c-.3-2-1-3.7-1.9-5.6-.7-1.6-1.3-3.3-1.2-5 .1-1.3.7-2.4 1.2-3.6.7-1.7 1.5-3.3 2.3-5 .9-2.1 1.7-4.2 2.3-6.3.4-1.5.6-2.7.8-4 .3-2.7.5-5.4.7-8.1C8.6 22 9 12.3 9.2 2.6c0-1 1.1-1.4 1.8-1 .3.2.5.5.5 1 0 2.6-.1 5.1-.2 7.7-.3 8.3-.7 16.6-1.3 24.9-.2 2-.3 4.1-.6 6.1-.6 4-2.2 7.9-3.9 11.6-1.1 2.4-3 5.1-2.3 7.8.4 1.6 1.3 3.1 2 4.7.8 2 1 4.1 1.3 6.3.6 3.1.5 6.2.5 9.4 0 3.7.2 7.2 2.1 10.5.9 1.5 2 3 3 4.4.8 1 1.7 2.1 2.3 3.3.5 1 .6 1.8 1.5 2.6 1.2 1.2 2.7 2.2 4.2 3s3.1 1.5 4.7 1.6c.8.1 1.6.1 2.4.1l10.6.3c4.4 0 9 0 13.4-1.1 1.5-.3 2.6-.9 3.7-2.1.2-.2.3-.3.4-.5 1.2-1.5 1.4-3.2 1.7-5.1l1.4-9.6a47.08 47.08 0 0 0 .3-5.3c.1-1.8.9-3.1 1.5-4.7.8-1.9.7-4 .4-6.1-.3-1.6-.8-3.2-1.2-4.8-.2-.5-.4-1-.5-1.6-.1-.3 0-.7-.2-.9-.1-.4-.6-.7-1-.9-.7-.3-1.5.1-2.2.2-.8.1-1.5.1-2.3-.3-.6-.3-.9-.9-1.5-1-.8-.1-1.7 0-2.5 0a6.9 6.9 0 0 1-2.5-.4c-.7-.2-1.7-.6-2.5-.7-.3 2.5-1.3 5-1 7.6.1.7-.4 1.1-.9 1.2.2.1.5.2.7.3 1.4.8 2.7 1.7 4 2.5 1.5.8 3 1.7 4.4 2.7 1.1.8 2.6 1.8 2.9 3.2.1.3-.3.6-.6.5-.7-.4-1.2-1.1-1.8-1.7-.7-.6-1.4-1.1-2.2-1.6-1.4-.9-2.9-1.7-4.4-2.6-1.3-.8-2.5-1.7-3.8-2.4-1.1-.5-1.9-1.2-2.4-2.4-.3-.5.5-.9.8-.5s.5.8.9 1.1c0-.1-.1-.2-.1-.3-.4-3.7 1.6-7.3 1-11-.8-4.7-2.5-9.3-3.2-14-.6-4.5-.4-9 .1-13.6l.3-2.9c-.9 4.7-1.7 9.4-2.3 14.2-1 7.3-1.8 14.8-2 22.2 0 1.7-.1 3.3 0 5 .1 2.2.8 3.9 1.9 5.7 2 3.4 4.2 6.7 6.8 9.6.3.3-.2.8-.5.5-3-3.2-5.4-7-7.5-10.8-1-1.8-1.4-3.5-1.4-5.5 0-1.7 0-3.4.1-5 .1-3.5.4-7 .7-10.5.9-9.3 2.4-18.6 4.2-27.9 0-.3.3-.3.5-.2.2-1.4.3-2.7.5-4.1s.6-2.7 1-4c.7-2.6 1.5-5.2 2.3-7.7.4-1.3 2.3-.7 2 .5-1.1 3.9-2.8 8.3-3.2 12.1-.4 3.6-.9 7.1-1.1 10.7-.3 4.3-.4 8.8.6 13 1 4.4 2.6 8.8 3 13.3.6 0 1.3.2 1.9.3s1.2.3 1.8.5c.1 0 .2.1.3.1h.4c1.5 0 3.6-.4 4.9.5.7.5.9 1 1.9.8.7-.1 1.5-.3 2.2-.3 1.6.1 3.5 1.5 3.8 3.1.3 1.8 1 3.6 1.5 5.5.1 2 .3 3.8.2 5.6zm-38.7-.5c.1 2.5-.7 5-1.6 7.3v.1c-.1.2-.2.5-.3.7-.8 2.2-2 4.6-2.1 7 0 .5-.8.6-.8.1-.1-.4 0-.8 0-1.3.1-.7.3-1.3.5-1.9l1.6-4.5c1-2.8 1.9-5.6 1.7-8.6-.3-4-.6-8-1.1-12-.4-2.9-.9-5.9-1.4-8.8-.3-1.6-.7-3.3-1.1-4.9v-.1c-.9-3.4-2-6.8-3.3-10-.1-.2.1-.4.3-.4.1 0 .3.1.3.2a77.87 77.87 0 0 1 4.2 13.2c.9 3.8 1.5 7.7 2 11.6.4 4.1 1 8.2 1.1 12.3zm-.9 16.1c2.5-1.3 5.1-2.3 7.8-2.9 2.8-.6 5.5-.6 8.3-.5.3 0 .3-.4.1-.5-5.5-.8-11.6.8-16.4 3.5-.3.1-.1.5.2.4z" fill="#1e1812"/><path d="M55.2 103.2c-.1.2-.3.3-.4.5-1.1 1.2-2.2 1.7-3.7 2.1-4.3 1-8.9 1.1-13.4 1.1-3.5 0-7.1-.2-10.6-.3-.8 0-1.6 0-2.4-.1-1.7-.1-3.3-.8-4.7-1.6-1.5-.8-3-1.8-4.2-3-.8-.8-1-1.6-1.5-2.6-.6-1.2-1.5-2.2-2.3-3.3-1.1-1.4-2.2-2.8-3-4.4-1.8-3.2-2-6.7-2-10.5 0-3.2 0-6.4-.4-9.6-.3-2.1-.5-4.3-1.3-6.3-.6-1.6-1.5-3-2-4.7-.7-2.7 1.2-5.4 2.3-7.8 1.7-3.7 3.3-7.6 3.9-11.6.3-2 .4-4.1.6-6.1.6-8.3 1-16.6 1.3-24.9l.2-7.7c0-.5-.2-.8-.5-1 1.4-.1 4.2.2 6.7 2.8 3.2 3.6-.7 29.4-.8 33.3-.2 0-.4.2-.3.4a89.97 89.97 0 0 1 3.3 10v.1a82.63 82.63 0 0 1 .6 3.1l.5 1.8c.6 2.9 1.1 5.9 1.4 8.8.5 4 .8 8 1.1 12 .2 3-.6 5.8-1.7 8.6-.5 1.5-1.1 3-1.6 4.5-.2.6-.4 1.3-.5 1.9-.2.4-.3.8-.4 1-.7 1.9-5.3 13.1 7.9 15.2 10.4 1.6 22.9-.6 27.9-1.7z" fill="#e6e6e7"/><path d="M6.6 107.7H3.3v-1.5h3.3v1.5zm0-3.6H3.3v-4.7h3.3v4.7zm0-6.8H3.3v-4.7h3.3v4.7zm0-6.8H3.3v-4.7h3.3v4.7zm0-6.7H3.3v-4.7h3.3v4.7zm0-6.8H3.3v-4.7h3.3V77zm0-6.8H3.3v-4.7h3.3v4.7zm0-6.8H3.3v-4.7h3.3v4.7zm0-6.7H3.3V52h3.3v4.7z" fill="#87868a"/><path d="M43.3 107.7H40v-1.5h3.3v1.5zm0-3.6H40v-4.7h3.3v4.7zm0-6.8H40v-4.7h3.3v4.7zm0-6.8H40v-4.7h3.3v4.7zm0-6.7H40v-4.7h3.3v4.7zm0-6.8H40v-4.7h3.3V77zm0-6.8H40v-4.7h3.3v4.7zm0-6.8H40v-4.7h3.3v4.7zm0-6.7H40V52h3.3v4.7zm21.2 51h-3.3v-1.5h3.3v1.5zm0-3.6h-3.3v-4.7h3.3v4.7zm0-6.8h-3.3v-4.7h3.3v4.7zm0-6.8h-3.3v-4.7h3.3v4.7zm0-6.7h-3.3v-4.7h3.3v4.7zm0-6.8h-3.3v-4.7h3.3V77zm0-6.8h-3.3v-4.7h3.3v4.7zm0-6.8h-3.3v-4.7h3.3v4.7zm0-6.7h-3.3V52h3.3v4.7z" fill="#d07400"/></svg>