<svg xmlns="http://www.w3.org/2000/svg" xmlns:xlink="http://www.w3.org/1999/xlink" viewBox="0 0 65.2 113.4"><g fill="#1e1812"><path d="M24.2 88.5c2.3-.7 4.7-1.2 7.2-1.4 2.3-.2 4.6.1 6.9.2.3 0 .3-.4.1-.5-2.3-.5-4.9-.4-7.2-.2a29 29 0 0 0-7.1 1.5c-.3.1-.2.5.1.4zm34.4 3.6c-.1-2.4-.5-4.7-1.1-7-.5-1.9-1-3.8-.9-5.8l.4-5.5c.1-1.7.5-3.7.2-5.4-.1-.5-.3-.9-.5-1.4-.3-.8.2-1.5.2-2.3 0-1.4-.8-3-2.1-3.7-1-.6-2.2-.6-3.3-.3-.9-.4-1.7-.9-2.6-1.1h-.3l-2.5-11.1c-.5-2.2-1-4.2-1.1-6.5v-7c.2-4 .8-7.9 1.4-11.9.6-4.2 1.3-8.4 2-12.6.2-1.3-1.7-1.8-2-.5-1.4 7.6-2.7 15.3-3.6 23-.5 4.6-.7 9.4.3 13.9L46 59.4c.1.4.3.9.3 1.4S46 62 46 62.5l-.3 1.7c-.4 1.8-.6 3.4-.3 5.2v.2c-.4-.5-.7-.9-1-1.4s-1-.1-.8.5c1 2.2 3 4.2 4.5 6 1 1.2 2.1 2.5 3 3.8.4.6.9 1.2 1.2 1.9.4.6.6 1.3 1.1 1.7.3.2.7.1.7-.3 0-1.3-1.2-2.7-1.9-3.7-.8-1.2-1.8-2.4-2.7-3.5l-3.4-3.9c.8.3 1.9-.2 1.7-1.5-.2-1.5 0-2.8.2-4.2.2-1 .5-2.1.6-3.2.7.2 1.3.6 2 .9.6.3.9.2 1.5.1.7-.2 1.5-.1 2 .5.6.8.5 1.4.3 2.3-.2.7-.2 1.4 0 2 .2.5.5.9.5 1.4.2 1.8-.2 3.7-.3 5.5-.2 2.7-.7 5.4-.1 8.1.4 1.9.9 3.7 1.3 5.6.5 2.7.5 5.5.4 8.2-.1 1.7-.1 3.8-.9 5.3-.2.4-.4.7-.7 1-.6.8-1.4 1.4-2.2 2-1.1.7-2.4 1-3.7 1.3-1.9.4-3.9.6-5.9.7-3.7.2-7.3.1-10.9 0-2.4-.1-4.8-.1-7.2-.3-2.4-.1-4.5-1.3-6.2-3-1.5-1.5-2.6-3.3-3.8-5-1.5-2.1-2.2-4.5-2.8-7-1-3.6-1.6-7.3-1.7-11-.1-2.8.1-5.7 0-8.5-.1-3.5-.4-7.3-1.4-10.6-.8-2.6-3-5.8-2.3-8.6.6-2.5 2.2-4.8 3.2-7.1.5-1 .9-2 1.1-3.1a20.68 20.68 0 0 0 .3-3.5v-2.8l-.4-26.7V2.8c0-.3-.1-.6-.2-.8-.9-1-2.7-.7-2.7.7l.4 28c.1 2.3.2 4.7.2 7 0 1.8 0 3.7-.6 5.4-.9 2.6-2.4 5-3.5 7.5-1.2 2.9-.5 5.5.6 8.3C6.4 62.5 7 66.1 7.3 70c.2 3 .1 6 .1 9 .1 3.7.5 7.4 1.3 11 .7 2.9 1.5 6.3 3.1 8.8 1.1 1.7 2.3 3.4 3.6 5 1.8 2.2 4.2 4 7 4.7 2 .5 4.1.4 6.1.5 7.4.3 15.3.9 22.5-1.1 2.6-.7 5-2.7 6.3-5 .9-1.7.9-3.6 1.1-5.4.2-1.9.2-3.7.2-5.4z"/><path d="M43.7 83.4c.3.3.8-.2.5-.5-2.4-2.7-4.2-6-5.9-9.1-1-1.8-2-3.4-2-5.5 0-1.7.2-3.4.2-5.2.3-7.6 1.7-15.1 3.1-22.5l3.2-16.8c.1-.4-.5-.6-.6-.2-1.8 9.5-3.9 19-5.3 28.5-.5 3.4-1 6.9-1.1 10.4l-.3 5.3c-.1 2 .5 3.4 1.5 5.1 2 3.7 4 7.5 6.7 10.5zM18.6 42.7c1.7 5.6 3.1 11.2 4.1 16.9l.3 1.7v.1c.5 3.5.9 7.1.9 10.7 0 3-1.1 5.8-2.4 8.5-.6 1.4-1.3 2.8-1.9 4.2-.4 1-.9 2-.8 3.1 0 .2.1.3.2.4.2.1.6 0 .6-.4.3-2.4 1.7-4.8 2.7-7 1.1-2.4 2.3-5 2.4-7.7.3-8-1.5-16.3-3.6-24-1.3-4.6-2.7-9.2-4.2-13.7 0-.1-.2-.2-.3-.2-.2 0-.4.1-.3.4.9 2.3 1.6 4.7 2.3 7z"/></g><path d="M54.5 102.7c-.6.8-1.4 1.4-2.2 2-1.1.7-2.4 1-3.7 1.3-1.9.4-3.9.6-5.9.7-3.7.2-7.3.1-10.9 0-2.4-.1-4.8-.1-7.2-.3-2.4-.1-4.5-1.3-6.2-3-1.5-1.5-2.6-3.3-3.8-5-1.5-2.1-2.2-4.5-2.8-7-1-3.6-1.6-7.3-1.7-11-.1-2.8.1-5.7 0-8.5-.1-3.5-.4-7.3-1.4-10.6-.8-2.6-3-5.8-2.3-8.6.6-2.5 2.2-4.8 3.2-7.1.5-1 .9-2 1.1-3.1A20.68 20.68 0 0 0 11 39c0-.1.1-.1.1-.1v-2.7l-.4-26.7V2.8c0-.3-.1-.6-.2-.8 1.6 0 3.8.3 4.3 2.2.8 3.1-.3 16.9-.1 19.5.2 2.2 1.2 6.8 2.3 11.7-.2 0-.4.1-.3.4l2.1 7 2.1 8.2A315.18 315.18 0 0 0 23 61.3v.1c.5 3.5.9 7.1.9 10.7 0 3-1.1 5.8-2.4 8.5-.6 1.4-1.3 2.8-1.9 4.2-.4 1-.9 2-.8 3.1 0 .2.1.3.2.4-.2.6-.4 1.1-.5 1.4-.7 1.9-1.1 10 6.7 13.4 7.1 3.1 25.6.2 29.3-.4z" fill="#e6e6e7"/><path d="M11.3 107.6H8.1v-1.5h3.3v1.5zm0-3.6H8.1v-4.7h3.3v4.7zm0-6.8H8.1v-4.7h3.3v4.7zm0-6.8H8.1v-4.7h3.3v4.7zm0-6.7H8.1V79h3.3v4.7zm0-6.8H8.1v-4.7h3.3v4.7zm0-6.7H8.1v-4.7h3.3v4.7zm0-6.8H8.1v-4.7h3.3v4.7zm0-6.7H8.1V52h3.3v4.7z" fill="#87868a"/><g fill="#d07400"><use xlink:href="#B"/><use xlink:href="#B" x="13.5"/></g><defs ><path id="B" d="M47.9 107.6h-3.3v-1.5h3.3v1.5zm0-3.6h-3.3v-4.7h3.3v4.7zm0-6.8h-3.3v-4.7h3.3v4.7zm0-6.8h-3.3v-4.7h3.3v4.7zm0-6.7h-3.3V79h3.3v4.7zm0-6.8h-3.3v-4.7h3.3v4.7zm0-6.7h-3.3v-4.7h3.3v4.7zm0-6.8h-3.3v-4.7h3.3v4.7zm0-6.7h-3.3V52h3.3v4.7z"/></defs></svg>