<svg xmlns="http://www.w3.org/2000/svg" viewBox="0 0 65.2 113.4"><path d="M31.1 82.2c2.6-.7 5.3-.6 7.8.2 2.7.9 4.6 2.4 6.6 4.3.2.2.6-.1.4-.3-3.2-4.5-9.8-6.1-15-4.7-.2.2-.1.6.2.5zm15.9 1c0 .4.7.4.7 0-.2-3.9-3.4-7.1-3.7-11-.2-1.8 0-3.6.1-5.4.1-1.4.2-2.9.4-4.3 1.1-7.4 3.1-14.6 4.8-21.8l3.4-15.4c.1-.4-.5-.6-.6-.2-1.7 8.7-4 17.4-6.1 26-.8 3.4-1.6 6.8-2.1 10.2-.5 3-.6 6-.7 9-.1 2.5.7 4.4 1.6 6.6.9 2 2 4.1 2.2 6.3zm12.3-30.8c-.8-3.3-1.7-6.4-2-9.7-.3-3.5-.4-7.1-.3-10.7.2-6.4.6-13 1.9-19.3.2-.8.3-1.6.6-2.3.4-1-1.3-1.5-1.7-.5-.7 1.8-1 3.8-1.2 5.7-.5 3-.8 6.1-1 9.2-.6 6.8-.9 13.7 0 20.5.5 3.4 1.6 6.7 2.3 10 .4 1.9.7 3.9 1 5.8.2 1.3.3 2.6.1 4l-.3 1.5c-1.6 2.5-3 5.1-3.8 7.9-.3 1.1-.5 2.2-.6 3.3-.1 1.3-.3 2.8-.2 4.1 0 .2.3.3.4.1.3-1.2.2-2.5.3-3.7s.3-2.4.6-3.6c.6-2.2 1.6-4.2 2.8-6.2-.2.7-.3 1.4-.4 2.1s-.1 1.6-.2 2.2c-.4 2.8-1 5.7-1.5 8.5l-2.4 11.6c-.4 1.8-.6 4-1.5 5.6a13.79 13.79 0 0 1-1.9 2.8c-.4.5-.8.9-1.3 1.4-5.3 5-13.8 4.5-20.5 3.8-2.9-.3-6.2-.9-8.8-2.4-.9-.6-1.8-1.2-2.4-2.1-.8-1-1.3-2.3-1.5-3.8-.4-3.8 1.2-7.1 2.5-10.5.6-1.5 1.1-3.1 1.3-4.7.1-.4.1-.9.1-1.3 0-.5 0-1.1-.1-1.8.1-.1.1-.2.1-.4-.2-1.1-.4-2.2-.5-3.3-.1-.9 0-1.9-.3-2.8-.2-.5-.8-.5-.9 0-.3.8-.3 1.8-.2 2.9-1.5-1.5-3.1-2.8-4.5-4.4-.9-1-1.8-2.1-2.5-3.3-.7-1.3-.8-2.9-1.3-4.3-.4-1.3-2.5-2.2-2.4-3.6.1-1.6 2-2.7 3.4-2.2.5.2 1 .3 1.5.3 1.4 1 3.5 1.3 5.1 1.3 1.8 0 3.5-.5 5.1-1.3.4 2.6.5 5.3.4 7.9-.1 2.7-.5 5.3-.4 8 0 .1 0 .2.1.3.3.5 1.2.6 1.3-.1 1-4.5 1.3-9.4 1-14-.1-1.5-.3-2.9-.6-4.4 0-.3 0-.5-.1-.7-.1-.7-.3-1.4-.4-2.1-.3-1.7-.6-3.3 0-5 .6-1.9 1.4-3.6 2.1-5.5.8-2.1 1-4.3 1.2-6.5.5-5.3-.2-10.9-.9-16.2-.8-6.1-2-12.2-3.5-18.3-.4-1.4-2.8-.8-2.5.8 1.2 5.2 2.3 10.5 3.1 15.8s1.6 10.8 1.3 16.2c-.1 2.4-.4 4.8-1.1 7.1-.6 1.8-1.3 3.6-1.9 5.4-.5 1.6-.7 3-.5 4.6.1 1 .3 2 .5 3-.7-.1-1.6-.1-2.3.1-.1 0-.2.1-.3.1h-.2c-.6-.1-1.1-.3-1.7-.3-1.2-.1-2.4.1-3.5.5-.3.1-.7.2-.9.4-.2.1-.3.3-.4.4 0 0-.1 0-.3-.1-.4-.2-.9-.3-1.4-.4-1.8-.2-3.6.9-4.7 2.4-1.1 1.6-1.2 3.4 0 5 .4.6 1.2 1.1 1.6 1.8s.5 1.9.7 2.7c.4 1.4.8 2.5 1.7 3.7.9 1.3 2 2.4 3.1 3.6 1 1 2 2 3.1 3 .9.8 1.2 1.2 1.4 2.5.8 4.3-2.2 8.2-3.3 12.1-.8 3.1-1 6.8.5 9.8 1.3 2.6 3.8 4.2 6.4 5.2 3.3 1.2 6.9 1.5 10.4 1.7 4 .2 8 .2 11.9-.8 3.3-.8 6.4-2.6 8.6-5.2 1.2-1.4 2.4-3.1 3-4.8.5-1.9.9-3.9 1.4-5.9l2.5-12.2c.5-2.5 1-5.1 1.3-7.6.1-1.3.2-2.5.5-3.8.4-1.7 1-3.5.9-5.3-.3-3.9-1.2-7.7-2-11.3zM13.7 58c.3-.1.9-.3 1-.4.5-.1 1.1-.2 1.6-.2 1 .1 1.9.6 2.9.3.9-.2 1.8-.2 2.8-.1 0 .1.1.3.1.5-1.6.7-3.3 1.1-5 1.1-.9 0-1.8-.2-2.7-.4-.4-.1-.8-.3-1.2-.4.2 0 .3-.2.5-.4zm19 10.5c-.5 2.8-1.5 5.4-2.6 7.9l-2 4.2c-.1.2-.2.5-.3.7-.2.3-.6.2-.8 0-.1-.1-.1-.3 0-.4l2.7-6.1c1.2-2.8 2-5.5 2.5-8.6.1-.3.1-.6.1-.9.6-3.7.9-7.5 1-11.2.1-2.3.1-4.6 0-6.9v-.1L33 32c0-.3.3-.4.5-.3.1 0 .1.1.2.3 0 4.5.3 9 .5 13.5.1 7.7-.2 15.4-1.5 23z" fill="#1e1812"/><path d="M50.2 101.4c-.4.5-.8.9-1.3 1.4-5.3 5-13.8 4.5-20.5 3.8-2.9-.3-6.2-.9-8.8-2.4-.8-.8-1.7-1.6-2.4-2.1-.8-1-1.3-2.3-1.5-3.8-.4-3.8 1.2-7.1 2.5-10.5.6-1.5 1.1-3.1 1.3-4.7 1.3-1.2 2.1-4.2 2.6-8 .3.5 1.2.6 1.3-.1 1-4.5 1.3-9.4 1-14-.1-1.5-.3-2.9-.6-4.4 0-.3 0-.5-.1-.7-.1-.7-.3-1.4-.4-2.1-.3-1.7-.6-3.3 0-5 .6-1.9 1.4-3.6 2.1-5.5.8-2.1 1-4.3 1.2-6.5.5-5.3-.2-10.9-.9-16.2-.8-6.1-2-12.2-3.5-18.3 2.9-.4 8.3-.6 8.4 2.9.2 4.8 2.3 16.1 2.5 18.1.1 1.7.2 4.8.2 8.4-.2-.1-.5 0-.5.3 0 5.1.3 10.2.4 15.2v.1c0 1.7-.1 2.8-.1 2.8s-.3 8.7-1 15.3c0 .3-.1.6-.1.9-.5 3-1.3 5.8-2.5 8.6-.8 2-1.8 4.3-2.7 6.1-.1.1-.1.3 0 .4-2.4 1.3-4.4 5.4-5.3 11-1.3 8.8 3 10.5 8.6 11.8 4.9.9 15.9-1.7 20.1-2.8z" fill="#e6e6e7"/><path d="M22.7 52.5H26v2.4h-3.3zm3.3 51.7h-3.3v-4.9H26v4.9zm0-7h-3.3v-4.9H26v4.9zm0-7.1h-3.3v-4.9H26v4.9zm0-7h-3.3v-4.9H26v4.9zm0-7.1h-3.3v-4.9H26V76zm0-7h-3.3v-4.9H26V69zm0-7.1h-3.3V57H26v4.9zm-3.3 44.5H26v2.4h-3.3zM1.4 52.5h3.3v2.4H1.4zm3.4 51.7H1.4v-4.9h3.3v4.9zm0-7H1.4v-4.9h3.3v4.9zm0-7.1H1.4v-4.9h3.3v4.9zm0-7H1.4v-4.9h3.3v4.9zm0-7.1H1.4v-4.9h3.3V76zm0-7H1.4v-4.9h3.3V69zm0-7.1H1.4V57h3.3v4.9zm-3.4 44.5h3.3v2.4H1.4z" fill="#d07400"/><path d="M58.5 108.8h-3.3v-1.5h3.3v1.5zm0-3.7h-3.3v-4.7h3.3v4.7zm0-6.8h-3.3v-4.7h3.3v4.7zm0-6.9h-3.3v-4.7h3.3v4.7zm0-6.8h-3.3v-4.7h3.3v4.7zm0-6.8h-3.3V73h3.3v4.8zm0-6.9h-3.3v-4.7h3.3v4.7zm0-6.8h-3.3v-4.7h3.3v4.7zm0-6.9h-3.3v-4.7h3.3v4.7z" fill="#87868a"/></svg>