<svg xmlns="http://www.w3.org/2000/svg" viewBox="0 0 65.2 113.4"><path d="M58.5 71.1c0-.6 0-1.3-.2-1.9-.2-.8-.8-1.4-1-2.2-.4-1.6 1.3-2.3 1.4-3.8.1-1-.5-2.1-1-2.9s-1.2-1.7-2-2.2c-.4-.2-.9-.3-1.4-.4-.4 0-1.5 0-1.7-.4-.3-.4-.7-.5-1-.3l-1.7-8.2c-.9-4-2-8-2.7-12.1-.4-2.5-.7-5-.6-7.6 0-2.5.4-4.9.8-7.4l2.4-11.4c.3-1.5-2-2.2-2.4-.6l-3.2 14.6c-.1.3 0 .6.1.9l-4.6 24c-.6 3.5-1.2 7.1-1.6 10.7-.3 3.1-.4 6.1-.6 9.2-.1 1-.1 2.1.1 3.1.3 1.1.9 2.1 1.4 3.1 1.1 2.4 2 4.8 3.3 7 .2.4.8 0 .6-.3-1.1-1.9-1.9-3.9-2.8-5.8-.4-1-.9-1.9-1.3-2.9-.5-1.2-.7-2.3-.6-3.6.2-3 .3-6 .6-9 .8-7.7 2.3-15.2 3.8-22.8l1.8-9.2c0 1.7.1 3.5.3 5.1.4 4.4 1.4 8.7 2.5 12.9.8 3.1 1.4 6.3 2 9.5.2 1.2.5 2.5.7 3.7.1.3.1.7.2 1-.1.3-.1.9-.2 1.1-.1.7-.3 1.4-.5 2.2-.4 1.7-1.1 3.2-1.7 4.8-.4 1.1 1.3 2 2 1.2 1.8-2.1 2.2-5.4 2.6-8 .2-1.1 0-2.1-.2-3.2.5.3 1 .4 1.6.5 1.2.2 1.8.5 2.5 1.5.3.5.7 1 .8 1.6.2.7-.1 1-.5 1.5-.9 1.2-1.1 2.4-.6 3.8.3.7.8 1.3.9 2.1.2.7.1 1.4.1 2.1.2 1.5.3 3-.6 4.3-.8 1.2-1.9 2.1-2.7 3.3-.2-1.3-.7-2.7-1.4-3.8-.1-.2-.5-.1-.3.2.6 1.6 1 3.1 1.2 4.8-.3.9-.5 1.8-.3 2.8v.5c1.6 5.1 1.7 10.7-.8 15.6-.9 1.7-2.2 3.8-3.8 5a4.98 4.98 0 0 1-1.9 1c-1.5.4-3.1.3-4.7.3h-5.5c-2.8 0-5.7.2-8.5-.2-2.1-.3-4.2-.7-6.3-1.1-1.7-.4-3.1-1-4.3-2.4-1.9-2.2-3.1-5.3-3.6-8.1-1.2-5.9 2.7-11.8.4-17.5 1.3-4.9.8-10.3.3-15.3-.2-2.3-.5-4.5-.9-6.8-.3-1.9-.4-3.8-.1-5.7.8-4 2.2-7.8 2.3-12 .1-5.3-.3-10.7-.4-16L14 2.6c0-.3-.1-.6-.4-.8-.7-.7-2.2-.4-2.1.8.6 10.8 1 21.6 1.2 32.5 0 2.4-.1 4.7-.6 7l-1.3 5.6c-.4 1.8-.5 3.7-.3 5.5.2 1.5.4 2.9.7 4.3l-.1.1c-2.5 3-4.9 6.2-4.9 10.3 0 1.8.5 3.5 1.4 5.1.9 1.5 2.1 2.8 3 4.3 1.4 2.7.8 5.8.3 8.7-.6 3.1-1.1 6.2-.5 9.3 1 5 4 10.9 9.4 12l3 .6 3.7.6c.4 0 .8.1 1.2.1 2.7.3 5.4.2 8.1.1h5.7c1.7 0 3.5.1 5.1-.4 2.9-.9 5.1-3.6 6.5-6.1 3.2-5.4 4.1-12.8 1.1-18.4 0-.1.1-.3 0-.4-.3-1.7.9-3.2 2-4.4 1-1.1 1.8-2.2 2.2-3.6.5-1.5.2-2.8.1-4.3zm-8.7-10v.2-.2zM12.2 74.5c-1.5-2.1-3.1-3.9-3.1-6.6 0-1.7.5-3.3 1.4-4.7.4-.7.8-1.4 1.2-2 .2 2.2.5 4.4.6 6.6s0 4.4-.1 6.7zm9.3-18.9c.7 3.8 1.3 7.6 1.5 11.5.1 1.8.2 3.6 0 5.4-.1 1.1-.4 2.1-.8 3.1-.3.6-.6 1.3-1 1.9-1.1 2.1-2.4 4.2-3.1 6.5-.1.2.1.4.3.5s.4 0 .5-.2c.8-1.5 1.4-3.1 2.2-4.6.6-1.1 1.2-2.2 1.7-3.3 1.1-2.4 1.2-4.7 1.2-7.3-.2-6.9-1.5-13.6-3.2-20.3-.2-.9-.5-1.7-.7-2.5-1.2-4.3-2.6-8.5-3.9-12.8-.1-.4-.7-.2-.6.2 2.3 7.3 4.5 14.5 5.9 21.9zm27.2 21.2c.4 1.2.9 2.5 1.7 3.5.1.2.4 0 .3-.2-.4-1.3-1.1-2.5-1.6-3.8s-.9-2.7-1.2-4.1c-.8-3.3-1.2-6.6-1.7-10 0-.3-.5-.3-.5 0 .2 3.4.7 6.8 1.5 10.1.5 1.5.9 3 1.5 4.5zm-22.9 7.4c1.6-.6 3.2-1 5-1.1 1.7-.1 3.4.3 5 .6.2 0 .4-.3.2-.4-3.2-1.4-7.2-.9-10.3.5-.3.1-.1.5.1.4z" fill="#1e1812"/><path d="M47.9 104.8a4.98 4.98 0 0 1-1.9 1c-1.5.4-3.1.3-4.7.3h-5.5c-2.8 0-5.7.2-8.5-.2l-6.3-1.1c-1.7-.4-3.1-1-4.3-2.4-1.9-2.2-3.1-5.3-3.6-8.1-1.2-5.9 2.7-11.8.4-17.5 1.3-4.9.8-10.3.3-15.3-.2-2.3-.5-4.5-.9-6.8-.3-1.9-.4-3.8-.1-5.7.8-4 2.2-7.8 2.3-12 .1-5.3-.3-10.7-.4-16-.1-6.1-.4-12.2-.7-18.4 0-.3-.1-.6-.4-.8 1.2-.3 2.6.1 2.9 3.4 1.2 11.3.8 16.4 1 18.5.3 4.1 2.3 17.8 3.3 25.1-.2-.9-.5-1.7-.7-2.5-1.2-4.3-2.6-8.5-3.9-12.8-.1-.4-.7-.2-.6.2 2.2 7.2 4.5 14.5 5.9 21.9.7 3.8 1.3 7.6 1.5 11.5.1 1.8.2 3.6 0 5.4-.4 1.4-1.1 3.3-1.8 5-1.1 2.1-2.4 4.2-3.1 6.5-.1.2.1.4.3.5-.6 1.3-1.2 2.8-1.6 3.9-.7 1.9.7 9.4 5.9 12.5 4.3 2.5 19.9 3.6 25.2 3.9z" fill="#e6e6e7"/><path d="M23.4 108.7h4.7v3.3h-4.7zm-6.8 0h4.7v3.3h-4.7zm-6.8 0h4.7v3.3H9.8zm40.9 0h4.7v3.3h-4.7zm-13.6 0h4.7v3.3h-4.7zm6.8 0h4.7v3.3h-4.7zM29.5 50.1h3.3v4.1h-3.3zm0 13h3.3v4.7h-3.3zm0 6.8h3.3v4.7h-3.3zm0-13.6h3.3V61h-3.3zm0 34.1h3.3v4.7h-3.3zm0-13.7h3.3v4.7h-3.3zm3.2 27.3h-3.2v4.7h.7v3.3h4.7v-3.3h-2.2zm-3.2-6.8h3.3v4.7h-3.3zm0-13.6h3.3v4.7h-3.3z" fill="#d07400"/></svg>