<svg xmlns="http://www.w3.org/2000/svg" viewBox="0 0 113.4 85"><path d="M111.3 62.7c-.4-4.1-1.2-8.2-1.8-12.2l-2.2-14.7c-.2-1.5-.4-3-.3-4.5.1-2 .4-3.9.7-5.9.7-4.9 1.6-9.8 2.7-14.7.2-.7.3-1.5.5-2.2.1-.2.1-.4.2-.7v-.1c1-1.5-1.4-2.8-2.3-1.4-.1.2-.2.3-.3.5-.4.9-.5 2-.7 2.8l-1.4 6.6c-.9 4.7-1.8 9.4-2.2 14.2-.3 3.6.5 7.3 1 10.9l2.3 15.1a73.2 73.2 0 0 1 1 10.4c0 2 .3 4.9-.6 6.6-.7 1.3-1.5 2.3-2.7 3.3-2 1.6-4.5 2.4-7 2.7-3.9.4-8.1-.1-12-.5-6.4-.7-12.7-1.9-19.2-2-6.3 0-12.7 0-18.9.9-6.5.9-13 3.3-19.7 2.6-1.6-.2-3.2-.4-4.8-.8a15.83 15.83 0 0 1-3.1-.9c-.3-.1-.6-.3-.8-.4-.1-.1-.1-.2-.1-.2-.1-.1-.2-.1-.3-.2-.7-.4-1.7-.2-2.4-.1-2.8.5-5.7 1.2-8.5.4-1.6-.4-2.7-1.6-3.3-3-.3-.7-.5-1.6-.5-2.4 0-.6 0-1.6.5-1.9.9-.3 2.4.1 3.3.4 1 .2 1.9.8 2.9.5 1.2-.3 2.3-1.1 3.4-1.6.5-.3 1.1-.5 1.6-.5.7 0 1.5.1 2.2.2 1.7.1 3.4 0 5-.6 1.1-.5 2.2-1.2 3.3-1.9 1.5-.9 3-1.7 4.6-2.5 1.9-.9 4-1.6 6-2.5 2.4-1.1 4.7-2.2 7-3.4 7-3.6 13.9-7.4 20.8-11.2 3.7-2.1 5.5-6 6.6-9.9 1.3-4.5 1.9-9.2 2.2-13.9.2-3.5.3-6.9.2-10.4-.1-2.3-.5-4.6-.9-6.9l-.6-4.2c-.3-1.7-2.9-1-2.6.7l1.3 9.2v6.3c-.1 4.5-.4 9-1.2 13.5-.7 3.9-1.7 8.6-4.4 11.7-.6.7-1.2 1.1-2 1.6l-5.9 3.3-10.6 5.7c-4.4 2.3-9.1 5-13.7 6.7-3.1 1.1-6 2.6-8.8 4.3-1 .6-2.1 1.4-3.3 1.7-1.6.4-3.3.1-4.9 0-1.4-.1-2.7.6-4 1.2-.6.3-1.1.6-1.7.9 0 0-.2.1-.3.1s-.3-.1-.4-.1c-2.1-.7-5.4-1.5-7.1.2-1.6 1.5-1.4 4.4-.8 6.3.8 2.7 2.9 4.8 5.7 5.5 3 .7 6.1.2 9.1-.3.3 0 .6-.1.9-.1.6.5 1.4.7 2.1.9 2.7.9 5.6 1.4 8.4 1.7 3.2.4 6.3 0 9.5-.6 3.5-.6 6.9-1.5 10.3-2 3.2-.5 6.5-.7 9.7-.8 5.9-.2 11.7-.3 17.5.5L87 82c4 .4 8.2.9 12.2.3 4.4-.6 8.6-2.9 10.9-6.8 1.1-1.8 1.1-3.9 1.2-5.9.1-2.4.2-4.7 0-6.9zM19.7 78.5l-.1-.1.1.1zm-1.4 2.1c0-.1.1-.1 0 0 .1-.1.1-.1 0 0zm75.7-36c-.5 1.5-1.6 2.8-2.6 4-.1.1-.2.2-.3.2-.4 0-.7-.5-.4-.9 1.3-1.6 2.5-3.1 2.8-5.2.2-1.6.1-3.2-.1-4.7l-.7-3.9c0-.2-.1-.4-.1-.6-.2-.9-.3-1.8-.4-2.7-.2-1.7-.1-3.4-.1-5l.1-10.6c0-.5.6-.6.8-.4v.4l-.1 4.8c0 4-.4 8.2.3 12.1.4 2 .8 4.1 1 6.2 0 .3.1.6.1.9 0 .4.1.8.1 1.2.1 1.4.1 2.9-.4 4.2z" fill="#1e1812"/><path d="M48.8 83.6c-.8 0-1.5-.6-1.6-1.4-.1-.9.5-1.7 1.3-1.8 7.3-1 17.7-.9 20.7-.8 2.1 0 4.9.4 8.1.8.9.1 1.5.9 1.4 1.8s-.9 1.5-1.8 1.4c-3-.4-5.8-.8-7.8-.8-3-.1-13.2-.2-20.2.8h-.1z" fill="#d07400"/><path d="M108 73.5c-.7 1.3-1.5 2.3-2.7 3.3-2 1.6-4.5 2.4-7 2.7-3.9.4-8.1-.1-12-.5-6.4-.7-12.7-1.9-19.2-2-6.3 0-12.7 0-18.9.9-6.5.9-13 3.3-19.7 2.6-1.6-.2-3.2-.4-4.8-.8 2.9.5 7.4.4 13.6-1.4 12.5-3.7 10.9-6.5 16.1-6.6 5.2-.2 16-1.5 20-3.9s6 .5 10-4.3c2.5-3 2.8-8.2 5.2-11.3.9-.9-1-1.7-2.7-2.9s-3.5-7.6-3.2-8.1c.1-.1 1.3 4.9 3.1 6.6 2 1.7 4.9 1.6 5 1.5.1-.2.2-.3.3-.5.1 0 .2-.1.3-.2 1-1.2 2.1-2.5 2.6-4 .5-1.3.6-2.8.5-4.2 0-.4 0-.8-.1-1.2 0-.4 0-.7-.1-.9-.2-2.1-.6-4.1-1-6.2-.7-3.9-.4-8.1-.3-12.1 0-1.6 0-3.2.1-4.8 0-.2-.1-.3-.2-.4l.2-9.6 15.4 1.7c-.4.9-.5 2-.7 2.8l-1.4 6.6c-.9 4.7-1.8 9.4-2.2 14.2-.3 3.6.5 7.3 1 10.9l2.3 15.1a73.2 73.2 0 0 1 1 10.4c.2 2 .4 4.9-.5 6.6zm-87.4 1.8l-1.2 2.8c-.7-.4-1.7-.2-2.4-.1-2.8.5-5.7 1.2-8.5.4-1.6-.4-2.7-1.6-3.3-3 7.5 2 15.4-.1 15.4-.1z" fill="#e7e8ea"/></svg>