<svg xmlns="http://www.w3.org/2000/svg" viewBox="0 0 113.4 85"><g fill="#1e1812"><path d="M10.5 69.4s-.1 0-.1-.1l.1.1c-.1-.1 0 0 0 0z"/><path d="M109.9 52.3c-.8-5.1-1.7-10.2-2.3-15.4-.2-1.6-.4-3.3-.4-5 0-1.9.3-3.8.6-5.7.7-5.1 1.7-10.2 2.8-15.2.2-.8.3-1.5.5-2.3.1-.3.1-.5.2-.8v-.1c1-1.5-1.4-2.8-2.3-1.4-.1.2-.2.3-.3.5-.4.9-.5 2.1-.7 3l-1.4 6.9c-.9 4.7-1.9 9.5-2.1 14.4-.2 3.8.7 7.8 1.3 11.6l2.4 15.4c.3 1.7.5 3.1.6 4.8.2 2.3-.7 4.5-1.5 6.6-1.3 3.4-2.7 6.4-6 8.3-2.8 1.6-6 2-9.2 1.9-4-.1-7.9-1-11.7-2.1-2.9-.8-5.9-1.9-8.9-2.3-2.4-.4-4.9-.2-7.3-.2-3.1.1-6.2.3-9.3.7-1.7.2-3.4.4-5.1.7a4.44 4.44 0 0 0 .8-1.1c.1-.2-.2-.5-.4-.3-.6.7-1.3 1.3-2 1.8-.5.1-.9.3-1.4.4-1.3.4-2.4 1.1-3.7 1.5-1.7.6-3.5 1-5.3 1.3-3 .5-6.2.8-9.3.5-1.7-.2-3.4-.4-5.1-.8a15.83 15.83 0 0 1-3.1-.9c-.1 0-.5-.2-.7-.3-.1-.2-.3-.3-.4-.4-.8-.5-1.9-.2-2.7 0-2.8.5-6.1 1.3-8.9.1-1.2-.5-2.1-1.6-2.7-2.8-.4-1-.6-2.1-.4-3.1.1-.8.2-1.2 1-1.3 1.2-.2 2.4.2 3.6.6 1.1.3 1.8.4 2.9-.1 1.2-.6 2.2-1.8 3.5-2.1.6-.1 1.2 0 1.8.1.9.1 1.7.2 2.6.2 1.5 0 3-.1 4.3-.9 2.6-1.6 4.9-3.8 8-4.7.9-.3 1.8-.3 2.8-.7.9-.3 1.7-.8 2.5-1.3 2.2-1.4 4.3-3.1 6.5-4.6 5.6-4.2 11.4-8.3 17.8-11.2 2.5-1.1 5-1.7 7.2-3.5 1.7-1.4 2.9-3.3 3.8-5.2 1.9-4.2 2.5-9 2.5-13.6 0-5.9-1-11.6-1.9-17.4l-.6-4.4c-.3-1.7-2.9-1-2.6.7l1.4 9.5c.4 2.2.6 4 .8 6.3.4 4.4.4 8.9-.6 13.2-.9 4.1-2.8 8.3-6.8 10.2-1.4.7-3 1.1-4.4 1.7-1.7.7-3.3 1.5-4.8 2.4-3.2 1.8-6.2 3.8-9.2 6l-7.5 5.5c-1.5 1.1-3.5 2.7-5.1 3.2-.9.3-2.1.4-3.4.9-1.7.6-3.2 1.5-4.6 2.5-1.1.7-2.1 1.7-3.3 2.2-1.3.7-3.1.4-4.5.3-1.6-.2-2.8-.4-4.3.3-.7.3-1.3.7-1.9 1.1-.3.2-1.1.5-1.4.8 0 0 .1 0 .1.1h-.1c-.1.2-.3-.1-.1-.1-.1-.1-.3-.1-.5-.2-.8 0-1.4-.2-2-.3-1.3-.2-2.9-.4-4.1.3-2.2 1-2.3 4-1.9 6 .5 2.8 2.4 5.2 5.1 6.1 3.1 1.1 6.5.5 9.7-.1.2 0 .5-.1.7-.1-.1-.3-.2-.7-.2-.9 0 .2.2.5.4.6l.2.2h.2c0 .1 0 .1-.1.2.5.4 1.2.6 1.8.8 5.9 1.9 12 2.3 18.1 1.3 1.9-.3 3.7-.7 5.5-1.3 1.4-.4 2.7-1.1 4-1.6 2.5-.9 5.2-1.2 7.8-1.5a145.09 145.09 0 0 1 9.3-.6c2.4-.1 4.9-.2 7.3.3 3.2.6 6.2 1.7 9.4 2.6 3.9 1 8 1.8 12.1 1.8 5.3 0 10.6-1.8 13.8-6.3.9-1.4 1.6-2.9 2.2-4.4 1.1-2.5 2.3-5.4 2.2-8.2 0-1.5-.3-2.9-.5-4.4-.3-2.5-.7-4.9-1.1-7.2zM18.1 80.8c.2 0 .1.1 0 0z"/><path d="M17.5 80.9c.1.4.3.7.5.1-.1 0-.1-.1-.2-.1h-.3zm77.1-43.4c0 1.3-.1 2.7-.6 3.9-.6 1.5-1.6 2.7-2.6 3.8-.1.1-.2.2-.3.2-.4 0-.7-.5-.4-.9 1.3-1.5 2.4-3 2.7-5.1.2-1.5.1-3-.1-4.5l-.7-4.3c0-.2-.1-.5-.1-.7l-.4-2.3c-.2-1.5-.2-3.1-.2-4.6l.1-10.3c0-.5.6-.6.9-.3.1.1.1.2.1.3l-.1 4.7c0 3.9-.3 7.9.5 11.7a58.14 58.14 0 0 1 .9 5.8c0 .2 0 .4.1.6.2.8.2 1.4.2 2z"/></g><path d="M79 83.3c-.1 0-.3 0-.4-.1-.5-.2-1.1-.3-1.6-.5-3-.9-5.6-1.6-7.7-1.7-5.6-.3-14.4.6-19.9 1.8-.9.2-1.7-.4-1.9-1.2-.2-.9.4-1.7 1.2-1.9 6-1.5 14.6-2 20.6-1.8 2.5.1 5.3.9 8.5 1.8.5.2 1 .3 1.6.5.8.2 1.3 1.1 1.1 2-.2.7-.8 1.1-1.5 1.1z" fill="#d07400"/><path d="M107.3 69.7c-1.3 3.4-2.7 6.4-6 8.3-2.8 1.6-6 2-9.2 1.9-4-.1-7.9-1-11.7-2.1-2.9-.8-5.9-1.9-8.9-2.3-2.4-.4-4.9-.2-7.3-.2-3.1.1-6.2.3-9.3.7-1.7.2-3.4.4-5.1.7a4.44 4.44 0 0 0 .8-1.1c.1-.2-.2-.5-.4-.3-.6.7-1.3 1.3-2 1.8-.5.1-.9.3-1.4.4-1.3.4-2.4 1.1-3.7 1.5-1.7.6-3.5 1-5.3 1.3-3 .5-6.2.8-9.3.5-1.7-.2-3.4-.4-5.1-.8 3 .5 7.5.5 13.7-1.4C49.6 74.8 48 69 53.3 68.8s14.3-4 18.3-6.4 5.4.2 9.4-4.6c2.5-3 5.2-5.8 7.6-8.9.9-.9-1-1.7-2.7-2.9-1.8-1.2-3.6-4.2-3.2-4.7.1-.1 1.3 1.4 3.1 3.1 2 1.7 4.9 1.6 5 1.5.1-.2.2-.3.3-.5.1 0 .2-.1.3-.2 1-1.2 2-2.4 2.6-3.8.5-1.2.6-2.6.6-3.9 0-.6 0-1.2-.1-1.9 0-.2 0-.4-.1-.6-.2-2-.6-3.9-.9-5.8-.7-3.8-.5-7.8-.5-11.7 0-1.6 0-3.1.1-4.7 0-.1 0-.3-.1-.3l.2-7.3L108.7 7c-.4.9-.5 2.1-.7 3l-1.4 6.9c-.9 4.7-1.9 9.5-2.1 14.4-.2 3.8.7 7.8 1.3 11.6l2.4 15.4c.3 1.7.5 3.1.6 4.8.2 2.2-.8 4.5-1.5 6.6zm-86.9 5.9l-1.2 2.8c-.8-.5-1.9-.2-2.7 0-2.8.5-6.1 1.3-8.9.1-1.2-.5-2.1-1.6-2.7-2.8 7.6 2 15.5-.1 15.5-.1z" fill="#e7e8ea"/></svg>