<svg xmlns="http://www.w3.org/2000/svg" viewBox="0 0 113.4 85"><path d="M109.9 61.5c-.3-3.8-1.1-7.7-1.7-11.5L106 35.4c-.2-1.5-.4-3-.4-4.6 0-1.9.3-3.8.6-5.7.7-4.9 1.6-9.7 2.7-14.5.2-.7.3-1.5.5-2.2.1-.2.1-.4.2-.7v-.1c1-1.5-1.4-2.8-2.3-1.4-.1.2-.2.4-.3.7-.3.8-.4 1.9-.6 2.7-.5 2.2-.9 4.4-1.4 6.7-.9 4.6-1.8 9.2-2.1 13.8-.2 3.6.6 7.4 1.1 10.9l2.3 14.8c.3 1.7.5 3.3.7 5 .2 1.9.1 3.9.1 5.8s.1 4-.8 5.5c-.8 1.3-1.8 2.4-3.2 3.3-4.4 2.9-10 2.2-15.1 2.1-7.7-.2-15.4-.2-23.1-.1-8.2.1-16.4.5-24.5.9-4.4.2-8.8.8-13.2 0-1.4-.2-2.8-.5-4.2-.9-.5-.1-1-.3-1.6-.4-.3-.1-.7-.4-.9-.4v-.1c-.3-.4-.8-.6-1.3-.6-1 0-2 .3-3 .4-2.6.5-6.2 1-8.4-.8-.6-.5-1.1-1.2-1.5-2-.3-1.1-.4-2.5-.1-3.6.2-.8 1-.7 1.9-.7 1.1.1 2 .5 3 .7 2.3.6 4-2 6.3-2.1 1.6 0 3.2.3 4.8.1 1.5-.2 2.6-.9 4-1.3 3-.8 6.2-.7 9.3-1.3 4.9-1 9.6-3.3 13.9-5.6 3.4-1.8 6.7-3.7 10-5.9 2.3-1.5 5-3 6.7-5.2 2.6-3.3 3.8-7.6 4.7-11.6 1.1-4.7 1.7-9.5 2.1-14.2.3-3.3.5-6.5.6-9.8.1-2.2-.5-4.5-.8-6.7l-.6-4.1c-.3-1.7-2.9-1-2.6.7.4 3 1 6 1.3 8.9 0-.1 0 .1 0 .3v1.2c0 1.5-.1 2.9-.2 4.4-.3 4.4-.7 8.8-1.4 13.2-.7 4.5-1.6 9.1-3.6 13.2-.7 1.5-1.6 2.9-2.9 4-2.9 2.4-6.7 4.6-10.1 6.6-5.1 3-10.4 5.8-16.1 7.4l-2.3.6h-.3c-.5.1-1 .1-1.5.1-1.1.1-2.2.2-3.2.4-1.6.2-3.4.4-4.9 1-.6.2-1.2.6-1.8.8-.8.2-1.7.2-2.6.2-1.4 0-2.8-.4-4.2.1-1.3.4-2.4 1.2-3.6 1.8-.1 0-.2.1-.3.1s-.2 0-.2-.1c-.4-.2-1-.3-1.4-.4-1.3-.3-2.7-.5-4-.2-2.4.5-3 3.1-2.8 5.2.2 2.6 1.5 5.1 3.8 6.4 2.8 1.6 6.2 1.3 9.3.8l1.7-.3c.1 0 .5 0 .8-.1.2.2.5.3.7.4 2.3 1 4.9 1.5 7.4 1.8 2.1.3 4.1.5 6.1.4l19.2-1c8.7-.3 17.4-.4 26-.3 3.4 0 6.9.1 10.3.2 2.5.1 5.1.2 7.6.1 4.8-.3 9.4-2.2 12.1-6.3 1-1.6 1.3-3.2 1.4-5 .2-2.4.3-4.9.1-7.3zm-89.2 15l-.1-.1s0 .1.1.1zm74.7-28.2c-.5 1.5-1.5 2.7-2.5 3.9-.1.1-.2.2-.3.2-.4 0-.7-.5-.4-.9 1.3-1.5 2.4-3.1 2.7-5.1.2-1.6 0-3.3-.2-5l-.6-3.4c0-.1 0-.2-.1-.3l-.5-3c-.2-1.7-.1-3.5-.1-5.2l.1-10.6c0-.5.5-.6.8-.4.1.1.2.2.2.4l-.1 4.7v7.3c0 1.6 0 3.2.3 4.8.5 2.8 1.1 5.7 1.2 8.5 0 1.3 0 2.7-.5 4.1z" fill="#1e1812"/><path d="M46.3 83.6c-.8 0-1.5-.7-1.6-1.5 0-.9.6-1.6 1.5-1.7 7-.4 13.1-.6 18.5-.7l18.1-.1a1.58 1.58 0 1 1 0 3.2c-6.6-.1-12.7-.1-18 .1-5.5.1-11.5.4-18.5.7z" fill="#d07400"/><path d="M107.2 66.6c0 1.9.1 4-.8 5.5-.8 1.3-1.8 2.4-3.2 3.3-4.4 2.9-10 2.2-15.1 2.1-7.7-.2-15.4-.2-23.1-.1-8.2.1-16.4.5-24.5.9-4.4.2-8.8.8-13.2 0-1.4-.2-2.8-.5-4.2-.9-.5-.1-1-.3-1.6-.4-.3-.1-.7-.4-.9-.4v-.1c-.3-.4-.8-.6-1.3-.6-1 0-2 .3-3 .4-2.6.5-6.2 1-8.4-.8-.6-.5-1.1-1.2-1.5-2 7.3 1.9 15-.1 15-.1l-.9 2.2s4.5 1.5 17.2.7L58 75c5.1-.2 14.6-1.6 18.5-4s2.2-5.9 6.1-10.5c2.4-2.9 5.1-2 7.5-5 .8-.8-1-1.6-2.7-2.8s-5.8-4.1-5.5-4.5c.1-.1 3.6 1.4 5.4 3.1 1.9 1.6 4.8 1.6 4.8 1.5.1-.1.2-.3.3-.4.1 0 .2-.1.3-.2 1-1.2 2-2.4 2.5-3.9.5-1.3.6-2.8.5-4.2-.1-2.9-.7-5.7-1.2-8.5-.3-1.6-.2-3.2-.3-4.8v-7.3c0-1.6 0-3.1.1-4.7 0-.2-.1-.3-.2-.4l.2-11.5 12.8.1c-.3.8-.4 1.9-.6 2.7-.5 2.2-.9 4.4-1.4 6.7-.9 4.6-1.8 9.2-2.1 13.8-.2 3.6.6 7.4 1.1 10.9l2.3 14.8c.3 1.7.5 3.3.7 5 .2 1.8.2 3.8.1 5.7z" fill="#e7e8ea"/></svg>