<svg xmlns="http://www.w3.org/2000/svg" viewBox="0 0 99.2 85"><path d="M59.9 44.6c-.9-.7-1.8-1.5-2.5-2.4l-1.1-1.5c-.1-.1-.1-.2-.2-.3-.1-.3-.1-.2 0 .3l.2-.6 1.2-3.5c.4-1.2.5-2.4.7-3.6.6-5 .6-10.1.1-15.1-.1-.6-.5-2.4-1.4-1.9s-.8 2.7-.7 3.4c.5 2.5.7 5 .7 7.6 0 2.5 0 5.3-.7 7.7-.7 2.3-1.9 5-1 7.4.3 1 1.1 1.6 1.8 2.3.9.9 1.8 1.7 2.9 2.5.2.2.5-1.9 0-2.3zm33.3 16.1l-.8-4.1c-.3-1.5-.3-3.1-.2-4.6.2-3.3.3-6.6.1-9.9l-1-9.7c-.4-6.7-.1-13.5-.4-20.2-.1-1.1-1.7-1.1-1.7 0 .1 5.8-.2 11.7-.1 17.5.1 5.5 1.1 11 1.1 16.6 0 .6 0 1.2-.1 1.8l-.3-1.9c-.4-2.9-.6-5.8-1.2-8.7-.1-.7-.5 0-.5.3-.1 3 .4 6.1.9 9.1.2 1.6.5 3.2.8 4.9-.1 1-.1 2-.1 2.9.1 2.7 1 5.4 1.4 8.1a23.75 23.75 0 0 1-.3 8.4c-.2 1.2-.5 2.3-.9 3.5-.3 1.1-.5 2.4-1.2 3.4-1.7 2.7-6.1 2.5-8.9 2.7-1.7.1-3.4.2-5.1.1-2.5-.1-5-1.1-7.2-2.3-2.1-1.1-4-2.6-5.7-4.3-1.6-1.6-2.8-3.6-4.3-5.4-.8-.9-1.6-1.8-2.5-2.6-.9-.9-2-2-3.1-2.6-.2-.1-.5-.3-.8-.4-.5-.4-1-.7-1.6-1-1.1-.6-2.4-1.2-3.6-1.4-.2 0-.2.5 0 .6.9.4 1.9.7 2.8 1.1-.2 0-.4-.1-.5-.1-1.1-.2-2.3-.4-3.5-.5-4.6-.3-8.9 1.2-13.5 1.5-4.8.3-11.3-.7-13.7-5.5-.3-.5-1-.9-1.6-.6-1.9.8-4.1.6-5.7-.7-1.4-1.2-2.7-3.6-1.6-5.4.8-1.4 2.7-3.5 4.4-2.2 1 .8 1.8 1.1 3.1 1 .6-.1 1.2-.1 1.8 0 .1.5.4.9 1 .9 2.1.1 4.3-1.1 6.2-2 1.9-1 3.6-2.2 5.5-3.2 2-1.2 4.1-2.1 6-3.4 1.9-1.2 3.7-2.7 5.8-3.6s4.3-1.7 6.5-2.5c2.1-.8 3.9-2.2 4.7-4.3.8-2 1.1-4.2 1.2-6.4.1-2.6.1-5.1 0-7.7-.1-2.9-.3-5.7-.3-8.6 0-2.5 0-5-.6-7.5-.2-.9-1.7-.7-1.6.2.3 2.1.1 4.2.1 6.3l.1 7.2c.1 2.4.2 4.8.1 7.2-.1 2.1-.1 4.2-.5 6.2-.5 2.3-1.5 4.1-3.8 5l-6.2 2.4c-2 .8-3.7 2-5.5 3.2s-3.6 2.2-5.5 3.2c-2.1 1.1-4 2.4-6 3.6-.1 0-.1.1-.2.1h-.4l-1.4.3-2 .3h-.2c-.5-.2-.9-.3-1.5-.4-.8-.1-1.4-.3-2.1-.5-.9-.2-2.1 0-2.8.6l-.1-.1c-.6-.4-1.3-.6-2-.7-2.9-.3-5.7 2.3-6.6 4.9-1 2.7.5 6.1 2.5 7.9s4.9 2.4 7.5 1.8c2.7 4.1 7.9 5.4 12.6 5.8 4.1.4 8.1-.8 12.2-1.3 2.2-.3 4.5-.3 6.7.1 1.2.2 2.6.5 3.7 1.1 1.2.7 2.2 1.8 3.2 2.8 1.8 1.8 3.1 3.9 4.7 5.8s3.6 3.6 5.7 4.9c2.1 1.4 4.4 2.4 6.8 3.1 2.3.7 4.6.5 7 .4 3.4 0 7.3-.1 10.3-1.8 1.7-.9 2.7-2.4 3.3-4.3.8-2.7 1.5-5.4 1.9-8.2.1-2.5-.1-5.3-.7-8.2zm-25.9.8c1.5-2.8 1-6.6-.2-9.4-.2-.4-.4-.3-.6 0-.2.4-.1 1.1 0 1.5.8 2.1.3 4-.4 6.1-.2.7.4 3.3 1.2 1.8z" fill="#1e1812"/><path d="M66.8 75.8h-1.1c-.8 0-1.3-.7-1.3-1.4 0-.8.7-1.3 1.4-1.3l2.6-.1c.8-.1 1.4.5 1.5 1.2.1.8-.5 1.4-1.2 1.5-.6.1-1.3.1-1.9.1zm-5.4-.8c-.1 0-.3 0-.4-.1-1-.3-1.9-.6-2.8-1-.7-.3-1-1.1-.7-1.8s1.1-1 1.8-.7a10.64 10.64 0 0 0 2.5.9c.7.2 1.2 1 .9 1.7-.2.7-.7 1-1.3 1zm11.5-.2c-.6 0-1.1-.4-1.3-.9-.2-.7.2-1.5.9-1.7l2.4-1c.7-.3 1.5-.1 1.8.6s.1 1.5-.6 1.8l-2.8 1.1c-.1.1-.3.1-.4.1zm-18-3c-.3 0-.6-.1-.8-.3-.8-.6-1.6-1.3-2.3-2-.5-.5-.5-1.4 0-1.9s1.4-.5 1.9 0a16.32 16.32 0 0 0 2 1.7c.6.5.7 1.3.3 1.9-.2.4-.6.6-1.1.6zm24.3-.5c-.4 0-.8-.2-1.1-.5-.5-.6-.4-1.5.2-1.9l1.9-1.8c.5-.6 1.4-.6 1.9-.1.6.5.6 1.4.1 1.9L80 71c-.2.2-.5.3-.8.3zm-29.1-4.8c-.5 0-.9-.2-1.2-.6-.5-.9-1-1.7-1.4-2.7-.3-.7 0-1.5.7-1.8s1.5 0 1.8.7c.3.8.8 1.6 1.2 2.3.4.6.2 1.5-.4 1.9-.2.1-.5.2-.7.2zm33.7-.7c-.2 0-.5-.1-.7-.2-.7-.4-.9-1.2-.5-1.9l1.1-2.4c.3-.7 1.1-1.1 1.8-.8s1.1 1.1.8 1.8c-.4.9-.8 1.9-1.3 2.7-.2.6-.7.8-1.2.8zm-36.3-6c-.6 0-1.2-.5-1.3-1.1-.2-1-.3-2-.3-3 0-.8.6-1.4 1.3-1.4.8 0 1.4.6 1.4 1.3 0 .9.1 1.7.3 2.6.1.7-.4 1.5-1.1 1.6h-.3zm38.7-.8H86c-.8-.1-1.3-.8-1.2-1.6l.2-2.6c0-.8.6-1.4 1.4-1.4s1.4.6 1.4 1.4c0 1-.1 2-.2 3-.2.7-.8 1.2-1.4 1.2zm-38.7-6.4h-.3c-.7-.1-1.2-.9-1.1-1.6.2-1 .4-2 .8-2.9.2-.7 1-1.1 1.7-.9s1.1 1 .9 1.7c-.3.8-.5 1.7-.7 2.5-.1.7-.7 1.2-1.3 1.2zm38.4-.9c-.6 0-1.2-.4-1.3-1.1a24.13 24.13 0 0 0-.8-2.5c-.3-.7.1-1.5.8-1.8s1.5.1 1.8.8c.4.9.7 1.9.9 2.9.2.7-.3 1.5-1 1.6-.2.1-.3.1-.4.1zm-35.8-5.8c-.2 0-.5-.1-.7-.2-.6-.4-.8-1.2-.4-1.9.5-.9 1.1-1.7 1.8-2.4.5-.6 1.4-.7 1.9-.2.6.5.7 1.4.2 1.9-.6.7-1.1 1.4-1.5 2.1-.4.4-.9.7-1.3.7zm32.9-.8c-.4 0-.9-.2-1.1-.6l-1.6-2.1c-.5-.6-.5-1.4.1-1.9s1.4-.5 1.9.1c.7.7 1.3 1.5 1.9 2.4.4.6.3 1.5-.4 1.9-.3.2-.6.2-.8.2zm-28.1-4.6c-.4 0-.8-.2-1.1-.5-.5-.6-.3-1.5.3-1.9.8-.6 1.6-1.2 2.5-1.6.7-.4 1.5-.1 1.9.5.4.7.1 1.5-.5 1.9-.8.4-1.5.9-2.2 1.4-.3.2-.6.2-.9.2zm23-.5c-.3 0-.5-.1-.8-.2-.7-.5-1.5-.9-2.3-1.3-.7-.3-1-1.2-.6-1.8.3-.7 1.2-1 1.8-.6.9.4 1.8 1 2.6 1.5.6.4.8 1.3.3 1.9-.1.3-.6.5-1 .5zm-16.5-2.7c-.6 0-1.1-.4-1.3-1-.2-.7.2-1.5.9-1.7 1-.3 2-.5 3-.6.8-.1 1.4.4 1.5 1.2s-.4 1.4-1.2 1.5c-.9.1-1.7.3-2.6.5-.1.1-.2.1-.3.1zm9.9-.2H71c-.8-.2-1.7-.3-2.6-.4-.8-.1-1.3-.7-1.2-1.5s.7-1.3 1.5-1.2c1 .1 2 .3 3 .5.7.2 1.2.9 1 1.7-.2.5-.8.9-1.4.9z" fill="#d07400"/></svg>