<svg xmlns="http://www.w3.org/2000/svg" viewBox="0 0 99.2 85"><path d="M94.5 52.3c-.1-3.4 0-6.7-.2-10.1-.3-3.6-1-7.1-1.4-10.7-.9-7.3-.4-14.7-1.2-21.9-.2-1.8-2.9-1.9-2.8 0l.8 18.8c.4 6.1 1.9 12 1.9 18.2 0 5.3.4 10.8-.4 16-.4 2.7-.9 5.4-1.4 8-.4 2.2-1 4.3-2.6 5.9-1.2 1.2-2.7 2.2-4.2 3-1.7.9-3.9 1.2-5.8 1.3-2.8.2-5.7-.1-8.5-.5-2.4-.4-4.7-1-6.8-2.3-1-.6-2-1.4-2.7-2.3-.7-1-1-2.2-1.3-3.3-.4-1.4-.7-2.8-1.3-4 0-.2-.1-.3-.1-.4-.4-1.1-.8-2.2-1.1-3.4-.3-1-.4-2.1-.8-3.1-.3-.7-.6.3-.6.6 0 1.1.2 2.2.5 3.3-1.1-1.2-2.6-2.3-4.1-2.9 0-.1-.1-.1-.1-.1-1.1-.3-2.2-.7-3.2-1.2-.9-.5-1.7-1.1-2.6-1.6-.2-.1-.2.6-.1.7.6.8 1.4 1.4 2.3 1.9-1.5.1-3 .3-4.4.7-2.5.7-4.9 1.7-7.5 2.2s-5.3.2-7.9 0c-1.3-.1-2.7-.3-3.9-.7-.9-.3-1.8-.9-2.5-1.4-1.8-1.3-3.7-3-4.8-5-.3-.5-.9-.7-1.4-.6-2.1.4-4.3-.4-5.6-2.1-.6-.8-1-1.7-1.2-2.7-.2-1.2.2-2.1.9-3.1.6-.8 1.4-1.6 2.4-1.9 1.1-.3 1.7.2 2.5.8.9.7 1.8.5 2.9.4.5-.1 1-.1 1.4 0-.1.7.3 1.5 1.1 1.4 4.6-.5 9-2.6 12.7-5.3 3.9-2.8 7.9-6.4 13-6.1 1.1.1 2.3.2 3.4-.1 1-.3 1.9-1 2.7-1.7 1.7-1.5 2.8-3.5 3.7-5.5.7-1.4 1.2-2.8 1.4-4.3.3-2.3.2-4.8.1-7.1 0-.6-.1-1.2-.1-1.7.5 2.4.8 4.7.9 7.1.1 1.3.1 2.6 0 3.9 0 .7-.1 1.3-.1 2 0 .3 0 .6-.1.9 0 0-.2.8-.2.7-.6 2.4-1.7 5.3-.8 7.7.4 1 1.2 1.6 1.9 2.3 1 .9 2 1.7 3.1 2.4.5.3.7-1.9.2-2.3a28.48 28.48 0 0 1-2.6-2.3c-.5-.5-.9-1-1.3-1.6-.1-.1-.1-.2-.2-.3v-.1c0-.1.1-.3.1-.3.3-1.2.7-2.4 1.1-3.6s.5-2.5.6-3.8c.4-5.2.2-10.4-.5-15.6-.1-.6-.6-2.7-1.6-1.8-.9.6-1.1 1.3-1.1 2.1-.2-1.6-.5-3.2-.7-4.8-.4-3-.8-6.3-2.3-9-.7-1.3-2.6-.4-2.3 1 .3 1.2.8 2.4 1.1 3.6s.6 2.5.8 3.8c.4 2.5.8 5 1 7.6.2 2.5.2 4.9.2 7.4 0 1.4-.2 2.8-.8 4.1-.7 1.7-1.6 3.6-2.9 5-.6.5-1.3 1.2-2.1 1.5-1 .4-2.3.1-3.4.1-4.6-.1-9 2.7-12.4 5.5-1.8 1.5-3.8 2.8-5.9 3.9-.3.2-.6.3-1 .4-.3 0-.6-.1-.9-.1-.8-.1-1.6 0-2.4 0h-.3c-.7-.2-1.4-.3-2.1-.3-.8-.1-1.5-.5-2.4-.5-.8 0-2.1.1-2.9.7-.3-.2-.7-.4-1.1-.5-3-.8-5.5 1.6-6.8 4-1.5 2.5-.4 5.8 1.4 7.9 1.7 2 4.3 2.9 6.9 2.7 1.1 1.6 2.5 3 3.9 4.2 1.6 1.3 3.2 2.5 5.3 3 2.5.6 5.2.7 7.7.9 2.4.1 4.9-.3 7.2-1s4.5-1.6 6.9-2c1.2-.2 2.4-.3 3.6-.2s2.1.8 3 1.5a12.38 12.38 0 0 1 2.5 2.6c.7 1.1 1 2.4 1.3 3.6.6 2.5 1.3 4.6 3.3 6.4 4.1 3.6 9.8 4.4 15 4.7 4.5.3 9-.2 12.8-2.8 1.7-1.2 3.5-2.6 4.5-4.4 1.3-2.3 1.7-5 2.1-7.6.4-2.8 1.1-5.5 1.4-8.4.3-2.6.4-5.3.3-8zm-29.3 1c.3 2 .4 4 .2 6-.3.5-.5.9-.7 1.4-.2.6-.3 1.4 0 2.1.1.4.6.9 1 .4 1.2-2 2.2-4.2 2-6.6-.2-2.7-1.4-4.8-3.2-6.7-.6-.6-.7 1.5-.4 1.9.4.4.7.9 1.1 1.5z" fill="#1e1812"/><path d="M65 77.6h-1.1c-.8 0-1.4-.7-1.3-1.5 0-.8.7-1.4 1.5-1.3l2.7-.1c.8-.1 1.5.5 1.5 1.3.1.8-.5 1.5-1.3 1.5-.6.1-1.3.1-2 .1zm-5.5-.8c-.1 0-.3 0-.4-.1-1-.3-2-.6-2.9-1.1-.7-.3-1-1.2-.7-1.9s1.2-1 1.9-.7c.8.4 1.7.7 2.5.9a1.37 1.37 0 0 1 1 1.7c-.2.8-.8 1.2-1.4 1.2zm11.9-.2c-.6 0-1.1-.4-1.3-1-.2-.7.2-1.5.9-1.8.9-.3 1.7-.6 2.5-1 .7-.3 1.6-.1 1.9.6s.1 1.5-.6 1.9c-.9.5-1.9.9-2.9 1.2-.3.1-.4.1-.5.1zm-18.5-3.1c-.3 0-.6-.1-.9-.3-.8-.6-1.6-1.3-2.3-2-.6-.6-.5-1.5 0-2 .6-.6 1.5-.5 2 0 .6.6 1.3 1.2 2 1.8a1.55 1.55 0 0 1 .3 2c-.3.3-.7.5-1.1.5zm25-.5c-.4 0-.8-.2-1.1-.5-.5-.6-.4-1.5.2-2 .7-.6 1.4-1.2 2-1.9.5-.6 1.4-.6 2-.1s.6 1.4.1 2c-.7.8-1.5 1.5-2.2 2.1-.4.3-.7.4-1 .4zm-30.1-5c-.5 0-.9-.2-1.2-.7l-1.4-2.7c-.3-.7 0-1.6.7-1.9s1.6 0 1.9.7l1.3 2.4c.4.7.2 1.5-.5 1.9-.2.3-.5.3-.8.3zm34.8-.7c-.2 0-.5-.1-.7-.2-.7-.4-.9-1.2-.5-1.9l1.2-2.4c.3-.7 1.1-1.1 1.8-.8s1.1 1.1.8 1.8c-.4 1-.8 1.9-1.3 2.8-.3.5-.8.7-1.3.7zm-37.4-6.2c-.7 0-1.3-.5-1.4-1.2-.2-1-.3-2-.3-3.1 0-.8.6-1.4 1.4-1.5.8 0 1.4.6 1.5 1.4 0 .9.1 1.8.3 2.7.1.8-.4 1.5-1.1 1.7h-.4zm39.8-.8h-.2c-.8-.1-1.3-.8-1.2-1.6l.2-2.7c0-.8.6-1.4 1.4-1.4s1.4.6 1.4 1.4v.1c0 1-.1 2.1-.2 3.1-.1.6-.7 1.1-1.4 1.1zm-39.8-6.6h-.3c-.8-.1-1.3-.9-1.1-1.6.2-1 .5-2 .8-3 .3-.7 1.1-1.1 1.8-.9.7.3 1.1 1.1.9 1.8-.3.8-.5 1.7-.7 2.6-.2.6-.8 1.1-1.4 1.1zm39.5-.9c-.6 0-1.2-.4-1.4-1.1-.2-.9-.5-1.7-.8-2.6-.3-.7.1-1.5.8-1.8s1.5.1 1.8.8c.4 1 .7 2 .9 3 .2.8-.3 1.5-1.1 1.7h-.2zm-36.9-6c-.3 0-.5-.1-.7-.2-.7-.4-.9-1.3-.5-1.9.5-.9 1.2-1.7 1.8-2.5.5-.6 1.4-.7 2-.2s.7 1.4.2 2c-.6.7-1.1 1.4-1.6 2.2-.2.3-.7.6-1.2.6zm33.9-.8c-.5 0-.9-.2-1.2-.6-.5-.7-1.1-1.5-1.7-2.1-.5-.6-.5-1.5.1-2s1.5-.5 2 .1l1.9 2.4c.4.6.3 1.5-.4 2-.1.2-.4.2-.7.2zm-28.9-4.7c-.4 0-.9-.2-1.1-.6-.5-.6-.4-1.5.3-2 .8-.6 1.7-1.2 2.6-1.7.7-.4 1.5-.1 1.9.6s.1 1.5-.6 1.9c-.8.4-1.5.9-2.3 1.5-.2.2-.5.3-.8.3zm23.7-.5c-.3 0-.6-.1-.8-.3a17.61 17.61 0 0 0-2.3-1.4c-.7-.3-1-1.2-.6-1.9.3-.7 1.2-1 1.9-.6l2.7 1.6c.6.4.8 1.3.4 2-.4.4-.9.6-1.3.6zm-17-2.8c-.6 0-1.2-.4-1.4-1-.2-.8.2-1.5 1-1.8 1-.3 2-.5 3-.6.8-.1 1.5.4 1.6 1.2s-.4 1.5-1.2 1.6c-.9.1-1.8.3-2.6.6h-.4zm10.2-.3h-.3c-.9-.2-1.8-.4-2.7-.4-.8-.1-1.4-.8-1.3-1.5.1-.8.8-1.4 1.5-1.3 1 .1 2.1.3 3.1.5.8.2 1.2.9 1 1.7-.1.6-.6 1-1.3 1z" fill="#d07400"/></svg>