<svg xmlns="http://www.w3.org/2000/svg" viewBox="0 0 99.2 85"><path d="M96.3 69.1c-.3-1.3-.9-2.6-1.6-3.7-1.5-2.4-3.5-4.4-4.9-6.9-.6-1.1-.9-2.2-.9-3.5 0-.7.2-1.5.2-2.2a8.33 8.33 0 0 0-.3-2.2c-.2-1.3-.6-2.7-.5-4.1 0-.4.1-.8.1-1.2l.1-4.3.5-27.3c0-.7.1-1.4.1-2 .1-1-1.5-1.2-1.7-.2-.7 3.7-.8 7.5-.9 11.3-.2 4.8-.2 9.6-.3 14.4 0 1.9-.1 3.8-.1 5.7 0 .7 0 1.3-.1 2v.7c0 .1-.1.8 0 .2-.4 2.5.6 4.7.6 7.2 0 1.5-.4 2.8 0 4.3.3 1.2.9 2.4 1.6 3.5 1.5 2.3 3.5 4.4 4.8 6.8 1.1 2 1.1 4.4.5 6.6-.6 2.5-2.1 3.9-4.4 4.7-2.8.9-5.7 1.2-8.6 1.4-1.8.1-3.6.3-5.4.1-1.2-.1-2.3-.4-3.4-.7-2.8-.7-5.5-1.7-8.2-2.7-2.6-1-5.1-2.1-7.6-3.3-1.7-.8-3.4-1.7-5.1-2.5-5-2.3-10.1-4.2-15.3-5.8-2.6-.8-5.1-1.5-7.8-1.9-3.3-.5-6.7-.6-9.6-2.4-1.4-.8-2.5-1.9-3.2-3.4-.3-.5-1-.9-1.6-.6-3.1 1.2-6.7-.2-7.6-3.6-.2-.8-.3-1.6 0-2.4.3-.7.9-1.4 1.5-2 .5-.5 1.2-.9 1.9-.9.9 0 1.3.6 2 1 .8.5 1.6.4 2.5.3s1.8-.1 2.7.2c.4.1.8.4 1.2.5.5.2.9.2 1.4.1.9-.1 1.8-.2 2.6-.2 3.5-.2 7.1-.4 10.6-1.5 3-.9 5.8-2.2 8.7-3.3 2.6-.9 6-1.6 7.8-3.9s1.9-5.2 2.3-8l.9-8.7c.6-7.3 1.1-14.7.5-22-.1-1.8-2.9-1.8-2.8 0 .2 2.8.1 5.7.1 8.5-.1 3.9-.3 7.7-.6 11.6l-.9 9.8c-.2 2.4-.1 5.7-2 7.4-1 .9-2.5 1.3-3.7 1.7l-4.7 1.7c-2.2.8-4.3 1.7-6.5 2.4-1.1-.3-1.9-1.6-3.1-1.8-.5-.1-1.1.1-1.5.2-.8.2-1.7.4-2.5.8-.1 0-.1.1-.1.2-.2-.1-.4-.2-.6-.2-.3-.1-.6 0-1 0-.5 0-.9-.1-1.4-.1-.9 0-2 .4-2.9.7-.1 0-.2-.1-.3-.1-1.1-.3-2.2-.7-3.3-.2-.5.3-1.1.8-1.5 1.4-.3 0-.5 0-.8-.3-1.4-1.2-3.2-1.5-4.9-.8-1.8.7-3.4 2.5-4.2 4.2-.9 1.9-.4 4.2.5 5.9 1.8 3.4 5.8 5 9.4 4.1 1.8 2.7 4.7 4.3 7.8 5.1 2.9.7 5.9.8 8.8 1.5 5.7 1.3 11.3 3.3 16.7 5.5 4.1 1.7 8 3.8 12.1 5.6 5.3 2.3 10.8 4.6 16.6 5.3 1.8.2 3.6 0 5.4-.1 1.7-.1 3.4-.3 5.1-.5 2.4-.4 5-.9 7.1-2.4 2.4-1.7 3.4-4.5 3.7-7.3a9.71 9.71 0 0 0 0-3.4zM26.5 45.8c.6-.1 1.1-.4 1.7-.1.4.2.8.4 1.2.7-.5.1-1.1.3-1.7.4-.4.1-.9.1-1.3.2-.3-.2-.6-.5-.9-.7l-.2-.2c.4-.2.8-.3 1.2-.3zm-3 .8c.3.1.5.3.8.5-.5 0-1 .1-1.5.1-.7-.3-1.3-.6-2-.8h-.1c1.1-.2 2-.2 2.8.2zm29-23.9v1.8a16.28 16.28 0 0 1-.3 3.1l-.9 6.8-1 5.6c0 .1-.1.3-.1.4-.1.3 0 .1 0 .1 0 .1-.2.5-.2.4-.6 1.1-1.1 2.1-1.3 3.4-.5 3.2.8 5.9 3.4 7.8.4.3.7-1.9.2-2.3-1-.8-2.3-1.9-2.5-3.3-.1-.7.3-1.3.6-1.9.7-1.2 1.1-2.2 1.4-3.5.9-3.8 1.5-7.8 2.1-11.7l.3-2.1c0-.2.1-.5.1-.7v-.3c-.1.7.1-.4.1-.5l.3-2.5c0-.8.1-3.2-1-3.5-1.1-.2-1.2 2.3-1.2 2.9zm13.9 48c1 .5 1-2.4.5-2.8-1.6-1.5-3.6-3-3.5-5.5 0-.3 0-1.2-.3-1.3-.4-.1-.5.5-.5.8-.2 1.7 0 3.3.6 4.9.7 1.4 1.8 3.1 3.2 3.9z" fill="#1e1812"/><path d="M65.9 83.6h-1.1c-.8 0-1.4-.7-1.3-1.5 0-.8.7-1.4 1.5-1.3l2.6-.1c.8-.1 1.4.5 1.5 1.3s-.5 1.4-1.3 1.5c-.5.1-1.2.1-1.9.1zm-5.4-.7c-.1 0-.3 0-.4-.1l-2.9-1c-.7-.3-1-1.1-.7-1.8s1.1-1 1.8-.7a10.64 10.64 0 0 0 2.5.9c.7.2 1.2 1 1 1.7-.1.6-.7 1-1.3 1zm11.6-.3c-.6 0-1.1-.4-1.3-1-.2-.7.2-1.5.9-1.8.8-.3 1.7-.6 2.4-1 .7-.3 1.5-.1 1.9.6.3.7.1 1.5-.6 1.9-.9.5-1.9.8-2.8 1.2-.2.1-.3.1-.5.1zm-18.1-3c-.3 0-.6-.1-.8-.3-.8-.6-1.6-1.3-2.3-2-.5-.5-.5-1.4 0-2 .5-.5 1.4-.5 2 0a16.32 16.32 0 0 0 2 1.7c.6.5.7 1.3.3 1.9-.3.5-.7.7-1.2.7zm24.5-.5c-.4 0-.8-.2-1.1-.5-.5-.6-.4-1.5.2-2l1.9-1.8c.5-.6 1.4-.6 2-.1s.6 1.4.1 2c-.7.7-1.4 1.5-2.2 2.1-.3.2-.6.3-.9.3zm-29.4-4.8c-.5 0-.9-.2-1.2-.7l-1.4-2.7c-.3-.7 0-1.5.7-1.8s1.5 0 1.8.7l1.2 2.3c.4.6.2 1.5-.4 1.9-.2.2-.4.3-.7.3zm34.1-.7c-.2 0-.5-.1-.7-.2-.7-.4-.9-1.2-.5-1.9l1.1-2.4c.3-.7 1.1-1.1 1.8-.8s1.1 1.1.8 1.8c-.4.9-.8 1.9-1.3 2.7-.3.5-.7.8-1.2.8zm-36.7-6.1c-.7 0-1.2-.5-1.4-1.1-.2-1-.3-2-.3-3 0-.8.6-1.4 1.3-1.4.8 0 1.4.6 1.4 1.3a10.9 10.9 0 0 0 .3 2.6c.1.8-.4 1.5-1.1 1.6h-.2zm39-.8h-.2c-.8-.1-1.3-.8-1.2-1.6l.2-2.6c0-.8.6-1.4 1.4-1.4s1.4.6 1.4 1.4c0 1-.1 2-.2 3-.1.7-.7 1.2-1.4 1.2zm-39-6.5h-.3c-.8-.1-1.3-.9-1.1-1.6.2-1 .4-2 .8-2.9.2-.7 1-1.1 1.8-.9.7.2 1.1 1 .9 1.8-.3.8-.5 1.7-.7 2.6a1.41 1.41 0 0 1-1.4 1zm38.7-.8c-.6 0-1.2-.4-1.3-1.1-.2-.9-.5-1.7-.8-2.5-.3-.7.1-1.5.8-1.8s1.5.1 1.8.8c.4.9.7 1.9.9 2.9.2.7-.3 1.5-1 1.7h-.4zm-36.1-5.9c-.2 0-.5-.1-.7-.2-.7-.4-.9-1.3-.4-1.9.5-.9 1.1-1.7 1.8-2.5.5-.6 1.4-.7 2-.2s.7 1.4.2 2c-.6.7-1.1 1.4-1.5 2.1-.5.4-.9.7-1.4.7zm33.2-.8c-.4 0-.9-.2-1.1-.6L79.6 50c-.5-.6-.5-1.4.1-2 .6-.5 1.4-.5 2 .1.7.7 1.3 1.5 1.9 2.4.4.6.3 1.5-.4 1.9-.4.2-.6.3-.9.3zM54 48.1c-.4 0-.8-.2-1.1-.5-.5-.6-.3-1.5.3-1.9l2.5-1.7c.7-.4 1.5-.1 1.9.5.4.7.1 1.5-.5 1.9-.8.4-1.5.9-2.2 1.4-.3.2-.6.3-.9.3zm23.2-.5c-.3 0-.5-.1-.8-.2-.7-.5-1.5-1-2.3-1.3-.7-.3-1-1.2-.6-1.9.3-.7 1.2-1 1.9-.6.9.4 1.8 1 2.6 1.5.6.4.8 1.3.4 1.9-.4.4-.8.6-1.2.6zm-16.7-2.8c-.6 0-1.2-.4-1.3-1a1.37 1.37 0 0 1 1-1.7c1-.3 2-.5 3-.6.8-.1 1.5.4 1.6 1.2s-.4 1.5-1.2 1.6c-.9.1-1.7.3-2.6.5h-.5zm10-.2h-.3c-.9-.2-1.7-.3-2.6-.4-.8-.1-1.3-.7-1.3-1.5.1-.8.7-1.3 1.5-1.3 1 .1 2 .3 3 .5.7.2 1.2.9 1 1.7-.1.6-.6 1-1.3 1z" fill="#d07400"/></svg>