<svg xmlns="http://www.w3.org/2000/svg" viewBox="0 0 99.2 85"><path d="M95.8 65.8c-1.1-2.4-2.9-4.4-4.7-6.3L85.8 54c0-3.5 0-7.1-.2-10.6-.3-4.1-.8-8.2-1.3-12.2V31c.2-1.3.5-2.5.7-3.8 1.1-5.7 2.5-11.4 3.6-17.1.1-.4.2-.9.2-1.3 0-.2.1-.3.1-.5s.1-1 .1-.5c.2-.8-.2-1.5-1-1.8-.7-.2-1.7.2-1.8 1-.7 4.6-1.9 9.1-2.9 13.6-1.3 6.3-2.5 12.7-3.3 19.1-.3 2.6-.7 5.5-.4 8.1.4 2.8 1.7 5.2 3.4 7.4 1.7 2.1 3.6 4 5.5 5.9 1.7 1.7 3.5 3.5 4.6 5.7.5 1.1.7 2 .5 3.2-.3 1.6-1 3.1-1.9 4.5-1.8 2.6-4.6 3.4-7.6 3.7-6.5.8-12.6-.7-18.8-2.3-7-1.9-13.9-4.1-20.7-6.5-7.2-2.6-14.2-5.5-21.4-8.1-1-.4-2.1-.7-3.1-1.1l-.9-.3c-.1 0-.2-.1-.3-.1-.1-.1-.6-.3-.6-.3-.8-.5-1.6-1-2.3-1.5s-1.4-1.2-2.2-1.5c-.8-.4-2-.1-2.9-.3-1-.2-2-.6-2.9-1.1-1.6-.9-2.3-2-2.7-3.7-.2-.9-.6-3 .3-3.6.6-.4 1.9-.5 2.6-.5 1.3-.1 2.6.5 3.9.8.6.1 1.1 0 1.7 0 .3 0 .7.1 1 .1.1.4.5.8 1.1.8 1.6.1 3.3-.1 5-.2 2.1-.2 4.2-.4 6.3-.7 4.1-.5 8.1-1.1 12.1-1.9.8-.2 1.7-.3 2.5-.5.4 1 .9 1.9 1.6 2.8 1.1 1.5 2.3 3 3.5 4.4 1 1.1 2.8-.3 2-1.5-1.4-2.3-3.8-4.1-4.6-6.7-1-3.1.7-6.6 1.6-9.6 1-3.1 2.4-6 3.1-9.2.7-3.4.7-7 1-10.5.3-4.2.7-8.3.7-12.5 0-1.7-2.7-1.7-2.7 0 0 3.8-.4 7.5-.7 11.3l-.5 5.9c-.1 1.6-.2 3.3-.5 4.9-.7 3.2-2.1 6.3-3.1 9.4-.9 2.8-2.1 5.8-2 8.8-.7.2-1.4.3-2 .5l-3.4.6c-.1-.1-.3-.2-.4-.3-.6-.4-1.4-.9-2.2-1-1.4-.1-3 0-4.3.4-.3-.1-.6-.2-.9-.1-1.5.1-3.1.3-4.6.8-.3-.1-.5-.1-.8-.1h-2.1c-.9.1-1.9.5-2.8.8-1.2-.3-2.3-.8-3.6-.3-.7.2-1.5.7-2 1.2-1.3-.4-2.5-.9-3.8-.8-2.5 0-5.2.7-5.6 3.6a10.79 10.79 0 0 0 .6 5c.7 1.8 1.9 3 3.6 3.9.8.4 1.6.8 2.5 1.1.5.2 1.1.3 1.7.4.5.1 1.3 0 1.7.1.6.2 1.4.9 1.9 1.3.9.6 1.7 1.2 2.7 1.6 1.7.8 3.6 1.4 5.4 2l10.7 4c7.6 3 15.3 5.9 23.1 8.3l10.1 2.9c2.8.7 5.5 1.5 8.4 1.8 3.9.5 8.1.5 11.9-.3 3.4-.7 6-2.6 7.7-5.7.9-1.6 1.5-3.3 1.7-5.1.3-1.4 0-2.6-.6-4zM82.5 46.2c0-2.8.3-5.5.7-8.3v.3l.6 5.5v.9c0 .6 0 1.2.1 1.8 0 1.2 0 2.4.1 3.7v1.5c-.9-1.8-1.5-3.5-1.5-5.4zm-66.1.3c-.1 0-.1-.1 0 0-.1-.1 0 0 0 0zm17-2l-1.7.3c-.1-.1-.3-.2-.4-.3h.2c.6 0 1.3-.1 1.9 0zm-5.3.3c.4 0 .9.2 1.2.4-.5.1-1.1.2-1.6.2 0-.1-.1-.1-.1-.1a3.08 3.08 0 0 1-1.3-.3c.7-.1 1.2-.3 1.8-.2zm-5.3.7a3.08 3.08 0 0 1 1.3.3c-.5.1-1 .1-1.5.2l-.9-.3c-.2-.1-.4-.1-.6-.2h1.7zm40 25.2c1 .3.8-2.8.1-3.2-1.4-.9-2.7-1.7-3.7-3.1-.8-1.2-1.7-2.9-1.8-4.3 0-.3-.1-1.1-.5-1.1s-.4.9-.4 1.1c0 2.2.7 4.4 1.7 6.3s2.5 3.8 4.6 4.3z" fill="#1e1812"/><path d="M61.4 83.6h-1.1c-.8 0-1.4-.7-1.4-1.5s.7-1.4 1.5-1.4l2.8-.1c.8-.1 1.5.5 1.6 1.3s-.5 1.5-1.3 1.6c-.7.1-1.4.1-2.1.1zm-5.6-.8c-.1 0-.3 0-.4-.1-1-.3-2-.7-3-1.1-.7-.3-1.1-1.2-.7-1.9.3-.7 1.2-1.1 1.9-.7.8.4 1.7.7 2.6.9.8.2 1.2 1 1 1.8-.2.7-.8 1.1-1.4 1.1zm12.1-.2c-.6 0-1.2-.4-1.4-1a1.38 1.38 0 0 1 .9-1.8c.9-.3 1.7-.6 2.5-1 .7-.4 1.6-.1 1.9.6.4.7.1 1.6-.6 1.9-.9.5-1.9.9-2.9 1.2-.1.1-.3.1-.4.1zM49 79.5c-.3 0-.6-.1-.9-.3a22.53 22.53 0 0 1-2.4-2.1c-.6-.6-.6-1.5 0-2 .6-.6 1.5-.6 2 0 .6.7 1.3 1.3 2.1 1.8.6.5.8 1.4.3 2-.2.4-.7.6-1.1.6zm25.5-.6c-.4 0-.8-.2-1.1-.5-.5-.6-.4-1.5.2-2 .7-.6 1.4-1.2 2-1.9.5-.6 1.5-.6 2-.1.6.5.6 1.5.1 2-.7.8-1.5 1.5-2.3 2.2-.2.2-.5.3-.9.3zm-30.6-5c-.5 0-1-.2-1.2-.7-.6-.9-1.1-1.8-1.5-2.8-.3-.7 0-1.6.7-1.9s1.6 0 1.9.7c.4.8.8 1.7 1.3 2.4.4.7.2 1.6-.5 2a1.08 1.08 0 0 1-.7.3zm35.5-.8c-.2 0-.5-.1-.7-.2-.7-.4-.9-1.3-.5-2 .5-.8.8-1.6 1.2-2.5.3-.7 1.1-1.1 1.9-.8.7.3 1.1 1.1.8 1.9-.4 1-.8 1.9-1.4 2.9-.3.5-.8.7-1.3.7zm-38.3-6.3c-.7 0-1.3-.5-1.4-1.2-.2-1-.3-2.1-.4-3.2 0-.8.6-1.5 1.4-1.5s1.5.6 1.5 1.4c0 .9.1 1.8.3 2.7.1.8-.4 1.5-1.2 1.7 0 .1-.1.1-.2.1zm40.8-.9h-.2c-.8-.1-1.3-.8-1.2-1.6l.2-2.8c0-.8.6-1.4 1.4-1.4s1.4.6 1.4 1.4c0 1.1-.1 2.1-.2 3.2-.1.7-.7 1.2-1.4 1.2zm-40.8-6.7h-.3c-.8-.1-1.3-.9-1.2-1.7.2-1 .5-2.1.8-3.1.3-.8 1.1-1.2 1.8-.9.8.3 1.2 1.1.9 1.8-.3.9-.5 1.8-.7 2.7 0 .7-.6 1.2-1.3 1.2zm40.4-.9c-.7 0-1.3-.5-1.4-1.1-.2-.9-.5-1.8-.8-2.6-.3-.7.1-1.6.8-1.9s1.6.1 1.9.8c.4 1 .7 2 .9 3 .2.8-.3 1.6-1.1 1.7 0 .1-.2.1-.3.1zm-37.6-6.2c-.3 0-.5-.1-.8-.2-.7-.4-.9-1.3-.5-2l1.9-2.6c.5-.6 1.4-.7 2-.2s.7 1.4.2 2c-.6.7-1.1 1.5-1.6 2.2-.3.6-.8.8-1.2.8zm34.6-.7c-.5 0-.9-.2-1.2-.6-.5-.8-1.1-1.5-1.7-2.2-.5-.6-.5-1.5.1-2s1.5-.5 2 .1l2 2.5c.5.7.3 1.6-.4 2-.2.1-.5.2-.8.2zM49 46.5c-.4 0-.9-.2-1.2-.6-.5-.6-.4-1.5.3-2 .8-.6 1.7-1.2 2.7-1.7.7-.4 1.6-.1 2 .6s.1 1.6-.6 2c-.8.4-1.6.9-2.3 1.5-.3.1-.6.2-.9.2zm24.2-.5c-.3 0-.6-.1-.8-.3L70 44.3c-.7-.4-1-1.2-.7-1.9.4-.7 1.2-1 1.9-.7.9.5 1.9 1 2.7 1.6.7.5.8 1.4.4 2-.2.5-.7.7-1.1.7zm-17.5-2.9c-.6 0-1.2-.4-1.4-1-.2-.8.2-1.6 1-1.8a16.96 16.96 0 0 1 3.1-.6c.8-.1 1.5.4 1.6 1.2s-.4 1.5-1.2 1.6c-.9.1-1.8.3-2.7.6h-.4zm10.5-.2h-.3c-.9-.2-1.8-.4-2.7-.4-.8-.1-1.4-.8-1.3-1.6s.8-1.4 1.6-1.3c1.1.1 2.1.3 3.1.5.8.2 1.3 1 1.1 1.7-.2.6-.8 1.1-1.5 1.1z" fill="#d07400"/></svg>