<svg xmlns="http://www.w3.org/2000/svg" viewBox="0 0 99.2 85"><path d="M93.8 67.5c-.3-2.7-1-5.3-1.5-8-.3-1.3-.5-2.6-.6-4-.1-1.6.2-3.1.4-4.6a48.98 48.98 0 0 0 .6-9.4l-.3-9.7c.2-6.5.9-12.9 1-19.4 0-1.1-1.6-1.1-1.7 0-.3 5.6-.9 11.1-1.3 16.7-.3 5.4.2 10.8-.1 16.1L90 48c0-.6-.1-1.1-.1-1.7-.2-2.9-.2-5.9-.5-8.8-.1-.6-.4-.6-.5 0-.3 3 0 6 .2 9 .1 1.7.3 3.4.5 5.1-.1.6-.2 1.3-.2 1.9-.2 2.7.3 5.3.8 7.9.5 2.5 1.1 5 1.3 7.5.1 2.2-.1 4.4-.7 6.5-.3 1-.6 2.2-1.3 2.9-.5.6-1.4.9-2.1 1.1-2 .6-4 .9-6.1 1.1l-4.5.3c-2.6.1-4.9-.7-7.3-1.7-2.4-.9-4.4-2.1-6.2-4-1.6-1.6-3-3.4-4.7-5-1-1-2.2-2-3.4-2.8-.7-.4-1.3-.8-2-1.2-.9-.5-1.9-1.2-2.8-1.5-.2-.1-.4-.1-.6-.1-.7-.5-1.4-.9-2.1-1.3-.7-.2-1.7-.6-2.5-.7-.2 0-.2.8 0 .9.6.4 1.3.7 2 1-.4 0-.9 0-1.3-.1-1.6-.1-3.2-.2-4.7-.2-3.1-.1-6.2 0-9.3-.2-5.1-.2-11.8-.5-14.5-5.7-.3-.5-1-.9-1.6-.6-1.9.8-4.1.6-5.7-.7-1.4-1.2-2.7-3.6-1.6-5.4.8-1.4 2.7-3.5 4.4-2.2 1 .8 1.8 1.1 3.1.9.6-.1 1.2-.1 1.8 0 .1.5.4 1 1.1.9 4.4-.5 8.1-3.2 11.7-5.4 2-1.2 4.1-2 6.2-2.9 2.2-.9 4.2-2.1 6.1-3.5.9-.7 1.8-1.3 2.8-1.8 1.1-.5 2.3-.8 3.4-1.2 2-.8 3.3-2.1 4.5-3.9 1.2-2 1.6-4.2 1.9-6.4.3-2.5.6-4.9.7-7.4.2-2.9.3-5.7.6-8.6.2-2.5.8-5.4.2-7.9-.3-1.4-2.3-1-2.4.3-.1 2.2-.1 4.3-.3 6.5-.2 2.3-.4 4.7-.5 7-.1 2.5-.2 5-.5 7.5-.3 2.1-.3 4.5-1.2 6.5-.7 1.6-2 3.2-3.6 3.8-2.1.8-4.1 1.4-6 2.7-1.8 1.3-3.5 2.6-5.5 3.5s-4.1 1.6-6 2.7c-2.1 1.1-4 2.4-6 3.6-.1 0-.1.1-.2.1h-.4l-1.4.3-2 .3h-.2c-.5-.2-.9-.3-1.5-.4-.8-.1-1.4-.3-2.1-.5-.9-.2-2.1 0-2.8.6l-.1-.1c-.6-.4-1.3-.6-2-.7-2.9-.3-5.6 2.3-6.6 4.9-1 2.7.4 6.1 2.5 7.9 2 1.8 4.9 2.4 7.4 1.8 2.6 4 7.6 5.3 12.2 5.8 5.7.6 11.4.2 17.1.6 1.4.1 2.8.2 4.2.4 1.1.2 2.2.9 3.1 1.5 1.3.7 2.5 1.5 3.6 2.5 3.5 3.1 6 7.2 10.2 9.3 2.3 1.2 4.9 2.3 7.4 2.7 2.2.4 4.5.2 6.7.1 1.7-.1 3.5-.3 5.2-.7 2-.4 4.3-.9 5.9-2.2 1.6-1.4 2.2-4 2.5-6 .3-2.2.4-4.6.1-6.9zM56.3 34.7c-1 2.3-2.3 4.8-1.6 7.4.3 1.1 1.1 2.1 1.9 3 .7.8 1.4 1.6 2.5 1.8.6.1.3-1.7.2-2-.7-1.2-1.5-2.1-2.3-3.2l-.9-1.3s-.1-.1-.2-.3c0-.1.1-.1.1-.3l1.3-3.3c.5-1.1.7-2.4.9-3.6.9-4.7 1.1-9.6.8-14.4 0-.2 0-1.2-.4-1.2s-.4 1-.4 1.2c.1 2.7.1 5.4-.2 8.2-.4 2.8-.7 5.6-1.7 8zm-.7 5.3l.1.1-.1-.1zm10.9 25.2c.5.1.7-.8.7-1.1.4-2.9 0-5.9-.1-8.8 0-.2-.1-1.1-.4-1-.4 0-.4.9-.4 1.1l-.4 8.4c-.1.3 0 1.3.6 1.4z" fill="#1e1812"/><path d="M66.1 80.3H65c-.8 0-1.3-.7-1.3-1.4 0-.8.7-1.3 1.4-1.3l2.6-.1c.8-.1 1.4.5 1.5 1.2.1.8-.5 1.4-1.2 1.5-.6.1-1.3.1-1.9.1zm-5.4-.7c-.1 0-.2 0-.4-.1-1-.3-1.9-.6-2.8-1-.7-.3-1-1.1-.7-1.8s1.1-1 1.8-.7a10.64 10.64 0 0 0 2.5.9c.7.2 1.2 1 .9 1.7-.1.6-.7 1-1.3 1zm11.5-.2c-.6 0-1.1-.4-1.3-.9-.2-.7.2-1.5.9-1.7l2.4-1c.7-.3 1.5-.1 1.8.6s.1 1.5-.6 1.8l-2.8 1.1c-.1 0-.2.1-.4.1zm-17.9-3c-.3 0-.6-.1-.8-.3-.8-.6-1.6-1.3-2.3-2-.5-.5-.5-1.4 0-1.9s1.4-.5 1.9 0a16.32 16.32 0 0 0 2 1.7c.6.5.7 1.3.3 1.9-.3.4-.7.6-1.1.6zm24.2-.5c-.4 0-.8-.2-1.1-.5-.4-.6-.4-1.4.2-1.9l1.9-1.8c.5-.6 1.4-.6 1.9-.1.6.5.6 1.4.1 1.9l-2.2 2.1c-.2.2-.5.3-.8.3zm-29-4.8c-.5 0-.9-.2-1.2-.6-.5-.8-1-1.7-1.4-2.7-.3-.7 0-1.5.7-1.8s1.5 0 1.8.7c.3.8.8 1.6 1.2 2.3.4.6.2 1.5-.4 1.9-.2.1-.5.2-.7.2zm33.6-.7c-.2 0-.5-.1-.7-.2-.7-.4-.9-1.2-.5-1.9l1.1-2.4c.3-.7 1.1-1.1 1.8-.8s1.1 1.1.8 1.8l-1.3 2.7a1.3 1.3 0 0 1-1.2.8zm-36.2-6c-.6 0-1.2-.5-1.3-1.1-.2-1-.3-2-.3-3 0-.8.6-1.4 1.3-1.4.8 0 1.4.6 1.4 1.3 0 .9.1 1.7.3 2.6.1.7-.4 1.5-1.1 1.6h-.3zm38.5-.8h-.2A1.46 1.46 0 0 1 84 62l.2-2.6c0-.8.6-1.4 1.4-1.4s1.4.6 1.4 1.4c0 1-.1 2-.2 3-.1.7-.7 1.2-1.4 1.2zm-38.5-6.4h-.3c-.7-.1-1.2-.9-1.1-1.6.2-1 .4-2 .8-2.9.2-.7 1-1.1 1.7-.9s1.1 1 .9 1.7c-.3.8-.5 1.7-.7 2.5-.1.8-.7 1.2-1.3 1.2zm38.2-.8c-.6 0-1.2-.4-1.3-1.1a24.13 24.13 0 0 0-.8-2.5c-.3-.7.1-1.5.8-1.8s1.5.1 1.8.8c.4.9.7 1.9.9 2.9.2.7-.3 1.5-1 1.6-.2.1-.3.1-.4.1zm-35.7-5.9c-.2 0-.5-.1-.7-.2-.6-.4-.8-1.2-.4-1.9.5-.8 1.1-1.7 1.8-2.4.5-.6 1.4-.7 1.9-.2.6.5.7 1.4.2 1.9-.6.7-1.1 1.4-1.5 2.1-.4.5-.8.7-1.3.7zm32.9-.7c-.4 0-.9-.2-1.1-.6-.5-.7-1-1.4-1.6-2-.5-.6-.5-1.4.1-1.9s1.4-.5 1.9.1c.7.7 1.3 1.5 1.9 2.4.4.6.3 1.5-.4 1.9-.3 0-.6.1-.8.1zm-28-4.6c-.4 0-.8-.2-1.1-.5-.5-.6-.3-1.5.3-1.9.8-.6 1.6-1.2 2.5-1.6.7-.4 1.5-.1 1.9.5.4.7.1 1.5-.5 1.9-.8.4-1.5.9-2.2 1.4-.3.1-.6.2-.9.2zm22.9-.5c-.3 0-.5-.1-.8-.2-.7-.5-1.5-.9-2.2-1.3-.7-.3-1-1.2-.6-1.8.3-.7 1.2-1 1.8-.6.9.4 1.8 1 2.6 1.5.6.4.8 1.3.3 1.9-.2.3-.7.5-1.1.5zM60.7 42c-.6 0-1.1-.4-1.3-1-.2-.7.2-1.5.9-1.7 1-.3 1.9-.5 2.9-.6.8-.1 1.4.4 1.5 1.2.1.7-.4 1.4-1.2 1.5-.9.1-1.7.3-2.6.5.1.1-.1.1-.2.1zm9.9-.2h-.3c-.8-.2-1.7-.3-2.6-.4-.8-.1-1.3-.7-1.2-1.5s.7-1.3 1.5-1.2c1 .1 2 .3 3 .5.7.2 1.2.9 1 1.7-.2.4-.8.9-1.4.9z" fill="#d07400"/></svg>