<svg xmlns="http://www.w3.org/2000/svg" viewBox="0 0 65.2 113.4"><g fill="#1e1812"><path d="M28.8 82.7c2.2-.6 4.5-.8 6.7-.6 2.3.2 4.3 1 6.5 1.8.2.1.4-.3.2-.4-3.9-2.5-9.2-2.6-13.5-1.3-.4.1-.2.6.1.5zm13.1-7.4c1 1.9 2.3 4 2.5 6.2 0 .4.7.4.7 0-.4-3.8-3.4-6.7-4.1-10.3-.4-1.8-.2-3.7-.2-5.5 0-1.5.1-3 .2-4.4.7-7.8 2.5-15.6 4-23.3 1-5.3 2-10.5 2.7-15.9.1-.4-.5-.6-.6-.2C45.8 31 43.9 40 42.2 49c-.7 3.6-1.3 7.1-1.7 10.7-.4 3.1-.4 6.2-.3 9.3-.1 2.4.7 4.2 1.7 6.3zM55.6 70c.1-3 2.5-5.6 2.3-8.6-.1-1.2-.4-2.5-.7-3.7l-1.3-5.5c-1.1-4.4-2.3-8.8-3.2-13.3-.9-4.7-1.4-9.7-.5-14.5.4-2.4 1-4.7 1.4-7.1l1.1-6.3c.2-1.1-1.5-1.5-1.7-.4l-1.9 10.1c-.6 3.1-1.3 6.1-1.3 9.3 0 8.7 2.8 17.2 4.8 25.6.4 1.6.8 3.2 1 4.8.1.7.1 1.3 0 2-.1 0-.2 0-.3.1-1.5 3.2-2.9 6.6-3.4 10.1-.2 1.2-.2 2.4-.1 3.5.1 1.3.1 2.7.4 4 .1.2.4.2.4 0 .1-1.2-.2-2.5-.2-3.8-.1-1.2-.1-2.3.1-3.5.2-1.8.7-3.5 1.3-5.1-.3 1-.5 2.1-.5 3.1l.7 13.1c.1 2.7.1 5.5 0 8.2-.1 2-.2 4.2-.9 6.1-.5 1.2-1.1 2.2-1.9 3.1-3.1 3.6-8.2 5.2-12.7 6-3.6.6-7.2.1-10.7-.6-3.1-.6-6.5-1.2-8.8-3.5-1.2-1.3-2.2-2.8-2.7-4.5-.5-1.6-.2-2.9.1-4.4.8-3.3 1.3-6.8 1.1-10.2 0-.3 0-.5-.1-.8-.2-2.5-.8-5.1-2.4-7-.8-.9-1.6-1.9-2.3-3s-1.6-2.3-1.9-3.6c-.3-1.4.2-3 .1-4.5-.1-1.4-1.2-2.8-.7-4.2.4-1.2 1.7-2.3 3-2.6s2.2 1.2 3.5.6a1.96 1.96 0 0 0 .9-.9c0 .2.1.3.1.5.4 2.7.5 5.3.4 8s-.5 5.3-.4 7.9c0 .8 1.2 1 1.4.2.3-1.4.5-2.9.7-4.4.4-3.1.5-6.3.2-9.4-.2-2.4-.6-4.8-1.1-7.1-.3-1.7-.6-3.3-.1-4.9.6-1.8 1.4-3.6 2.1-5.4.7-2 1-4.1 1.2-6.2.2-1.6.2-3.3.2-5v-.1c-.1-3.8-.5-7.6-.9-11.3-.5-6-1.4-12-2.5-18-.2-.8-.9-1-1.5-.8s-1 .7-.9 1.5c1 5.3 1.9 10.7 2.5 16 .6 5.2 1.3 10.7 1 15.9-.1 2.3-.4 4.6-1.1 6.8-.6 1.8-1.4 3.6-2 5.5-.9 2.8-.4 5.3.2 8.1-.4-.1-1.4-.1-1.8.5-.1-.1-.3-.1-.4-.2-.4-.2-.8-.3-1.2-.3-1.5-.1-3 .7-4.1 1.7s-2 2.3-2.1 3.8c-.1 1.6.9 2.9.9 4.4s-.4 3.2.1 4.7c.4 1.4 1.3 2.7 2.1 3.9.8 1.1 1.6 2.2 2.5 3.2.7.8 1 1.3 1.3 2.4.8 2.5.9 5.3.6 8-.1.5-.1 1.1-.2 1.6l-.3 1.5c-.3 1.5-.7 3-.9 4.4-.2 1.8.2 3.5.9 5.1 1.3 3.1 3.8 5.7 7 6.7 3.4 1.2 7 1.8 10.5 2.1 3.9.4 7.6-.2 11.3-1.3 2.5-.8 4.9-1.7 7-3.3 2.4-1.8 4.5-4.4 5.3-7.4.6-2.2.6-4.6.7-6.8.1-5.5-.2-11.1-.6-16.6.1-1.2-.2-2.6-.1-4z"/><path d="M27.6 68.5c-.5 3-1.5 5.9-2.8 8.7l-1.2 2.6v.1c-.2.5-.5 1-.7 1.5-.1.3-.5.3-.7.1-.1-.1-.2-.3-.1-.5l2.5-6.1a35.04 35.04 0 0 0 2.2-8.6c.6-4 .9-8 .9-12.1.1-7.3-.6-14.6-.8-22 0-.2.1-.3.3-.3s.4.1.4.3c.1 4.5.5 8.9.8 13.4.5 7.7.3 15.3-.8 22.9z"/></g><path d="M51.4 101.2c-3.1 3.6-8.2 5.2-12.7 6-3.6.6-7.2.1-10.7-.6-3.1-.6-6.5-1.2-8.8-3.5-1.2-1.3-2.2-2.8-2.7-4.5-.5-1.6-.2-2.9.1-4.4.8-3.3 1.3-6.8 1.1-10.2 0-.3 0-.5-.1-.8l.1-.1c2.1-1.3 2.5-6.7 2.2-12.7.4-3.1.5-6.3.2-9.4-.2-2.4-.6-4.8-1.1-7.1-.3-1.7-.6-3.3-.1-4.9.6-1.8 1.4-3.6 2.1-5.4.7-2 1-4.1 1.2-6.2.2-1.6.2-3.3.2-5v-.1c-.1-3.8-.5-7.6-.9-11.3-.6-6.1-1.5-12.1-2.6-18.1-.2-.8-.9-1-1.5-.8V2s6.7-2.4 8.4 2.5l1 18.5c.2 1.7.3 5.1.6 8.9-.1 0-.3.1-.3.3.2 7.3.9 14.6.8 22 0 4-.3 8.1-.9 12.1-.4 3-1.1 5.7-2.2 8.6L22.3 81c-.1.2 0 .4.1.5-1 1.3-1.3 4.1-2.2 9.5-.9 5.8 4 11.6 9.5 12.9 5.4 1.1 19.9-2.3 21.7-2.7z" fill="#e6e6e7"/><path d="M58 96.8h-.2c-.9-.1-1.5-.9-1.4-1.8.8-6.6-.2-19.2-.5-23.3 0-.6-.1-1.1-.1-1.3 0-.4 0-.8.1-1.3.2-.9 1-1.5 1.9-1.3s1.5 1 1.3 1.9c-.1.2-.1.4-.1.5a6.82 6.82 0 0 0 .1 1.2c.3 4.2 1.3 17.1.5 23.9-.1.9-.8 1.5-1.6 1.5zm1-37.7c-.7 0-1.4-.5-1.6-1.3L55 48l-.1-.2c-2.3-9-4.1-17.7-1.8-26.3.2-.9 1.1-1.4 2-1.1.9.2 1.4 1.1 1.1 2C54 30.2 55.8 38.5 58 47l.1.2 2.4 9.9a1.72 1.72 0 0 1-1.2 2H59z" fill="#d07400"/></svg>