<svg xmlns="http://www.w3.org/2000/svg" viewBox="0 0 300 300"><path d="M222.5 166.9l.4-3.4c-1.1-3.5-2.2-7-2.5-10.5-.5-6.6-1-13.3-.6-19.9.1-.9.6-.9.7 0 .5 6.4.6 12.7 1 19.1.2 2.7.9 5.5 1.7 8.2.7-5.4 1.2-10.7 1.3-16.2.2-7.4-.7-14.7-.6-22.1.3-15.1 2.2-30.2 2.8-45.3 0-.6.2-1.1.5-1.4l-8-.3L157.3 56c.3 4.8-.3 9.6-.7 14.3-.6 5.6-.9 11.3-1.2 16.9-.3 5.7-.7 11.4-1.4 17.1-.7 5.3-1.4 10.7-3.4 15.7-.2.4-.4.7-.6.9-1.8 2.9-3.9 5.8-6.8 7.7-3.2 2-16.1 6.4-19.3 8.7-3.1 2.2-11.3 4.9-14.8 6.4s-7 2.8-10.4 4.6-6.6 3.8-9.8 5.7c-1.4.9-2.8 1.7-4.2 2.5-.2.2-.4.3-.7.4-4.7 2.6-9.5 4.8-14.8 5.7-1.9.3-3.1-1.2-3.3-2.6h-.4c-.5.2-1 .3-1.5.5-.4.2-.8.2-1.2.1-.7.2-1.3.4-1.8.5s-1 .1-1.5.1l-3.6-1c-.4-.2-.8-.5-1.2-.8-3.2-2.6-6.4-.7-8.7 1.9l-1.5 1.9c-.1.2-.3.4-.4.6-2.6 4-.2 9.5 3 12.5 3.3 3.1 7.9 3.9 12.1 2.8 1-1.5 3.3-2 4.3.1 5.7 12 21 12.9 32.6 13.4 12 .5 24 0 36 1.2-2-1-4-1.9-6.1-2.7-1.6-.6-.9-3.1.7-2.5 4.2 1.5 8.2 3.5 11.9 6 .1.1.2.1.2.2.2.1.4.2.5.4 4.4 2.4 8.8 4.7 12.8 7.8 4.7 3.8 8.7 8.4 12.7 12.9 2.6 2.9 5.4 5.5 8.7 7.5 3.4 2 7 3.3 10.6 4.7 3.8 1.4 7.5 2.3 11.6 2.3 2.9 0 5.8-.2 8.6-.4h.3c3.9-.4 5.9-.8 9.8-1.7 3.3-.7 7.9-1.5 9.8-4.6 2.8-4.6 3.6-11 3.7-16.3.5-14-6.9-26.9-5.4-40.5zm-59.1-14.7c0 .4-.6 3.1-1.5 2.2-2.4-2.3-4.6-5.1-6.5-7.8-1.5-2.2-2.8-4.3-2.9-7-.1-3 1.2-5.8 2.4-8.4.8-1.8 1.6-3.5 2.5-5.2.7-5.5 2.2-11 2.8-16.5.7-6.2.8-12.5.5-18.7-.1-1.6.8-1.6.9 0 .4 6.7.4 13.4-.3 20.1-.3 3.4-.8 6.7-1.3 10-.2.9-.3 1.9-.5 2.8.1.5.1 1.1 0 1.3-.3.6-.5 1.2-.7 1.8-.3.8-.5 1.6-.9 2.3-.4 1-.7 2-1.1 2.9-.7 2-2 4.2-2.3 6.3-.3 2.2 1.9 6.2 3.3 7.7 1.5 1.6 3.1 2.9 4.7 4.4.9.7 1 .5.9 1.8zm12.3 39.7c-.1.8-.5 2.7-1.7 2.5s-1.4-2.4-1.4-3.3c0-6.2 1-12.4.9-18.7 0-.5 0-2.4.9-2.4s1 1.8 1 2.3c.3 6.5 1.1 13.1.3 19.6z" fill="#fff"/><path d="M228.1 206.9c-.1 5.3-1 11.7-3.7 16.3-1.9 3.1-6.6 3.9-9.8 4.6-3.9.8-5.9 1.3-9.8 1.7h-.3c-2.8.2-5.8.4-8.6.4-4.1 0-7.8-.9-11.6-2.3-3.6-1.4-7.3-2.8-10.6-4.7 17.1 1.8 26.5-11 27.6-38.3 6.3-3.8 6.2-11.1 6.6-25.8s-5.6-89.6-5.6-89.6 14.1 5.7 19.9 6c2.2.1 3.8.2 5 .3-.2.3-.3.7-.3 1.1-.5 15.1-2.5 30.2-2.8 45.3-.1 7.4.7 14.7.6 22.1-.1 5.5-.7 10.9-1.3 16.2-.8-2.7-1.5-5.5-1.7-8.2-.5-6.4-.5-12.7-1-19.1-.1-.9-.7-.8-.7 0-.4 6.6.1 13.3.6 19.9.3 3.5 1.4 7 2.5 10.5-.2 1.1-.3 2.3-.4 3.4-.6 5.1.1 10 1.2 14.9 1.6 8.5 4.4 16.8 4.2 25.3zm-88.3-15.3c-.2-.1-.5-.3-.7-.4-.1-.1-.2-.1-.3-.2 0 0-.1 0-.1-.1l-3.3-2.1c-.4-.2-.8-.5-1.1-.7-2.5-1.3-5.5-2.2-9-2.9-.3.7-.2 1.6.7 2 2.1.8 4.1 1.7 6.1 2.7l-6.9-.5c0-.3 0-.6.1-.8-13.6-2.6-33.6-1.5-46.8-2.3-.5 0-1-.1-1.5-.1-5-1.6-9.5-4.2-12.3-8.7.1.4 1.1 2.9 2.9 5.3-1.8-1.1-2.8-2-2.8-2v.1c6.4 10 20.6 10.9 31.5 11.3 12 .5 24 0 36 1.2-1.3-.7-2.7-1.3-4.1-1.9 9.3 1.3 18 7 18 7s4.8.5-6.4-6.9zm33.3-44.1c-1.5 8.6-7.2 8.9-7.2 8.9s-1.2-1.1-2.9-2.8c.2-.6.3-1.3.4-1.4.1-1.2 0-1-1-1.9-1.6-1.4-3.2-2.7-4.7-4.4-1.3-1.5-3.6-5.5-3.3-7.7.3-2.1 1.6-4.3 2.3-6.3.4-1 .7-2 1.1-2.9.4-.7.7-1.5.9-2.3.2-.6.5-1.2.7-1.8.1-.2.1-.8 0-1.3.2-.9.3-1.9.5-2.8.6-3.3 1-6.7 1.3-10a134.9 134.9 0 0 0 .3-20.1v-.1l-.1-8.5 10.2 54c.1 0 1.9 9.2 1.5 11.4zM62.5 174.9c-.2.5-1.9 1.7-3.1 2.5.6.1 1.1.1 1.6.1-.7.2-1.3.6-1.7 1.2-4.2 1.1-8.8.3-12.1-2.8l-.6-.6c-.2-.2-.4-.4-.5-.6 0 0 0-.1-.1-.1-.1-.1-.2-.3-.3-.4-.7-1-1.4-2-1.8-3.2.4.1 1.1.3 1.8.5.5.6 1 1.2 1.5 1.7 1.3 1.2 2.8 2.1 4.4 2.6.6.2 1.2.3 1.8.4 1.9.3 3.9.3 5.9-.3.4-.6 1-1 1.7-1.2.2 0 .4 0 .6-.1.8-.1 1.1 0 .9.3z" fill="#edeef0"/><path d="M163.4 152.2c0 .2-.1.8-.4 1.4-.3.7-.6 1.3-1.1.8-2.4-2.3-4.6-5.1-6.5-7.8-1.5-2.2-2.8-4.3-2.9-7-.1-3 1.2-5.8 2.4-8.4.8-1.8 2.1-4.2 2.5-5.2s2.2-11 2.8-16.5c.7-6.2.8-12.5.5-18.7-.1-1.6.8-1.6.9-.1v.1c.4 6.7.4 13.4-.3 20.1-.3 3.4-.8 6.7-1.3 10-.2.9-.3 1.9-.5 2.8.1.5-.5 2.5-.7 3.1-.3.8-.5 1.6-.9 2.3-.4 1-.7 2-1.1 2.9-.7 2-2 4.2-2.3 6.3-.3 2.2 1.9 6.2 3.3 7.7 1.5 1.6 3.1 2.9 4.7 4.4.9.7 1 .5.9 1.8zm12.3 39.7c-.1.8-.5 2.7-1.7 2.5s-1.4-2.4-1.4-3.3c0-6.2 1-12.4.9-18.7 0-.5 0-2.4.9-2.4s1 1.8 1 2.3c.3 6.5 1.1 13.1.3 19.6zm60-.5l-1.7-7.3c-1.5-5.8-2.9-11.3-2.3-16.8l.4-3c.8-6.6 1.6-13.3 1.8-20.3.1-3.9-.1-7.7-.3-11.4a191.08 191.08 0 0 1-.3-10.7c.1-8.1.8-16.3 1.4-24.3.5-6.8 1.1-13.9 1.3-20.9.1-1.7-4.2-2.6-6.2-2.7h-.6c-.7.1-1.4.4-1.9 1.1-.1.1-.1.2-.2.3-.2.3-.3.7-.3 1.1-.5 15.1-2.5 30.2-2.8 45.3-.1 7.4.7 14.7.6 22.1-.1 5.5-.7 10.9-1.3 16.2-.8-2.7-1.5-5.5-1.7-8.2-.5-6.4-.5-12.7-1-19.1-.1-.9-.7-.8-.7 0-.4 6.6.1 13.4.6 20 .3 3.5 1.4 7 2.5 10.5-.2 1.1-.3 2.3-.4 3.4-.5 5 .1 10 1.2 14.9 1.8 8.4 4.7 16.6 4.5 25.2-.1 5.3-1 11.7-3.7 16.3-1.9 3.1-6.6 3.9-9.8 4.6-3.8.8-5.8 1.3-9.8 1.7h-.3c-2.8.2-5.8.4-8.6.4-4.1-.1-7.8-.9-11.6-2.3-3.6-1.4-7.3-2.8-10.6-4.7-3.4-2-6.1-4.7-8.7-7.5-4.1-4.4-8-9.1-12.7-12.9-3.8-3-8.1-5.2-12.3-7.5a.76.76 0 0 0-.4-.2l-.2-.2c-.1-.1-.2-.1-.3-.2l-.1-.1c0-.1-.1-.1-.2-.1-1-.7-2.1-1.4-3.1-2-.4-.2-.8-.5-1.1-.7-2.4-1.3-5-2.5-7.6-3.4-.7-.2-1.2.1-1.4.6-.3.7-.2 1.6.7 2 2.1.8 4.1 1.7 6.1 2.7-11.9-1.2-24-.7-36-1.2-10.8-.5-25-1.3-31.5-11.3-.4-.6-.8-1.3-1.1-2.1-.3-.6-.7-1-1.1-1.2-.3-.1-.6-.2-.9-.2-.2 0-.4 0-.6.1-.7.2-1.3.6-1.7 1.2-4.2 1.1-8.8.3-12.1-2.8l-.6-.6c-.2-.2-.4-.4-.5-.6 0 0-.1 0-.1-.1-.1-.1-.2-.3-.3-.4-.7-1-1.4-2-1.8-3.2-1-2.5-1.2-5.3.3-7.7.1-.2.2-.4.4-.5l1.5-1.9c2.3-2.6 5.5-4.5 8.7-1.9.4.3.8.6 1.1.8l3.6 1c.5 0 1 0 1.5-.1s1.1-.3 1.8-.5c.4 0 .8 0 1.2-.1.5-.2 1-.3 1.5-.5h.4c.2 1.5 1.4 2.9 3.3 2.6 5.3-.9 10.2-3.1 14.8-5.7.3-.1.5-.2.7-.4 1.4-.8 2.8-1.6 4.2-2.5 3.2-2 6.4-4 9.8-5.7 3.4-1.8 6.9-3.1 10.4-4.6s11.7-4.1 14.8-6.4c3.2-2.3 16.2-6.7 19.3-8.7 2.9-1.9 6.2-6.1 7.4-8.6 2-5 2.7-10.4 3.4-15.8.8-5.7 1.1-11.4 1.4-17.1s.6-11.3 1.2-16.9c.5-4.7 1.1-9.5.7-14.3 0-.3-.1-.7-.1-1-.2-1.6-1.4-2.4-2.6-2.5h-.5c-2 .1-6.3 1.1-6.1 2.9.4 4.1 0 8.3-.5 12.8l-.1 1c-.5 5.3-.9 10.9-1.2 17.1s-.6 11.3-1.3 16.6c-.6 4.6-1.2 8.9-2.6 13-.1.1-.1.2-.2.3-1.6 2.7-3 4.5-5.1 5.4-1.2.5-2.5 1-3.9 1.4-2.3.8-4.6 1.6-7 2.9-1.1.6-3.2 1.4-5.2 2.2-3.2 1.2-6.4 2.5-8.4 3.9-3.1 2.1-6.5 3.7-9.4 4.9-6.5 2.7-12.9 5.9-19.3 9.9-.7.5-1.5.9-2.2 1.3h-.1c-1.4.2-2.7.5-4 .8-1.7.4-3.2.7-4.7.8h-.1c-1.1-.1-2.1-.2-3-.2-.6 0-1.2 0-1.6-.1-.3 0-.8-.2-1.4-.3-.8-.3-1.9-.6-3.1-.7-.4 0-.9-.1-1.3-.1-2.2 0-4.5.4-6.4 1.2-.6-.2-1.2-.3-1.8-.5-.8-.1-1.6-.2-2.4-.2-7.8 0-14.2 6.6-16.8 12.7-3.3 7.6.7 16.8 6.1 21.7 4 3.6 9.2 5.6 14.7 5.6 1 0 1.9-.1 2.9-.2 7.9 10 21.7 12.2 33.1 13 6 .4 12 .4 17.9.5 8.5.1 17.2.1 25.6 1.3.5.3 1 .5 1.6.8 3.6 1.9 7.1 3.8 10 6.2 3.1 2.6 5.8 5.6 8.6 8.7 1.6 1.8 3.2 3.6 5 5.3 6.4 6.5 14.1 9.7 21.4 12.5 4.7 1.8 9.6 2.6 15.7 2.6 1.5 0 3 0 4.7-.2h.9c4.4-.3 7.1-.8 11.1-1.6l.7-.1c4.4-.8 10.4-2 14.7-5.8 5.4-4.8 6.6-13 7.3-18.4.7-8-.5-15.7-1.6-21.4z"/></svg>