<svg xmlns="http://www.w3.org/2000/svg" xmlns:xlink="http://www.w3.org/1999/xlink" viewBox="0 0 600 800"><defs><filter id="A" filterUnits="userSpaceOnUse" x="-203.4" y="521.4" width="980.7" height="300.1"><feColorMatrix values="1 0 0 0 0 0 1 0 0 0 0 0 1 0 0 0 0 0 1 0"/></filter></defs><mask maskUnits="userSpaceOnUse" x="-203.4" y="521.4" width="980.7" height="300.1" id="B"><g filter="url(#A)"><path d="M-15.6 469.2h629.8v335.6H-15.6z" fill="#fff"/><path d="M334.5 506.9c-17 33.9-63.8 52.3-63.8 52.3L193 587.4s-87.5 37.2-100 37.2-21 10.7-20.1 21.9-1.8 32.7 29.1 45.2 362.8 0 380.2 0 41.2-20.1 32.7-72.5c-4.6-28.6-4.9-68.7-3.6-101.8l-176.8-10.5z" fill="#070308"/></g></mask><g opacity=".3" mask="url(#B)"><g enable-background="new"><defs><path id="C" d="M-203.4 821.5l380.5-300.1h219.7l380.5 300.1z"/></defs><clipPath id="D"><use xlink:href="#C"/></clipPath><g clip-path="url(#D)" fill="#fff"><path d="M386.2 521.5h10.4l4.1 3.2h.1l.1.1h-.1l4.4 3.5h.2l.1.1h-.2l4.8 3.8h.2l.1.1h-.2l5.2 4.1h.2l.1.1h-.2l5.7 4.5h.2l.2.1h-.2l6.2 4.9h.2l.2.1h-.2l6.8 5.4h.2l.2.2h-.2l7.5 6h.2l.2.2h-.2l8.4 6.6h.2l.2.2h-.2l9.4 7.4h.2l.3.2h-.2l10.5 8.3h.2l.3.2h-.2l11.9 9.4h.2l.3.3 13.6 10.8h.3l.4.3h-.3l15.7 12.4h.3l.5.4h-.3l18.3 14.5h.3l.5.4h-.3l21.6 17.1h.3l.6.5h-.3l25.9 20.4h.4l.8.6h-.4l31.6 25h.4l1 .8h-.4l39.4 31.1h.5l1.2.9h-.5l50.5 39.9h.5l1.6 1.2h-.5l67.1 53h-45.2l.9.8h-1.2l-.9-.8h-45.2l.8.8h-1.2l-.8-.8h-45.2l.7.8h-1.2l-.7-.8h-45.2l.6.8h-1.2l-.6-.8H543l.6.8h-1.2l-.5-.8h-45.2l.5.8H496l-.4-.8h-45.2l.4.8h-1.2l-.3-.8h-45.2l.3.8h-1.2l-.2-.8h-45.2l.2.8h-1.2l-.1-.8h-45.2l.1.8h-1.2v-.8h-45.2v.8H264l.1-.8h-45.2l-.1.8h-1.2l.2-.8h-45.2l-.2.8H170l.3-.8H125l-.3.8h-1.2l.4-.8H78.6l-.4.8H77l.5-.8H32.1l-.5.8h-1.2l.6-.8h-45.2l-.6.8H-16l.6-.8h-45.2l-.7.8h-1.2l.7-.8H-107l-.8.8h-1.2l.8-.8h-45.2l-.9.8h-1.2l.9-.8H-200l67.1-53h-.5l1.6-1.2h.5l50.5-39.9h-.5l1.2-.9h.5l39.4-31.1h-.4l1-.8h.4l31.6-25H-8l.8-.6h.4l25.9-20.4h-.3l.6-.5h.3l21.6-17.1H41l.5-.4h.3l18.3-14.5h-.3l.5-.4h.3l15.7-12.4H76l.4-.3h.3l13.6-10.8H90l.3-.3h.2l11.9-9.4h-.2l.3-.2h.2l10.5-8.3h-.2l.3-.2h.2l9.4-7.4h-.2l.2-.2h.2l8.4-6.6h-.5l.2-.2h.2l7.5-6h-.2l.2-.2h.2l6.8-5.4h-.2l.2-.1h.2l6.2-4.9h-.2l.2-.1h.2l5.7-4.5h-.2l.1-.1h.2l5.2-4.1h-.2l.1-.1h.2l4.8-3.8h-.2l.1-.1h.2l4.4-3.5h-.1l.1-.1h.1l4.1-3.2h209.1m10.6-.1H177.1l-380.5 300.1h980.7L396.8 521.4"/><path d="M-92.6 765.5h-39.3l-1.6 1.2H-94l1.4-1.2m39.9 0h-38.8l-1.4 1.2h39l1.2-1.2m39.9 0h-38.8l-1.3 1.2h39l1.1-1.2m39.9 0h-38.8l-1.1 1.2h39l.9-1.2m39.9 0H28.1l-1 1.2h39l.9-1.2m39.9 0H68.1l-.8 1.2h39l.6-1.2m39.9 0H108l-.7 1.2h39l.5-1.2m39.9 0h-38.8l-.5 1.2h39l.3-1.2m39.9 0h-38.8l-.4 1.2h39l.2-1.2m39.9 0h-38.8l-.2 1.2h39v-1.2m39.9 0h-38.8l-.1 1.2h39l-.1-1.2m39.9 0h-38.8l.1 1.2h39l-.3-1.2m39.8 0h-38.8l.2 1.2h39l-.4-1.2m39.9 0h-38.8l.4 1.2h39l-.6-1.2m39.9 0h-38.8l.5 1.2h39l-.7-1.2m39.9 0H467l.7 1.2h39l-.9-1.2m39.9 0h-38.8l.8 1.2h39l-1-1.2m39.9 0h-38.8l1 1.2h39l-1.2-1.2m39.9 0h-38.8l1.1 1.2h39l-1.3-1.2m39.9 0h-38.8l1.3 1.2h39l-1.5-1.2m40.4 0h-39.3l1.4 1.2h39.5l-1.6-1.2m-751.5-40.8h-34.5l-1.2.9h34.7l1-.9m34.9 0h-34l-1.1.9h34.2l.9-.9m35 0h-34l-1 .9h34.2l.8-.9m35 0h-34l-.9.9h34.2l.7-.9m34.9 0h-34l-.7.9h34.2l.5-.9m35 0h-34l-.6.9h34.2l.4-.9m35 0h-34l-.5.9h34.2l.3-.9m35 0h-34l-.4.9h34.2l.2-.9m34.9 0h-34l-.3.9h34.2l.1-.9m35 0h-34l-.2.9H269v-.9m35 0h-34.1l-.1.9H304v-.9m34.9 0h-34l.1.9h34.2l-.3-.9m35 0h-34l.2.9h34.2l-.4-.9m35 0h-34.1l.3.9h34.2l-.4-.9m34.9 0h-34l.4.9h34.2l-.6-.9m35 0h-34l.5.9h34.2l-.7-.9m35 0h-34.1l.6.9h34.2l-.7-.9m34.9 0h-34l.7.9h34.2l-.9-.9m35 0h-34l.9.9h34.2l-1.1-.9m35 0h-34.1l1 .9h34.2l-1.1-.9m35.4 0h-34.5l1.1.9h34.7l-1.3-.9M-9.2 692.8h-30.7l-1 .8H-10l.8-.8m31.2 0H-8.3l-.9.8h30.4l.8-.8m31.1 0H22.8l-.8.8h30.4l.7-.8m31.1 0H53.9l-.7.8h30.4l.6-.8m31.1 0H85l-.6.8h30.4l.5-.8m31.2 0h-30.3l-.5.8h30.4l.4-.8m31.1 0h-30.3l-.4.8h30.4l.3-.8m31.1 0h-30.3l-.3.8h30.4l.2-.8m31.1 0h-30.3l-.2.8h30.4l.1-.8m31.2 0h-30.3l-.1.8H271v-.8m31.1 0h-30.3v.8h30.4l-.1-.8m31.1 0h-30.3v.8h30.4l-.1-.8m31.1 0H334l.1.8h30.4l-.2-.8m31.2 0h-30.3l.2.8h30.4l-.3-.8m31.1 0h-30.3l.3.8H427l-.4-.8m31.1 0h-30.3l.4.8h30.4l-.5-.8m31.1 0h-30.3l.5.8h30.4l-.6-.8m31.2 0h-30.3l.6.8h30.4l-.7-.8m31.1 0h-30.3l.7.8h30.4l-.8-.8m31.1 0h-30.3l.8.8h30.4l-.9-.8m31.6 0H583l.9.8h30.8l-.9-.8M20.2 667.3H-7.5l-.8.6h27.8l.7-.6m28 0H20.9l-.7.6h27.4l.6-.6m28.1 0H48.9l-.6.6h27.4l.6-.6m28 0H77l-.6.6h27.4l.5-.6m28 0H105l-.5.6h27.4l.4-.6m28.1 0h-27.3l-.4.6H160l.4-.6m28 0h-27.3l-.3.6h27.4l.2-.6m28.1 0h-27.3l-.3.6h27.4l.2-.6m28 0h-27.3l-.2.6h27.4l.1-.6m28 0h-27.3l-.1.6h27.4v-.6m28.1 0h-27.3v.6h27.4l-.1-.6m28 0h-27.3v.6h27.4l-.1-.6m28.1 0h-27.3l.1.6h27.4l-.2-.6m28 0h-27.3l.2.6H385l-.3-.6m28.1 0h-27.3l.3.6h27.4l-.4-.6m28 0h-27.3l.3.6h27.4l-.4-.6m28 0h-27.3l.4.6h27.4l-.5-.6m28.1 0h-27.3l.5.6h27.4l-.6-.6m28 0h-27.3l.6.6h27.4l-.7-.6m28.1 0h-27.3l.6.6h27.4l-.7-.6m28.4 0h-27.7l.7.6h27.8l-.8-.6"/><path d="M44.2 646.3H19l-.6.5h25.2l.6-.5m25.5 0H44.9l-.6.5h24.9l.5-.5m25.5 0H70.4l-.5.5h24.9l.4-.5m25.5 0H95.9l-.5.5h24.9l.4-.5m25.6 0h-24.8l-.4.5H146l.3-.5m25.5 0H147l-.3.5h24.9l.2-.5m25.5 0h-24.8l-.3.5h24.9l.2-.5m25.5 0H198l-.2.5h24.9l.1-.5m25.5 0h-24.8l-.2.5h24.9l.1-.5m25.5 0H249l-.1.5h24.9v-.5m25.6 0h-24.8v.5h24.9l-.1-.5m25.5 0H300v.5h25l-.1-.5m25.5 0h-24.8l.1.5h24.9l-.2-.5m25.5 0h-24.8l.2.5h24.9l-.3-.5m25.5 0h-24.8l.2.5h24.9l-.3-.5m25.5 0h-24.8l.3.5h24.9l-.4-.5m25.6 0h-24.8l.3.5h24.9l-.4-.5m25.5 0h-24.8l.4.5h24.9l-.5-.5m25.5 0h-24.8l.5.5H504l-.5-.5m25.5 0h-24.8l.5.5h24.9l-.6-.5m25.9 0h-25.1l.6.5h25.2l-.7-.5M64.3 628.8H41.2l-.5.4h23.1l.5-.4m23.4 0H64.9l-.5.4h22.8l.5-.4m23.4 0H88.3l-.4.4h22.8l.4-.4m23.4 0h-22.8l-.4.4h22.8l.4-.4m23.4 0h-22.8l-.3.4h22.8l.3-.4m23.4 0h-22.8l-.3.4H181l.3-.4m23.4 0h-22.8l-.2.4h22.8l.2-.4m23.4 0h-22.8l-.2.4H228l.1-.4m23.4 0h-22.8l-.1.4h22.8l.1-.4m23.4 0h-22.8l-.1.4h22.8l.1-.4m23.4 0h-22.8v.4h22.8v-.4m23.4 0H299v.4h22.8l-.1-.4m23.4 0h-22.8l.1.4h22.8l-.1-.4m23.5 0h-22.8l.1.4h22.8l-.1-.4m23.4 0h-22.8l.2.4h22.8l-.2-.4m23.4 0h-22.8l.2.4h22.8l-.2-.4m23.4 0H416l.3.4h22.8l-.3-.4m23.4 0h-22.8l.3.4h22.8l-.3-.4m23.4 0h-22.8l.4.4H486l-.4-.4m23.4 0h-22.8l.4.4h22.8l-.4-.4m23.7 0h-23.1l.5.4h23.1l-.5-.4M81.3 614H60l-.5.4h21.4l.4-.4m21.6 0h-21l-.4.4h21.1l.3-.4m21.6 0h-21.1l-.4.4h21.1l.4-.4m21.6 0h-21l-.3.4h21.1l.2-.4m21.6 0h-21l-.3.4h21.1l.2-.4m21.7 0h-21l-.2.4h21.1l.1-.4m21.6 0h-21l-.2.4h21.1l.1-.4m21.6 0h-21l-.2.4h21.1l.1-.4m21.6 0h-21l-.1.4h21.1v-.4m21.6 0h-21l-.1.4h21.1v-.4m21.7 0h-21.1v.4h21.1v-.4m21.6 0h-21v.4h21.1l-.1-.4m21.6 0h-21l.1.4h21.1l-.2-.4m21.6 0h-21.1l.1.4h21.1l-.1-.4m21.6 0h-21l.2.4h21.1l-.3-.4m21.7 0h-21l.2.4h21.1l-.3-.4m21.6 0h-21.1l.2.4h21.1l-.2-.4m21.6 0h-21l.3.4h21.1l-.4-.4m21.6 0h-21l.3.4h21.1l-.4-.4m21.6 0h-21l.4.4h21.1l-.5-.4m21.9 0h-21.3l.4.4h21.4l-.5-.4m-418-12.7H76l-.4.3h19.9l.4-.3m20 0H96.4l-.4.3h19.6l.3-.3m20.1 0h-19.6l-.3.3h19.6l.3-.3m20.1 0h-19.6l-.3.3h19.6l.3-.3m20.1 0h-19.6l-.2.3H176l.2-.3m20.1 0h-19.6l-.2.3h19.6l.2-.3m20.1 0h-19.6l-.2.3h19.6l.2-.3m20.1 0h-19.6l-.1.3h19.6l.1-.3m20 0H237l-.1.3h19.6v-.3m20.1 0H257l-.1.3h19.6l.1-.3m20.1 0h-19.6v.3h19.6v-.3m20.1 0h-19.6v.3h19.6v-.3m20.1 0h-19.6l.1.3H337l-.1-.3m20.1 0h-19.6l.1.3h19.6l-.1-.3m20.1 0h-19.6l.1.3h19.6l-.1-.3m20 0h-19.6l.2.3h19.6l-.2-.3m20.1 0h-19.6l.2.3h19.6l-.2-.3m20.1 0h-19.6l.2.3h19.6l-.2-.3m20.1 0h-19.6l.3.3h19.6l-.3-.3m20.1 0h-19.6l.3.3h19.6l-.3-.3m20.3 0H478l.4.3h19.9l-.5-.3"/><path d="M108.5 590.3H90l-.3.3h18.6l.2-.3m18.8 0H109l-.3.3H127l.3-.3m18.7 0h-18.3l-.3.3h18.3l.3-.3m18.8 0h-18.3l-.2.3h18.3l.2-.3m18.7 0h-18.3l-.2.3h18.3l.2-.3m18.8 0H184l-.2.3h18.3l.2-.3m18.7 0h-18.3l-.1.3h18.3l.1-.3m18.8 0h-18.3l-.1.3h18.3l.1-.3m18.8 0h-18.3l-.1.3h18.3l.1-.3m18.7 0H259v.3h18.3v-.3m18.8 0h-18.3v.3h18.3v-.3m18.7 0h-18.3v.3h18.3v-.3m18.8 0h-18.3v.3h18.3v-.3m18.7 0H334l.1.3h18.3l-.1-.3m18.8 0h-18.3l.1.3h18.3l-.1-.3m18.7 0h-18.3l.1.3H390l-.2-.3m18.8 0h-18.3l.2.3h18.3l-.2-.3m18.8 0h-18.3l.2.3h18.3l-.2-.3m18.7 0h-18.3l.2.3h18.3l-.2-.3m18.8 0h-18.3l.3.3h18.3l-.3-.3m19 0h-18.5l.3.3h18.6l-.4-.3m-364.3-9.7h-17.3l-.3.2h17.4l.2-.2m17.6 0h-17.1l-.3.2H137l.2-.2m17.6 0h-17.1l-.2.2h17.2l.1-.2m17.6 0h-17.1l-.2.2h17.2l.1-.2m17.6 0h-17.1l-.2.2h17.2l.1-.2m17.6 0h-17.1l-.2.2h17.2l.1-.2m17.5 0H208l-.1.2H225l.1-.2m17.6 0h-17.1l-.1.2h17.2v-.2m17.6 0h-17.1l-.1.2h17.2v-.2m17.6 0h-17.1v.2H278l-.1-.2m17.6 0h-17.1v.2h17.2l-.1-.2m17.6 0H296v.2h17.2l-.1-.2m17.6 0h-17.1v.2h17.2l-.1-.2m17.6 0h-17.1l.1.2h17.2l-.2-.2m17.6 0h-17.1l.1.2H366l-.1-.2m17.6 0h-17.1l.1.2h17.2l-.2-.2m17.5 0h-17.1l.2.2h17.2l-.3-.2m17.6 0h-17.1l.2.2h17.2l-.3-.2m17.6 0h-17.1l.2.2h17.2l-.3-.2m17.6 0h-17.1l.2.2h17.2l-.3-.2m17.8 0h-17.3l.3.2H472l-.4-.2m-342.2-8.5H113l-.3.2H129l.4-.2m16.5 0h-16.1l-.2.2h16.1l.2-.2m16.6 0h-16.1l-.2.2h16.2l.1-.2m16.6 0H163l-.2.2h16.1l.2-.2m16.5 0h-16.1l-.2.2h16.1l.2-.2m16.6 0h-16.1l-.1.2h16.1l.1-.2m16.6 0h-16.1l-.1.2h16.1l.1-.2m16.5 0h-16.1l-.1.2h16.1l.1-.2m16.6 0h-16.1l-.1.2h16.1l.1-.2m16.5 0h-16.1v.2h16.1v-.2m16.6 0h-16.1v.2H295v-.2m16.6 0h-16.1v.2h16.1v-.2m16.5 0H312v.2h16.1v-.2m16.6 0h-16.1l.1.2h16.2l-.2-.2m16.5 0h-16.1l.1.2h16.1l-.1-.2m16.6 0h-16.1l.1.2H378l-.2-.2m16.6 0h-16.1l.1.2h16.2l-.2-.2m16.5 0h-16.1l.2.2h16.1l-.2-.2m16.6 0h-16.1l.2.2h16.1l-.2-.2m16.6 0H428l.2.2h16.2l-.3-.2m16.7 0h-16.3l.2.2H461l-.2-.2m-322.7-7.6h-15.4l-.2.2H138l.1-.2m15.6 0h-15.2l-.2.2h15.3l.1-.2m15.7 0h-15.2l-.2.2h15.3l.1-.2m15.6 0h-15.2l-.2.2h15.3l.1-.2m15.7 0h-15.2l-.1.2h15.3v-.2m15.6 0h-15.2l-.1.2h15.3v-.2m15.7 0h-15.2l-.1.2H232v-.2m15.6 0h-15.2l-.1.2h15.3v-.2m15.7 0H248l-.1.2h15.3l.1-.2m15.6 0h-15.2v.2H279l-.1-.2m15.7 0h-15.2v.2h15.3l-.1-.2m15.6 0H295v.2h15.3l-.1-.2m15.6 0h-15.2v.2h15.3l-.1-.2m15.7 0h-15.2l.1.2h15.3l-.2-.2m15.6 0h-15.2l.1.2h15.3l-.2-.2m15.7 0h-15.2l.1.2H373l-.2-.2m15.6 0h-15.2l.1.2h15.3l-.2-.2m15.7 0h-15.2l.2.2h15.3l-.3-.2m15.6 0h-15.2l.2.2H420l-.3-.2m15.7 0h-15.2l.2.2h15.3l-.3-.2m15.8 0h-15.4l.2.2h15.5l-.3-.2"/><path d="M145.9 557.7h-14.6l-.2.2h14.7l.1-.2m14.8 0h-14.4l-.2.2h14.5l.1-.2m14.8 0h-14.4l-.2.2h14.5l.1-.2m14.9 0H176l-.2.2h14.5l.1-.2m14.8 0h-14.4l-.1.2h14.5v-.2m14.8 0h-14.4l-.1.2H220v-.2m14.8 0h-14.4l-.1.2h14.5v-.2m14.9 0h-14.4l-.1.2h14.5v-.2m14.8 0h-14.4l-.1.2h14.5v-.2m14.8 0h-14.4v.2h14.5l-.1-.2m14.9 0h-14.4v.2h14.5l-.1-.2m14.8 0h-14.4v.2H309v-.2m14.8 0h-14.4v.2h14.5l-.1-.2m14.8 0h-14.4l.1.2h14.5l-.2-.2m14.9 0H339l.1.2h14.5l-.1-.2m14.8 0h-14.4l.1.2h14.5l-.2-.2m14.8 0h-14.4l.1.2h14.5l-.2-.2m14.8 0h-14.4l.1.2h14.5l-.2-.2m14.9 0h-14.4l.2.2H413l-.2-.2m14.8 0h-14.4l.2.2h14.5l-.3-.2m15 0H428l.2.2h14.7l-.3-.2m-289.7-6.1H139l-.2.2h13.9l.2-.2m14.1 0h-13.7l-.2.2h13.7l.2-.2m14.1 0h-13.7l-.2.2h13.7l.2-.2m14.1 0h-13.7l-.1.2H195l.2-.2m14.1 0h-13.7l-.1.2h13.7l.1-.2m14.1 0h-13.7l-.1.2h13.7l.1-.2m14 0h-13.7l-.1.2h13.7l.1-.2m14.1 0h-13.7l-.1.2h13.7l.1-.2m14.1 0h-13.7v.2h13.7v-.2m14.1 0H266v.2h13.7v-.2m14.1 0h-13.7v.2h13.7v-.2m14.1 0h-13.7v.2h13.7v-.2m14.1 0h-13.7v.2H322v-.2m14.1 0h-13.7v.2h13.7v-.2m14.1 0h-13.7l.1.2h13.7l-.1-.2m14 0h-13.7l.1.2h13.7l-.1-.2m14.1 0h-13.7l.1.2h13.7l-.1-.2m14.1 0h-13.7l.1.2h13.7l-.1-.2m14.1 0h-13.7l.1.2h13.7l-.1-.2m14.1 0h-13.7l.2.2h13.7l-.2-.2m14.3 0H421l.2.2h13.9l-.2-.2M159.3 546H146l-.2.1h13.3l.2-.1m13.4 0h-13.1l-.2.1h13.1l.2-.1m13.4 0H173l-.1.1H186l.1-.1m13.4 0h-13.1l-.1.1h13.1l.1-.1m13.4 0h-13.1l-.1.1h13.1l.1-.1m13.5 0h-13.1l-.1.1h13.1l.1-.1m13.4 0h-13.1l-.1.1h13.1l.1-.1m13.4 0h-13.1l-.1.1h13.1l.1-.1m13.4 0h-13.1v.1l13.1-.1m13.5 0H267v.1h13l.1-.1m13.4 0h-13.1v.1l13.1-.1m13.4 0h-13.1v.1l13.1-.1m13.4 0h-13.1v.1l13.1-.1m13.4 0h-13.1v.1l13.1-.1m13.5 0h-13.1l.1.1h13.1l-.1-.1m13.4 0h-13.1l.1.1h13.1l-.1-.1m13.4 0h-13.1l.1.1h13.1l-.1-.1m13.4 0h-13.1l.1.1h13.1l-.1-.1m13.4 0h-13.1l.1.1H401l-.2-.1m13.5 0h-13.1l.1.1h13.1l-.1-.1m13.6 0h-13.3l.2.1 13.1-.1.2.1-.2-.1M165 541h-12.7l-.2.1h12.7l.2-.1m12.8 0h-12.5l-.1.1h12.5l.1-.1m12.9 0h-12.5l-.1.1h12.5l.1-.1m12.8 0H191l-.1.1h12.5l.1-.1m12.8 0h-12.5l-.1.1h12.5l.1-.1m12.8 0h-12.5l-.1.1H229l.1-.1m12.8 0h-12.5l-.1.1h12.5l.1-.1m12.8 0h-12.5l-.1.1h12.5l.1-.1m12.8 0H255v.1l12.5-.1m12.9 0h-12.5v.1l12.5-.1m12.8 0h-12.5v.1l12.5-.1m12.8 0h-12.5v.1l12.5-.1m12.8 0h-12.5v.1l12.5-.1m12.8 0h-12.5v.1l12.5-.1m12.8 0H332l.1.1h12.5l-.2-.1m12.8 0h-12.5l.1.1h12.5l-.1-.1m12.9 0h-12.5l.1.1h12.5l-.1-.1m12.8 0h-12.5l.1.1H383l-.1-.1m12.8 0h-12.5l.1.1h12.5l-.1-.1m12.8 0H396l.1.1h12.5l-.1-.1m13 0h-12.7l.1.1h12.7l-.1-.1m-251.2-4.6h-12.1l-.1.1h12.1l.1-.1m12.3 0h-11.9l-.1.1h11.9l.1-.1m12.2 0h-11.9l-.1.1 12-.1m12.3 0h-11.9l-.1.1H207l.1-.1m12.2 0h-11.9l-.1.1h11.9l.1-.1m12.3 0h-11.9l-.1.1h11.9l.1-.1m12.3 0H232l-.1.1h11.9l.1-.1m12.2 0h-11.9v.1l11.9-.1m12.3 0h-11.9v.1l11.9-.1m12.2 0h-11.9v.1l11.9-.1m12.3 0H281v.1h12l-.1-.1m12.3 0h-11.9v.1l11.9-.1m12.2 0h-11.9v.1l11.9-.1m12.3 0h-11.9v.1h12l-.1-.1m12.2 0H330v.1h12l-.1-.1m12.3 0h-11.9l.1.1h11.9l-.1-.1m12.3 0h-11.9l.1.1h12l-.2-.1m12.2 0h-11.9l.1.1h11.9l-.1-.1m12.3 0h-12l.1.1 11.9-.1m12.2 0h-11.9l.1.1h12l-.2-.1m12.5 0h-12.1l.1.1h12.1l-.1-.1m-240.5-4.2h-11.6l-.1.1H175l.2-.1m11.7 0h-11.4l-.1.1 11.5-.1m11.8 0h-11.4l-.1.1 11.5-.1m11.7 0H199l-.1.1 11.5-.1m11.8 0h-11.4l-.1.1 11.5-.1m11.7 0h-11.4l-.1.1 11.5-.1m11.8 0h-11.4l-.1.1 11.5-.1m11.7 0H246v.1h11.5l-.1-.1m11.8 0h-11.4v.1h11.5l-.1-.1m11.7 0h-11.4v.1H281l-.1-.1m11.8 0h-11.4v.1h11.5l-.1-.1m11.7 0H293v.1h11.5l-.1-.1m11.8 0h-11.4v.1h11.5l-.1-.1m11.7 0h-11.4v.1H328l-.1-.1m11.8 0h-11.4v.1h11.5l-.1-.1m11.7 0H340l.1.1h11.5l-.2-.1m11.8 0h-11.4l.1.1h11.5l-.2-.1m11.7 0h-11.4l.1.1H375l-.1-.1m11.8 0h-11.4l.1.1h11.5l-.2-.1m11.7 0H387l.1.1h11.5l-.2-.1m11.9 0h-11.6l.1.1 11.5-.1.2.1-.2-.1m-230.7-3.9h-11.2l-.1.1h11.2l.1-.1m11.3 0h-11l-.1.1h11l.1-.1m11.3 0h-11l-.1.1 11.1-.1m11.3 0h-11l-.1.1 11.1-.1m11.2 0h-11l-.1.1 11.1-.1m11.3 0h-11l-.1.1 11.1-.1m11.3 0h-11l-.1.1 11.1-.1m11.3 0h-11v.1l11-.1m11.3 0h-11v.1l11-.1m11.2 0h-11v.1l11-.1m11.3 0h-11v.1l11-.1m11.3 0h-11v.1l11-.1m11.3 0h-11v.1l11-.1m11.3 0h-11v.1l11-.1m11.3 0h-11v.1l11-.1m11.2 0h-11l.1.1 10.9-.1m11.3 0h-11l.1.1 10.9-.1m11.3 0h-11l.1.1 10.9-.1m11.3 0h-11l.1.1h11l-.1-.1m11.3 0h-11l.1.1h11l-.1-.1m11.4 0h-11.2l.1.1 11.1-.1.1.1-.1-.1m-221.7-3.6H173l-.1.1h.1l10.7-.1m10.9 0H184l-.1.1 10.7-.1m10.8 0h-10.6l-.1.1 10.7-.1m10.9 0h-10.6l-.1.1 10.7-.1m10.8 0h-10.6l-.1.1 10.7-.1m10.9 0h-10.6l-.1.1 10.7-.1m10.8 0h-10.6v.1l10.6-.1m10.9 0h-10.6v.1l10.6-.1m10.8 0H260v.1l10.5-.1m10.9 0h-10.6v.1l10.6-.1m10.8 0h-10.6v.1l10.6-.1m10.9 0h-10.6v.1l10.6-.1m10.8 0h-10.6v.1l10.6-.1m10.9 0h-10.6v.1l10.6-.1m10.8 0H325v.1l10.6-.1m10.9 0h-10.6v.1l10.6-.1m10.8 0h-10.6l.1.1 10.5-.1m10.9 0h-10.6l.1.1 10.5-.1m10.8 0h-10.6l.1.1 10.5-.1m10.9 0h-10.6l.1.1H390l-.1-.1m11 0h-10.7l.1.1 10.6-.1.1.1-.1-.1"/><path d="M386.4 521.4h-.3l.1.1 3.7 3.2.1.1 4 3.5.1.1 4.3 3.8.1.1 4.7 4.1.2.1 5.1 4.5.2.1 5.6 4.9.1.2 6.2 5.4.2.1 6.8 6 .2.2 7.6 6.6.2.2 8.5 7.4.2.2 9.5 8.3.3.2 10.8 9.5.3.2 12.3 10.8.4.3L492 614l.5.4 16.5 14.4.5.5 19.5 17 .6.5 53.5 46.8 35.6 31.1 1.1.9 45.6 39.9 1.4 1.3 61.6 53.8h1.3l-1-.8-60.8-53-1.4-1.3-45.8-39.9-1.1-.9-65.9-57.4-23.4-20.5-.6-.5-19.6-17-.5-.5-16.6-14.4-.4-.4-14.2-12.4-.4-.3-12.3-10.8-.3-.2-10.8-9.5-.3-.2-9.6-8.3-.2-.2-8.5-7.4-.2-.2-7.6-6.6-.2-.2-6.8-6-.2-.1-6.2-5.4-.2-.2-5.6-4.9-.2-.1-5.1-4.5-.1-.1-4.7-4.1-.2-.1-4.3-3.8-.1-.1-4-3.5-.1-.1-3.7-3.2-.1-.1m-10.5 0h-.2v.1l3.4 3.3 3.6 3.5.1.1 3.9 3.8.1.1 4.2 4.1.1.1 4.6 4.5.1.1 5 4.9.2.2 5.5 5.4.2.1 6.3 6.2 6.9 6.8 7.8 7.6 8.5 8.3.3.2 9.6 9.5.3.2 11.3 11.1 12.7 12.4.4.4 14.8 14.4.4.5 18 17.5 20.9 20.5.7.6 25.5 24.9.8.8 31.8 31.1 1 .9 40.8 39.9 1.3 1.3 54.2 53 .9.8h1.2l-.8-.8-54.5-53-1.2-1.3-41-39.9-1-.9-80.4-78.4-17.6-17-.4-.5L471 614l-12.7-12.4-.4-.3-11-10.8-.3-.2-9.7-9.5-.2-.2-8.5-8.3-.3-.2-7.6-7.4-.2-.2-6.8-6.6-.1-.2-6.2-6-.1-.1-5.6-5.4-.1-.2-5-4.9-.2-.1-9-8.8-7.7-7.5-3.3-3.2-.1-.1m-10.4 0h-.3l.1.1 2.9 3.2.1.1 3.1 3.5.1.1 3.4 3.8.1.1 3.7 4.1.1.1 4.1 4.5.1.1 4.4 4.9.2.2 4.8 5.4.2.1 5.3 6 .2.2 6 6.6.2.2 6.6 7.4.2.2 7.5 8.3.3.2 8.5 9.5.2.2 9.7 10.8.3.3 11.2 12.4.3.4 13.1 14.4.4.5 15.4 17 .4.5 18.5 20.5.5.6 22.6 24.9.6.8 28.1 31.1.9.9 36 39.9 1.1 1.3 47.9 53 .8.8h1.2l-.8-.8-48-53-1.1-1.3-36.2-39.9-.8-.9-51.5-56.8-.6-.6-18.5-20.5-.5-.5-15.4-17-.4-.5-13.1-14.4-.3-.4-11.3-12.4-.2-.3-9.8-10.8-.2-.2-8.6-9.5-.2-.2-7.5-8.3-.2-.2-6.7-7.4-.2-.2-6-6.6-.2-.2-5.4-6-.1-.1-4.9-5.4-.1-.2-4.5-4.9-.1-.1-4-4.5-.2-.1-3.7-4.1-.1-.1-3.4-3.8-.1-.1-3.2-3.5v-.1l-3-3.2v-.1m-10.5 0h-.2v.1l2.5 3.2.1.1 2.7 3.5.1.1 3 3.8.1.1 3.2 4.1.1.1 3.5 4.5.1.1 3.8 4.9.1.2 4.2 5.4.2.1 4.6 6 .2.2 5.1 6.6.2.2 5.8 7.4.1.2 6.5 8.3.2.2 7.4 9.5.2.2 8.4 10.8.3.3 9.7 12.4.3.4 11.3 14.4.3.5 13.8 17.5 15.9 20.5.5.6 19.5 24.9.6.8 56.3 71.9 1 1.3 41.5 53 .6.8h1.3l-.7-.8-42.6-54.3-31.4-39.9-.7-.9-44.6-56.8-.5-.6-29.9-38-.3-.5-11.4-14.4-.2-.4-9.8-12.4-.2-.3-8.5-10.8-.2-.2-7.4-9.5-.2-.2-6.5-8.3-.2-.2-5.8-7.4-.1-.2-5.3-6.6-.1-.2-4.7-6-.1-.1-4.2-5.4-.1-.2-3.9-4.9-.1-.1-3.5-4.5-.1-.1-3.2-4.1-.1-.1-3-3.8-.1-.1-2.7-3.5-.1-.1-2.5-3.2-.1-.1"/><path d="M344.6 521.4h-.3v.1l2.2 3.2v.1l2.3 3.5.1.1 2.5 3.8.1.1 2.7 4.1.1.1 2.9 4.5.1.1 3.3 4.9.1.2 3.5 5.4.1.1 4 6 .1.2 4.4 6.6.1.2 4.9 7.4.2.2 5.5 8.3.1.2 6.2 9.5.2.2 7.1 10.8.3.3 8.2 12.4.2.4 9.6 14.4.2.5 11.3 17 .4.5 13.9 21.1 64.6 97.6.8 1.3 35.1 53 .6.8h1.2l-.5-.8-36.1-54.3-26.5-39.9-.7-.9-20.7-31.1-.5-.8-17-25.5-13.6-20.5-.3-.5-11.3-17-.3-.5-9.6-14.4-.3-.4-8.4-12.7-7.2-10.8-.2-.2-6.2-9.5-.2-.2-5.5-8.3-.2-.2-4.9-7.4-.1-.2-4.4-6.6-.1-.2-4-6-.1-.1-3.6-5.4-.1-.2-3.2-4.9-.1-.1-3-4.5-.1-.1-2.7-4.1-.1-.1-2.5-3.8-.1-.1-2.3-3.5v-.1l-2.2-3.2v-.1m-10.5 0h-.2v.1l1.7 3.2.1.1 1.9 3.5v.1l2.1 3.8v.1l2.2 4.1.1.1 2.4 4.5.1.1 2.7 4.9v.2l3 5.4v.1l3.3 6 .1.2 3.5 6.6.1.2 4 7.4.2.2 4.5 8.3.1.2 5.1 9.5.1.2 5.9 10.8.1.3 6.7 12.4.2.4 7.9 14.4.2.5 9.2 17 .3.5 94 173.8h1.3l-.5-.8-28.8-53-.7-1.3-22.2-40.8-17-31.1-.4-.8-13.6-24.9-.3-.6-11.1-20.5-.3-.5-9.3-17-.2-.5-7.9-14.4-.2-.4-6.7-12.4-.2-.3-5.9-10.8-.1-.2-5.1-9.5-.2-.2-4.5-8.3-.1-.2-4.1-7.6-3.6-6.6-.1-.2-3.3-6-.1-.1-2.9-5.4-.1-.2-2.7-4.9v-.1l-2.5-4.5v-.1l-2.3-4.1v-.1l-2.1-3.8v-.1l-1.9-3.5-.1-.1-1.8-3.2v-.1m-10.4 0h-.3v.1l1.4 3.2v.1l1.5 3.5v.1l1.6 3.8.1.1 1.7 4.1v.1l1.9 4.5.1.1 2 4.9.1.2 2.3 5.4v.1l2.5 6 .1.2 2.8 6.6.1.2 3.1 7.4.1.2 3.5 8.3.1.2 3.9 9.5.2.2 4.5 10.8.1.3 5.2 12.4.2.4 6.1 14.4.1.5 7.2 17 .2.5 8.6 20.5.3.6 10.5 24.9.3.8 13.5 32 16.7 39.9.6 1.3 22.6 53.8h1.2l-.3-.8-22.5-53-.5-1.3-16.9-39.9-.4-.9-13.2-31.1-.3-.8-10.6-24.9-.2-.6-16.1-38-.2-.5-6.2-14.4-.1-.4-5.3-12.4-.1-.3-4.5-10.8-.2-.2-4-9.5-.1-.2-3.5-8.3-.1-.2-3.1-7.4-.1-.2-2.8-6.6-.1-.2-2.5-6-.1-.1-2.2-5.4-.1-.2-2.1-4.9v-.1l-1.9-4.5-.1-.1-1.7-4.1-.1-.1-1.6-3.8v-.1l-1.5-3.5v-.1l-1.4-3.2v-.1m-10.5 0h-.3l.1.1.9 3.2v.1l1.1 3.5v.1l1.2 3.8v.1l1.2 4.1.1.1 1.3 4.5v.1l1.5 4.9.1.2 1.6 5.4v.1l1.8 6 .1.2 1.9 6.6.1.2 2.2 7.4.1.2 2.5 8.3.1.2 2.8 9.5.1.2 3.2 10.8.1.3 3.7 12.4.1.4 4.3 14.4.2.5 5.1 17 .1.5 6.2 20.5.2.6 7.4 24.9.3.8 9.3 31.1.3.9 12.3 41.2 15.9 53 .3.8h1.2l-.3-.8-16.4-54.3-12.1-39.9-.3-.9-9.4-31.1-.2-.8-7.6-24.9-.2-.6-6.2-20.5-.1-.5-5.2-17-.1-.5-4.4-14.4-.1-.4-3.8-12.4-.1-.3-3.2-10.8-.1-.2-2.9-9.5-.1-.2-2.5-8.3v-.2l-2.3-7.4v-.2l-2-6.6-.1-.2-1.8-6-.1-.1-1.6-5.4v-.2l-1.5-4.9-.1-.1-1.3-4.5v-.1l-1.3-4.1v-.1l-1.2-3.8v-.1l-1.1-3.5v-.1l-1-3.2v-.1"/><path d="M302.8 521.4h-.3v.1l.6 3.2v.1l.6 3.5v.1l.7 3.8v.1l.8 4.1v.1l.8 4.5v.1l.9 4.9v.2l1 5.4v.1l1.1 6v.2l1.2 6.6v.2l1.4 7.4v.2l1.5 8.3v.2l1.7 9.5.1.2 1.9 10.8.1.3 2.2 12.4v.4l2.7 14.9 3.2 17.5 3.7 21.1 4.5 24.9.2.8 5.5 31.1.2.9 7.2 39.9.2 1.3 9.5 53 .1.8h1.3l-.2-.8-9.7-53-.2-1.3-7.3-39.9-.1-.9-5.7-31.1-.2-.8-4.5-24.9-.1-.6-3.8-20.5v-.5l-3.2-17v-.5l-2.7-14.4v-.4l-2.3-12.4-.1-.3-1.9-10.8-.1-.2-1.7-9.5v-.2l-1.6-8.3v-.2l-1.3-7.4-.1-.2-1.2-6.6v-.2l-1.1-6v-.1l-1-5.4v-.2l-.9-4.9-.1-.1-.8-4.5v-.1l-.8-4.1v-.1l-.7-3.8v-.1l-.6-3.5v-.1l-.6-3.2v-.1m-10.5 0h-.3v.1l.2 3.2v.1l.2 3.5v.1l.3 3.8v.1l.2 4.1v.1l.3 4.5v.1l.3 4.9v.2l.3 5.4v.1l.4 6v.2l.4 6.6v.2l.4 7.4v.2l.5 8.3v.2l.6 9.5v.2l.6 10.8v.3l.8 12.4v.4l.8 14.4.1.5 1 17v.5l1.2 20.5v.6l1.5 24.9v.8l1.9 31.1v.9l2.4 39.9v1.3l3.2 53v.8h1.2v-.8L299 629.3v-.5l-.9-14.4-.1-.4-.7-12.4-.1-.3-.6-10.8v-.2l-.6-9.5v-.2l-.5-8.3-.1-.2-.4-7.4v-.2l-.4-6.6v-.2l-.4-6v-.1l-.4-5.4v-.2l-.3-4.9v-.1l-.3-4.5v-.1l-.2-4.1v-.1l-.3-3.8v-.1l-.2-3.5v-.1l-.2-3.2v-.1m-10.5 0h-.2v.1l-.2 3.2v.1l-.3 3.5v.1l-.2 3.8v.1l-.3 4.1v.1l-.2 4.5v.1l-.3 4.9-.1.2-.3 5.4v.1l-.4 6v.2l-.4 6.6v.2l-.5 7.4v.2l-.5 8.3v.2l-.6 9.5v.2l-.7 10.8v.3l-.8 12.4v.4l-.9 14.4v.5l-1.1 17v.5l-1.3 20.5v.6l-1.5 24.9-.1.8-1.9 31.1-.1.9-2.5 41.2-3.3 53v.8h1.2v-.8l3.2-54.3 2.4-39.9v-.9l1.8-31.1.1-.8 1.5-24.9v-.6l1.2-20.5v-.5l1-17v-.5l.9-14.4v-.4l.7-12.4.1-.3.6-10.8v-.2l.6-9.5v-.2l.5-8.3v-.2l.4-7.4v-.2l.4-6.6v-.2l.4-6v-.1l.3-5.4v-.2l.3-4.9v-.1l.3-4.5v-.1l.2-4.1v-.1l.2-3.8v-.1l.3-3.5v-.1l.1-3.2v-.1m-10.4 0h-.3v.1l-.6 3.2v.1l-.6 3.5-.1.1-.6 3.8-.1.1-.7 4.1v.1l-.9 4.5v.1l-.9 4.9v.2l-1 5.4v.1l-1.1 6v.2l-1.2 6.6-.1.2-1.3 7.4-.1.2-1.5 8.3v.2l-1.7 9.5-.1.2-2 10.8v.3l-2.3 12.4v.4l-2.7 14.4-.1.5-3.1 17-.1.5-3.8 21.1-4.6 24.9-.1.8-5.7 31.1-.1.9-7.3 39.9-.3 1.3-9.6 53-.2.8h1.2l.2-.8 9.5-53 .2-1.3 7.2-39.9.1-.9 5.6-31.1.2-.8 4.5-25.5 3.8-21 3.1-17v-.5l2.6-14.4.1-.4 2.2-12.4.1-.3 1.9-10.8.1-.2 1.6-9.5.1-.2 1.5-8.3v-.2l1.3-7.4.1-.2 1.2-6.6v-.2l1.1-6v-.1l1-5.4v-.2l.9-4.9v-.1l.8-4.5v-.1l.7-4.1.1-.1.6-3.8.1-.1.6-3.5v-.1l.6-3.2v-.1"/><path d="M260.9 521.4h-.2v.1l-1 3.2-.1.1-1 3.5v.1l-1.2 3.8v.1l-1.3 4.1v.1l-1.4 4.5v.1l-1.5 4.9v.2l-1.7 5.4v.1l-1.8 6-.1.2-2 6.6v.2l-2.3 7.4v.2l-2.6 8.3v.2l-2.9 9.5-.1.2-3.2 10.8-.1.3-3.8 12.4-.1.4-4.4 14.4-.1.5-5.2 17-.1.5-6.2 20.5-.2.6-7.6 24.9-.2.8-9.4 31.1-.3.9-12.5 41.2-16.1 53-.2.8h1.2l.3-.8 15.9-53 .3-1.3 12-39.9.3-.9 9.3-31.1.2-.8 7.7-25.5 6.1-20.5.2-.5 5.1-17 .1-.5 4.4-14.4.1-.4 3.7-12.4.1-.3 3.2-10.8.1-.2 2.8-9.5.1-.2 2.5-8.3.1-.2 2.2-7.4v-.2l2-6.6.1-.2 1.8-6v-.1l1.6-5.4.1-.2 1.4-4.9.1-.1 1.3-4.5.1-.1 1.2-4.1v-.1l1.2-3.8v-.1l1-3.5.1-.1.9-3.2v-.1m-10.4 0h-.3v.1l-1.4 3.2v.1l-1.5 3.5v.1l-1.6 3.8-.1.1-1.7 4.1-.1.1-1.9 4.5v.1l-2.1 4.9-.1.2-2.3 5.4v.1l-2.6 6v.2l-2.8 6.6-.1.2-3.1 7.4-.1.2-3.6 8.3-.1.2-4 9.5-.1.2-4.5 10.8-.2.3L211 614l-.2.4-22.4 52.9-.2.6-10.6 24.9-.3.8-13.2 31.1-.4.9-16.9 39.9-.5 1.3-22.5 53-.4.8h1.3l.3-.8 63.9-151.9.3-.6 8.8-21 7.1-17 .2-.5 6.1-14.4.2-.4 5.2-12.4.1-.3 4.5-10.8.1-.2 4-9.5.1-.2 3.5-8.3.1-.2 3.1-7.4.1-.2 2.8-6.6v-.2l2.5-6 .1-.1 2.3-5.4v-.2l2.1-4.9.1-.1 1.8-4.5.1-.1 1.7-4.1.1-.1 1.6-3.8v-.1l1.5-3.5v-.1l1.4-3.2v-.1m-10.5 0h-.2l-.1.1-1.7 3.2-.1.1-1.9 3.5v.1l-2.1 3.8-.1.1-2.2 4.1-.1.1-2.4 4.5-.1.1-2.6 4.9-.1.2-2.9 5.4-.1.1-3.3 6-.1.2-3.6 6.6-.1.2-4.1 7.6-4.5 8.3-.2.2-5.1 9.5-.2.2-5.8 10.8-.2.3-6.7 12.4-.2.4-7.9 14.4-.2.5-9.3 17-.3.5-11.1 20.5-.4.6-13.5 24.9-.4.8-17.5 32-51.7 95h1.2l.5-.8 28.7-53 .6-1.3 21.6-39.9.5-.9 16.9-31.1.4-.8 13.5-24.9.3-.6 11.1-20.5.3-.5 9.2-17 .2-.5 7.8-14.4.2-.4 6.7-12.4.2-.3 5.8-10.8.2-.2 5.1-9.5.1-.2 4.5-8.3.1-.2 4-7.4.1-.2 3.6-6.6.1-.2 3.2-6 .1-.1 2.9-5.4.1-.2 2.7-4.9v-.1l2.5-4.5v-.1l2.3-4.1v-.1l2.1-3.8v-.1l1.9-3.5.1-.1 1.7-3.2v-.1m-10.4 0h-.3v.1l-2.2 3.2v.1l-2.4 3.5v.1l-2.5 3.8-.1.1-2.8 4.1v.1l-3 4.5-.1.1-3.3 4.9-.1.2-3.5 5.4-.1.1-4 6-.1.2-4.4 6.6-.2.2-4.9 7.4-.1.2-5.5 8.3-.2.2-6.3 9.5-.1.2-7.4 11.1-8.3 12.4-.2.4-9.6 14.4-.3.5-11.3 17-.4.5-14 21.1-16.6 24.9-.5.8L67 765.5l-.8 1.3-35.8 53.8h1.2l.5-.8 35.1-53 .9-1.3 78.5-118.7.3-.5 11.3-17 .3-.5 9.6-14.4.2-.4 8.2-12.4 7.4-11.1.1-.2 6.3-9.5.1-.2 5.5-8.3.2-.2 4.9-7.4.1-.2 4.4-6.6.1-.2 3.9-6 .1-.1 3.6-5.4.1-.2 3.2-4.9.1-.1 3-4.5.1-.1 2.7-4.1.1-.1 2.5-3.8v-.1l2.3-3.5.1-.1 2.1-3.2.1-.1m-10.5 0h-.3v.1l-2.5 3.2-.1.1-2.7 3.5-.1.1-3 3.8-.1.1-3.2 4.1-.1.1-3.5 4.5-.1.1-3.9 4.9-.1.2-4.2 5.4-.2.1-4.6 6-.2.2-5.2 6.6-.1.2-5.8 7.4-.2.2-6.5 8.3-.2.2-7.4 9.5-.2.2-8.5 10.8-.2.3-9.8 12.4-.3.4-11.3 14.4-.3.5-13.5 17-.3.5-16.6 21.1-19.6 24.9-.6.8-24.4 31.1-.8.9-74.6 95h1.3l.6-.8 41.5-53 .9-1.3 56.3-71.9.6-.8 19.6-24.9.4-.6 16.4-21 13.4-17 .3-.5 11.3-14.4.3-.4 9.7-12.4.2-.3 8.5-10.8.2-.2 7.3-9.5.2-.2 6.5-8.3.2-.2 5.8-7.4.1-.2 5.2-6.6.2-.2 4.6-6 .1-.1 4.3-5.4.1-.2 3.8-4.9.1-.1 3.5-4.5.1-.1 3.2-4.1.1-.1 3-3.8.1-.1 2.7-3.5.1-.1 2.5-3.2v-.1m-10.4 0h-.3v.1l-3 3.2-.1.1-3.1 3.5-.1.1-3.4 3.8-.1.1-3.8 4.1-.1.1-4 4.5-.2.1-4.4 4.9-.1.2-4.9 5.4-.2.1-5.4 6-.1.2-6 6.6-.2.2-6.7 7.4-.2.2-7.5 8.3-.2.2-8.6 9.5-.2.2-9.8 10.8-.3.3-11.2 12.4-.3.4-13.1 14.4-.4.5-15.5 17-.4.5-18.5 20.5-.6.6-22.6 24.9-.7.8-115.1 127h1.2l.8-.8L76.4 667.9l.6-.6 18.5-20.5.4-.5 15.4-17 .4-.5 13.1-14.4.3-.4 11.2-12.4.3-.3 9.7-10.8.2-.2 8.5-9.5.2-.2 7.6-8.3.1-.2 6.7-7.4.2-.2 6-6.6.1-.2 5.4-6 .2-.1 4.8-5.4.2-.2 4.4-4.9.1-.1 4-4.5.2-.1 3.7-4.1.1-.1 3.4-3.8.1-.1 3.1-3.5.1-.1 2.9-3.2.1-.1m-10.5 0h-.3v.1l-3.3 3.2-.1.1-7.6 7.4-.1.1-4.2 4.1-.2.1-9.7 9.5-.2.2-5.5 5.4-.2.1-6.3 6.2-7 6.8-7.6 7.4-.2.2-8.5 8.3-.3.2-9.6 9.5-.3.2-11.4 11.1-13.1 12.8-14.8 14.4-.5.5-17.5 17-.5.5-21.6 21.1-156 151.9-.8.8h1.2l.8-.8 54.3-53 1.3-1.3 40.8-39.9 1-.9L22 693.6l.8-.8 25.5-24.9.6-.6 21-20.5.5-.5 17.5-17 .4-.5 15.2-14.8 12.7-12.4.3-.3 11-10.8.3-.2 9.6-9.5.3-.2 8.5-8.3.2-.2 7.6-7.4.1-.2 6.8-6.6.2-.2 6.1-6 .2-.1 5.5-5.4.1-.2 5.1-4.9.1-.1 4.6-4.5.1-.1 4.2-4.1.1-.1 3.9-3.8.1-.1 3.6-3.5.1-.1 3.3-3.2v-.1m-10.4 0h-.3l-.1.1-3.7 3.2-.1.1-4 3.5-.1.1-4.3 3.8-.2.1-4.7 4.1-.1.1-5.2 4.5-.1.1-5.6 4.9-.2.2-6.2 5.4-.2.1-6.8 6-.2.2-7.6 6.6-.2.2-8.5 7.4-.3.2-9.5 8.3-.3.2-10.8 9.5-.3.2-12.3 10.8-.4.3L81.3 614l-.4.4-16.6 14.4-.5.5-19.6 17-.6.5-24.1 21.1-28.7 24.9-.8.8-35.7 31.1-1.1.9-45.8 39.9-1.4 1.3-61.8 53.8h1.2l1-.8 62.1-54.3 45.6-39.9 1.1-.9 232.6-203.3"/></g></g></g><path d="M212.2 699h-13a1.79 1.79 0 1 1 0-3.6h13a1.79 1.79 0 1 1 0 3.6zm13 0a1.79 1.79 0 1 1 0-3.6l13-.1a1.79 1.79 0 1 1 0 3.6c-4.3.1-8.7.1-13 .1zm-38.9-.1l-13-.2a1.79 1.79 0 1 1 0-3.6l13 .2a1.79 1.79 0 1 1 0 3.6zm64.9-.1a1.79 1.79 0 1 1 0-3.6l13-.1a1.79 1.79 0 1 1 0 3.6l-13 .1zm26-.3a1.79 1.79 0 1 1 0-3.6l13-.2a1.79 1.79 0 1 1 0 3.6l-13 .2zm-116.9-.1c-4.6-.1-9-.3-13.1-.5-1 0-1.8-.9-1.7-1.9s.9-1.8 1.9-1.7l13 .5c1 0 1.8.9 1.7 1.8a1.79 1.79 0 0 1-1.8 1.8zm142.9-.3a1.79 1.79 0 1 1 0-3.6l13-.2a1.79 1.79 0 1 1 0 3.6c-4.3 0-8.6.1-13 .2zm26-.5a1.79 1.79 0 1 1 0-3.6l13-.3c1 0 1.8.8 1.8 1.7 0 1-.8 1.8-1.7 1.8-4.4.2-8.7.3-13.1.4zm-194.8-.4h-.1c-4.9-.3-9.3-.7-13-1.1-1-.1-1.7-1-1.6-2s1-1.7 2-1.6a264.51 264.51 0 0 0 12.9 1.1 1.86 1.86 0 0 1 1.7 1.9c-.2 1-1 1.7-1.9 1.7zm220.8-.2c-1 0-1.8-.8-1.8-1.7 0-1 .8-1.8 1.7-1.8l13-.3c1 0 1.8.8 1.8 1.7 0 1-.8 1.8-1.7 1.8l-13 .3zm26-.7c-1 0-1.8-.8-1.8-1.7 0-1 .8-1.8 1.7-1.8l13.1-.4c1 0 1.8.8 1.8 1.7 0 1-.8 1.8-1.7 1.8-4.3.2-8.7.3-13.1.4zm26-.7c-1 0-1.8-.8-1.8-1.7 0-1 .8-1.8 1.7-1.8l13-.4c1 0 1.8.7 1.8 1.7s-.7 1.8-1.7 1.8l-13 .4zm25.9-.8c-1 0-1.8-.8-1.8-1.7 0-1 .7-1.8 1.7-1.8l13-.4c1 0 1.8.7 1.8 1.7s-.7 1.8-1.7 1.8l-13 .4zm26-.7c-1 0-1.8-.8-1.8-1.7 0-1 .7-1.8 1.7-1.8l13-.4c1 0 1.8.8 1.8 1.7 0 1-.8 1.8-1.7 1.8l-13 .4zm-356.4-.3c-.2 0-.4 0-.6-.1-.4-.1-.8-.3-1.2-.4-4-1.6-7.6-3.5-10.8-5.5-.8-.5-1.1-1.6-.5-2.5s1.6-1.1 2.5-.5c3 1.9 6.4 3.7 10.2 5.2.3.1 6.6.2 6.9.3.9.3 1.5 1.3 1.2 2.3-.3.8-7 1.2-7.7 1.2zm382.4-.6c-.9 0-1.6-.6-1.8-1.5-.1-1 .5-1.9 1.5-2 3.8-.5 7.7-2.1 11.2-4.5.8-.6 1.9-.3 2.5.5s.3 1.9-.5 2.5c-3.9 2.7-8.3 4.4-12.7 5h-.2zM81.3 679.6c-.5 0-1-.2-1.4-.6-3-3.6-5.1-7.4-6.6-11.9-.3-.9.2-2 1.1-2.3s2 .2 2.3 1.1c1.3 4 3.2 7.5 5.9 10.7.6.8.5 1.9-.2 2.5-.3.4-.7.5-1.1.5zm424.9-.2a1.69 1.69 0 0 1-1-.3c-.8-.6-1-1.7-.4-2.5 2.3-3.2 4.2-6.9 5.7-11.1.3-.9 1.4-1.4 2.3-1.1s1.4 1.4 1.1 2.3c-1.6 4.4-3.7 8.4-6.1 11.9-.4.5-1 .8-1.6.8zM72.9 655.6c-.9 0-1.7-.7-1.8-1.7-.1-1.2-.1-2.4-.2-3.5-.1-1.4-.1-2.7-.2-3.8 0-.6-.1-1.2-.1-1.8 0-1.5.1-2.9.4-4.3a1.74 1.74 0 0 1 2.1-1.4 1.74 1.74 0 0 1 1.4 2.1c-.2 1.2-.4 2.4-.4 3.6 0 .5 0 1 .1 1.5.1 1.2.2 2.5.2 3.9 0 1.1.1 2.3.2 3.4.1 1-.7 1.8-1.7 1.9v.1zm442.4-.3h-.3c-1-.1-1.6-1.1-1.5-2 .6-4 .9-8.2 1-12.7a1.79 1.79 0 1 1 3.6 0c0 4.6-.4 9-1 13.2-.2.8-.9 1.5-1.8 1.5zM79.1 631.5c-.5 0-1-.2-1.3-.6-.7-.7-.6-1.9.1-2.5 3.5-3.2 7.9-5.1 12.7-5.6 1-.1 1.9.6 1.9 1.6.1 1-.6 1.9-1.6 1.9-4 .4-7.7 2-10.6 4.7-.4.3-.8.5-1.2.5zm436.5-2.1c-.9 0-1.7-.7-1.8-1.6-.3-2.7-.7-5.5-1.1-8.4-.2-1.4-.5-2.9-.7-4.4-.1-1 .5-1.9 1.5-2s1.9.5 2 1.5c.2 1.5.4 3 .7 4.4.5 2.9.9 5.8 1.1 8.6.1 1-.6 1.9-1.6 2 .1-.1 0-.1-.1-.1zm-406.2-5.7c-.8 0-7.5-.5-7.7-1.2-.3-.9.2-2 1.1-2.3 3.4-1.1 13.5-2.6 18.2-4.3.9-.4 2 .1 2.3 1 .4.9-.1 2-1 2.3-4.8 1.8-8.9 3.3-12.3 4.4-.2.1-.4.1-.6.1zm24.4-9.1c-.7 0-1.4-.4-1.7-1.1-.4-.9.1-2 1-2.3l12-4.9c.9-.4 2 0 2.3 1 .4.9 0 2-1 2.3l-12.1 5c-.1-.1-.3 0-.5 0zm24-10.1c-.7 0-1.4-.4-1.6-1.1-.4-.9 0-2 .9-2.4l11.9-5.2c.9-.4 2 0 2.4.9s0 2-.9 2.4l-11.9 5.2c-.3.2-.6.2-.8.2zm354.5-.9c-.9 0-1.7-.7-1.8-1.6-.4-4.1-.7-8.5-1-13-.1-1 .7-1.8 1.7-1.9s1.8.7 1.9 1.7l1 12.9c.1 1-.6 1.9-1.6 2-.1-.1-.1-.1-.2-.1zm-330.7-9.5c-.7 0-1.3-.4-1.6-1.1-.4-.9 0-2 .9-2.4l11-4.9.1-.1.9-.3c.9-.3 2 .1 2.3 1.1.3.9-.1 2-1.1 2.3l-.9.3c-.6.3-4.7 2.2-10.9 4.9-.2.1-.4.2-.7.2zm24.2-9.7c-.7 0-1.4-.5-1.7-1.2-.3-.9.1-2 1.1-2.3l12.2-4.4c.9-.3 2 .1 2.3 1.1.3.9-.1 2-1.1 2.3l-12.2 4.4c-.2 0-.4.1-.6.1zm304.9-6.7c-1 0-1.8-.8-1.8-1.7-.2-4.2-.3-8.6-.3-13a1.79 1.79 0 1 1 3.6 0l.3 12.9a1.79 1.79 0 0 1-1.8 1.8zm-280.5-2.2c-.7 0-1.4-.5-1.7-1.2-.3-.9.1-2 1.1-2.3l12.2-4.4c.9-.3 2 .1 2.3 1.1.3.9-.1 2-1.1 2.3l-12.2 4.4c-.2.1-.4.1-.6.1zm24.4-8.8c-.7 0-1.4-.5-1.7-1.2-.3-.9.1-2 1.1-2.3l12.2-4.4c.9-.3 2 .1 2.3 1.1.3.9-.1 2-1.1 2.3l-12.2 4.4c-.2 0-.4.1-.6.1zm24.2-9.6a1.78 1.78 0 0 1-1.6-1c-.4-.9-.1-2 .8-2.4 3.8-1.9 7.6-3.9 11.3-6.1.9-.5 2-.2 2.4.6.5.9.2 2-.6 2.4-3.8 2.2-7.7 4.3-11.6 6.2-.2.3-.5.3-.7.3zm231.4-5.3a1.79 1.79 0 0 1-1.8-1.8l.1-13a1.79 1.79 0 1 1 3.6 0c-.1 4.4-.1 8.7-.1 13a1.79 1.79 0 0 1-1.8 1.8zm-209-7.8c-.6 0-1.1-.3-1.5-.8-.6-.8-.4-1.9.4-2.5 3.6-2.5 7-5.1 10.2-7.8.8-.6 1.9-.5 2.5.2.6.8.5 1.9-.2 2.5-3.2 2.7-6.7 5.4-10.4 8-.3.3-.7.4-1 .4zm19.7-16.8c-.4 0-.9-.2-1.2-.5-.7-.7-.8-1.8-.1-2.5 3-3.2 5.7-6.5 8-9.9.6-.8 1.7-1 2.5-.5.8.6 1 1.7.5 2.5-2.4 3.5-5.2 6.9-8.3 10.3-.4.4-.9.6-1.4.6zm189.8-1.4c-1 0-1.8-.9-1.8-1.8.1-4.3.3-8.7.5-13 0-1 .9-1.8 1.9-1.7 1 0 1.8.9 1.7 1.9l-.5 13c0 .8-.8 1.6-1.8 1.6zM335 505.6c-.2 0-.3 0-.5-.1-1-.3-1.5-1.3-1.2-2.2 1-3.7 2-7.9 2.9-12.5a1.74 1.74 0 0 1 3.5.7c-.9 4.7-1.9 9-3 12.8-.2.8-.9 1.3-1.7 1.3zm176.9-5.7h-.1a1.86 1.86 0 0 1-1.7-1.9l.9-13c.1-1 .9-1.7 1.9-1.6s1.7.9 1.6 1.9l-.9 12.9c0 .9-.7 1.7-1.7 1.7zM340 480.2h-.2c-1-.1-1.7-1-1.5-2l1.5-12.8c.1-1 1-1.7 2-1.6s1.7 1 1.6 2a222.87 222.87 0 0 1-1.5 13c-.2.7-1 1.4-1.9 1.4zm174.1-6.2h-.2c-1-.1-1.7-1-1.6-2 .6-5.4 1.2-9.5 1.8-12v-.7a1.79 1.79 0 1 1 3.6 0v1.3c-.5 2.3-1.1 6.3-1.7 11.7-.3 1-1 1.7-1.9 1.7zm-171.5-19.7h-.1a1.86 1.86 0 0 1-1.7-1.9l.8-12.9c0-1 .9-1.7 1.9-1.7s1.7.9 1.7 1.9c-.2 4.5-.5 8.9-.8 13-.1.9-.9 1.6-1.8 1.6zm173.5-6.2c-1.1 0-1.8-.9-1.8-1.9.2-4.4.5-8.7.8-13 .1-1 1-1.7 1.9-1.6 1 .1 1.7 1 1.6 1.9-.4 4.2-.6 8.6-.8 12.9.1 1-.7 1.7-1.7 1.7zm-172.2-19.7s-.1 0 0 0c-1 0-1.8-.9-1.8-1.9l.3-13a1.79 1.79 0 1 1 3.6 0l-.3 13c-.1 1.1-.9 1.9-1.8 1.9zm174.4-6.1h-.2c-1-.1-1.7-1-1.5-2 .5-4.3 1.2-8.6 1.9-12.9.2-1 1.1-1.6 2.1-1.5 1 .2 1.6 1.1 1.5 2.1l-1.9 12.7c-.2 1-1 1.6-1.9 1.6zm-173.9-19.9a1.79 1.79 0 0 1-1.8-1.8v-13a1.79 1.79 0 1 1 3.6 0v13a1.79 1.79 0 0 1-1.8 1.8zm178.3-5.6h-.4c-1-.2-1.6-1.2-1.4-2.1l2.9-12.7c.2-1 1.2-1.5 2.2-1.3s1.5 1.2 1.3 2.2c-1.1 4.4-2 8.5-2.9 12.6-.1.7-.9 1.3-1.7 1.3zm-178.3-20.3a1.79 1.79 0 0 1-1.8-1.8c0-4.2-.1-8.6-.2-13a1.79 1.79 0 1 1 3.6 0l.2 13c0 .9-.8 1.7-1.8 1.8zm184.5-4.9c-.2 0-.3 0-.5-.1-1-.3-1.5-1.2-1.3-2.2 1-3.8 2.2-7.9 3.6-12.5.3-.9 1.3-1.5 2.2-1.2s1.5 1.3 1.2 2.2l-3.5 12.4c-.2.8-.9 1.4-1.7 1.4zm-185-21.1c-1 0-1.8-.8-1.8-1.7l-.4-13c0-1 .7-1.8 1.7-1.8s1.8.7 1.8 1.7l.4 13c.1.9-.7 1.7-1.7 1.8zm192.2-3.8c-.2 0-.3 0-.5-.1-.9-.3-1.5-1.3-1.2-2.2l1-3.2 2.8-9.2c.3-.9 1.3-1.5 2.2-1.2s1.5 1.3 1.2 2.2l-2.8 9.3-1 3.2c-.2.7-.9 1.2-1.7 1.2zm-193-22.2c-1 0-1.8-.8-1.8-1.7l-.5-13a1.86 1.86 0 0 1 1.7-1.9 1.86 1.86 0 0 1 1.9 1.7l.5 13c0 1-.8 1.9-1.8 1.9zm200.4-2.7c-.2 0-.3 0-.5-.1-1-.3-1.5-1.3-1.2-2.2l3.5-12.5c.3-1 1.2-1.5 2.2-1.3 1 .3 1.5 1.2 1.3 2.2l-3.5 12.5c-.3.9-1 1.4-1.8 1.4zM342 298.5c-.9 0-1.7-.7-1.8-1.7l-.6-13c-.1-1 .7-1.8 1.7-1.9s1.8.7 1.9 1.7l.7 13c-.1 1-.9 1.9-1.9 1.9zm208.2-1.8c-.1 0-.3 0-.4-.1-1-.2-1.5-1.2-1.3-2.2l2.9-12.6c.2-1 1.2-1.6 2.1-1.4 1 .2 1.6 1.2 1.4 2.1l-2.9 12.7c-.3 1-1 1.5-1.8 1.5zm-209.6-24.1c-.9 0-1.7-.7-1.8-1.7l-.8-13c-.1-1 .7-1.8 1.7-1.9s1.8.7 1.9 1.7l.8 13c.1 1-.7 1.8-1.7 1.9h-.1zm215.1-1.2h-.3a1.74 1.74 0 0 1-1.4-2.1c.8-4.2 1.5-8.5 2.2-12.7.2-1 1.1-1.6 2.1-1.5 1 .2 1.6 1.1 1.5 2.1l-2.2 12.8c-.3.8-1.1 1.4-1.9 1.4zM339 246.6c-.9 0-1.7-.7-1.8-1.7l-.9-13c-.1-1 .7-1.8 1.7-1.9s1.8.7 1.9 1.7l.9 13c.1 1-.7 1.8-1.7 1.9h-.1zm220.8-.8h-.2c-1-.1-1.7-1-1.5-2a263.32 263.32 0 0 0 1.5-12.8c.1-1 1-1.7 2-1.6s1.7 1 1.6 2l-1.5 12.9c-.2.8-1 1.5-1.9 1.5zm-222.6-25.1c-.9 0-1.7-.7-1.8-1.7l-1-13c-.1-1 .7-1.8 1.6-1.9 1-.1 1.8.7 1.9 1.6l1 13c.1 1-.7 1.8-1.7 1.9.1.1.1.1 0 .1zm225.3-.7h-.1c-1-.1-1.7-.9-1.6-1.9l.3-4.2a1.86 1.86 0 0 1 1.9-1.7 1.86 1.86 0 0 1 1.7 1.9l-.3 4.2c-.2 1-.9 1.7-1.9 1.7zm-227.3-25.2c-.9 0-1.7-.7-1.8-1.6l-1.1-13c-.1-1 .6-1.9 1.6-1.9 1-.1 1.9.6 1.9 1.6l1.1 13c.1 1-.7 1.9-1.6 1.9h-.1z" fill="#4aa6bc"/><linearGradient id="E" gradientUnits="userSpaceOnUse" x1="317.638" y1="650.374" x2="317.638" y2="210.48"><stop offset=".309" stop-color="#fff" stop-opacity=".1"/><stop offset="1" stop-color="#fff" stop-opacity="0"/></linearGradient><path d="M334.1 180s23.3 254.9 0 326.9c-17 33.9-63.8 52.3-63.8 52.3l-77.7 28.2s-87.5 37.2-100 37.2-21 10.7-20.1 21.9-1.8 32.7 29.1 45.2 362.8 0 380.2 0 41.2-20.1 32.7-72.5-2.2-143.7 1.3-158.9c0-93.6 38.9-133.8 47-246.2" fill="url(#E)"/></svg>