<svg xmlns="http://www.w3.org/2000/svg" viewBox="0 0 300 300"><path d="M198.5 174.9c.2 3.1.1 6.1-1.8 8.7-1.6 2.2-3.8 3.9-5.4 6.1-.3-2.8-1.2-5.5-2.7-7.7-.3-.4-.9.2-.8.6a43.78 43.78 0 0 1 2 9.8c-.6 1.6-.9 3.2-.7 5-.2.3-.2.6-.2.9.1 3.5 1.3 6.8 1.7 10.3.4 3.3.2 6.8-.3 10.1-1 5.9-3.4 10.3-7 15-1.5 1.9-3.3 4-5.3 5.5-.6.4-1.2.8-1.8 1.1-3.2 1.5-7.1 1.1-10.6 1-8-.2-16 .8-24 .6-7-.2-14.9.8-21.5-1.6-.3-.1-.5-.1-.7-.1-3.1-2.4-4.4-6.6-6.3-10.2a40.73 40.73 0 0 1-4.1-11.2c-2.6-12.5 6.3-25 2-37.2 3.1-8.9 2.4-19.2 2-28.5-.2-4.3-.5-8.6-1-12.9-.4-3.5-.9-7-.7-10.5.3-6.2 2.8-12.1 4.4-18 1.4-5.4 1.6-11 1.7-16.5 2.1 7.8 4.1 15.5 5.9 23.4 3.5 14.7 6 29.8 5.9 44.9 0 5.5-.4 10.4-3.1 15.2-2.6 4.9-6 9.5-7.7 14.8-.3.9 1.1 1.6 1.6.7 1.9-3.4 3.4-6.9 5.4-10.2 1.2-2.1 2.5-4.1 3.5-6.3 0 0 0-.1.1-.1.4-.9.8-1.8 1-2.8 1.3-4.3 1.2-8.9 1.1-13.4-.1-7.5-.8-15.1-2-22.5-2.4-15.4-6.6-30.4-10.8-45.5-.1-.4-.5-.5-.8-.4 0-1.6.1-3.2.1-4.9.3-5.5 1.3-32.8-1.5-40.7l68 7.9c-.3.2-.6.6-.7 1l-4.7 16.8c-.2 0-.3.2-.4.4l-7.4 31.4c-3.5 14.9-7.1 29.9-9.2 45.1a119.1 119.1 0 0 0-.9 8.6c-.2 3.4-.8 6.8-.8 10.2 0 3.9 2 7.1 3.4 10.7 1.7 4.3 3.2 8.5 5.5 12.5.4.8 1.6.1 1.2-.6-2.4-4.4-4-9.1-5.8-13.7-.9-2.3-2.3-4.6-2.6-7.1-.3-2.3.1-4.6.4-6.9.7-5.7.9-11.5 1.8-17.3 1.1-7.1 2.5-14.2 4-21.2 2.7-12.8 5.7-25.5 8.7-38.2-.2 4.5.1 9.1.5 13.3.8 8.6 2.6 16.9 4.3 25.4 1.3 6.3 2.3 12.7 3.3 19.1.3 2.2.7 4.4 1 6.6 0 .1 0 .7.1 1v.2c-1.1 5.5-3.1 10.3-5.3 15.4 0 .1-.1.2-.1.3-.4-1.6-.9-3.1-1.3-4.7l-4.7-17.3c-.2-.6-1-.4-.9.2 1.2 6 2.9 11.9 4.5 17.8l2.5 8.8c.8 2.6 1.4 5.5 2.6 8 .2.4.8.1.7-.3-.4-3-1.6-6-2.4-8.9-.2-.5-.3-1.1-.5-1.6.9.9 2.5 1.3 3.5.2 3.9-4.3 5.1-11.5 6.1-17.1.3-1.7.1-3.6-.3-5.4 1 .6 2.2.9 3.3 1.1 2.5.5 3.5 1.3 4.8 3.5.6.9 1.4 2.2 1.5 3.3.2 1.4-.6 1.9-1.4 2.9-1.8 2.2-2.2 4.7-1.3 7.5.5 1.6 1.6 3 1.8 4.6-.2 1.1-.5 2.6-.4 4z" fill="#fff"/><path d="M130.7 171.9l-.9 2.6c1.3-4.3 1.2-8.9 1.1-13.4-.1-7.5-.8-15.1-2-22.5-2.4-15.4-6.6-30.4-10.8-45.5-.1-.4-.5-.5-.8-.4 0-1.6.1-3.2.1-4.9.3-5.5 1.3-32.8-1.5-40.7-.1-.2-.1-.3-.2-.4 1.6.4 4.3.7 8 .2-2 14.2-2 16.2-.9 27l5.9 60.7s5.2 27.4 2 37.3zm47.2 67.1l-1.8 1.1c-3.2 1.5-7.1 1.1-10.6 1-8-.2-16 .8-24 .6-7-.2-14.9.8-21.5-1.6-.3-.1-.5-.1-.7-.1-3.1-2.4-4.4-6.6-6.3-10.2a40.73 40.73 0 0 1-4.1-11.2c-2.6-12.5 6.3-25 2-37.2 3.1-8.9 2.4-19.2 2-28.5-.2-4.3-.5-8.6-1-12.9-.4-3.5-.9-7-.7-10.5.3-6.2 2.8-12.1 4.4-18 1.4-5.4 1.6-11 1.7-16.5 2.1 7.8 4.1 15.5 5.9 23.4 3.5 14.7 6 29.8 5.9 44.9 0 5.5-.4 10.4-3.1 15.2-2.6 4.9-6 9.5-7.7 14.8-.3.9 1.1 1.6 1.6.7 1.9-3.4 3.4-6.9 5.4-10.2 1.2-2.1 2.5-4.1 3.5-6.3-2.8 7.1-6.6 15.8-6.6 15.8s-3.8 7.7-5.4 11.5.7 19.1 11 25.7c8.1 5.2 38.9 7.7 50.1 8.5zm-50.8-40.5c1.9-.3 25.6-4.3 34.7 1.6-14.5-10.1-34.7-1.6-34.7-1.6z" fill="#d8d9dd"/><path d="M108.9 168l-.6 8.2c-2.7-4.3-6.1-8.2-5.8-13.8.1-3.6 1.4-6.8 3.4-9.8.7-1 1.6-2.1 2.4-3.3l.5 5.9.1 12.8z" fill="#fff"/><path d="M206.2 157.2c.3-2.9-1.1-5.7-2.3-7.7-1.3-2.1-2.9-4.5-5.3-5.8-.1-.1-.4-.3-.6-.5-.8-.6-1.8-1.5-3.2-1.7h-.3c-.9-.2-1.9-.3-2.8-.4-.8-5.4-1.8-11.1-3-16.8l-.9-4.6c-1.4-6.9-2.9-14-3.6-21-.4-4.5-.5-9.1-.2-13.4.2-3.8 1.6-11.1 2-12.8l.1-.3c1.1-5.1 1.5-7.2 1.7-8.6.3-1.7.5-2.4 1.5-6.8.2-1-1.9-1.8-3.5-2-.3-.2-.7-.2-1.1-.1-.3.1-.5.2-.8.4s-.6.6-.7 1l-4.7 16.8c-.2 0-.3.2-.4.4l-7.4 31.4c-3.5 14.9-7.1 29.9-9.2 45.1a119.1 119.1 0 0 0-.9 8.6c-.2 3.4-.8 6.8-.8 10.2 0 3.9 2 7.2 3.4 10.7 1.7 4.3 3.2 8.5 5.5 12.5.4.8 1.6.1 1.2-.6-2.4-4.4-4-9.1-5.8-13.7-.9-2.3-2.3-4.6-2.7-7.1-.3-2.3.1-4.6.4-6.9.7-5.8.9-11.5 1.8-17.3 1.1-7.1 2.5-14.2 4-21.2 2.7-12.8 5.8-25.5 8.7-38.2-.2 4.5.1 9.1.5 13.3.8 8.6 2.6 17 4.3 25.4 1.3 6.3 2.3 12.7 3.3 19.1.3 2.2.7 4.4 1 6.6 0 .1 0 .7.1 1v.2c-1.1 5.5-3.2 10.3-5.3 15.4 0 .1-.1.2-.1.3-.4-1.6-.9-3.1-1.3-4.7l-4.7-17.3c-.2-.5-1-.4-.9.2 1.2 6 2.9 11.9 4.5 17.8l2.5 8.8c.8 2.6 1.4 5.5 2.6 8 .2.4.8.1.7-.3-.4-3-1.6-6-2.4-8.9-.2-.5-.3-1.1-.5-1.6.9.9 2.5 1.3 3.5.2 3.9-4.3 5.1-11.5 6.1-17.1.3-1.7.1-3.6-.3-5.4 1 .6 2.2.9 3.3 1.1 2.5.5 3.5 1.3 4.8 3.5.6.9 1.4 2.1 1.5 3.3.2 1.4-.6 1.9-1.4 2.9-1.8 2.2-2.2 4.7-1.4 7.5.5 1.6 1.6 3 1.8 4.6.2 1.4 0 2.8 0 4.2.2 3.1.1 6.1-1.8 8.7-1.6 2.2-3.8 3.9-5.4 6.1-.3-2.8-1.2-5.5-2.7-7.7-.3-.4-.9.2-.8.6a43.78 43.78 0 0 1 2 9.8c-.6 1.6-.9 3.2-.7 5-.2.3-.2.6-.2.9.1 3.5 1.3 6.8 1.7 10.3.4 3.3.2 6.8-.3 10.1-1 5.9-3.4 10.3-7 15-1.5 1.9-3.3 4-5.3 5.5-.6.4-1.2.8-1.8 1.1-3.2 1.5-7.1 1.1-10.6 1-8-.2-16 .8-24 .6-7-.2-14.9.8-21.5-1.6-.3-.1-.5-.1-.7-.1-3.1-2.4-4.4-6.6-6.3-10.1a40.73 40.73 0 0 1-4.1-11.2c-2.6-12.5 6.3-25 2-37.2 3.1-8.9 2.4-19.2 2-28.5-.2-4.3-.5-8.6-1-12.9-.4-3.5-.9-7-.7-10.5.3-6.2 2.8-12.1 4.4-18 1.4-5.4 1.6-11 1.7-16.5l6 23.4c3.4 14.7 6 29.8 5.9 44.9 0 5.5-.4 10.4-3.1 15.3-2.7 4.8-6 9.5-7.7 14.8-.3.9 1.1 1.6 1.5.7 1.9-3.4 3.4-6.9 5.4-10.2 1.2-2.1 2.5-4.1 3.5-6.3 0 0 0-.1.1-.1.4-.9.8-1.8 1-2.8 1.3-4.3 1.2-8.9 1.1-13.4-.1-7.5-.8-15-2-22.5-2.4-15.4-6.6-30.4-10.9-45.5-.1-.4-.5-.5-.8-.4 0-1.6.1-3.2.1-4.9.3-5.5 1.3-32.8-1.5-40.7-.1-.2-.1-.3-.2-.4-.5-.9-1.3-1.4-2.1-1.5h-.9c-2.4.3-5.3 2-5.1 3.6 2.4 17.8 2 33.2 1.8 43.3l-.1 3.5c-.1 3.9-.2 7.5-.9 11.1-.4 2-1 4-1.6 6.1l-.6 2.3c-1.7 6.2-3.2 12.2-2.6 18.8.2 2.4.5 4.8.7 6.7-1.1 1-1.9 2.2-2.7 3.3-.2.3-1.1 1.5-1.1 1.5-1.2 1.7-2.5 3.5-3.5 5.4-2.4 4.4-3.4 9.2-3.1 13.7.3 4 1.7 8 4.1 11.6.5.8 1.1 1.6 1.7 2.4 1.4 2 2.8 3.9 3.5 5.9.2.5.3.8.4 1.2 1 4.2-.2 9-1.3 13.6-.4 1.5-.7 3-1 4.5-1.6 8.3-1.1 15.8 1.8 23.3.2.5.4 1.1.6 1.7 2.5 6.7 7.6 16.1 14.1 18.8s11 2.7 15.8 2.7c1.8 0 3.6-.1 5.3-.1 1.6 0 3.2-.1 4.6-.1h1.6l14 .5h1.2c2.6 0 5.2-.3 7.7-.6 1.5-.2 2.9-.3 4.3-.4 7.5-.5 13.9-4.9 19.5-13.3 4.4-6.5 6.6-12.6 7.4-19.6.9-8.8-.2-15.6-3.2-20.1 0-2.1 1.9-4.2 3.8-6.1 2-2 4.2-4.6 5.1-8.2.7-2.5.5-4.8.4-7 0-.8-.1-1.5-.1-2.3v-.5c0-1.4 0-2.9-.5-4.5-.3-.9-.7-1.7-1-2.4-.3-.6-.6-1.2-.7-1.6s0-.6.9-1.8c.8-1.7 1.9-3.2 2.2-5.4zM108.9 168c-.1 2.8-.4 5.5-.6 8.2-2.7-4.3-6.1-8.2-5.8-13.8.1-3.6 1.4-6.8 3.4-9.8.7-1 1.6-2.1 2.4-3.3l.5 5.9.1 12.8z"/></svg>