<svg xmlns="http://www.w3.org/2000/svg" viewBox="0 0 150 110"><defs><filter id="A" filterUnits="userSpaceOnUse" x="-54" y="37.7" width="249.8" height="81.6"><feColorMatrix values="1 0 0 0 0 0 1 0 0 0 0 0 1 0 0 0 0 0 1 0"/></filter></defs><mask maskUnits="userSpaceOnUse" x="-54" y="37.7" width="249.8" height="81.6" id="B"><g filter="url(#A)"><radialGradient id="C" cx="72.037" cy="76.616" r="69.247" fx="72.07" fy="76.596" gradientTransform="matrix(1 0 0 0.4458 0 42.4586)" gradientUnits="userSpaceOnUse"><stop offset=".452" stop-color="#fff"/><stop offset=".543" stop-color="#fcfcfc"/><stop offset=".615" stop-color="#f2f2f2"/><stop offset=".68" stop-color="#e1e1e1"/><stop offset=".741" stop-color="#cacaca"/><stop offset=".8" stop-color="#ababab"/><stop offset=".856" stop-color="#868686"/><stop offset=".911" stop-color="#595959"/><stop offset=".964" stop-color="#272727"/><stop offset="1"/></radialGradient><ellipse cx="72" cy="76.6" rx="76.5" ry="35.6" opacity=".4" fill="url(#C)"/></g></mask><g mask="url(#B)" fill="#91b9d7"><path d="M72.6 119.3L-54 75.6l123.3-38 126.5 43.6-123.2 38.1zM-53 75.7L72.6 119l122.2-37.6L69.2 38-53 75.7z"/><path d="M83.6 115.8l-126-43.4.1-.3 126.1 43.5zm11.2-3.4L-31.3 68.9l.2-.3 126 43.5zm11.1-3.4l-126-43.5.1-.3 126.1 43.5zm11.2-3.5L-9 62.1l.2-.3 126.1 43.4zm11.2-3.4L2.2 58.6l.1-.3 126.1 43.5zm11.1-3.4L13.3 55.2l.2-.3 126.1 43.5zm11.2-3.5L24.5 51.7l.2-.2 126 43.4zm11.1-3.4l-126-43.5.1-.3 126.1 43.5zm11.2-3.4L46.8 44.9l.2-.3 126 43.5zm11.1-3.5L58 41.4l.1-.3 126.1 43.5z"/><path d="M61.2 115.3l-.2-.3 122.7-37.8.2.3zm-11.5-3.9l-.1-.3 122.7-37.8.1.3zm-11.5-4l-.1-.3 122.7-37.8.2.3zm-11.4-3.9l-.2-.3 122.8-37.8.1.3zm-11.5-4l-.1-.3 122.7-37.8.1.3zM3.9 95.6l-.2-.3 122.7-37.8.2.3zm-11.5-4l-.1-.3L115 53.5l.1.3zm-11.5-3.9l-.1-.3 122.7-37.8.2.3zm-11.4-4l-.2-.3L92.1 45.6l.1.3zm-11.5-4l-.1-.2L80.6 41.7l.1.3z"/></g><path d="M112.2 4.7c-.4.8-7.6 37.1-7.6 40.8s3.1 20.8 3.1 23c0 2.1-1.9 6.3-2.4 7.4-.6 1.1-2.9 5.3-10.1 5.1-7.3-.1-13-3.3-16.8-3.3s-13.5.4-16.7 1.9c-3.1 1.6-7.9 2.2-10.9 2.2s-8.9-1.4-8.9-1.9c0-.6-4.7 1.3-8 .1-3.3-1.1-3.6-5.3-2.7-6.6s4-.3 4.7 0 2.7-2 4.1-1.9 3.8.6 5.1-.1 4.4-3.6 7.4-3.8c3-.3 12.3-10 22.2-13.4 11.9.1 5-46.5 5-46.5l32.5-3z" fill="#fff"/><path d="M31.3 77c.3 1.4 1.2 2.8 2.9 3.3 3.3 1.1 8-.7 8-.1s5.9 1.9 8.9 1.9 7.8-.7 10.9-2.2c3.1-1.6 12.8-2 16.6-1.9s9.5 3.2 16.8 3.3 9.5-4 10.1-5.1 2.4-5.3 2.4-7.4-3.1-19.2-3.1-22.9c0-3.3 7.7-40.9 7.7-40.9s-1-.3-1-.4c-1.4 3.6-8.7 4.3-14.7 4.3 0 7.2-.6 35.6-.6 35.6l.1 2.7s1.1 2.7-1.1 6.7c-.4.7-.8 1.4-1.3 2.1-.1.1-2.2.1-3.6-1.1-1.3-1.2-2.2-2.3-2.2-2.3-.2.4 1 2.5 2.3 3.4s2.6 1.5 2 2.1c-1.7 2.2-3.6 4.2-5.5 6.4-2.9 3.5-3.9 1.6-6.7 3.3-2.9 1.7-9.4 4.5-13.1 4.6-3.8.1-2.6 4.3-11.6 7s-13 0-13 0l.9-2.2c.1.1-6.4 1.8-12.1-.2z" fill="#e6e6e7"/><g fill="#737e84"><path d="M113 5c-.1-.3-.4-.4-.7-.5-.3 0-.6.1-.7.4-.3.5-.5 1.2-.6 1.8 0 .2-.1.4-.1.5-.9 3.9-5.9 30.1-6.5 33.6-.4 2.4-.6 4.9-.3 7.7.3 3 .9 6 1.3 8.9.6 3.5 1.2 7.1 1.5 10.7.1 1.5-.4 3.1-.9 4.4-.5 1.4-1 2.7-1.7 3.9-2.3 3.7-7 3.5-9.6 3.4-2.5-.1-5.1 0-8.4-1a9.83 9.83 0 0 1-1.6-.5c-1.5-.5-3.1-.9-4.7-1.2-1.5-.2-3.1-.2-4.6-.1h-.6c-2.5.1-4.7.2-6.7.5-2 .2-3.8.5-5.5 1l-1.5.6c-.5.2-.9.4-1.4.6a18.23 18.23 0 0 1-3.7.9c-1.8.3-3.5.3-5.2.2-1.3 0-6.1-.7-7.3-1.1-.3-.1-.5-.2-.7-.2 0-.1-.1-.3-.3-.4-.4-.2-1-.1-1.4-.1h-.2c-.3 0-.5.1-.8.1-1.9.3-3.9.7-5.7 0-1.8-.6-2.9-2.7-2.5-4.7.1-.4.2-.6.4-.7.6-.3 1.7 0 2.5.2a12.59 12.59 0 0 1 1 .3c1 .2 1.8-.4 2.5-1 .6-.4 1.2-.9 1.8-.9s1.1.1 1.7.1c1.4.1 2.9.3 4.3-.6.5-.3 1-.7 1.5-1 1.5-1 2.9-2 4.6-2.4 1.4-.3 2.4-.7 3.5-1.4 1.8-1.2 3.6-2.5 5.3-3.8s3.6-2.7 5.4-3.9c2.5-1.6 4.6-2.8 6.7-3.7.4-.2.8-.3 1.2-.5 1.3-.5 2.7-1 3.8-2.1 4.9-3.6 5-11.2 4.9-17 0-1.5-.2-2.8-.4-7.9-.4-7.7-1.4-17.6-1.8-19.9 0-.3-.2-.5-.5-.6s-.6-.1-.9.1c-.2.2-.4.5-.3.8l.1 3.3c.6 4.2 1.8 24.9 1.7 29.5-.1 2.7-.4 6.6-2.4 9.6-.9 1.3-2.1 2.3-3.6 2.9-2.9 1.1-5 2-6.9 3.2-3 1.7-5.7 3.8-8.4 5.8l-3.4 2.5c-.1.1-.2.2-.4.3-1 .7-1.9 1.4-3 1.6-2.2.5-4.1 1.4-6.4 3-.9.7-1.6 1.2-2.8 1.2-.6 0-1.2 0-1.8-.1-.5-.1-1-.1-1.5-.1-1 0-1.7.4-2.5.9-.2.1-.3.2-.4.3-.5.4-.9.6-1.3.5-.2 0-.5-.1-.7-.2-1.3-.3-2.9-.8-4.1.2-1.4 1.1-1 3.5-.8 4.2 1.3 5.6 8 4.4 10.2 4 .2 0 .3 0 .5-.1.2 0 .4-.1.6-.1.3.3.7.4 1.1.6 2 .7 4.2.9 5.9 1.1.9.1 1.9.2 2.8.2 3.6 0 7.3-.6 10.7-2.1 1.7-.7 3.5-1 5.6-1.3 2-.3 4.3-.4 6.8-.5h.7c1.6-.1 3.2-.1 4.8.2 1.5.3 2.9.7 4.4 1.1.8.2 1.6.5 2.4.7 2.7.7 5.7.8 8.6.8 2.2 0 4.3.2 6.3-.8 2.2-1.1 3.8-2.9 5-5.6.8-1.8 1.7-3.8 1.9-5.9.1-.8 0-1.7-.2-2.5 0-.2 0-.3-.1-.5-.3-2.4-.7-4.8-1.1-7.1l-.6-3.5-.3-2c-.4-2.5-.8-5-.9-7.5-.1-2.6.4-5.4 1-8.1l.3-1.7c.3-1.9 5.2-26.7 5.5-28.2 0-.2.1-.4.1-.7.1-.6.3-1.4.5-1.8.1-.3.1-.6 0-.8zM97.8 28.2l-1.4 15c-.1 1.8.3 3.6.3 5.4.1 1.4.1 2.8-.2 4.2-.4 1.6-1.4 2.8-2.5 4-.3.3-.6-.2-.4-.4 1.7-1.6 2.5-3.2 2.6-5.5.1-1.8-.1-3.6-.3-5.3s0-3.2.1-4.9l1.2-12.4c.1-.5.7-.5.6-.1z"/><path d="M78.2 77.4l7.7-.6c.1 0 .2.2.1.2-2.5.5-5.2.9-7.8.5-.1.1-.1-.1 0-.1zm-18 2.4c2.1-.5 4.1-1.1 5.5-2.8.1-.1.3 0 .2.2-1.2 1.9-3.6 2.5-5.7 2.9-.1 0-.2-.3 0-.3zm27.1-16.3c-.9 1.7-1.7 2.7-3.6 3.3-2.2.6-4.9 1.2-6.6 2.7-.2.2-.5-.1-.3-.3 1.4-1.3 3.5-1.8 5.3-2.4.9-.3 2-.5 2.9-1 1-.6 1.5-1.6 2-2.6.1-.1.4.1.3.3z"/></g><path d="M84.4 82.8l-1.3-.8L72 88.5l1.7.6z" opacity=".1" fill="#070308"/><path d="M82.9 81.9V59.3l-10.7 6.2v22.7z" fill="#fff"/><path d="M72 88.5v-23L83.1 59v23L72 88.5zm.3-22.9v22.3l10.4-6.1V59.5l-10.4 6.1z" fill="#ccc"/><path d="M72.1 88.4V65.5h.1L83 59.1V82l-10.9 6.4zm.2-22.8V88l10.6-6.2V59.4l-10.6 6.2z" fill="#201813"/><path d="M71.9 88.6V65.4l.1-.1 11.1-6.5v23.3H83l-11.1 6.5zm.5-22.9v22l10.2-6v-22l-10.2 6z" fill="#ccc"/><path d="M82.8 69.9v-.4l-5.1 3.1v.5z" fill="#b84753"/><path d="M74 65.8v-.5l-1.9 1.2v.5zm0 1.4v-.4L72.1 68v.4zm0 1.5v-.4l-1.9 1.2v.4zm0 1.5v-.5l-1.9 1.2v.5zm0 1.4v-.4l-1.9 1.2v.4zm0 1.5v-.4l-1.9 1.2v.4zm0 1.5v-.5l-1.9 1.2v.5zm0 1.4v-.4l-1.9 1.2v.4zm0 1.5v-.4l-1.9 1.2v.4zm0 1.5v-.5l-1.9 1.2v.5zm0 1.4V80l-1.9 1.2v.4zm0 1.5v-.4l-1.9 1.2v.4zm0 1.5v-.5l-1.9 1.2v.5zm0 1.4v-.4l-1.9 1.2v.4zm0 1.5v-.4l-1.9 1.2v.4z" fill="#999"/><path d="M82.8 71.5v-.4l-5.1 3.2v.4z" fill="#5375aa"/></svg>