<svg xmlns="http://www.w3.org/2000/svg" viewBox="0 0 150 110"><defs><filter id="A" filterUnits="userSpaceOnUse" x="-55.8" y="36.9" width="254.5" height="83.1"><feColorMatrix values="1 0 0 0 0 0 1 0 0 0 0 0 1 0 0 0 0 0 1 0"/></filter></defs><mask maskUnits="userSpaceOnUse" x="-55.8" y="36.9" width="254.5" height="83.1" id="B"><g filter="url(#A)"><radialGradient id="C" cx="72.627" cy="76.504" r="70.525" fx="72.661" fy="76.483" gradientTransform="matrix(1 0 0 0.4458 0 42.3965)" gradientUnits="userSpaceOnUse"><stop offset=".452" stop-color="#fff"/><stop offset=".543" stop-color="#fcfcfc"/><stop offset=".615" stop-color="#f2f2f2"/><stop offset=".68" stop-color="#e1e1e1"/><stop offset=".741" stop-color="#cacaca"/><stop offset=".8" stop-color="#ababab"/><stop offset=".856" stop-color="#868686"/><stop offset=".911" stop-color="#595959"/><stop offset=".964" stop-color="#272727"/><stop offset="1"/></radialGradient><ellipse cx="72.6" cy="76.5" rx="77.9" ry="36.3" opacity=".4" fill="url(#C)"/></g></mask><g mask="url(#B)" fill="#91b9d7"><path d="M73.2 120l-129-44.5L69.8 36.9l128.9 44.4L73.2 120zM-54.7 75.5l127.9 44.1 124.4-38.3L69.7 37.2-54.7 75.5z"/><path d="M84.4 116.5L-44 72.2l.2-.3 128.4 44.3zm11.4-3.5L-32.6 68.7l.2-.3L96 112.7zm11.4-3.5L-21.2 65.2l.1-.3 128.4 44.3zm11.3-3.5L-9.9 61.7l.2-.3 128.4 44.3zm11.4-3.5L1.5 58.2l.1-.3L130 102.2zm11.4-3.5L12.9 54.7l.1-.3 128.4 44.3zm11.3-3.5L24.2 51.2l.2-.3 128.4 44.3zM164 92L35.6 47.7l.1-.3 128.4 44.3zm11.3-3.5L46.9 44.2l.2-.3 128.4 44.3zm11.4-3.5L58.3 40.7l.2-.3 128.4 44.3z"/><path d="M61.6 115.9l-.2-.3 125-38.5.1.3zm-11.7-4l-.2-.3 125-38.5.2.3zm-11.7-4l-.1-.3 125-38.5.1.3zm-11.7-4l-.1-.4 125-38.4.1.3zm-11.6-4.1l-.2-.3 125-38.5.1.3zm-11.7-4l-.2-.3L128 57l.2.3zm-11.7-4l-.1-.3 125-38.5.1.3zm-11.7-4.1l-.1-.3 125-38.4.1.3zm-11.6-4l-.2-.3L93 44.9l.2.3zm-11.7-4l-.1-.3L81.3 40.9l.2.3z"/></g><path d="M64.6 3c.4 9.8.4 21.1.4 30.9 0 1.7 0 3.3-.3 5-.3 1.4-1.2 4-1.4 5.5-.4 2.4.2 3.9.4 6.8.3 3.5.5 7.2-.2 10.9l-.3-12c-.6 1.1-1.4 2-2 3.1-.7 1.2-1 2.7-.8 4.1.3 1.9 1.6 2.9 2.5 4.6 1.8 3.4-.9 7.4-.5 11.2.2 1.9.5 4.7 1.6 6.3.6.9 1.6 1.7 2.5 2l.1-.1c2.1 1.2 5.2.7 7.6.8 2.7.1 5.3-.3 8-.2 1 0 2 0 2.8-.3.6-.3 1.2-.7 1.6-1.2 3.5-3.4 4.7-8.5 2.8-13l.1-.2c-.3-1.4.8-2.6 1.8-3.6s1.3-2.2 1.1-3.6c-.1-.8.1-1.5-.3-2.2s-.7-1.6-.3-2.3c.2-.4.7-.7.8-1.2.2-.7-.9-2.4-1.4-2.8s-2-.2-2.2-.9l-2.3 7.3c1.2-1.8 1.7-5.2 1.7-5.2s-.8-5.8-1.6-9.2c-1.3-5.5-2.3-11.2-.7-16.5l-.7 2.2 5.8-25C85.8 2.4 67.9 3.1 64.6 3z" fill="#fff"/><g fill="#e6e6e7"><path d="M84.9 31.1l-5 20.3.9 12.9 1.9 2.6 3.5 3 3.5 6.1-.6-11.5-3.2-7s2.9-4.4 2.6-5.1c-.3-.6-3.6-21.3-3.6-21.3z"/><path d="M86.3 3c-.6 9.4-2.3 25.4-6.3 48.4l6-24.8 4.9-22.4s-1.7-.8-4.6-1.2zm.5 68c-.8 6.9-4.7 9.9-19.3 9.4-2.4-.2 1.7 1.8 1.7 1.8l15.9-.5 3.5-3.9 1.6-4.9c.1.1-2.7-3.8-3.4-1.9zm-16.7-4.6c.6-.1 8.1-1.4 11.1.5-4.7-3.2-11.1-.5-11.1-.5z"/></g><g fill="#737e84"><path d="M85.1 27.4l-3.9 17.2-1.3 6.9-.6 5.9c-.1.7-.1 1.4 0 2.1.2.7.6 1.4.8 2.1l2 4.6a.34.34 0 0 0 .6-.3c-.7-1.2-1.2-2.5-1.7-3.8-.3-.6-.5-1.3-.8-1.9-.3-.7-.4-1.5-.3-2.3l.5-5.8c.7-4.9 1.8-9.7 2.9-14.6l2.2-9.8c.3-.5-.3-.7-.4-.3z"/><path d="M86.8 26.8L92 3.3c-.3-.2-1.2.1-1.4.9l-1.7 8.2-4.2 16.3c-.1.3 0 .5.2.7-.3 1.8-.2 3.6-.1 5.4.2 2.8.7 5.6 1.3 8.4l1.1 6.1.4 2.4c0 .2.1.4.1.6-.1.2-.1.6-.1.7l-.3 1.4c-.3 1.1-.8 2-1.2 3-.3.7.8 1.3 1.3.8 1.2-1.3 1.5-3.4 1.8-5.1.1-.7 0-1.4-.1-2.1.3.2.7.3 1 .4.8.2 1.1.3 1.6 1a4.67 4.67 0 0 1 .5 1c.1.4-.1.6-.4 1-.6.7-.7 1.5-.5 2.4.1.5.5.9.6 1.3s0 .9 0 1.3c.1 1 .1 1.9-.5 2.8-.5.8-1.4 1.4-1.9 2.2-.4.7-.7 1.5-.6 2.3 0 .1-.1.2-.1.3 0 1 .3 1.9.5 2.8s.2 1.8.1 2.8a10.95 10.95 0 0 1-1.9 5.2c-.5.8-1.1 1.3-1.9 2-1 .8-2 .9-3.2.9l-7.5.2c-1.3 0-3.2.2-4.4 0-1.3-.1-2.5-.1-3.7-.5h-.2c-1.8-1.3-2.3-3.7-2.9-5.8-.6-2.2-.4-4.2.1-6.4.4-1.9.9-3.9.4-5.8.1-.1.2-.2.2-.4.5-2.7.6-5.4.4-8.1-.1-2.4-.5-4.7-.7-7.1-.2-2 .3-3.8.9-5.8.6-2.3.9-4.5 1-6.9 0-9.9.1-21.4-.5-31.2-.1-1.2-1.7-1.7-1.6.2.2 3.6.3 8.7.3 12.3l.1 16.3c0 2.5.1 5.1-.5 7.6-.5 1.9-1.2 3.7-1.3 5.7-.1 1.1.1 2.2.2 3.3 0 .4.1.7.1 1.1-.9.6-1.5 1.9-2.1 2.7-.7 1-1.1 2.2-1.2 3.4s.1 2.4.7 3.5c.5 1 1.3 1.8 1.8 2.7 1.2 2.1.5 4.4.1 6.5-.5 2.4-.7 4.6.1 6.9.8 2.4 1.6 5.9 4.2 6.5h.1c2 1.4 5.1.9 7.4 1 2.9.1 5.8-.2 8.6-.1 1.2 0 2.5-.1 3.6-.8 1-.6 1.7-1.3 2.4-2.2 1.4-1.8 2.2-3.7 2.5-5.8.2-1.2.2-2.4.1-3.6s-.3-2.3-1-3.3v-.1c-.1-1.1.7-2 1.4-2.8.7-.7 1.2-1.4 1.5-2.3.2-.9.1-1.8.1-2.7 0-.4 0-.8-.1-1.2-.1-.5-.5-.9-.6-1.5-.2-1.1.9-1.4 1-2.4.1-.6-.3-1.3-.6-1.9-.3-.5-.7-1.1-1.3-1.4-.3-.2-.6-.2-.9-.3-.3 0-.9 0-1.1-.3s-.4-.3-.6-.2l-.9-5.3c-.5-2.6-1.2-5.2-1.5-7.8a40.28 40.28 0 0 1-.3-4.9c0-1.6.3-3.2.6-4.9zM61.4 56.9c-.2-1.3.1-2.6.7-3.7.2-.4.6-.8.9-1.3v.4c.2 2.6.2 5.1-.1 7.7-.6-1-1.3-1.9-1.5-3.1zm26.3-4.6c.1.3 0 .2 0 0zm0 0c0-.1 0-.1 0 0 0-.1 0-.1 0 0zM66.3 34c1.3 4.7 2.6 9.4 3.4 14.2.4 2.5.7 5 .7 7.5 0 1.9.1 3.8-.7 5.5-.9 1.8-2.1 3.4-2.7 5.3-.1.2.2.3.3.2.5-1 .9-2 1.5-2.9l1.2-2.1c.8-1.5.9-3 .9-4.7 0-5-.9-9.9-2-14.7-.7-2.8-1.5-5.6-2.3-8.3-.1-.2-.3-.1-.3 0z"/><path d="M87.6 62.2c-.1-1-.5-1.9-.8-2.9l-.8-2.7-1.6-5.6c-.1-.2-.3-.1-.3.1l1.5 5.8.8 2.7c.3.9.5 1.9.9 2.7.1.2.3.1.3-.1z"/><path d="M88.6 66.4a6.44 6.44 0 0 0-.8-4.5c-.1-.1-.3-.1-.2.1.5 1.4.7 2.7.7 4.2-.1.2.3.5.3.2z"/></g><g fill="#6fb2c9"><path d="M74.5 59.3h1.9v.8h-1.9zm1.9 20.8h-1.9v-1.7h1.9v1.7zm0-3.3h-1.9v-1.7h1.9v1.7zm0-3.4h-1.9v-1.7h1.9v1.7zm0-3.3h-1.9v-1.7h1.9v1.7zm0-3.3h-1.9v-1.7h1.9v1.7zm0-3.4h-1.9v-1.7h1.9v1.7zm-1.9 18.3h1.9v.8h-1.9zm-13.9.8h.8v1.9h-.8z"/><path d="M89.7 84.4h-1.6v-1.9h1.6v1.9zm-3.1 0H85v-1.9h1.6v1.9zm-3.2 0h-1.6v-1.9h1.6v1.9zm-3.1 0h-1.6v-1.9h1.6v1.9zm-3.2 0h-1.6v-1.9h1.6v1.9zm-3.1 0h-1.6v-1.9H74v1.9zm-3.1 0h-1.6v-1.9h1.6v1.9zm-3.2 0h-1.6v-1.9h1.6v1.9zm-3.1 0H63v-1.9h1.6v1.9zm26.7-1.9h.8v1.9h-.8z"/></g></svg>