<svg xmlns="http://www.w3.org/2000/svg" viewBox="0 0 65.2 113.4"><path d="M30.5 82.4c2.6-.7 5.3-.6 7.8.2 2.7.9 4.7 2.5 6.7 4.4.2.2.6-.1.4-.3-3.2-4.5-9.9-6.1-15-4.7-.3.1-.1.5.1.4z" fill="#1e1812"/><path d="M32.7 50.2s.5-21.1 0-26.8c-.2-2-2.2-13.3-2.5-18.1C30 .5 20 2.6 20 2.6l5.1 30.6L22 48.1c-.1 1.5 2.1 31.9-3.3 35.3S17.1 102 17.1 102l5 4.7 12.4 2.5 10.7-2.4 2.6-2.3 4.7-3.4s-15.8 4.5-21.7 3.1c-5.6-1.3-9.9-2.9-8.6-11.8.8-5.9 2.1-10.1 4.7-11.2s3-6.6 4-10c1.3-4.8 1.8-21 1.8-21z" fill="#e6e6e7"/><g fill="#1e1812"><path d="M23.1 75c1-4.5 1.3-9.4 1-14-.2-2.4-.6-4.8-1.1-7.2-.3-1.7-.6-3.3 0-5 .6-1.9 1.4-3.6 2.1-5.5.7-2.1 1-4.3 1.2-6.5.5-5.3-.2-10.9-.9-16.2-.8-6.2-2.1-12.3-3.5-18.3-.5-1.5-2.9-.9-2.5.7 1.2 5.2 2.3 10.5 3.1 15.9.8 5.3 1.6 10.9 1.3 16.2-.1 2.4-.4 4.9-1.1 7.1-.6 1.8-1.3 3.6-1.9 5.4-.5 1.6-.7 3-.5 4.6.3 2.2.9 4.4 1.2 6.6.4 2.7.5 5.4.4 8.1s-.5 5.3-.4 8c.1.7 1.4 1 1.6.1zm29-51.7c-1.8 9.1-4.2 18.1-6.3 27.1-.9 3.6-1.7 7.2-2.3 10.8-.5 3.1-.7 6.2-.8 9.3-.1 2.5.7 4.4 1.6 6.6.8 1.9 2 4 2.2 6.2 0 .4.7.4.7 0-.2-3.9-3.4-7.1-3.7-11-.2-1.8 0-3.7.1-5.4.1-1.5.2-3.1.5-4.6 1.2-7.8 3.3-15.5 5.2-23.2 1.3-5.2 2.5-10.4 3.5-15.7 0-.3-.6-.5-.7-.1z"/><path d="M56.2 10.2l-1.4 14.3c-.4 3.8-.7 7.7-.6 11.5.2 7.3 2.5 14.2 4.1 21.2.3 1.3.8 2.8.8 4.1s-1 2.6-1.7 3.6c-1.3 1.9-2.6 3.7-2.5 6 .2 5.7 0 11.4-.5 17.1-.2 1.8-.3 3.7-.6 5.5-.2 1.6-.4 3.5-1.1 4.9-1.4 2.9-3.7 5.3-6.7 6.7-3.1 1.5-6.6 1.9-10 1.9-3.5 0-7-.1-10.4-.8-2.5-.5-5.3-1.2-7.3-3s-2.5-4.4-2.3-7c.3-3.9 2.3-7.3 3-11.2.5-2.8.5-6.5-1.8-8.6-2-1.8-3.9-3.6-5.6-5.6-.7-.8-1.5-1.8-1.8-2.8l-.6-2.2c-.1-.8-.2-1.6-.8-2.4-.9-1.2-2.5-2.1-1.4-3.6.4-.6 1-1.1 1.7-1.3.8-.3 1.3.2 2.1.4.7.1 1.5 0 2.1-.4.2-.1.5-.4.6-.6-.2.4-.8.4-.1.2 1.1-.2 1.9-.6 3-.4.8.1 1.6.4 2.4.2 1-.3 2-.2 3.1 0 1.6.3 2.3-2.2.7-2.5-1.2-.2-2.6-.4-3.9-.2-.1 0-1 .2-.6.2-.4 0-.9-.2-1.4-.3-1.2-.2-2.4-.1-3.6.3-.6.2-1.2.4-1.7.7-.5.5-.1.2-.1.2-.1 0-.8-.3-1-.4-1.6-.5-3.4.2-4.6 1.4s-2.1 3.1-1.5 4.8c.3.8.9 1.5 1.5 2.2.7.7.8 1 1 2 .4 1.4.7 2.8 1.4 4.1.7 1.2 1.7 2.4 2.7 3.4 1 1.1 2.1 2.2 3.1 3.2.6.6 1.5 1.1 2 1.8 1.1 1.4 1 3.9.7 5.6-.3 2.1-1.1 4.2-1.8 6.2-1.1 3.2-1.8 6.8-.8 10.2.8 2.6 2.6 4.7 5 6 2.7 1.5 5.8 2 8.9 2.3 3.8.4 7.8.5 11.7.1 3.4-.4 6.8-1.2 9.6-3.2 2.6-1.8 5.3-4.8 6-8 1.6-7.1 1.8-14.5 1.8-21.7 0-1.9-.1-3.9-.1-5.8 0-1.2.9-2.3 1.5-3.3.9-1.3 1.9-2.6 2.4-4.1.5-1.2.2-2.4 0-3.7l-1.3-5.8c-1-3.9-2.1-7.7-2.8-11.7-1.4-8-.2-16.1.5-24.1l.6-7.6c.2-1.1-1.5-1.1-1.6 0zM32.4 32c0 7.4.6 14.8.3 22.2-.1 4.1-.5 8.1-1.2 12.2-.5 3-1.3 5.8-2.5 8.6-.8 2-1.8 4.3-2.7 6.1-.2.5.5.9.8.4 2-4.1 4.2-8.3 5-12.9 1.3-7.7 1.7-15.3 1.4-23.1L33 32c.1-.4-.6-.4-.6 0z"/><path d="M51.7 82.1c.1-1.4-.1-2.6.3-4 .3-1.3.9-2.5 1.5-3.7 1.7-3.3 3.5-6.6 4.8-10.2.1-.2-.3-.4-.4-.2-1.6 3.7-3.4 7.1-5.2 10.7-1.1 2.2-2.1 4.9-1.3 7.4-.1.3.2.3.3 0zM22 58.1c-1.7.8-3.6 1.3-5.5 1.3-.9 0-1.8-.2-2.7-.4-.8-.2-1.6-.7-2.4-.8-.2 0-.5.3-.3.5 1.4 1.2 3.7 1.5 5.4 1.5 2.1 0 3.9-.6 5.7-1.6.3-.2.1-.6-.2-.5zm-2.9 21.6l-.5-3.3c-.1-.9 0-1.9-.3-2.8-.2-.5-.8-.5-.9 0-.7 1.8.2 4.6.6 6.4.2.7 1.2.4 1.1-.3z"/></g><path d="M56.4 112h-2.8v-2.8h2.8v2.8zm-5.7 0h-2.8v-2.8h2.8v2.8zm-5.6 0h-2.8v-2.8h2.8v2.8zm-5.7 0h-2.8v-2.8h2.8v2.8zm-5.7 0h-2.8v-2.8h2.8v2.8zm-5.7 0h-2.8v-2.8H28v2.8zm-5.6 0h-2.8v-2.8h2.8v2.8zm-5.7 0h-2.8v-2.8h2.8v2.8zm-5.7 0H9.5v-2.8H11v2.8zm22.8-2.9l-2.8-.3.3-2.8 2.8.3-.3 2.8zm.7-5.7l-2.8-.3.3-2.8 2.8.3-.3 2.8zm.7-5.6l-2.8-.3.3-2.8 2.8.3-.3 2.8zm.7-5.6l-2.8-.3.3-2.8 2.8.3-.3 2.8zm.7-5.7l-2.8-.3.3-2.8 2.8.3-.3 2.8zm.7-5.6l-2.8-.3.3-2.8 2.8.3-.3 2.8zm.7-5.6l-2.8-.3.3-2.8 2.8.3-.3 2.8zm.7-5.6l-2.8-.3.3-2.8 2.8.3-.3 2.8zm.6-5.7l-2.8-.3.3-2.8 2.8.3-.3 2.8zm.7-5.6l-2.8-.3.3-2.8 2.8.3-.3 2.8zm.7-5.6l-2.8-.3.3-2.2 2.8.3-.3 2.2z" fill="#de9e00"/></svg>