<svg xmlns="http://www.w3.org/2000/svg" viewBox="0 0 65.2 113.4"><path d="M28.6 82.9c2.2-.6 4.5-.8 6.7-.6 2.3.2 4.3 1 6.5 1.8.2.1.4-.3.2-.4-3.9-2.5-9.2-2.6-13.5-1.3-.4 0-.2.5.1.5z" fill="#1e1812"/><path d="M28.1 51.9l-1.5-28.8c-.2-1.9-.6-9.3-1-18.6C23.9-.4 17.2 2 17.2 2l5.2 30.4-4.9 17.4c-.1 1.5 5.4 30.2 0 33.6s-1.6 18.4-1.6 18.4l5 4.6 12.3 2.5 10.6-2.3 4.2-1 3.5-4.1s-16.2 3.9-22 2.6c-5.6-1.3-10.5-7.1-9.6-12.9s1.2-8.7 2.5-9.8c2.1-1.8 3-6.6 4-10 1.3-5 1.7-19.5 1.7-19.5z" fill="#e6e6e7"/><g fill="#1e1812"><path d="M19 75c1-4.5 1.3-9.3 1-13.9-.2-2.4-.6-4.8-1.1-7.1-.3-1.7-.6-3.3 0-4.9.6-1.8 1.4-3.6 2.1-5.4.7-2 1-4.1 1.2-6.2.6-5.4-.1-11-.7-16.4C20.8 15 19.9 9 18.8 3c-.4-1.6-2.8-1-2.5.6 1 5.3 1.9 10.7 2.5 16.1.6 5.2 1.3 10.7 1 15.9-.1 2.3-.4 4.7-1.1 6.8-.6 1.9-1.4 3.6-2 5.5-1.2 3.7.2 7.3.8 11 .4 2.6.5 5.3.4 8s-.5 5.3-.4 7.9c.1.8 1.3 1 1.5.2zm28-53c-1.3 9.1-3.3 18.1-5 27.1-.7 3.6-1.3 7.2-1.7 10.8-.4 3.1-.4 6.2-.3 9.3 0 2.4.8 4.2 1.8 6.3 1 1.9 2.3 4 2.5 6.2.1.4.7.4.7 0-.4-3.8-3.4-6.7-4.2-10.3-.4-1.8-.2-3.7-.2-5.6 0-1.5.1-3 .2-4.4.7-7.9 2.5-15.6 4-23.3l2.8-15.9c.1-.5-.6-.6-.6-.2z"/><path d="M52.9 10.5L51 20.6c-.6 3.1-1.3 6.1-1.3 9.4 0 8.7 2.8 17.2 4.8 25.7.4 1.6.8 3.2 1 4.8.2 1.2.1 2.1-.3 3.3-.8 2.3-2.1 4.6-1.9 7.1L54 84c.1 2.7.1 5.5 0 8.2-.1 2-.2 4.2-.9 6.1-2.3 5.8-9 8.2-14.7 9.1-3.6.6-7.2.1-10.7-.6-3.1-.6-6.5-1.1-8.8-3.5-1.2-1.3-2.2-2.8-2.7-4.5-.5-1.6-.2-2.9.1-4.4.8-3.3 1.3-6.8 1.1-10.2-.2-2.7-.7-5.6-2.5-7.7-.8-1-1.6-1.9-2.3-3s-1.6-2.3-1.9-3.6c-.3-1.4.2-3 .1-4.5-.1-1.4-1.2-2.8-.7-4.2.4-1.2 1.7-2.3 3-2.6 1.3-.2 2.2 1.2 3.5.6.8-.3 1.2-1.2 1.1-2-.2-1.6-2.8-1.6-2.6 0v.2c.2.3-.1-.1 0 0 .1 0 .7-.6.7-.6 0-.1-.8-.4-.9-.5-.4-.2-.8-.3-1.2-.3-1.5-.1-3 .7-4.1 1.7s-2 2.4-2.1 3.9c-.1 1.6.9 2.9.9 4.5s-.4 3.2.1 4.7c.5 1.4 1.3 2.7 2.1 3.9.8 1.1 1.6 2.2 2.5 3.2.7.8 1 1.3 1.3 2.4 1.1 3.5.8 7.5.2 11.1-.3 1.5-.7 3-.9 4.5-.2 1.8.2 3.5.9 5.1 1.4 3.1 3.8 5.7 7 6.8 3.4 1.2 7 1.8 10.6 2.1 3.9.4 7.6-.2 11.3-1.4 2.5-.8 4.9-1.7 7-3.3 2.4-1.8 4.5-4.4 5.3-7.4.6-2.2.6-4.6.7-6.8.1-5.5-.2-11.1-.6-16.6-.1-1.4-.3-2.8-.3-4.2.1-3 2.5-5.6 2.3-8.7-.1-1.2-.4-2.5-.7-3.7-.4-1.9-.9-3.7-1.3-5.5-1.1-4.4-2.3-8.8-3.2-13.3-.9-4.7-1.3-9.7-.5-14.5.4-2.4 1-4.8 1.4-7.1l1.1-6.3c0-1.2-1.6-1.7-1.8-.6zM26.8 32.3c.2 7.3.9 14.7.8 22 0 4-.4 8.1-.9 12.1-.4 3-1.1 5.7-2.2 8.6L22 81.1c-.2.5.5.9.7.4 1.9-4.1 4-8.4 4.6-12.9 1.1-7.6 1.3-15.2.9-22.9l-.8-13.4c.1-.4-.6-.4-.6 0z"/><path d="M52.7 80.1c.1-1.2-.2-2.6-.2-3.8-.1-1.2-.1-2.3.1-3.5.5-3.5 1.9-6.8 3.2-10.1.1-.2-.3-.4-.4-.2-1.5 3.2-2.9 6.6-3.4 10.1-.2 1.2-.2 2.4-.1 3.6.1 1.3.1 2.7.4 4 0 .2.4.1.4-.1z"/></g><path d="M56 112h-2.8v-2.8H56v2.8zm-5.7 0h-2.8v-2.8h2.8v2.8zm-5.6 0h-2.8v-2.8h2.8v2.8zm-5.6 0h-2.8v-2.8h2.8v2.8zm-5.6 0h-2.8v-2.8h2.8v2.8zm-5.6 0h-2.8v-2.8h2.8v2.8zm-5.7 0h-2.8v-2.8h2.8v2.8zm-5.6 0h-2.8v-2.8h2.8v2.8zm-5.6 0H9.5v-2.8H11v2.8zm22.5-3l-2.8-.1.1-2.8 2.8.1-.1 2.8zm.3-5.6l-2.8-.1.1-2.8 2.8.1-.1 2.8zm.3-5.6l-2.8-.1.1-2.8 2.8.1-.1 2.8zm.3-5.7l-2.8-.1.1-2.8 2.8.1-.1 2.8zm.3-5.6l-2.8-.1.1-2.8 2.8.1-.1 2.8zm.3-5.6l-2.8-.1.1-2.8 2.8.1-.1 2.8zm.3-5.6l-2.8-.1.1-2.8 2.8.1-.1 2.8zm.2-5.6l-2.8-.1.1-2.8 2.8.1-.1 2.8zm.3-5.6l-2.8-.2.1-2.8 2.8.1-.1 2.9zm.3-5.6l-2.8-.1.1-2.8 2.8.1-.1 2.8zm.3-5.7l-2.8-.1.1-2.2 2.8.1-.1 2.2z" fill="#de9e00"/></svg>