<svg xmlns="http://www.w3.org/2000/svg" viewBox="0 0 65.2 113.4"><path d="M25.6 88.7c2.3-.7 4.7-1.2 7.2-1.4 2.3-.2 4.6.1 6.9.2.3 0 .3-.4.1-.5-2.3-.5-4.9-.4-7.2-.2a29 29 0 0 0-7.1 1.5c-.3.1-.2.5.1.4z" fill="#1e1812"/><path d="M9.9 2.1l2.5 36.8s-5.9 12.5-6 14c-.1.9 2.8 9.1 2.9 17.4.1 6.8 1.4 12.2 1.4 12.2l1.5 10.4 4.2 8.5 6.1 6.6h17.9s5.1-.8 8.2-.9 8.1-4.3 8.1-4.3-24.9 1.9-30-1.1-7.4-10-6.7-11.8c.7-1.9 2.4-7.7 2.4-7.7s2.1-4.4 3-7.8c1.4-4.9-3.3-23.3-3.3-23.3s-5.8-21.8-6.3-27.4c-.2-2.6 1-16.4.2-19.5-.9-3.2-6.1-2.1-6.1-2.1z" fill="#e6e6e7"/><g fill="#1e1812"><path d="M49.8 61.6c.9.2 1.5.6 2.3 1 .6.3.9.2 1.5.1.7-.1 1.5-.1 2 .6.6.8.6 1.4.3 2.3-.2.7-.2 1.4.1 2 .2.5.5.9.5 1.4.2 1.8-.2 3.7-.3 5.5-.2 2.7-.7 5.4-.2 8.2l1.3 5.6c.5 2.7.6 5.5.4 8.3-.1 1.7-.1 3.8-.9 5.3-.7 1.2-1.8 2.2-2.9 3-1.1.7-2.3 1-3.7 1.3-2 .4-3.9.6-5.9.7-3.7.2-7.3.1-11 0l-7.2-.3c-2.4-.1-4.5-1.3-6.2-3-1.5-1.5-2.6-3.3-3.8-5-1.5-2.1-2.2-4.6-2.8-7-1-3.6-1.6-7.3-1.7-11-.1-2.8.1-5.7 0-8.5-.1-3.5-.4-7.3-1.4-10.6-.8-2.7-3-5.8-2.3-8.7.6-2.5 2.2-4.8 3.2-7.1.5-1 .9-2 1.1-3.1.4-2.1.4-4.3.3-6.4l-.4-26.7V2.8c0-1.7-2.7-1.7-2.7 0l.4 28c.1 2.3.2 4.7.2 7 0 1.8 0 3.7-.6 5.4-.9 2.6-2.4 5-3.5 7.5-1.2 2.9-.5 5.5.6 8.3 1.5 3.6 2.1 7.2 2.4 11.1.2 3 .1 6 .1 9 0 3.7.5 7.4 1.3 11 .7 2.9 1.5 6.3 3.1 8.9 1.1 1.7 2.3 3.4 3.6 5 1.8 2.2 4.2 4 7 4.7 2 .5 4.1.4 6.1.5 7.4.3 15.3.9 22.5-1.1 2.5-.7 5.1-2.7 6.3-5.1.9-1.7.9-3.6 1.1-5.4.2-1.7.2-3.5.1-5.3-.1-2.4-.5-4.7-1.1-7-.5-1.9-1-3.8-.9-5.8.1-1.9.3-3.7.4-5.5.1-1.7.5-3.7.2-5.4-.1-.5-.3-.9-.5-1.4-.3-.8.2-1.5.2-2.3 0-1.4-.8-3-2.1-3.7-1.2-.7-2.6-.6-3.8-.1h1c-1-.4-2-1.1-3.1-1.3-1.3-.3-1.9 1.6-.6 1.8zm-6.1-37.8c-1.8 9.5-3.9 19-5.3 28.6-.5 3.4-1 6.9-1.1 10.4l-.3 5.3c-.1 2 .5 3.5 1.5 5.2 1.9 3.6 4 7.4 6.7 10.4.3.3.8-.2.5-.5-2.4-2.7-4.2-6-5.9-9.1-1-1.8-2.1-3.4-2-5.6 0-1.7.2-3.4.2-5.2.3-7.6 1.7-15.1 3.1-22.5L44.3 24c.1-.4-.5-.6-.6-.2z"/><path d="M47.8 9.9C46.4 17.6 45 25.2 44.2 33c-.5 4.6-.7 9.4.3 14l2.9 12.5c.1.4.3.9.3 1.4s-.3 1.2-.3 1.7l-.3 1.7c-.4 1.8-.6 3.4-.3 5.3.2 1.8 2.8 1.5 2.5-.3-.2-1.5 0-2.8.2-4.3.3-1.6.9-3.5.6-5.1-.8-3.8-1.7-7.5-2.6-11.3-.5-2.2-1-4.2-1.1-6.5s-.1-4.7 0-7.1c.2-4 .8-7.9 1.4-11.9.6-4.2 1.3-8.4 2-12.6.2-1.3-1.7-1.9-2-.6zM17.9 35.8c2.4 7.9 4.9 15.8 6.3 23.9.7 4.1 1.2 8.3 1.2 12.6 0 3-1.1 5.8-2.4 8.5-.6 1.4-1.3 2.8-1.9 4.2-.4 1-.9 2.1-.8 3.1 0 .6.8.5.9 0 .3-2.4 1.7-4.8 2.7-7 1.1-2.4 2.3-5 2.4-7.7.4-8-1.5-16.3-3.6-24-1.2-4.6-2.7-9.2-4.2-13.8-.2-.4-.8-.2-.6.2z"/><path d="M55.6 81.8c0-1.3-1.2-2.7-1.9-3.8L51 74.5c-1.7-2.1-3.7-4-5.2-6.3-.3-.5-1-.1-.8.5 1 2.2 3 4.2 4.5 6l3 3.8c.4.6.9 1.2 1.2 1.9.4.6.6 1.3 1.1 1.7.4.2.8.1.8-.3z"/></g><g fill="#de9e00"><path d="M58.8 112h-1.5v-2.8h1.5v2.8zm-4.3 0h-2.8v-2.8h2.8v2.8zm-5.6 0h-2.8v-2.8h2.8v2.8zm-5.6 0h-2.8v-2.8h2.8v2.8zm-5.6 0h-2.8v-2.8h2.8v2.8zm-5.6 0h-2.8v-2.8h2.8v2.8zm-5.6 0h-2.8v-2.8h2.8v2.8zm-5.6 0h-2.8v-2.8h2.8v2.8zm-5.6 0h-2.8v-2.8h2.8v2.8z"/><path d="M33.7 109.9l-.2-2.8 2.8-.2.2 2.8-2.8.2zm-.4-5.6l-.2-2.8 2.8-.2.2 2.8-2.8.2zm-.4-5.6l-.2-2.8 2.8-.2.2 2.8-2.8.2zm-.4-5.6l-.2-2.8 2.8-.2.2 2.8-2.8.2zm-.3-5.6l-.2-2.8 2.8-.2.2 2.8-2.8.2zm-.4-5.5l-.2-2.8 2.8-.2.2 2.8-2.8.2zm-.4-5.6l-.2-2.8 2.8-.2.2 2.8-2.8.2zm-.4-5.6l-.2-2.8 2.8-.2.2 2.8-2.8.2zm-.4-5.6l-.2-2.8 2.8-.2.2 2.8-2.8.2zm-.4-5.6l-.2-2.8 2.8-.2.2 2.8-2.8.2zm-.4-5.6l-.2-2.2 2.8-.2.2 2.2-2.8.2z"/></g></svg>