<svg xmlns="http://www.w3.org/2000/svg" viewBox="0 0 65.2 113.4"><path d="M21.6 53.7l-4-29.9c-.2-2.2.2-7.2-1-18.6C16-1.1 11.7 3 11.7 3l2.4 36.1S12 46.4 11.9 48s1.3 35.2 1.3 35.2l-2 10.3 4.3 10.6 8.8 4.7h18l5.9-1.6 1.6-2.1s-21.9-.9-27.1-4-6.6-10.6-5.9-12.5 2.5-5.8 2.5-5.8 2.9-7.3 3.9-10.7c1.5-5-1.6-18.4-1.6-18.4z" fill="#e6e6e7"/><g fill="#1e1812"><path d="M45.6 21.1c-1.6 3.9-1.5 8.7-1.1 12.8.4 4.4 1.4 8.7 2.5 13 .8 3.1 1.4 6.3 2 9.5.2 1.2.5 2.5.7 3.7.1.3.1.7.2 1 .1.7-.1 0 .1-.2-.2.2-.2 1-.2 1.2-.1.7-.3 1.4-.5 2.1-.4 1.7-1.1 3.2-1.7 4.8-.4 1.1 1.3 2.1 2 1.2 1.8-2.1 2.2-5.4 2.6-8 .2-1.4-.1-2.7-.4-4.1l-1.9-9.2c-.9-4-2.1-8-2.7-12.1-.4-2.5-.7-5-.7-7.6s.4-5.2.8-7.8c.3-1-1.2-1.4-1.7-.3z"/><path d="M51.4 58.3c.4.9 1.4 1.1 2.2 1.3 1.2.2 1.8.5 2.5 1.5.3.5.7 1 .8 1.6.2.7-.1 1-.5 1.5-.9 1.2-1.1 2.4-.6 3.8.2.7.8 1.3.9 2.1.2.7.1 1.4.1 2.1.2 1.6.3 3-.6 4.4-.8 1.3-2 2.2-2.8 3.5-.7 1.3-1 2.6-.7 4 .3 1.2 2 .7 1.9-.5-.2-1.7.9-3.2 2-4.4 1-1.1 1.8-2.2 2.2-3.6.3-1.4 0-2.8 0-4.2 0-.6 0-1.3-.2-1.9-.2-.8-.8-1.4-1-2.2-.4-1.6 1.3-2.3 1.4-3.8.1-1-.5-2.1-1-2.9s-1.2-1.7-2-2.2c-.4-.2-.9-.3-1.4-.4-.4-.1-1.5 0-1.7-.4-.8-.9-1.9-.2-1.5.7zM13.2 76c-1.5-2.7-4.1-4.8-4.1-8.1 0-1.7.5-3.3 1.4-4.7.9-1.5 1.8-2.9 2.4-4.6.3-1-1.1-1.8-1.7-1-2.5 3-4.9 6.2-4.9 10.3A10.02 10.02 0 0 0 7.7 73c.9 1.5 2.1 2.8 3 4.4 1 1.6 3.4.2 2.5-1.4z"/><path d="M52.7 84.3c1.6 5.1 1.7 10.7-.8 15.6-1.2 2.3-3.1 5.3-5.7 6.1-1.5.5-3.2.3-4.7.3H36c-2.8 0-5.7.2-8.5-.2-2.1-.3-4.2-.7-6.3-1.1-1.7-.4-3.1-1-4.3-2.4-1.9-2.2-3.1-5.3-3.6-8.1-1.2-6.2 3.2-12.5 0-18.5-.8-1.6-3.3-.2-2.4 1.4 1.4 2.7.8 5.8.3 8.7-.6 3.1-1.1 6.2-.5 9.4 1 5 4 10.9 9.4 12.1 2.2.5 4.4.9 6.7 1.2 3.1.4 6.2.3 9.3.3h5.8c1.7 0 3.5.1 5.1-.4 2.9-.9 5.1-3.6 6.6-6.1 3.3-5.5 4.1-13.1.9-18.8-.6-1.1-2.1-.5-1.8.5z"/><path d="M13.6 77.2c1.4-4.9.8-10.4.4-15.4-.2-2.3-.5-4.5-.9-6.8-.3-1.9-.4-3.8-.1-5.7.7-4.1 2.2-7.8 2.3-12 .1-5.3-.3-10.7-.4-16.1l-.8-18.6C14 1 11.6 1 11.6 2.6c.6 10.8 1 21.7 1.2 32.5 0 2.4-.1 4.7-.6 7-.4 1.9-.9 3.7-1.3 5.6-.4 1.8-.5 3.7-.3 5.6.2 2.1.7 4.2 1 6.3l.8 8.3c.2 3 0 6.1-.1 9.1-.1.8 1.1.9 1.3.2zm31.3-54.7l-5.2 26.9c-.6 3.6-1.2 7.1-1.6 10.7-.3 3.1-.4 6.1-.6 9.2-.1 1-.1 2.1.1 3.2.3 1.1.9 2.1 1.4 3.1 1.1 2.4 2 4.8 3.3 7 .2.4.8 0 .6-.3-1.1-1.9-1.9-3.9-2.8-5.9-.4-1-.9-1.9-1.3-2.9-.6-1.2-.7-2.3-.6-3.6.2-3 .3-6 .6-9 .8-7.7 2.3-15.3 3.8-22.8l3-15.4c0-.4-.6-.6-.7-.2z"/><path d="M47.4 9.9l-3.2 14.7c-.3 1.6 2.2 2.3 2.5.7.9-4.9 2-9.8 3-14.7.4-1.6-2-2.3-2.3-.7zM15.7 33.8c2.2 7.2 4.5 14.5 5.9 22 .7 3.8 1.3 7.7 1.5 11.5.2 2.9.4 5.8-.8 8.5-1.2 2.8-3.1 5.4-4 8.4-.1.5.6.8.8.3.8-1.5 1.4-3.1 2.2-4.6.6-1.1 1.2-2.2 1.7-3.3 1.1-2.4 1.2-4.7 1.2-7.4-.2-7.7-1.8-15.4-3.9-22.8-1.2-4.3-2.6-8.6-3.9-12.8-.2-.4-.8-.2-.7.2zm34.5 42.8c-.3-1.5-.9-3-1.4-4.4L47.5 68l-2.7-8.6c-.1-.3-.5-.2-.4.1.7 3 1.7 6 2.6 8.9l1.4 4.2c.5 1.4.8 2.9 1.5 4.2.1.2.4 0 .3-.2zm3.4 6.3c.4-2.3-.2-4.9-1.5-6.8-.1-.2-.4-.1-.3.2.8 2.2 1.2 4.1 1.2 6.4 0 .3.5.6.6.2zm-27.7 1.5c1.6-.6 3.3-1 5-1.1s3.4.3 5.1.6c.2 0 .4-.3.2-.4-3.2-1.4-7.2-.9-10.4.5-.3.1-.1.5.1.4z"/></g><path d="M56.1 112h-2.8v-2.8h2.8v2.8zm-5.7 0h-2.8v-2.8h2.8v2.8zm-5.7 0h-2.8v-2.8h2.8v2.8zm-5.6 0h-2.8v-2.8h2.8v2.8zm-5.7 0h-2.8v-2.8h2.8v2.8zm-5.6 0H25v-2.8h2.8v2.8zm-5.7 0h-2.8v-2.8h2.8v2.8zm-5.6 0h-2.8v-2.8h2.8v2.8zm-5.7 0H9.3v-2.8h1.5v2.8zm21.8-3.1h-2.8v-2.8h2.8v2.8zm0-5.6h-2.8v-2.8h2.8v2.8zm0-5.7h-2.8v-2.8h2.8v2.8zm0-5.6h-2.8v-2.8h2.8V92zm0-5.7h-2.8v-2.8h2.8v2.8zm0-5.6h-2.8v-2.8h2.8v2.8zm0-5.7h-2.8v-2.8h2.8V75zm0-5.6h-2.8v-2.8h2.8v2.8zm0-5.7h-2.8v-2.8h2.8v2.8zm0-5.7h-2.8v-2.8h2.8V58zm0-5.6h-2.8v-2.2h2.8v2.2z" fill="#de9e00"/></svg>