<svg xmlns="http://www.w3.org/2000/svg" viewBox="0 0 65.2 113.4"><path d="M10.7 1.7L9.1 37.9 2.4 58.5c0 .9 3.6 7.2 3.7 15.6C6.2 80.9 7.3 90 7.3 90l3.6 5.9 4.6 7 8.3 5.2h17.9s5.1-.8 8.2-.9 8.1-4.3 8.1-4.3-24.9 1.9-30.1-1.1c-5.1-3-7.4-10-6.7-11.9s2.4-7.7 2.4-7.7.1-4.2 1.1-7.5c1.4-4.9-3.6-23.5-3.6-23.5s-1.1-6.1-3.6-13.3c-.2-2.7 4.1-30 .7-33.6s-7.5-2.6-7.5-2.6z" fill="#e6e6e7"/><g fill="#1e1812"><path d="M9.7 2.6c-.2 9.7-.6 19.4-1.3 29.1l-.7 8.2c-.1 1.3-.4 2.5-.8 4-.6 2.2-1.4 4.3-2.3 6.3-.7 1.7-1.5 3.3-2.3 5-.5 1.2-1.1 2.3-1.2 3.6-.1 1.8.5 3.4 1.2 5 .8 1.9 1.6 3.6 1.9 5.6.6 3.7.8 7.2.8 11S5 88 6.6 91.5c1.5 3.3 4.1 5.7 5.9 8.8.6 1 .7 2 1.5 2.9 1 1.3 2.4 2.3 3.8 3.2 2.6 1.7 5.4 2.7 8.5 2.9 3.5.2 7 .3 10.4.4 4.6.1 9.2 0 13.7-.7 1.7-.3 3.5-.6 4.9-1.5 1.5-1 2.8-2.4 3.6-4 1-2.1 1-4.6 1.4-6.8.3-1.7.5-3.5.8-5.2.3-2.1.7-4.2.7-6.3 0-1.4.1-2.6.7-3.9.9-1.9 1.5-3.6 1.5-5.7 0-1.7-.2-3.6-.6-5.3-.5-1.8-1.2-3.6-1.5-5.5-.3-1.6-2.2-3-3.8-3.1-.8-.1-1.5.1-2.2.3-1 .2-1.1-.3-1.9-.8-1.3-.9-3.4-.5-4.9-.5-.3 0-.6-.1-.2 0a.76.76 0 0 1-.4-.2c-.6-.2-1.2-.4-1.8-.5-1.3-.3-3-.6-4.2.2-1.4.9-.1 3.2 1.3 2.2.8-.6 2.6.2 3.5.4a6.9 6.9 0 0 0 2.5.4c.8 0 1.7-.1 2.5 0 .6.1.9.7 1.5 1 .7.4 1.5.4 2.3.3.7-.1 1.5-.5 2.2-.2.4.2.9.5 1 .9.1.3.1.6.2.9.2.5.4 1 .5 1.6.5 1.6 1 3.2 1.2 4.8.3 2 .4 4.2-.4 6.1-.6 1.6-1.4 3-1.5 4.7-.1 1.8-.1 3.5-.4 5.3l-1.4 9.6c-.3 2.2-.5 4-2.1 5.6-1.1 1.2-2.2 1.7-3.7 2.1-4.4 1-8.9 1.1-13.4 1.1-3.5 0-7.1-.2-10.6-.3-.8 0-1.6 0-2.4-.1-1.7-.1-3.3-.8-4.7-1.6-1.5-.8-3-1.8-4.2-3-.8-.8-1-1.6-1.5-2.6-.6-1.2-1.5-2.2-2.3-3.3-1.1-1.4-2.2-2.8-3-4.4-2-3.1-2.1-6.7-2.1-10.4 0-3.2 0-6.4-.4-9.6-.3-2.1-.5-4.3-1.3-6.3-.6-1.6-1.5-3-2-4.7-.7-2.6 1.2-5.3 2.3-7.7 1.7-3.7 3.3-7.6 3.9-11.6.3-2 .4-4.1.6-6.1.6-8.3 1-16.6 1.3-25l.2-7.7c0-1.6-2.4-1.6-2.4 0zm29.5 23.2C37.4 35 35.9 44.3 35 53.7c-.3 3.5-.6 7-.7 10.5 0 1.7-.1 3.4-.1 5 0 2 .5 3.7 1.4 5.5 2.1 3.8 4.5 7.6 7.5 10.8.3.3.8-.2.5-.5-2.6-2.9-4.8-6.3-6.8-9.7-1.1-1.9-1.8-3.6-1.9-5.8v-5c.2-7.4 1-14.9 2-22.2.8-5.5 1.7-11 2.8-16.4.2-.3-.4-.5-.5-.1z"/><path d="M43.5 9.8l-2.3 7.8c-.4 1.3-.8 2.6-1 4l-1.1 9.5c-.5 4.5-.7 9.1-.1 13.6.6 4.8 2.4 9.3 3.2 14 .6 3.7-1.4 7.3-1 11.1.2 1.6 2.7 1.6 2.6 0-.4-3.3 1.3-6.6 1.1-9.9-.4-4.6-2.1-9.1-3.1-13.6-1-4.2-.8-8.8-.6-13.1.2-3.6.7-7.2 1.1-10.7.4-3.8 2-8.2 3.2-12.1.3-1.3-1.7-1.9-2-.6zM17.2 38c3 7.6 4.8 15.7 5.8 23.8.5 4 .9 8 1.1 12 .2 3-.6 5.8-1.7 8.6-.4 1.6-1 3-1.4 4.6-.3 1-.6 2.1-.5 3.2.1.5.8.4.9-.1.1-2.4 1.3-4.8 2.1-7 .9-2.6 1.9-5.3 1.8-8.1-.1-4.1-.7-8.2-1.2-12.3-.5-3.9-1.1-7.8-2-11.6-1-4.5-2.4-9-4.2-13.3-.2-.3-.8-.2-.7.2z"/><path d="M54.7 79.6c-.3-1.3-1.9-2.4-2.9-3.2-1.4-1-2.9-1.8-4.4-2.7l-4-2.5c-.5-.3-1-.4-1.4-.6-.8-.4-1.2-1-1.7-1.7-.3-.5-1-.1-.8.5.6 1.2 1.3 1.9 2.4 2.4 1.4.6 2.5 1.6 3.8 2.4l4.4 2.6c.8.5 1.5 1 2.2 1.6.6.5 1.1 1.2 1.8 1.6.4.2.7-.1.6-.4zM24.3 91.1c2.5-1.3 5.1-2.3 7.8-2.9 2.8-.6 5.5-.6 8.3-.5.3 0 .3-.4.1-.5-5.6-.8-11.6.8-16.5 3.5-.2.1 0 .5.3.4z"/></g><path d="M58.8 112h-1.5v-2.8h1.5v2.8zm-4.3 0h-2.8v-2.8h2.8v2.8zm-5.7 0H46v-2.8h2.8v2.8zm-5.6 0h-2.8v-2.8h2.8v2.8zm-5.6 0h-2.8v-2.8h2.8v2.8zm-5.6 0h-2.8v-2.8H32v2.8zm-5.6 0h-2.8v-2.8h2.8v2.8zm-5.6 0H18v-2.8h2.8v2.8zm-5.7 0h-2.8v-2.8h2.8v2.8zm18.6-3.2l-.3-2.8 2.8-.3.3 2.8-2.8.3zm-.7-5.5l-.3-2.8 2.8-.3.3 2.8-2.8.3zm-.7-5.6l-.3-2.8 2.8-.3.3 2.8-2.8.3zm-.6-5.6l-.3-2.8 2.8-.3.3 2.8-2.8.3zm-.7-5.6l-.3-2.8 2.8-.3.3 2.8-2.8.3zm-.7-5.5l-.3-2.8 2.8-.3.3 2.8-2.8.3zm-.7-5.6l-.3-2.8 2.8-.3.3 2.8-2.8.3zm-.7-5.6l-.3-2.8 2.8-.3.3 2.8-2.8.3zm-.7-5.6l-.3-2.8 2.8-.3.3 2.8-2.8.3zm-.6-5.5l-.3-2.8 2.8-.3.3 2.8-2.8.3zm-.7-5.6l-.3-2.1 2.8-.3.3 2.1-2.8.3z" fill="#de9e00"/></svg>