<svg xmlns="http://www.w3.org/2000/svg" viewBox="0 0 500 360"><defs><filter id="A" filterUnits="userSpaceOnUse" x="-97.2" y="126.5" width="686.5" height="224.3"><feColorMatrix values="1 0 0 0 0 0 1 0 0 0 0 0 1 0 0 0 0 0 1 0"/></filter></defs><mask maskUnits="userSpaceOnUse" x="-97.2" y="126.5" width="686.5" height="224.3" id="B"><g filter="url(#A)"><radialGradient id="C" cx="249.187" cy="233.502" r="190.263" fx="249.279" fy="233.446" gradientTransform="matrix(1 0 0 0.4458 0 129.4002)" gradientUnits="userSpaceOnUse"><stop offset=".452" stop-color="#fff"/><stop offset=".543" stop-color="#fcfcfc"/><stop offset=".615" stop-color="#f2f2f2"/><stop offset=".68" stop-color="#e1e1e1"/><stop offset=".741" stop-color="#cacaca"/><stop offset=".8" stop-color="#ababab"/><stop offset=".856" stop-color="#868686"/><stop offset=".911" stop-color="#595959"/><stop offset=".964" stop-color="#272727"/><stop offset="1"/></radialGradient><ellipse cx="249.2" cy="233.5" rx="210.2" ry="97.9" opacity=".4" fill="url(#C)"/></g></mask><g mask="url(#B)" fill="#95c1e3"><path d="M250.6 350.8l-.2-.1-347.6-119.9 338.6-104.3.2.1 347.6 119.9-338.6 104.3zM-94.3 230.9l345 119 335.7-103.4-345-119-335.7 103.4z"/><path d="M281.1 341.3L-65.3 221.8l.4-.8 346.4 119.5zm30.6-9.5L-34.7 212.4l.4-.8L312.1 331zm30.7-9.4L-4 202.9l.4-.8 346.4 119.5zM373 313L26.6 193.5l.4-.8 346.4 119.5zm30.7-9.5L57.3 184l.4-.8 346.4 119.5zm30.6-9.4L87.9 174.6l.4-.8 346.4 119.5zm30.7-9.5L118.6 165.2l.4-.8 346.4 119.4zm30.6-9.4L149.2 155.7l.5-.8 346.4 119.5zm30.7-9.4L179.9 146.3l.4-.8L526.7 265zm30.6-9.5L210.5 136.8l.5-.8 346.4 119.5z"/><path d="M219.3 339.9l-.4-.8 337.2-103.9.4.8zM187.8 329l-.4-.8 337.2-103.8.4.8zm-31.5-10.9l-.3-.8 337.1-103.8.4.8zm-31.5-10.8l-.3-.8 337.1-103.9.4.8zm-31.4-10.9l-.4-.8 337.2-103.8.3.8zm-31.5-10.8l-.4-.9 337.2-103.8.3.8zm-31.5-10.9l-.4-.8L367.2 170l.4.9zm-31.5-10.9l-.4-.8 337.2-103.8.4.8zM-32.6 253l-.4-.8 337.2-103.9.4.8zm-31.5-10.9l-.4-.8 337.2-103.8.4.8z"/></g><path d="M316 27.8V259c0 5.8-4.8 10.6-10.6 10.6H200.2c-5.8 0-10.6-4.8-10.6-10.6V27.8a10.07 10.07 0 0 1 1.1-4.6v110.6H315V23.2c.6 1.4 1 3 1 4.6z" fill="#fff"/><path d="M190.7 10.5H315v123.3H190.7z" fill="#d4e4f4"/><path d="M241.5 154.9h-28.9c-1.1 0-2-.9-2-2s.9-2 2-2h28.9c1.1 0 2 .9 2 2s-.9 2-2 2zm0 49.4h-28.9c-1.1 0-2-.9-2-2s.9-2 2-2h28.9c1.1 0 2 .9 2 2s-.9 2-2 2zm36.4-39.9h-65.3c-1.1 0-2-.9-2-2s.9-2 2-2h65.3c1.1 0 2 .9 2 2s-.9 2-2 2zm-17.8 9.5h-47.5c-1.1 0-2-.9-2-2s.9-2 2-2h47.5c1.1 0 2 .9 2 2s-.9 2-2 2zm-8.3 9.5h-39.2c-1.1 0-2-.9-2-2s.9-2 2-2h39.2c1.1 0 2 .9 2 2s-.9 2-2 2zm19.4 0h-12.7c-1.1 0-2-.9-2-2s.9-2 2-2h12.7c1.1 0 2 .9 2 2s-.9 2-2 2zm20.2 0h-9.1c-1.1 0-2-.9-2-2s.9-2 2-2h9.1c1.1 0 2 .9 2 2s-.9 2-2 2zm-69.3 9.5H213c-1.1 0-2-.9-2-2s.9-2 2-2h9.1c1.1 0 2 .9 2 2s-.9 2-2 2zm69.3 0h-9.1c-1.1 0-2-.9-2-2s.9-2 2-2h9.1c1.1 0 2 .9 2 2s-.9 2-2 2zm-17 0h-45.5c-1.1 0-2-.9-2-2s.9-2 2-2h45.5c1.1 0 2 .9 2 2-.1 1.1-.9 2-2 2zM308.1 5.7H197.5c-5.7 0-10.3 4.6-10.3 10.3v245.7c0 5.7 4.6 10.3 10.3 10.3h110.6c5.7 0 10.3-4.6 10.3-10.3V16c0-5.7-4.6-10.3-10.3-10.3zm5.5 246.9c0 3.1-2.5 5.5-5.5 5.5H197.5c-3.1 0-5.5-2.5-5.5-5.5V16c0-3.1 2.5-5.5 5.5-5.5h110.6c3.1 0 5.5 2.5 5.5 5.5v236.6z" fill="#748086"/><path d="M241.8 37.4c-1 9.9-1.9 20.4 2.3 29.8 2.2 5 4 6.3 8.4 8.6 5.6 2.9 10.9 7.4 15.6 11.5 2.6 2.3 5.7 3.7 9 4.6 3.4.9 7 .8 9.7 3.4l-.9-.5c2.4.4 4.9.3 7.2-.5 1.3-.4 3.3-1.4 3.5 1.1l-1 4.5c-1.9.7-5.1 2.1-7.2 1.6-.7-.1-.9-.9-1.6-.9-.9 0-1.4.9-2.2 1.2-1.5.5-3.5.3-5.1.5-3.3.3-6.5-1-9.7-1.3-4-.5-8.1-.5-12.1-.6-7.8-.2-15.7.1-23.4 1.2-8 1.1-16.1-.2-17.5-9.6-.8-5.2 2.2-10.1 3.4-15.2 2.5-10.5-.6-23.1-4.6-32.9l26.2-6.5z" fill="#fff"/><g fill="#748086"><path d="M296 93.6c-.4-.6-1.2-.9-2.1-.8s-1.8.5-2.6.8c-1.9.5-3.8.6-5.7.4-1.2-1.2-2.9-1.7-4.6-2.1-2.7-.6-5.3-1-7.8-2.1-5.1-2.2-9-6.8-13.4-10.1a56.33 56.33 0 0 0-7.2-4.8c-1.8-1-3.7-1.9-5.2-3.4-3.6-3.7-5-9.8-5.5-14.7-.4-3.3-.4-6.6-.2-9.8s1-6.6.5-9.8c-.2-1.4-2.1-1-2.4 0-.9 2.7-.8 5.9-.9 8.7-.1 3.2-.1 6.3.2 9.5.5 5.4 1.8 11.1 4.7 15.7 2.5 3.8 6.5 5.3 10.2 7.6 5.1 3.2 9.3 7.4 14.2 10.9 2.5 1.7 5.4 3 8.4 3.6 1.4.3 2.8.5 4.2.8a19.57 19.57 0 0 1 3.4 1.2.9.9 0 0 0 .6.6c.2 0 .5.1.7.1h.1a.45.45 0 0 0 .5 0c1.7.2 3.3.2 5-.2.8-.2 1.5-.4 2.2-.6s1.1-.4 1.5 0c.1.5.2.9.2 1.4 0 .8-.2 1.6-.5 2.4-1.7.2-3.2.9-4.8 1.2-1.2.2-1.6 0-2.6-.5-.8-.4-1.6-.4-2.3-.1-.8.3-1.2 1-2 1.2-1 .3-2.2.2-3.2.2-2.6.1-4.9-.2-7.5-.8-5-1.1-10.1-1-15.2-1.1s-10.1 0-15.1.3c-4.4.3-8.7 1.3-13.1 1.2-3.1 0-6.6-.7-8.8-3.1-2.9-3.1-2.9-7.7-1.9-11.6 1.2-4.5 3-8.6 3.4-13.3.9-9.6-1.4-20.3-6-28.8-.4-.7-1.5-.2-1.3.5 2.7 9.4 5.8 18.7 4.7 28.6-1 8.5-7.8 17.6-1.7 25.7 4.6 6.1 12.8 5 19.4 4.2 5.4-.6 10.8-.8 16.3-.8s11.1-.1 16.6.7c2.7.4 5.3 1.3 8 1.3 2.1.1 5.3.2 7.2-.7.4-.2.7-.5 1-.7.8-.4.3-.1.9.1.9.3 1.6.5 2.6.4 2.2-.2 4.5-.9 6.3-2.2.3-.2.5-.7.5-1.1.1 0 .1-.1.1-.2.8-1.4 1.7-4.7 0-5.9zM231.5 84c1.2.5 2.2-1.1 1-1.8-2.1-1.3-1.4-4-.8-6 .3-1.1-1.2-1.4-1.6-.4-1.1 2.6-1.9 6.7 1.4 8.2z"/><circle cx="302.9" cy="19.5" r="4.7"/></g><path d="M301.1 281.1v-1.4c-.1-3.7-3.3-6.6-7.1-6.6h-3.8c-2.3 0-4.4 1.1-5.7 2.7H283v-.1c-.1-3.7-3.3-6.6-7.1-6.6h-3.8c-3.8 0-6.9 2.8-7.1 6.4v.3-3.6c-.1-3.7-3.3-6.6-7.1-6.6h-3.8c-3.1 0-5.7 1.9-6.7 4.5v-36c0-4.7-3.8-8.5-8.5-8.5H237c-4.7 0-8.5 3.8-8.5 8.5v46.3l-1.3 13.8c0 11.1-15.9 1.2-22.6.3-9.8-1.3-13.8 3-13.8 10.5 0 2.6 12.8 7.5 19 11.1s9.5 12.8 15.6 20c0 0 10.7 14.5 33.6 14.5 23 0 42.7-9.5 42.7-23v-43.3c.1-1.1-.2-2.2-.6-3.2z" fill="#fff"/><path d="M303.7 293.5c0-2.9.4-6.4 0-9.5 0-4.8-.6-9.6-5.5-12.1-2.6-1.3-6.3-1.3-9.2-.9-1.7.2-3.1.9-4.3 1.9-.5-1.4-1.4-2.7-2.8-3.8-1.8-1.5-4-2.2-6.4-2.2-1.8 0-3.7-.2-5.4.2-1.5.3-2.6 1-3.6 1.8-.8-1.7-2-3.1-3.6-4.1-2.1-1.3-4.3-1.5-6.7-1.5s-4.8 0-6.9 1.4v-19.5c0-3.7.2-7.5 0-11.3-.3-4.7-3.7-9-8.3-10.2-1.6-.4-1.2-.4-2.8-.4-1.7 0-3.5 0-5.1.6-4 1.5-6.4 5.3-6.5 9.4v40.3c0 2.8 0 5.5-.2 8.3-.3 3.2-.7 14-2.7 14.8-2.7 1.2-6.6-.5-9.2-1.4-3.3-1.1-6.6-2.6-10-3.2-3.8-.6-8.6-.5-11.8 2.1-2.8 2.3-4.2 6.5-3.8 10.1.3 3.3 4.2 5.2 6.8 6.6 4.1 2.2 8.4 4 12.5 6.2 4.4 2.4 6.9 6.4 9.4 10.5 2.1 3.3 4.2 6.6 6.7 9.6 3.3 4 7.6 7.3 12.2 9.7 9.1 4.8 19.2 6.1 29.4 5.4 10.5-.8 19.5-3.2 28.3-9.2 5.4-3.6 9.6-8.9 9.6-15.6v-14.1l-.1-19.9zm-111.2 11.2c.2.1 0 .2 0 0zm.1 0zm104.9 29.1c-5.1 7.3-15 10.7-23.3 12.6-10.2 2.3-19.4 3.1-29.5-.1-6-1.9-11.6-5-16-9.4-.5-.5-1-1.1-1.5-1.6-.1-.1-.2-.3-.3-.4-3.3-4.1-5.9-8.7-8.9-13.1-2.7-3.8-5.7-6.7-9.8-8.8-3.9-2-7.8-3.7-11.6-5.8-.8-.4-1.5-.8-2.3-1.3-.3-.2-.9-.8-1.3-1v-.6c.1-.9.2-1.8.5-2.6 1.1-3.4 4-4.9 7.4-5.2 7.2-.5 13.4 4.1 20.4 5 2.7.4 5.8 0 7.2-2.6 1.1-1.9 2.2-14.4 2.2-18.4v-45.1c0-2.5.8-4.7 2.8-6.2 2.4-1.8 4.1-1.8 7-1.4 5.6.8 5.1 6.2 5.1 10.3v34.3c0 .9.1 2.6.1 2.6v12c0 1.2.7 2.4 1.9 2.8 1 .3 2.1-.3 2.1-1.4 0-2.7-.1-15.6.2-16.5 1.1-4.4 6.4-4.5 10-4.1 4.3.5 3.9 4.3 3.9 7.5V287c0 1.2.7 2.4 1.9 2.8 1 .3 2.1-.3 2.1-1.4v-11.6c.1-1.5.6-3 1.8-4.1 1.4-1.3 3.1-1.5 4.9-1.5 1.5 0 3.3-.2 4.7.4 3.4 1.3 2.7 8 2.7 8-.1 2.6 0 5.2 0 7.9 0 1.2.7 2.4 1.9 2.8 1 .3 2.1-.3 2.1-1.4v-8c0-4.2 3.4-5.7 7.1-5.7 3.1 0 6.9.2 7 4.2.1 2.7.1 37.4.1 43.2-.3 4.2-.2 7.8-2.6 11.2z" fill="#748086"/><circle cx="316.4" cy="130" r="25.9" fill="#fff"/><path d="M339.8 114.1c-4.3-6.2-10.7-10.5-18.1-11.9a28.36 28.36 0 0 0-21.2 4.4c-5.7 3.9-9.7 9.5-11.4 16.1l-12.7-2.4 12.3 18 18-12.3-12.6-2.4c1.5-5.2 4.7-9.8 9.3-12.9a22.8 22.8 0 0 1 17.4-3.6c6.1 1.2 11.4 4.6 14.9 9.7a22.8 22.8 0 0 1 3.6 17.4c-1.2 6.1-4.6 11.4-9.7 14.9a22.8 22.8 0 0 1-17.4 3.6 22.84 22.84 0 0 1-13.8-8.3c-.9-1.1-2.5-1.3-3.6-.4s-1.3 2.5-.4 3.6c4.2 5.3 10.2 8.9 16.9 10.2 1.8.3 3.6.5 5.3.5 5.6 0 11.1-1.7 15.9-4.9 6.2-4.3 10.5-10.7 11.9-18.1 1.2-7.5-.3-15-4.6-21.2zM316 112c-1.4 0-2.5 1.1-2.5 2.5v16.1c0 .9.5 1.7 1.2 2.2l10.1 8.4c.5.4 1 .6 1.6.6.7 0 1.4-.3 2-.9.9-1.1.8-2.7-.3-3.6l-9.5-7.9v-14.8c0-1.5-1.2-2.6-2.6-2.6z" fill="#73bdd8"/></svg>