<svg xmlns="http://www.w3.org/2000/svg" xmlns:xlink="http://www.w3.org/1999/xlink" viewBox="0 0 500 360"><defs><filter id="A" filterUnits="userSpaceOnUse" x="-101.9" y="131.5" width="704" height="230"><feColorMatrix values="1 0 0 0 0 0 1 0 0 0 0 0 1 0 0 0 0 0 1 0"/></filter><path id="B" d="M283.1 217.7a2.69 2.69 0 0 1-2.7-2.7v-9a2.69 2.69 0 1 1 5.4 0v9a2.69 2.69 0 0 1-2.7 2.7z"/><path id="C" d="M328.8 217.7a2.69 2.69 0 0 1-2.7-2.7v-9a2.69 2.69 0 1 1 5.4 0v9c.1 1.5-1.2 2.7-2.7 2.7z"/><path id="D" d="M370.2 217.7a2.69 2.69 0 0 1-2.7-2.7v-9a2.69 2.69 0 1 1 5.4 0v9c.1 1.5-1.1 2.7-2.7 2.7z"/></defs><mask maskUnits="userSpaceOnUse" x="-101.9" y="131.5" width="704" height="230" id="E"><g filter="url(#A)"><radialGradient id="F" cx="253.38" cy="241.151" r="195.116" fx="253.474" fy="241.093" gradientTransform="matrix(1 0 0 0.4458 0 133.6389)" gradientUnits="userSpaceOnUse"><stop offset=".452" stop-color="#fff"/><stop offset=".543" stop-color="#fcfcfc"/><stop offset=".615" stop-color="#f2f2f2"/><stop offset=".68" stop-color="#e1e1e1"/><stop offset=".741" stop-color="#cacaca"/><stop offset=".8" stop-color="#ababab"/><stop offset=".856" stop-color="#868686"/><stop offset=".911" stop-color="#595959"/><stop offset=".964" stop-color="#272727"/><stop offset="1"/></radialGradient><ellipse cx="253.4" cy="241.2" rx="215.6" ry="100.4" opacity=".4" fill="url(#F)"/></g></mask><g mask="url(#E)" fill="#95c1e3"><path d="M254.8 361.4l-.2-.1-356.5-123 347.3-106.9.2.1 356.5 123-347.3 106.9zm-353.7-123l353.8 122 344.3-106-353.8-122-344.3 106z"/><path d="M286.1 351.7L-69.2 229.2l.5-.9 355.2 122.6zm31.4-9.7L-37.7 219.5l.4-.8 355.2 122.5zm31.4-9.7L-6.3 209.8l.4-.8 355.3 122.5zm31.5-9.7L25.1 200.1l.5-.8 355.2 122.5zm31.4-9.6L56.6 190.4l.4-.8 355.2 122.5zm31.4-9.7L88 180.8l.4-.9 355.3 122.6zm31.5-9.7L119.4 171.1l.5-.9 355.2 122.6zm31.4-9.7L150.9 161.4l.4-.8 355.2 122.5zm31.4-9.7L182.3 151.7l.4-.8L538 273.4zm31.5-9.6L213.7 142l.5-.8 355.2 122.5z"/><path d="M222.8 350.2l-.4-.8 345.7-106.5.4.8zm-32.3-11.1l-.4-.8 345.7-106.5.4.8zm-32.3-11.2l-.4-.8 345.8-106.5.3.9zm-32.3-11.1l-.4-.8 345.8-106.5.4.8zm-32.3-11.1l-.4-.9L439 198.4l.4.8zm-32.3-11.2l-.4-.8 345.8-106.5.4.8zM29 283.4l-.4-.8 345.8-106.5.4.8zm-32.3-11.1l-.4-.9 345.8-106.5.4.9zm-32.3-11.2l-.4-.8 345.8-106.5.4.8zM-67.9 250l-.4-.9 345.8-106.4.4.8z"/></g><path d="M339.6 186.8H91.4c-11 0-20-9-20-20V32.7c0-11 9-20 20-20h248.3c11 0 20 9 20 20v134.1c-.1 11-9.1 20-20.1 20z" fill="#fff"/><path d="M348.7 189.2H82.3c-7.4 0-13.4-6-13.4-13.4V23.6c0-7.4 6-13.4 13.4-13.4h266.5c7.4 0 13.4 6 13.4 13.4v152.3c-.1 7.3-6.1 13.3-13.5 13.3zM82.3 15.1c-4.7 0-8.4 3.8-8.4 8.4v152.3c0 4.7 3.8 8.4 8.4 8.4h266.5c4.7 0 8.4-3.8 8.4-8.4V23.6c0-4.7-3.8-8.4-8.4-8.4H82.3z" fill="#748086"/><path d="M359 206.1H110.7c-11 0-20-9-20-20V52c0-11 9-20 20-20H359c11 0 20 9 20 20v134.1c0 11-9 20-20 20z" fill="#fff"/><path d="M368.1 208.6H101.6c-7.4 0-13.4-6-13.4-13.4V42.9c0-7.4 6-13.4 13.4-13.4h266.5c7.4 0 13.4 6 13.4 13.4v152.3c-.1 7.4-6.1 13.4-13.4 13.4zM101.6 34.5c-4.7 0-8.4 3.8-8.4 8.4v152.3c0 4.7 3.8 8.4 8.4 8.4h266.5c4.7 0 8.4-3.8 8.4-8.4V42.9c0-4.7-3.8-8.4-8.4-8.4H101.6z" fill="#748086"/><path d="M378.9 226H130.6c-11 0-20-9-20-20V71.9c0-11 9-20 20-20h248.3c11 0 20 9 20 20V206c0 11-9 20-20 20z" fill="#fff"/><path d="M388 228.5H121.5c-7.4 0-13.4-6-13.4-13.4V62.8c0-7.4 6-13.4 13.4-13.4H388c7.4 0 13.4 6 13.4 13.4v152.3c-.1 7.4-6.1 13.4-13.4 13.4zM121.5 54.4c-4.7 0-8.4 3.8-8.4 8.4v152.3c0 4.7 3.8 8.4 8.4 8.4H388c4.7 0 8.4-3.8 8.4-8.4V62.8c0-4.7-3.8-8.4-8.4-8.4H121.5z" fill="#748086"/><path d="M400.1 246.7H151.9c-11 0-20-9-20-20V92.6c0-11 9-20 20-20h248.3c11 0 20 9 20 20v134.1c-.1 11-9.1 20-20.1 20z" fill="#fff"/><g fill="#748086"><path d="M409.2 249.2H142.7c-7.4 0-13.4-6-13.4-13.4V83.5c0-7.4 6-13.4 13.4-13.4h266.5c7.4 0 13.4 6 13.4 13.4v152.3c0 7.4-6 13.4-13.4 13.4zM142.7 75.1c-4.7 0-8.4 3.8-8.4 8.4v152.3c0 4.7 3.8 8.4 8.4 8.4h266.5c4.7 0 8.4-3.8 8.4-8.4V83.5c0-4.7-3.8-8.4-8.4-8.4H142.7zm182 38H285a2.7 2.7 0 1 1 0-5.4h39.8a2.69 2.69 0 0 1 2.7 2.7c0 1.5-1.2 2.7-2.8 2.7zm0 68.1H285a2.7 2.7 0 1 1 0-5.4h39.8a2.69 2.69 0 0 1 2.7 2.7c0 1.5-1.2 2.7-2.8 2.7zm50.2-55H285a2.7 2.7 0 1 1 0-5.4h89.9a2.69 2.69 0 0 1 2.7 2.7c0 1.4-1.2 2.7-2.7 2.7zm-24.5 13H285a2.7 2.7 0 1 1 0-5.4h65.4a2.7 2.7 0 1 1 0 5.4zm-11.5 13.1H285a2.7 2.7 0 1 1 0-5.4h53.9a2.7 2.7 0 1 1 0 5.4zm26.7 0h-17.4a2.7 2.7 0 1 1 0-5.4h17.4a2.7 2.7 0 1 1 0 5.4zm27.8 0h-12.5a2.7 2.7 0 1 1 0-5.4h12.5a2.7 2.7 0 1 1 0 5.4z"/><use xlink:href="#B"/><use xlink:href="#B" x="10.9"/><use xlink:href="#B" x="21.8"/><use xlink:href="#B" x="31.6"/><use xlink:href="#C"/><use xlink:href="#C" x="10.9"/><use xlink:href="#C" x="21.8"/><use xlink:href="#C" x="31.6"/><use xlink:href="#D"/><use xlink:href="#D" x="10.9"/><use xlink:href="#D" x="21.8"/><path d="M298 165.4h-12.5a2.7 2.7 0 1 1 0-5.4H298a2.69 2.69 0 0 1 2.7 2.7c.1 1.5-1.1 2.7-2.7 2.7zm95.4 0h-12.5a2.7 2.7 0 1 1 0-5.4h12.5a2.7 2.7 0 1 1 0 5.4zm-23.4 0h-62.7a2.7 2.7 0 1 1 0-5.4H370a2.7 2.7 0 1 1 0 5.4z"/></g><path d="M256 221.5h-93.5c-1.6 0-2.8-1.3-2.8-2.8v-112c0-1.6 1.3-2.8 2.8-2.8H256c1.6 0 2.8 1.3 2.8 2.8v112c0 1.5-1.3 2.8-2.8 2.8z" fill="#d2e1ef"/><path d="M257.3 224h-96.1c-2.2 0-4-1.8-4-4V105.4c0-2.2 1.8-4 4-4h96.1c2.2 0 4 1.8 4 4V220c0 2.2-1.8 4-4 4zm-95.2-4.9h94.3V106.3h-94.3v112.8z" fill="#748086"/><path d="M230.5 141.1c-.4 1.8-1.4 3.2-2.6 4.4-.3.1-.2-.1-.3-.1-.4-.8-1.2-1.7-1.2-2.5.1-.8 1-1.5 1.5-2.3l1.4-2.4c1.1.6 1.5 1.6 1.2 2.9zm-3.8-7c-.2 1.9-1.1 3.6-2.4 5.3-.2.3-.3.1-.5-.1-.8-1-1.7-2-2.6-2.8-.3-.2-.2-.4-.1-.7.8-1.6 1.5-3.2 1.9-4.9.1-.5.5-.5.9-.5 1.7.2 2.8 1.6 2.8 3.7zm-7-5.8c-.1 1.7-.7 3.5-1.6 5.2-.1.3-.3.3-.5.1l-2.3-1.3c-.4-.2-.4-.4-.3-.7.5-1.9.9-3.7 1-5.7 0-.4.3-.5.6-.6 1.8-.3 3.2.7 3.1 3zm-7.4-2.7c-.1 1.7-.4 3.3-.8 4.8-.1.4-.2.5-.6.4-1.1-.3-2.2-.5-3.3-.6-.5 0-.6-.2-.5-.6.4-2.2.2-4.3-.3-6.4-.1-.3 0-.5.2-.7.8-.6 1.7-1 2.7-1 1.3 0 2.2.8 2.4 2.2l.2 1.9zm-8.7 1.6c0 .6-.1 1.2-.1 1.8 0 1.6-.7 1.5-1.8 1.5-2.7 0-4.4 1.1-7.1 1.4-.3-.1-.4-.2-.4-.5.4-2.5.1-5 .6-7.4.1-.6.3-1.1.6-1.6.8-1.8 2.2-2.4 4.1-2.3 1.7.1 2.8 1.1 3.4 2.6.4 1.4.6 3 .7 4.5zm13.5 10.6c-3.3-2.6-7-4-11.3-4-.4 0-7.1.5-8.7 1s-3.7 1.1-4.8 2.7c-1.2 1.3-2.2 7.6-1.6 9.8.5 2.2 2.4 6.4 3.1 7.7 1.2 2.3 2.2 4.6 3.2 7 1.7 4.1 2.8 8.3 2.3 12.8-.4 3.7-1.3 7.2-2.3 10.8-1.1 4.2-2.1 8.4-1.8 12.9.4 6.7 7.2 10.2 12.7 7.5 3.5-1.7 6-4.5 7.9-7.9 1.6-2.8 2.2-5.9 2.9-9 1.2-4.8 3-9.4 4.6-14.1 1.7-5.1 3.2-10.2 3.2-15.6.2-8.7-2.3-16.1-9.4-21.6zm-2.4 47.4c-.5 1-1.6 1.2-2.7.6-2.3-1.3-4.8-1.7-7.4-1.4-1.2.1-2.1-.5-2.2-1.6s.6-1.9 1.8-2.1c.5-.1 1.1-.1 1.5-.1 2.9.1 5.6.6 8 2 1.1.6 1.5 1.6 1 2.6z" fill="#fff"/><path d="M229.9 149.6l.1-.1c1.9-1.9 3.8-4.1 4.5-6.9.9-3.6-.3-6.4-3.5-8.2v-.4c0-4.3-2.8-7.3-7-7.7h-.2v-.1c-1.1-3.7-3.9-5.5-7.9-4.8h-.1s0-.1-.1-.2c-.4-1-1.1-1.9-2-2.5-2.2-1.6-4.7-1.8-7.5-.5-.9.4-1.2.3-1.7-.3-.9-1.1-2.3-1.5-3.5-1.9-.2-.1-.4-.1-.6-.2h-3.1c-.3.1-.5.2-.8.3-1 .4-2 .7-2.8 1.5-1.9 1.7-2.9 4-3.3 7.3-.1.8-.1 2.5-.1 3.9 0 1.1 0 2.4-.1 2.6-.1.5-2 5.9-2.6 7-.6 1.2-2.8 9 1.2 15.4.4.8.5 1.1.5 1.3s.1.4.2.7c.4.9.8 1.8 1.3 2.7l2.4 5.2c1.6 4 2.2 7.1 2 10.3-.3 3.4-1.2 6.8-2.1 10l-.1.2c-1.2 4.5-2.3 9.4-2 14.4.4 5.8 3.9 10.2 9.3 11.9 1.2.4 2.5.6 3.7.6 2.6 0 5.1-.8 7.6-2.4 4.8-3 8.1-7.6 10.1-14 .4-1.3.7-2.6 1-3.8.3-1.3.6-2.6 1-3.8l2.1-6.1c1.1-3.1 2.2-6.3 3.1-9.6 2.3-8.2 2.6-15.1.9-21.5-.1-.2-.1-.2.1-.3zm-22.6-26.5v-.1c.8-.6 1.6-.9 2.4-.9 1.1 0 1.7.6 1.9 1.7.1.4.1.9.1 1.3v.5c-.1 1.7-.4 3.2-.8 4.7-1-.3-2.1-.5-3.4-.6.4-2 .3-4.1-.2-6.6zm14.3 13s0-.1 0 0c1-2 1.6-3.5 2-5v-.1h.3c1.4.1 2.3 1.4 2.3 3.1-.2 1.5-.8 3-2 4.7-1-1.1-1.8-2-2.6-2.7zm6.3 8.6c-.1-.1-.2-.3-.3-.4-.3-.5-.7-1-.6-1.4 0-.4.4-.8.8-1.2.2-.3.5-.6.7-.9.4-.5.7-1.1 1-1.7 0-.1.1-.1.1-.2.5.5.7 1.2.5 2-.4 1.4-1.1 2.6-2.2 3.8zm-10.2-11.6c-.7-.4-1.4-.8-2.2-1.2h-.1c.6-2.1.9-4 1-5.8h.2c.5-.1 1.3-.2 1.8.2s.8 1.1.7 2.1c0 1.6-.7 3.5-1.4 4.7zm-20.2 52.7c.9-3.3 1.9-7 2.3-10.9.4-4.1-.3-8.3-2.3-13.1-.9-2.2-2-4.7-3.2-7-.6-1.2-2.5-5.4-3-7.5-.5-2 .5-8.1 1.5-9.3v-.1c.9-1.3 2.5-1.8 3.9-2.3.2-.1.4-.1.6-.2 1.4-.5 8.1-1 8.5-1h.1c3.8 0 7.5 1.3 10.8 3.9 6.4 4.9 9.4 11.8 9.2 21.1-.1 5.5-1.6 10.6-3.2 15.4l-1.5 4.5c-1.1 3.1-2.3 6.4-3.1 9.7l-.3 1.1c-.7 2.8-1.3 5.4-2.6 7.8-2 3.6-4.5 6.1-7.6 7.7-2.5 1.2-5.4 1.2-7.8-.2s-3.9-3.9-4.1-6.8c-.2-4.7.8-9.1 1.8-12.8zm1.8-65.2c1.4.1 2.4.8 3 2.3.5 1.3.7 2.7.8 4.4v.5c0 .4-.1.9-.1 1.3 0 .6-.1.7-.2.8s-.5.1-.9.1h-.2c-1.6 0-2.9.4-4.1.7-.9.3-1.8.5-2.9.7.2-1.1.2-2.2.2-3.2 0-1.4.1-2.7.4-4 .1-.5.3-1 .5-1.5.6-1.4 1.6-2 3.2-2 0-.1.2-.1.3-.1zm5.4 64.3c2.6-.3 4.9.2 7 1.4.5.3 1 .4 1.4.4.2 0 .4 0 .6-.1.6-.2 1.1-.6 1.4-1.2.7-1.2.2-2.6-1.2-3.3-2.3-1.3-4.8-1.9-8.2-2h-.4c-.3 0-.7.1-1.1.1-.8.1-1.4.4-1.8 1-.4.5-.5 1.1-.4 1.7 0 1.3 1.2 2.2 2.7 2zm195.2-70.7h-12.5v-10.1h-10.1V91.6h10.1V81.5h12.5v10.1H410v12.5h-10.1v10.1zm-8.7-3.8h4.9v-10.1h10.1v-4.9h-10.1V85.3h-4.9v10.1h-10.1v4.9h10.1v10.1z" fill="#748086"/><circle cx="314.2" cy="195.9" r="54.5" opacity=".82" fill="#9bc53d"/><path d="M314.5 123.2c-39.7 0-71.9 32.2-71.9 71.9s32.2 71.9 71.9 71.9c16.1 0 31-5.3 43-14.3l1.3-1c3.9-3 7.4-6.5 10.6-10.2a6.42 6.42 0 0 0 1-1.3c10-12.3 15.9-28.1 15.9-45.2.1-39.6-32.1-71.8-71.8-71.8zm41.3 109.9c-1.6 1.7-3.3 3.3-5 4.8h-.1c-9.8 8.3-22.4 13.2-36.2 13.2-31 0-56.1-25.1-56.1-56.1s25.1-56.1 56.1-56.1 56.1 25.1 56.1 56.1c0 14.8-5.6 28.1-14.8 38.1zm22.9 20.3c-.9.4-1.7.8-2.5 1.3-1 .6-1.9 1.4-2.8 2.2-.9.9-1.7 2-2.4 3.1-.5.8-.9 1.7-1.3 2.6l-10-10c.3-.2.6-.5.9-.7a52.49 52.49 0 0 0 7.6-7.3c.3-.3.5-.6.7-.9l9.8 9.7z" fill="#fff"/><path d="M357.7 235c10.1-11 15.6-25.1 15.6-39.9 0-32.5-26.4-58.9-58.9-58.9s-58.9 26.4-58.9 58.9 26.4 58.9 58.9 58.9a58.91 58.91 0 0 0 37.9-13.8l.1-.1c2-1.7 3.7-3.3 5.3-5.1zm-4-3.7c-1.4 1.6-3 3.1-4.7 4.5-.1 0-.1.1-.2.1-9.6 8.1-21.8 12.6-34.4 12.6-29.4 0-53.4-24-53.4-53.4s24-53.4 53.4-53.4 53.4 24 53.4 53.4c.1 13.4-4.9 26.2-14.1 36.2zm18.9 10.7c10.7-13.2 16.6-29.9 16.6-46.9 0-41.2-33.5-74.7-74.7-74.7s-74.7 33.5-74.7 74.7 33.5 74.7 74.7 74.7c16 0 31.3-5 44.1-14.4l10.3 10.3c.4-2 1.1-3.9 2.1-5.6l-7.2-7.2c1.9-1.6 3.7-3.3 5.4-5.2l7 7c1.7-1.1 3.6-1.8 5.5-2.2l-9.7-9.7c.2-.3.4-.6.6-.8zm-4.3-3.4c-.3.4-.7.8-1 1.2-3.1 3.6-6.5 6.9-10.2 9.8l-1.3 1c-12 9-26.3 13.7-41.4 13.7-38.2 0-69.2-31-69.2-69.2s31-69.2 69.2-69.2 69.2 31 69.2 69.2c.1 15.8-5.4 31.2-15.3 43.5z" fill="#748086"/><path d="M304.9 234.5c-3 0-5.8-1.2-7.9-3.4l-21.3-22.2c-4.2-4.4-4-11.2.3-15.4 4.4-4.2 11.2-4 15.4.3l12.4 13 30.4-40.3c3.6-4.8 10.5-5.8 15.3-2.1 4.8 3.6 5.8 10.5 2.1 15.3l-38.1 50.6c-1.9 2.6-4.9 4.1-8.1 4.3 0-.1-.2-.1-.5-.1z" fill="#74942e"/><path d="M412.8 315.9l-37.5-37.5a13.76 13.76 0 1 1 19.5-19.5l37.5 37.5a13.76 13.76 0 0 1 0 19.5c-5.3 5.3-14.1 5.3-19.5 0z" fill="#ebecee"/><path d="M434.3 294.4l-37.5-37.5c-4.1-4.1-9.8-5.6-15.1-4.5-1 .2-2 .5-2.9.9s-1.7.8-2.5 1.3c-1 .6-1.9 1.4-2.8 2.2-.9.9-1.7 2-2.4 3.1-.5.8-.9 1.7-1.3 2.6-.4 1-.7 2-.8 3-.2 1-.3 2-.3 3 0 4.4 1.7 8.6 4.8 11.7l37.5 37.5c3.2 3.2 7.4 4.8 11.7 4.8 4.2 0 8.5-1.6 11.7-4.8 6.3-6.3 6.3-16.8-.1-23.3zm-19.5 19.5l-37.5-37.5c-1.5-1.5-2.5-3.4-3-5.4-.2-.8-.3-1.6-.3-2.4 0-.5 0-1.1.1-1.6.1-1 .4-2 .9-3 .5-1.2 1.3-2.3 2.2-3.2a11.23 11.23 0 0 1 2.9-2.1c.9-.5 1.9-.8 2.9-1 1.3-.2 2.6-.2 3.8 0 2.2.4 4.3 1.4 6 3.1l37.5 37.5a11.05 11.05 0 0 1 0 15.6c-4.2 4.4-11.2 4.4-15.5 0z" fill="#748086"/><path d="M304.9 226.6c-.8 0-1.6-.3-2.2-.9l-21.3-22.2c-1.1-1.2-1.1-3.1.1-4.2s3.1-1.1 4.2.1l18.8 19.7 36-47.8c1-1.3 2.9-1.6 4.2-.6s1.6 2.9.6 4.2l-38.1 50.6c-.5.7-1.3 1.1-2.2 1.2.1-.1 0-.1-.1-.1z" fill="#fff"/></svg>