<svg xmlns="http://www.w3.org/2000/svg" viewBox="0 0 500 327.2"><defs><filter id="A" filterUnits="userSpaceOnUse" x="-100.8" y="98.5" width="702.7" height="229.5"><feColorMatrix values="1 0 0 0 0 0 1 0 0 0 0 0 1 0 0 0 0 0 1 0"/></filter></defs><mask maskUnits="userSpaceOnUse" x="-100.8" y="98.5" width="702.7" height="229.5" id="B"><g filter="url(#A)"><radialGradient id="C" cx="253.823" cy="207.984" r="194.751" fx="253.918" fy="207.926" gradientTransform="matrix(1 0 0 0.4458 0 115.2588)" gradientUnits="userSpaceOnUse"><stop offset=".452" stop-color="#fff"/><stop offset=".543" stop-color="#fcfcfc"/><stop offset=".615" stop-color="#f2f2f2"/><stop offset=".68" stop-color="#e1e1e1"/><stop offset=".741" stop-color="#cacaca"/><stop offset=".8" stop-color="#ababab"/><stop offset=".856" stop-color="#868686"/><stop offset=".911" stop-color="#595959"/><stop offset=".964" stop-color="#272727"/><stop offset="1"/></radialGradient><ellipse cx="253.8" cy="208" rx="215.2" ry="100.2" opacity=".4" fill="url(#C)"/></g></mask><g mask="url(#B)" fill="#95c1e3"><path d="M255.3 328l-.2-.1-355.8-122.7L245.9 98.5l.2.1 355.8 122.7L255.3 328zM-97.8 205.3l353.1 121.8L599 221.2 245.8 99.5-97.8 205.3z"/><path d="M286.4 318.3L-68.1 196l.4-.8 354.6 122.3zm31.4-9.7L-36.7 186.3l.4-.8 354.6 122.3zm31.4-9.6L-5.4 176.7l.5-.8 354.5 122.3zm31.4-9.7L26 167l.4-.8L381 288.5zm31.4-9.6L57.4 157.4l.4-.9 354.6 122.3zm31.3-9.7L88.8 147.7l.4-.8 354.6 122.3zm31.4-9.7L120.1 138l.5-.8 354.5 122.3zm31.4-9.6L151.5 128.4l.4-.8 354.6 122.2zm31.4-9.7L182.9 118.7l.4-.8 354.6 122.3zm31.3-9.7L214.3 109l.4-.8 354.6 122.3z"/><path d="M223.3 316.9l-.4-.9L568 209.7l.4.9zM191 305.7l-.4-.8 345.2-106.3.4.8zm-32.2-11.1l-.4-.8 345.1-106.3.4.8zm-32.2-11.1l-.4-.8 345.1-106.3.4.8zm-32.3-11.1l-.4-.8 345.2-106.3.4.8zm-32.2-11.1l-.4-.9 345.1-106.3.4.9zm-32.3-11.2l-.3-.8L374.6 143l.4.9zM-2.4 239l-.4-.8 345.2-106.3.4.8zm-32.2-11.1l-.4-.8 345.1-106.3.4.8zm-32.3-11.1l-.3-.8 345.1-106.3.4.8z"/></g><ellipse cx="248.5" cy="210.4" rx="137.7" ry="37.3" opacity=".4" fill="#c4e0f5"/><path d="M366.7 9.6c-1.2 1.6-21.3 100.6-21.3 111s8.8 58.5 8.8 64.6c0 6-5.2 17.6-6.8 20.9-1.6 3.2-8 14.8-28.5 14.4s-36.5-9.2-47.3-9.4-38.1 1-46.9 5.4-22.3 6.3-30.7 6.3-25-3.9-25-5.5-13.2 3.6-22.5.4c-9.2-3.2-10-14.8-7.6-18.4s11.2-.8 13.2 0 7.6-5.6 11.6-5.2 10.8 1.6 14.4-.4 12.4-10 20.9-10.8c8.4-.8 34.5-28.1 62.6-37.7 34.3-5.9 16.3-116.4 16.3-116.4L275 9.5l91.7.1z" fill="#fff"/><path d="M139.2 209c1 3.9 3.5 7.8 8.2 9.4 9.2 3.2 22.4-2 22.4-.4s16.5 5.4 24.9 5.4 21.8-1.8 30.6-6.2 36-5.6 46.8-5.4 26.8 9 47.2 9.4 26.8-11.2 28.4-14.4 6.8-14.8 6.8-20.8-8.8-54-8.8-64.4 19.8-110.5 21-112.1H329c-.7 25.5-7.3 108.2-7.3 108.2l.4 7.5s3.2 7.6-3.1 19c-1.1 2-2.3 4-3.6 5.8-.1.2-6.1.3-10.1-3-3.7-3.4-6.1-6.6-6.3-6.3-.7 1 3 7 6.5 9.4 3.5 2.5 7.3 4.1 5.5 5.9-4.9 6.2-10.3 11.9-15.3 18-8.1 9.7-10.8 4.5-18.9 9.4s-26.3 12.5-36.9 12.9c-10.6.3-7.3 12.2-32.6 19.8s-36.4 0-36.4 0l2.5-6.1c.1-.2-18.2 4.7-34.2-1z" fill="#e5e6e8"/><g fill="#748086"><path d="M369.1 9.8a2.33 2.33 0 0 0-2.1-1.3c-.9 0-1.6.4-2 1.1-.9 1.5-1.3 3.5-1.6 5.2l-.3 1.5c-2.5 10.9-16.7 81.4-18.2 91.3-1 6.7-1.8 13.9-.9 21.6 1 8.4 2.4 16.9 3.8 25.1 1.7 9.8 3.4 20 4.3 30.1.4 4.3-1.3 8.8-2.6 12.4-1.5 4.1-2.9 7.7-4.9 10.9-6.5 10.5-19.8 9.8-27.1 9.5-6.9-.3-14.2 0-23.7-2.7-1.5-.4-3-.9-4.4-1.3-4.3-1.3-8.7-2.6-13.2-3.3-4.2-.6-8.6-.5-12.8-.3-.6 0-1.1 0-1.7.1-6.9.2-13.1.7-18.9 1.4-5.6.7-10.7 1.3-15.5 2.9-1.4.5-2.8 1.1-4.2 1.7-1.3.6-2.6 1.2-4 1.6-3.1 1-6.5 1.9-10.3 2.6-4.9.9-9.9.7-14.7.6-3.6-.1-17.3-1.9-20.5-3h-.1l-1.8-.6c-.1-.3-.4-.8-.9-1-1.3-.6-2.7-.4-3.9-.1-.2 0-.4.1-.5.1-.8.1-1.5.3-2.3.4-5.4.9-10.9 1.9-16 .1-4.9-1.8-8-7.7-6.9-13.1.2-1 .6-1.7 1.3-2.1 1.6-1 4.7-.1 7.1.6 1.1.3 2 .6 2.9.7 2.8.5 4.9-1.1 7.1-2.7 1.7-1.3 3.3-2.4 5.1-2.4 1.6 0 3.1.1 4.6.3 4 .4 8.1.8 12.1-1.8 1.4-.9 2.8-1.9 4.2-2.8 4.1-2.9 8-5.6 12.8-6.6 3.9-.8 6.6-1.9 9.7-3.9 5.2-3.4 10.2-7.1 15-10.7 4.9-3.7 10-7.5 15.2-10.8 7-4.5 12.9-7.7 18.8-10.3l3.5-1.4c3.7-1.4 7.5-2.9 10.7-5.8 13.3-11.9 12.9-33.9 11.5-49.4-.4-4.2-1-16.6-1.8-31l-3.3-52.6c-.1-.8-.6-1.4-1.3-1.7-.8-.3-1.7-.1-2.4.4s-1 1.4-.9 2.3l1.3 9.3c1.7 11.7 4.1 88.3 4.1 88.3s-1.2 18.5-6.8 26.9c-2.5 3.7-5.9 6.4-10.2 8.1-7.9 3.1-13.8 5.8-19.3 9-8.3 4.8-16.2 10.6-23.7 16.2l-9.7 7c-.3.2-.7.5-1 .7-2.7 1.9-5.5 3.9-8.5 4.6-6.2 1.4-11.5 4-17.9 8.5-2.6 1.9-4.6 3.2-7.8 3.4-1.7.1-3.3-.1-5-.3-1.4-.2-2.8-.3-4.2-.4-2.7 0-4.9 1.2-7.1 2.6l-1.2.9c-1.5 1.1-2.4 1.7-3.7 1.4-.6-.1-1.3-.3-2-.5-3.6-.9-8.1-2.1-11.5.5-4 3.1-2.8 9.8-2.3 11.8 3.7 15.8 22.4 12.5 28.6 11.4.4-.1.9-.1 1.4-.2l1.8-.3c.9.8 2 1.2 3.1 1.6 5.6 2 11.8 2.4 16.6 3 2.6.3 5.3.5 8 .5 10 0 20.5-1.7 30.2-6 4.7-2.1 9.9-2.8 15.7-3.5s12-1.2 19.2-1.4c.6 0 1.2 0 1.8-.1 4.5-.2 9.1-.4 13.5.5 4.1.8 8.2 2 12.2 3.2 2.2.7 4.4 1.3 6.7 1.9 7.7 2.1 16.1 2.2 24.2 2.2 6.2 0 12.2.6 17.7-2.1 6.2-3 10.6-8 14-15.8 2.2-5 4.7-10.7 5.2-16.6.2-2.4-.1-4.7-.5-7-.1-.5-.1-.9-.2-1.3-.9-6.7-2-13.4-3-19.9l-1.6-9.9-.9-5.7c-1.1-6.9-2.3-14.1-2.5-21.1-.2-7.4 1.3-15.2 2.7-22.7l.9-4.8 15.5-76c.1-.6.2-1.3.4-2 .3-1.8.7-4 1.4-5.1s.8-1.9.4-2.6zm-42.7 62l-2.7 27-1.3 15.1c-.3 5.1.7 10.2 1 15.2.2 3.9.3 7.9-.6 11.7-1 4.6-3.8 7.9-7.1 11.1-.7.7-1.7-.5-1-1.2 4.6-4.5 6.9-8.9 7.2-15.4.2-5-.3-10-.8-15-.5-4.7-.1-9.1.3-13.8l3.4-34.9c.1-1 1.7-.8 1.6.2z"/><path d="M271.3 210.3c7.4-.3 14.4-.4 21.8-1.6.4-.1.6.5.2.6-7.1 1.5-14.7 2.4-21.9 1.5-.5 0-.5-.5-.1-.5zm-50.8 6.6c5.9-1.4 11.6-3.1 15.5-8 .3-.3.9.1.6.5-3.4 5.4-10.1 7-16 8.3-.3 0-.6-.7-.1-.8z"/></g></svg>