<svg xmlns="http://www.w3.org/2000/svg" viewBox="0 0 500 360"><defs><filter id="A" filterUnits="userSpaceOnUse" x="-101.81" y="130.8" width="703.71" height="229.89"><feColorMatrix values="1 0 0 0 0 0 1 0 0 0 0 0 1 0 0 0 0 0 1 0"/></filter></defs><mask maskUnits="userSpaceOnUse" x="-101.81" y="130.8" width="703.71" height="229.89" id="B"><g filter="url(#A)"><radialGradient id="C" cx="253.302" cy="240.452" r="195.042" fx="253.397" fy="240.394" gradientTransform="matrix(1 0 0 0.4458 0 133.2514)" gradientUnits="userSpaceOnUse"><stop offset=".452" stop-color="#fff"/><stop offset=".543" stop-color="#fcfcfc"/><stop offset=".615" stop-color="#f2f2f2"/><stop offset=".68" stop-color="#e1e1e1"/><stop offset=".741" stop-color="#cacaca"/><stop offset=".8" stop-color="#ababab"/><stop offset=".856" stop-color="#868686"/><stop offset=".911" stop-color="#595959"/><stop offset=".964" stop-color="#272727"/><stop offset="1"/></radialGradient><ellipse cx="253.3" cy="240.45" rx="215.52" ry="100.39" opacity=".4" fill="url(#C)"/></g></mask><g mask="url(#B)" fill="#95c1e3"><path d="M254.76 360.68l-.2-.07-356.36-122.9 347.14-106.9.2.07 356.36 122.9-347.14 106.9zM-98.86 237.75l353.64 121.97 344.17-106L245.3 131.76l-344.17 106z"/><path d="M285.98 350.94l-355.1-122.48.44-.82 355.1 122.48zm31.42-9.68L-37.7 218.78l.43-.82 355.1 122.48zm31.42-9.68L-6.28 209.1l.43-.82 355.1 122.48zm31.43-9.68L25.14 199.43l.44-.82 355.1 122.47zm31.42-9.67L56.57 189.75l.43-.82L412.1 311.4zm31.43-9.68L88 180.07l.43-.82 355.1 122.48zm31.4-9.68L119.4 170.4l.44-.82 355.1 122.47zm31.44-9.67l-355.1-122.48.44-.82 355.1 122.48zm31.42-9.68l-355.1-122.48.43-.82L537.8 272.7zm31.42-9.68l-355.1-122.47.44-.83 355.1 122.48z"/><path d="M222.7 349.5l-.4-.84L567.95 242.2l.4.84zm-32.3-11.15l-.4-.83 345.65-106.45.4.83zm-32.28-11.13l-.4-.84 345.65-106.44.4.83zm-32.28-11.14l-.4-.83L471.1 208.8l.4.84zm-32.28-11.13l-.4-.84 345.66-106.44.4.83zM61.28 293.8l-.4-.83 345.65-106.45.4.84zM29 282.68l-.4-.83L374.25 175.4l.4.83zm-32.3-11.13l-.4-.84 345.65-106.45.4.84zm-32.27-11.15l-.4-.83L309.7 153.13l.4.83zm-32.28-11.12l-.4-.84L277.4 142l.4.84z"/></g><ellipse cx="248.01" cy="234.71" rx="137.88" ry="64.23" opacity=".4" fill="#c4e0f5"/><path d="M225.37 6.58c-6.35 46.6-6.12 93.8-5.88 140.8.02 4.6.05 9.2.98 13.7.8 3.9 3.3 11.18 4 15.1 1.18 6.63-.37 10.75-.92 18.94-.64 9.58-1.3 19.9.75 30.15l.53-33.1c1.76 2.98 3.94 5.5 5.7 8.48 1.97 3.34 2.84 7.54 2.2 11.36-.88 5.33-4.38 8-6.83 12.8-4.8 9.4 2.74 20.54 1.54 31.03-.6 5.36-2.9 11.4-5.92 15.88-1.65 2.46-3.2 6.25-5.84 7.23l-.16-.2c-5.73 3.34-13.76 2-20.38 2.2-7.37.22-14.74-.64-22.1-.42-2.66.08-5.4.15-7.87-.85-1.73-.7-3.22-1.9-4.58-3.2-9.72-9.27-13.05-23.55-8.04-36.02l-.15-.52c.8-3.83-2.2-7.3-5-10.02-2.8-2.72-3.7-6.1-3.15-9.98.3-2.24-.42-4.02.73-5.98 1.15-1.95 1.96-4.45.86-6.43-.65-1.17-1.9-1.98-2.3-3.24-.64-1.94 2.33-6.65 3.96-7.9s5.5-.5 6.15-2.45l6.53 20.27c-3.28-4.9-4.85-14.48-4.85-14.48s2.23-16.02 4.26-25.4c3.28-15.14 6.16-30.97 1.5-45.74l2.1 6.15C156.28 105 146.1 72.55 142 45.95l83.36-39.37z" fill="#fff"/><path d="M207.36 185.36l5.2-53.42c.47-10.08 1.83-111.13-3.27-124.78 5.04-5.42 15-2.22 15-2.22l-4.47 153.98s4.14 12.92 4.5 15.6c.36 2.67.02 62.62.02 62.62l4.17 18.23-5.9 20.8-16.44 7.3-32.06.07-10.64-2.5-3-3.7s38.87-2 47.88-7.77S219.37 250.3 218 247s-4.75-10.1-4.75-10.1-5.66-12.8-7.6-18.8c-2.85-8.7 1.73-32.75 1.73-32.75zm1.38 56.16c-1.7-.3-22.54-3.8-30.55 1.42 12.77-8.92 30.55-1.42 30.55-1.42z" fill="#e5e6e8"/><g fill="#748086"><path d="M162.94 131.74l10.6 46.1c1.35 6.34 2.6 12.7 3.6 19.1.8 5.17 1 10.35 1.62 15.52.25 2.04.6 4.13.33 6.2-.3 2.23-1.55 4.3-2.38 6.36-1.67 4.16-3.14 8.38-5.25 12.35-.36.68.68 1.23 1.05.56 2.02-3.6 3.42-7.43 4.92-11.26 1.24-3.18 3.02-6.1 3.03-9.6.01-3.04-.53-6.14-.74-9.18-.18-2.58-.47-5.15-.82-7.7-1.86-13.66-5.12-27.13-8.25-40.54l-6.63-28.23c-.17-.7-1.25-.35-1.08.35z"/><path d="M232.97 200.78c-.97-1.8-2.2-3.47-3.4-5.13-1.02-1.4-2-3-3.46-4l.75-7.24c.47-5.4-.8-10.43-2.23-15.6-.7-2.5-1.5-5-2.02-7.55-.78-3.77-.84-7.67-.88-11.5-.28-30.2-.4-60.46 1.24-90.62.93-17.1 2.42-34.2 4.75-51.18.4-3.02-4.23-4.13-4.64-1.1-4.06 30.28-5.34 60.85-5.7 91.38l-.07 45.96c.03 6.97-.13 13.97 1.66 20.77 1.38 5.22 3.6 10.42 3.87 15.87.15 3.1-.3 6.14-.65 9.2-.43 3.78-.67 7.57-.85 11.37-.4 8.12-.96 17.26 1.73 25.05-3.78 10.73 4 21.72 1.74 32.68-.7 3.45-1.93 6.77-3.6 9.87-1.7 3.15-2.8 6.8-5.56 8.94a1.7 1.7 0 0 0-.6.11c-5.85 2.1-12.7 1.24-18.9 1.4-7.04.2-14.1-.72-21.13-.53-3.05.08-6.47.5-9.3-.85-2.5-1.18-4.65-3.6-6.3-5.76-3.18-4.17-5.3-8.03-6.2-13.2-.5-2.9-.62-5.94-.3-8.86.34-3.07 1.43-5.92 1.5-9.02a1.53 1.53 0 0 0-.21-.83c.24-2.13-.32-4.1-1.45-6-1.4-2.35-3.6-3.92-5.22-6.07-1.72-2.3-1.83-4.87-1.62-7.62.1-1.2-.1-2.48.05-3.68.2-1.44 1.18-2.7 1.6-4.07.74-2.4.38-4.6-1.18-6.56-.75-.94-1.4-1.37-1.25-2.58.12-.97.82-2.05 1.3-2.86 1.18-1.93 2.04-2.66 4.22-3.1 1-.2 2.07-.44 2.9-1-.3 1.6-.5 3.23-.23 4.73.86 4.92 1.9 11.2 5.35 15 1.4 1.54 4.33-.26 3.5-2.2-1.94-4.48-3.72-8.73-4.7-13.55a5.28 5.28 0 0 1-.03-.21c.05-.34.07-.83.08-.9l.85-5.8c.85-5.6 1.73-11.22 2.86-16.8 1.5-7.4 3.1-14.78 3.8-22.32.54-5.7.82-12.02-.16-17.95a2.25 2.25 0 0 0 .43-1.98c-3.63-15.13-7.87-30.08-11.9-45.1-3.8-14.22-7.68-28.52-10.05-43.07-.28-1.73-3.03-1.68-2.77.1 4.14 28.13 12.38 55.4 18.87 83.03a.22.22 0 0 0 .01.08c.7 3.95 1.58 7.77 1.84 11.8.26 4.07.17 8.15-.2 12.2-.72 7.7-2.47 15.23-4 22.8-1.13 5.55-2.04 11.14-2.9 16.74l-.03.18c-.56-.33-1.3-.27-1.75.52-.4.73-2.1.64-2.78.75-.87.14-1.74.3-2.52.7-1.6.85-2.73 2.57-3.64 4.08-.87 1.46-1.87 3.4-1.67 5.18.3 2.7 3.37 3.72 2.72 6.68-.3 1.36-1.18 2.43-1.6 3.73-.38 1.2-.32 2.4-.32 3.64-.01 2.56-.47 4.95.2 7.5.65 2.44 2.1 4.3 3.83 6.08 2.06 2.1 4.4 4.7 4.05 7.9-.01.1 0 .17 0 .25-3.27 4.34-3.33 11.38-2.8 16.53.62 6.08 2.64 10.94 6.03 16.03 3.6 5.4 8.43 10.1 15.18 10.56 3.76.25 7.6.97 11.38.84l12.28-.42c7.25-.25 17 1.6 23.16-2.85.07-.01.15-.01.23-.03 6.5-1.55 9.07-9.88 11.27-15.64 2.43-6.35 2.8-12.43 1.5-19.07-1.15-5.84-3.67-12.45-1.6-18.36 1.03-2.92 3.17-5.34 4.87-7.9 1.8-2.7 2.93-5.67 3.17-8.93.25-3.7-.7-7.44-2.43-10.67zm-7.65 21.2c-.2-2.4-.46-4.82-.53-7.25-.1-3.7 0-7.43.2-11.13a110.68 110.68 0 0 1 .4-5.18c.73 1 1.5 1.95 2.1 2.86 1.72 2.63 2.86 5.43 2.98 8.6.2 4.92-2.74 8.3-5.14 12.1zm-9.85-72.68c-3.77 13.5-7.58 27-9.75 40.88-1.04 6.7-1.7 13.44-1.82 20.2-.07 4.97-.16 9.98 1.95 14.58.92 2 2.08 3.9 3.2 5.8 1.74 3 3.14 6.16 4.83 9.18.43.77 1.67.18 1.4-.65-1.58-4.75-4.58-8.92-6.96-13.3-2.4-4.4-2.73-8.77-2.76-13.7-.1-13.64 2.22-27.17 5.33-40.4 1.75-7.48 3.7-14.9 5.7-22.33.2-.72-.9-.98-1.1-.27z"/><path d="M158.67 228.08c1.07-2.24 1.62-4.8 2.3-7.17l2.25-7.94c1.46-5.3 2.94-10.62 4.05-16 .1-.5-.64-.68-.78-.2-1.5 5.14-2.8 10.36-4.23 15.53l-2.12 7.55c-.75 2.6-1.77 5.28-2.15 7.96-.05.38.48.65.67.26zm-5.14 11.12c-.12-4.2.53-7.76 1.8-11.76.1-.33-.44-.9-.7-.52-2.27 3.36-2.95 8.15-2.13 12.1.1.48 1.05.93 1.03.2z"/></g><path d="M271.14 8.46c6.62 46.55 6.65 93.75 6.67 140.77 0 4.6 0 9.2-.9 13.7-.78 3.9-3.24 11.2-3.92 15.12-1.15 6.64.43 10.75 1.03 18.93.7 9.58 1.42 19.88-.58 30.16l-.72-33.08c-1.74 3-3.9 5.52-5.65 8.5-1.95 3.35-2.8 7.55-2.15 11.38.9 5.32 4.42 7.96 6.9 12.76 4.85 9.38-2.63 20.55-1.37 31.04.64 5.36 1.34 13 4.37 17.48 1.66 2.45 4.32 4.6 6.96 5.56l.16-.2c5.75 3.3 14.32 1.92 20.95 2.08 7.37.18 14.74-.72 22.1-.54 2.66.07 5.4.12 7.87-.9 1.73-.7 3.2-1.92 4.56-3.22 9.67-9.33 12.9-23.62 7.83-36.06l.15-.52c-.82-3.82 2.16-7.32 4.96-10.05s3.65-6.13 3.1-10c-.32-2.24.4-4.03-.76-5.97-1.16-1.95-2-4.44-.9-6.42.64-1.17 1.87-2 2.3-3.26.63-1.95-2.37-6.64-4-7.87s-5.5-.48-6.17-2.42l-6.42 20.3c3.25-4.9 4.77-14.5 4.77-14.5s-2.32-16-4.4-25.37c-3.36-15.12-6.33-30.93-1.75-45.73l-2.06 6.16c6.7-29.8 16.7-62.32 20.64-88.94l-83.58-38.9z" fill="#fff"/><g fill="#e5e6e8"><path d="M332.87 141.45l-13.76 56.18 2.47 35.73 5.12 7.3 9.55 8.32 9.74 16.8-1.7-31.7-8.76-19.43s7.95-12.24 7.12-14.04c-.84-1.82-9.78-59.14-9.78-59.14z"/><path d="M331.3 17.94c6.32 11.78 13.22 33.83-12.2 179.7l16.8-68.57 19.5-82.77S322.2 1 331.3 17.94zm6.7 234.04c-2.18 19.02-13.07 27.3-53.25 26.05-6.67-.65 4.75 5.05 4.75 5.05l43.94-1.43 9.7-10.75 4.44-13.58c-.01.01-7.58-10.78-9.6-5.34zm-46.27-12.78c1.7-.3 22.52-3.92 30.56 1.25-12.82-8.86-30.56-1.25-30.56-1.25z"/></g><g fill="#748086"><path d="M333.4 131.2l-10.72 47.48c-1.32 6.3-2.56 12.63-3.5 19-.8 5.42-1 10.87-1.6 16.3-.2 1.9-.34 3.82.06 5.7.43 2 1.53 3.83 2.3 5.7 1.76 4.27 3.26 8.6 5.56 12.62.57 1 2.1.17 1.57-.85-1.8-3.4-3.2-7-4.6-10.6-.7-1.77-1.46-3.5-2.22-5.23-.9-2.07-1.06-4.06-.86-6.3.47-5.3.78-10.64 1.5-15.93 1.86-13.55 4.9-26.94 7.92-40.26L335 131.7c.25-1.07-1.36-1.57-1.6-.5z"/><path d="M338.15 129.8c0-.03 0-.05.01-.08 6.33-27.67 14.4-54.98 18.4-83.13.25-1.78-2.5-1.82-2.77-.1-2.3 14.56-6.08 28.88-9.8 43.13l-11.64 45.18a2.23 2.23 0 0 0 .46 2c-.77 4.92-.7 10.08-.36 14.8.55 7.82 2.05 15.5 3.72 23.16 1.23 5.62 2.2 11.3 3.12 16.98l1.04 6.7c.1.58.15 1.16.26 1.74-.2.52-.24 1.56-.33 1.96a64.01 64.01 0 0 1-.96 3.8c-.85 2.95-2.16 5.57-3.35 8.37-.83 1.94 2.1 3.73 3.5 2.18 3.23-3.6 4.27-9.46 5.1-14.1.36-2 .1-3.82-.22-5.76.8.56 1.83.83 2.8 1.02 2.2.43 3.1.95 4.34 2.88.56.88 1.14 1.86 1.42 2.87.33 1.22-.27 1.7-1.05 2.64-1.65 2-2.06 4.24-1.27 6.73.4 1.27 1.3 2.42 1.56 3.7.24 1.2.02 2.5.1 3.7.2 2.77.3 5.3-1.36 7.7-1.52 2.2-3.75 3.78-5.2 6.08-1.23 1.96-1.86 4.04-1.6 6.3a1.62 1.62 0 0 0-.2.83c.08 2.7.94 5.13 1.38 7.8.42 2.52.44 5.1.22 7.65-.45 5.32-2.25 9.97-5.17 14.44-1.44 2.2-3.15 3.68-5.14 5.4-2.64 2.28-5.53 2.62-8.9 2.58-6.93-.08-13.86.8-20.8.66-3.54-.07-8.73.46-12.26.08-3.53-.4-6.98-.27-10.32-1.45a1.78 1.78 0 0 0-.62-.1c-4.94-3.5-6.3-10.24-8-16.08-1.8-6.1-1.08-11.65.3-17.76 1.17-5.2 2.5-10.83 1.07-16.13.26-.27.46-.62.54-1.1 1.37-7.38 1.57-14.82 1.2-22.3-.34-6.6-1.25-13.1-1.9-19.67-.54-5.58.87-10.6 2.36-15.92 1.78-6.33 2.6-12.44 2.63-19.04.1-30.6.23-61.3-1.84-91.84-.57-8.45-1.28-16.9-2.15-25.33L275 20.24c-.55-4.3-.95-8.72-2.16-12.9-.4-1.36-2.55-1.25-2.55.27-.01 3.7.57 7.36.97 11.02l1.17 11.74c.7 7.47 1.23 14.96 1.64 22.45.84 15.14 1.38 30.3 1.67 45.47l.32 45.14c0 7.02.32 14.12-1.52 20.96-1.38 5.15-3.32 10.28-3.7 15.63-.22 3.02.15 6.03.54 9.02l.35 2.96c-2.4 1.72-4.23 5.13-5.72 7.5-1.8 2.87-2.95 6.04-3.26 9.42a17.36 17.36 0 0 0 1.95 9.62c1.42 2.68 3.5 4.95 5.02 7.56 3.3 5.68 1.5 12.1.2 18.1-1.42 6.56-1.92 12.68.16 19.17 2.1 6.53 4.35 16.37 11.7 18.08.08.02.15.02.23.03 5.4 3.8 14.23 2.44 20.57 2.64 7.97.25 15.94-.55 23.9-.4 3.45.06 6.9-.26 9.87-2.16 2.65-1.7 4.82-3.5 6.73-5.98 3.74-4.84 6.08-10.15 7.05-16.17.53-3.3.6-6.6.25-9.92-.34-3.23-.84-6.48-2.82-9.07v-.24c-.34-3.04 1.8-5.63 3.77-7.67 1.8-1.87 3.36-3.77 4.03-6.34.66-2.55.18-4.93.16-7.5-.01-1.13.05-2.25-.24-3.35-.38-1.43-1.4-2.56-1.72-4-.67-2.95 2.4-4 2.68-6.7.18-1.78-.82-3.7-1.7-5.17-.87-1.44-1.97-3.12-3.48-3.98-.76-.43-1.63-.6-2.48-.74-.72-.12-2.6-.04-3.02-.78-.44-.78-1.2-.84-1.76-.5l-2.58-14.73c-1.43-7.23-3.22-14.37-4.2-21.7-.6-4.48-.9-9-.75-13.52.14-4.72 1.04-9.15 1.85-13.76zm-70.3 83.1c-.64-3.46.2-7.14 1.97-10.14.68-1.15 1.64-2.35 2.55-3.6l.08 1.14c.44 7.06.67 14.2-.2 21.22-1.86-2.72-3.8-5.38-4.4-8.63zm72.75-12.6c.16.86-.02.4 0 0zm.05-.24c.01-.03.03-.06.05-.08-.02.02-.03.06-.05.08zm-59.27-50.36c3.6 13 7.2 26.03 9.4 39.34 1.13 6.82 1.88 13.7 2.04 20.63.12 5.18.3 10.48-1.98 15.25-2.37 4.97-5.7 9.42-7.6 14.63-.2.54.66.95.93.43 1.37-2.67 2.6-5.4 4.06-8 1.1-1.95 2.28-3.85 3.28-5.84 2.1-4.15 2.42-8.27 2.43-12.87.05-13.76-2.35-27.4-5.6-40.73-1.88-7.72-4.08-15.36-6.25-23-.12-.47-.86-.3-.73.18z"/><path d="M340.22 227.67c-.4-2.68-1.43-5.34-2.2-7.95l-2.16-7.54-4.32-15.5c-.15-.5-.9-.32-.78.2 1.15 5.37 2.66 10.7 4.14 15.97l2.18 7.53c.74 2.5 1.33 5.2 2.47 7.55.2.4.73.14.67-.24zm5.55 11.5c.85-4.06-.01-8.8-2.22-12.3-.25-.4-.8-.24-.62.25 1.37 3.93 1.93 7.36 1.84 11.53-.01.43.86 1.22 1 .53z"/></g><g fill="#73bdd8"><path d="M305.55 21.15h2.93v181.23h-2.93zm.1 195.87h3.15v50.68h-3.15z"/><circle cx="307.23" cy="21.29" r="6.7"/><circle cx="307.43" cy="201.96" r="6.71"/><circle cx="307.43" cy="223.78" r="6.71"/><circle cx="307.46" cy="267.02" r="7.21"/><path d="M259.72 281.7h94.6v3.15h-94.6z"/></g></svg>