<svg xmlns="http://www.w3.org/2000/svg" xmlns:xlink="http://www.w3.org/1999/xlink" viewBox="0 0 500 360"><defs><filter id="A" filterUnits="userSpaceOnUse" x="-102.4" y="131.1" width="704.3" height="230.1"><feColorMatrix values="1 0 0 0 0 0 1 0 0 0 0 0 1 0 0 0 0 0 1 0"/></filter><path id="B" d="M393.1 152h-12.5a2.69 2.69 0 1 1 0-5.4h12.5a2.69 2.69 0 0 1 2.7 2.7c0 1.4-1.2 2.7-2.7 2.7z"/><path id="C" d="M282.7 217.4a2.69 2.69 0 0 1-2.7-2.7v-9a2.69 2.69 0 1 1 5.4 0v9a2.69 2.69 0 0 1-2.7 2.7z"/><path id="D" d="M369.9 217.4a2.69 2.69 0 0 1-2.7-2.7v-9a2.69 2.69 0 1 1 5.4 0v9c.1 1.5-1.2 2.7-2.7 2.7z"/></defs><mask maskUnits="userSpaceOnUse" x="-102.4" y="131.1" width="704.3" height="230.1" id="E"><g filter="url(#A)"><radialGradient id="F" cx="252.999" cy="240.844" r="195.212" fx="253.094" fy="240.786" gradientTransform="matrix(1 0 0 0.4458 0 133.4691)" gradientUnits="userSpaceOnUse"><stop offset=".452" stop-color="#fff"/><stop offset=".543" stop-color="#fcfcfc"/><stop offset=".615" stop-color="#f2f2f2"/><stop offset=".68" stop-color="#e1e1e1"/><stop offset=".741" stop-color="#cacaca"/><stop offset=".8" stop-color="#ababab"/><stop offset=".856" stop-color="#868686"/><stop offset=".911" stop-color="#595959"/><stop offset=".964" stop-color="#272727"/><stop offset="1"/></radialGradient><ellipse cx="253" cy="240.8" rx="215.7" ry="100.5" opacity=".4" fill="url(#F)"/></g></mask><g mask="url(#E)" fill="#95c1e3"><path d="M254.5 361.2l-.2-.1-356.7-123 347.4-107 .2.1 356.7 123-347.4 107zm-354-123.1l353.9 122.1 344.5-106.1-353.9-122-344.5 106z"/><path d="M285.7 351.4L-69.7 228.8l.4-.8 355.4 122.6zm31.5-9.7L-38.3 219.2l.5-.9 355.4 122.6zm31.4-9.6L-6.8 209.5l.4-.9L349 331.2zm31.5-9.7L24.6 199.8l.5-.8 355.4 122.5zm31.4-9.7L56.1 190.1l.4-.8 355.4 122.6zM443 303L87.5 180.4l.5-.8 355.4 122.6zm31.4-9.7L119 170.7l.4-.8 355.4 122.6zm31.5-9.7L150.4 161l.5-.8 355.4 122.6zm31.4-9.7L181.9 151.4l.4-.9 355.4 122.6zm31.5-9.6L213.3 141.7l.5-.9 355.4 122.6z"/><path d="M222.4 350l-.4-.9 345.9-106.5.4.8zM190 338.8l-.3-.8 345.9-106.5.4.8zm-32.3-11.1l-.4-.8 346-106.6.4.8zm-32.3-11.2l-.4-.8 346-106.5.4.8zm-32.3-11.1l-.4-.8 346-106.6.4.9zm-32.3-11.1l-.4-.9 346-106.5.4.8zm-32.3-11.2l-.4-.8 346-106.6.3.9zM-3.8 272l-.4-.9 345.9-106.5.4.8zm-32.3-11.2l-.4-.8 345.9-106.6.4.9zm-32.3-11.1l-.4-.9 345.9-106.5.4.8z"/></g><path d="M339.3 186.4H90.9c-11 0-20-9-20-20V32.3c0-11 9-20 20-20h248.4c11 0 20 9 20 20v134.2c0 10.9-9 19.9-20 19.9z" fill="#fff"/><path d="M348.4 188.9H81.8c-7.4 0-13.4-6-13.4-13.4V23.2c0-7.4 6-13.4 13.4-13.4h266.6c7.4 0 13.4 6 13.4 13.4v152.4c-.1 7.3-6 13.3-13.4 13.3zM81.8 14.7c-4.7 0-8.5 3.8-8.5 8.5v152.4c0 4.7 3.8 8.5 8.5 8.5h266.6c4.7 0 8.5-3.8 8.5-8.5V23.2c0-4.7-3.8-8.5-8.5-8.5H81.8z" fill="#748086"/><path d="M358.6 205.8H110.2c-11 0-20-9-20-20V51.6c0-11 9-20 20-20h248.4c11 0 20 9 20 20v134.2c0 11-9 20-20 20z" fill="#fff"/><path d="M367.7 208.2H101.2c-7.4 0-13.4-6-13.4-13.4V42.5c0-7.4 6-13.4 13.4-13.4h266.6c7.4 0 13.4 6 13.4 13.4v152.4c-.1 7.4-6.1 13.3-13.5 13.3zM101.2 34.1c-4.7 0-8.5 3.8-8.5 8.5V195c0 4.7 3.8 8.5 8.5 8.5h266.6c4.7 0 8.5-3.8 8.5-8.5V42.5c0-4.7-3.8-8.5-8.5-8.5H101.2z" fill="#748086"/><path d="M378.5 225.7H130.1c-11 0-20-9-20-20V71.5c0-11 9-20 20-20h248.4c11 0 20 9 20 20v134.2c0 11-9 20-20 20z" fill="#fff"/><path d="M387.6 228.1H121.1c-7.4 0-13.4-6-13.4-13.4V62.4c0-7.4 6-13.4 13.4-13.4h266.6c7.4 0 13.4 6 13.4 13.4v152.4c-.1 7.4-6.1 13.3-13.5 13.3zM121.1 54c-4.7 0-8.5 3.8-8.5 8.5v152.4c0 4.7 3.8 8.5 8.5 8.5h266.6c4.7 0 8.5-3.8 8.5-8.5V62.4c0-4.7-3.8-8.5-8.5-8.5H121.1z" fill="#748086"/><path d="M399.8 246.4H151.4c-11 0-20-9-20-20V92.2c0-11 9-20 20-20h248.4c11 0 20 9 20 20v134.2c0 11-9 20-20 20z" fill="#fff"/><g fill="#748086"><path d="M408.9 248.9H142.3c-7.4 0-13.4-6-13.4-13.4V83.2c0-7.4 6-13.4 13.4-13.4h266.6c7.4 0 13.4 6 13.4 13.4v152.4c0 7.3-6 13.3-13.4 13.3zM142.3 74.7c-4.7 0-8.5 3.8-8.5 8.5v152.4c0 4.7 3.8 8.5 8.5 8.5h266.6c4.7 0 8.5-3.8 8.5-8.5V83.2c0-4.7-3.8-8.5-8.5-8.5H142.3zm182.1 38h-39.8a2.7 2.7 0 1 1 0-5.4h39.8a2.7 2.7 0 1 1 0 5.4zm0 68.2h-39.8a2.7 2.7 0 1 1 0-5.4h39.8a2.69 2.69 0 0 1 2.7 2.7c0 1.4-1.2 2.7-2.7 2.7zm50.2-55.1h-90a2.7 2.7 0 1 1 0-5.4h90a2.7 2.7 0 1 1 0 5.4zM350 138.9h-65.4a2.7 2.7 0 1 1 0-5.4H350a2.69 2.69 0 0 1 2.7 2.7c.1 1.5-1.2 2.7-2.7 2.7zM338.6 152h-54a2.7 2.7 0 1 1 0-5.4h54a2.69 2.69 0 0 1 2.7 2.7c0 1.4-1.2 2.7-2.7 2.7zm26.7 0h-17.4a2.7 2.7 0 1 1 0-5.4h17.4a2.69 2.69 0 0 1 2.7 2.7c0 1.4-1.2 2.7-2.7 2.7z"/><use xlink:href="#B"/><use xlink:href="#C"/><use xlink:href="#C" x="10.9"/><use xlink:href="#C" x="21.8"/><use xlink:href="#C" x="31.6"/><use xlink:href="#C" x="45.8"/><use xlink:href="#C" x="56.7"/><use xlink:href="#C" x="67.6"/><use xlink:href="#C" x="77.4"/><use xlink:href="#D"/><use xlink:href="#D" x="10.9"/><use xlink:href="#D" x="21.8"/><use xlink:href="#B" x="-95.4" y="13.1"/><use xlink:href="#B" y="13.1"/><path d="M369.7 165.1H307a2.69 2.69 0 1 1 0-5.4h62.7a2.69 2.69 0 0 1 2.7 2.7c0 1.4-1.2 2.7-2.7 2.7z"/></g><path d="M255.6 221.2H162c-1.6 0-2.8-1.3-2.8-2.8V106.3c0-1.6 1.3-2.8 2.8-2.8h93.6c1.6 0 2.8 1.3 2.8 2.8v112.1c0 1.5-1.2 2.8-2.8 2.8z" fill="#d2e1ef"/><path d="M256.9 223.7h-96.1c-2.2 0-4-1.8-4-4V105c0-2.2 1.8-4 4-4h96.1c2.2 0 4 1.8 4 4v114.7c0 2.2-1.8 4-4 4zm-95.2-4.9H256V105.9h-94.3v112.9z" fill="#748086"/><path d="M230.1 140.7c-.4 1.8-1.4 3.2-2.6 4.4-.3.1-.2-.1-.3-.1-.4-.8-1.2-1.7-1.2-2.5.1-.8 1-1.5 1.5-2.3l1.4-2.4c1.1.6 1.5 1.7 1.2 2.9zm-3.8-7c-.2 1.9-1.1 3.6-2.4 5.3-.2.3-.3.1-.5-.1-.8-1-1.7-2-2.6-2.8-.3-.2-.2-.4-.1-.7.8-1.6 1.5-3.2 1.9-4.9.1-.5.5-.5.9-.5 1.7.2 2.8 1.7 2.8 3.7zm-7-5.7c-.1 1.7-.7 3.5-1.6 5.2-.1.3-.3.3-.5.1l-2.3-1.3c-.4-.2-.4-.4-.3-.7.5-1.9.9-3.7 1-5.7 0-.4.3-.5.6-.6 1.8-.4 3.2.7 3.1 3zm-7.4-2.8c-.1 1.7-.4 3.3-.8 4.8-.1.4-.2.5-.6.4-1.1-.3-2.2-.5-3.3-.6-.5 0-.6-.2-.5-.6.4-2.2.2-4.3-.3-6.4-.1-.3 0-.5.2-.7.8-.6 1.7-1 2.7-1 1.3 0 2.2.8 2.4 2.2l.2 1.9zm-8.8 1.7c0 .6-.1 1.2-.1 1.8 0 1.6-.7 1.5-1.8 1.5-2.7 0-4.4 1.1-7.1 1.4-.3-.1-.4-.2-.4-.5.4-2.5.1-5 .6-7.4.1-.6.3-1.1.6-1.6.8-1.8 2.2-2.4 4.1-2.3 1.7.1 2.8 1.1 3.4 2.6.5 1.4.7 2.9.7 4.5zm13.6 10.6c-3.3-2.6-7-4-11.3-4-.4 0-7.1.5-8.7 1s-3.7 1.1-4.8 2.7c-1.2 1.3-2.2 7.6-1.6 9.8.5 2.2 2.4 6.4 3.1 7.7 1.2 2.3 2.2 4.6 3.2 7 1.7 4.1 2.8 8.3 2.3 12.8-.4 3.7-1.3 7.2-2.3 10.8-1.1 4.2-2.1 8.4-1.8 12.9.4 6.7 7.2 10.2 12.7 7.5 3.5-1.7 6-4.5 7.9-7.9 1.6-2.8 2.2-5.9 2.9-9 1.2-4.8 3-9.4 4.6-14.1 1.7-5.1 3.2-10.2 3.2-15.6.2-8.7-2.3-16.2-9.4-21.6zm-2.4 47.4c-.5 1-1.6 1.2-2.7.6-2.3-1.3-4.8-1.7-7.4-1.4-1.2.1-2.1-.5-2.2-1.6s.6-1.9 1.8-2.1c.5-.1 1.1-.1 1.5-.1 2.9.1 5.6.6 8 2 1.1.6 1.5 1.6 1 2.6z" fill="#fff"/><path d="M229.5 149.2l.1-.1c1.9-1.9 3.8-4.1 4.5-6.9.9-3.6-.3-6.4-3.5-8.2v-.4c0-4.3-2.8-7.3-7-7.7h-.2v-.1c-1.1-3.7-3.9-5.5-7.9-4.8h-.1s0-.1-.1-.2c-.4-1-1.1-1.9-2-2.5-2.2-1.6-4.7-1.8-7.5-.5-.9.4-1.2.3-1.7-.3-1-1.1-2.3-1.5-3.5-1.9-.2-.1-.4-.1-.6-.2h-3.1c-.3.1-.5.2-.8.3-1 .4-2 .7-2.8 1.5-1.9 1.7-2.9 4-3.3 7.3-.1.8-.1 2.5-.1 3.9 0 1.1 0 2.4-.1 2.6-.1.5-2 5.9-2.6 7-.6 1.2-2.8 9 1.2 15.4.4.8.5 1.1.5 1.3s.1.4.2.7c.4.9.8 1.8 1.3 2.7l2.4 5.2c1.6 4 2.2 7.1 2 10.3-.3 3.4-1.2 6.8-2.1 10l-.1.2c-1.2 4.5-2.3 9.4-2 14.4.4 5.8 3.9 10.2 9.3 11.9 1.2.4 2.5.6 3.7.6 2.6 0 5.1-.8 7.6-2.4 4.8-3.1 8.1-7.6 10.1-14.1.4-1.3.7-2.6 1-3.8.3-1.3.6-2.6 1-3.8l2.1-6.1c1.1-3.1 2.2-6.3 3.1-9.6 2.3-8.2 2.6-15.1.9-21.5-.1 0-.1 0 .1-.2zm-22.6-26.5v-.1c.8-.6 1.6-.9 2.4-.9 1.1 0 1.7.6 1.9 1.7.1.4.1.9.1 1.3v.5c-.1 1.7-.4 3.2-.8 4.7-1-.3-2.1-.5-3.4-.6.4-2 .3-4.1-.2-6.6zm14.3 13c1-2 1.6-3.5 2-5v-.1h.3c1.4.1 2.3 1.4 2.3 3.1-.2 1.5-.8 3-2 4.7-1-1.1-1.8-1.9-2.6-2.7zm6.3 8.7c-.1-.1-.2-.3-.3-.4-.3-.5-.7-1-.6-1.4 0-.4.4-.8.8-1.2.2-.3.5-.6.7-.9.4-.5.7-1.1 1-1.7 0-.1.1-.1.1-.2.5.5.7 1.2.5 2-.4 1.3-1.1 2.5-2.2 3.8zm-10.2-11.6c-.7-.4-1.4-.8-2.2-1.2h-.1c.6-2.1.9-4 1-5.8h.2c.5-.1 1.3-.2 1.8.2s.8 1.1.7 2.1c0 1.6-.7 3.4-1.4 4.7zm-20.2 52.6c.9-3.3 1.9-7 2.3-10.9.4-4.2-.3-8.3-2.3-13.1-.9-2.2-2-4.7-3.2-7-.6-1.2-2.5-5.4-3-7.5-.5-2 .5-8.1 1.5-9.3v-.1c.9-1.3 2.5-1.8 4-2.3.2-.1.4-.1.6-.2 1.4-.5 8.1-1 8.5-1h.1c3.8 0 7.5 1.3 10.8 3.9 6.4 4.9 9.4 11.8 9.2 21.1-.1 5.5-1.6 10.6-3.2 15.4l-1.5 4.5c-1.1 3.1-2.3 6.4-3.1 9.7l-.3 1.1c-.7 2.8-1.3 5.4-2.6 7.9-2 3.6-4.5 6.1-7.6 7.7-2.5 1.2-5.4 1.2-7.8-.2s-3.9-3.9-4.1-6.8c-.4-4.7.7-9.1 1.7-12.9zm1.8-65.2c1.4.1 2.4.8 3 2.3.5 1.3.7 2.7.8 4.4v.5c0 .4-.1.9-.1 1.3 0 .6-.1.7-.2.8s-.5.1-.9.1h-.2c-1.6 0-2.9.4-4.1.7-.9.3-1.8.5-2.9.7.2-1.1.2-2.2.2-3.2 0-1.4.1-2.7.4-4 .1-.5.3-1 .5-1.5.6-1.4 1.6-2 3.2-2 0-.1.2-.1.3-.1zm5.4 64.4c2.6-.3 4.9.2 7 1.4.5.3 1 .4 1.4.4.2 0 .4 0 .6-.1.6-.2 1.1-.6 1.4-1.2.7-1.2.2-2.6-1.2-3.3-2.3-1.3-4.8-1.9-8.2-2.1h-.4c-.3 0-.7.1-1.1.1-.8.1-1.4.4-1.8 1-.4.5-.5 1.1-.4 1.7 0 1.4 1.2 2.2 2.7 2.1zm195.3-70.8h-12.5v-10.1H377V91.2h10.1V81.1h12.5v10.1h10.1v12.5h-10.1v10.1zm-8.7-3.8h4.9V99.9h10.1V95h-10.1V84.9h-4.9V95h-10.1v4.9h10.1V110z" fill="#748086"/><circle cx="313.8" cy="195.6" r="54.5" opacity=".82" fill="#79ab3a"/><path d="M314.1 122.8c-39.7 0-72 32.2-72 72 0 39.7 32.2 72 72 72 16.1 0 31-5.3 43-14.3l1.3-1c3.9-3 7.4-6.5 10.6-10.2a6.42 6.42 0 0 0 1-1.3c10-12.4 16-28.1 16-45.2.1-39.8-32.1-72-71.9-72zm41.3 110c-1.6 1.7-3.3 3.3-5 4.8h-.1c-9.8 8.3-22.4 13.2-36.2 13.2-31 0-56.2-25.1-56.2-56.2s25.1-56.2 56.2-56.2 56.2 25.1 56.2 56.2c0 14.8-5.6 28.2-14.9 38.2zm23 20.2c-.9.4-1.7.8-2.5 1.3-1 .6-1.9 1.4-2.8 2.2-.9.9-1.8 2-2.4 3.1-.5.8-.9 1.7-1.3 2.6l-10-10c.3-.2.6-.5.9-.7a52.49 52.49 0 0 0 7.6-7.3c.3-.3.5-.6.7-.9l9.8 9.7z" fill="#fff"/><path d="M357.4 234.7c10.1-11 15.6-25.1 15.6-40 0-32.5-26.4-58.9-58.9-58.9s-58.9 26.4-58.9 58.9 26.4 58.9 58.9 58.9a58.91 58.91 0 0 0 37.9-13.8l.1-.1c1.9-1.6 3.7-3.2 5.3-5zm-4-3.7c-1.4 1.6-3 3.1-4.7 4.5-.1 0-.1.1-.2.1-9.6 8.1-21.8 12.6-34.4 12.6-29.5 0-53.4-24-53.4-53.4s24-53.4 53.4-53.4c29.5 0 53.4 24 53.4 53.4 0 13.4-4.9 26.2-14.1 36.2zm18.8 10.7c10.7-13.2 16.6-29.9 16.6-46.9 0-41.2-33.5-74.7-74.7-74.7s-74.7 33.5-74.7 74.7 33.5 74.7 74.7 74.7c16 0 31.3-5 44.1-14.4l10.3 10.3c.4-2 1.1-3.9 2.1-5.6l-7.2-7.2c1.9-1.6 3.7-3.3 5.4-5.2l7 7c1.7-1.1 3.6-1.8 5.5-2.2l-9.7-9.7c.2-.3.4-.6.6-.8zm-4.2-3.5c-.3.4-.7.8-1 1.2-3.1 3.6-6.5 6.9-10.2 9.8l-1.3 1c-12 9-26.4 13.7-41.4 13.7-38.2 0-69.2-31.1-69.2-69.2 0-38.2 31.1-69.2 69.2-69.2s69.2 31.1 69.2 69.2c.1 15.8-5.4 31.3-15.3 43.5z" fill="#748086"/><path d="M304.6 234.2c-3 0-5.8-1.2-7.9-3.4l-21.3-22.2c-4.2-4.4-4-11.3.3-15.4 4.4-4.2 11.3-4 15.4.3l12.4 13 30.4-40.4c3.6-4.8 10.5-5.8 15.3-2.1 4.8 3.6 5.8 10.5 2.1 15.3l-38.2 50.6c-1.9 2.6-4.9 4.1-8.1 4.3h-.4z" fill="#658722"/><path d="M414.4 317.4l-41.2-41.2c-4.3-4.3-4.3-11.5 0-15.8l3.7-3.7c4.3-4.3 11.5-4.3 15.8 0l41.2 41.2c4.3 4.3 4.3 11.5 0 15.8l-3.7 3.7c-4.3 4.4-11.5 4.4-15.8 0z" fill="#ebecee"/><path d="M434 294.2l-37.5-37.5c-4.1-4.1-9.8-5.6-15.1-4.5-1 .2-2 .5-2.9.9s-1.7.8-2.5 1.3c-1 .6-1.9 1.4-2.8 2.2-.9.9-1.8 2-2.4 3.1-.5.8-.9 1.7-1.3 2.6-.4 1-.7 2-.9 3s-.3 2-.3 3c0 4.4 1.7 8.6 4.8 11.7l37.5 37.5c3.2 3.2 7.5 4.8 11.7 4.8s8.5-1.6 11.7-4.8c6.4-6.4 6.4-16.9 0-23.3zm-19.5 19.5L377 276.2c-1.5-1.5-2.5-3.4-3-5.4-.2-.8-.3-1.6-.3-2.4 0-.5 0-1.1.1-1.6.1-1 .4-2 .9-3 .5-1.2 1.3-2.3 2.2-3.2a11.23 11.23 0 0 1 2.9-2.1c.9-.5 1.9-.8 2.9-1 1.3-.2 2.6-.2 3.8 0 2.2.4 4.3 1.4 6 3.1l37.5 37.5c4.3 4.3 4.3 11.3 0 15.7-4.2 4.2-11.2 4.2-15.5-.1z" fill="#748086"/><path d="M304.6 226.3c-.8 0-1.6-.3-2.2-.9l-21.3-22.2c-1.1-1.2-1.1-3.1.1-4.2s3.1-1.1 4.2.1l18.8 19.7 36-47.8c1-1.3 2.9-1.6 4.2-.6s1.6 2.9.6 4.2l-38 50.5c-.5.7-1.3 1.1-2.2 1.2h-.2z" fill="#fff"/></svg>