<svg xmlns="http://www.w3.org/2000/svg" viewBox="0 0 85 113.4"><circle cx="42.7" cy="56.7" r="39.1" fill="#9a999e"/><path d="M56 65.8c-.1-.3-.2-.6-.4-.8-.4-.6-.6-.7-1.3-.8-.3-.1-.6-.1-.8-.3.1.6.2 1.1.1 1.7-.2 1.3-.5 3-1.5 4.1-.4.4-1.3-.1-1-.6l1-2.4.3-1.1c0-.1 0-.4.1-.6 0-.2 0-.3-.1-.5l-.3-1.9-.9-4.9c-.5-2.2-.9-4.4-1.1-6.7-.1-1.4-.1-2.9.1-4.3-.1-.1-.2-.3-.1-.6 1-4.4 2.2-8.7 3.4-13.1 1.1-4.1 2.5-8.5 3.2-12.7 0 0-2.3-7.3-10.8-10.6S33 9 33 9c.2 1 .3 2.7.5 3.7.2 1.2.3 2.5.4 3.7.3 2.4.5 4.9.6 7.3.6 8.8.6 17.7.5 26.6 0 1.9-.2 3.7-.8 5.5-.4 1.5-.8 3-.7 4.6.2 1.9.5 3.8.5 5.7.1 2.2.1 4.3-.3 6.5 0 .1-.1.2-.2.3.4 1.5 0 3.2-.3 4.7-.4 1.8-.6 3.4-.1 5.1s.9 3.6 2.3 4.7h.2c1 .3 2 .3 3 .4s2.5 0 3.5 0c2 0 4-.2 6-.2 1 0 1.8-.1 2.6-.7.6-.5 1.1-.9 1.5-1.6.8-1.3 1.4-2.6 1.5-4.2.1-.7.1-1.5-.1-2.2-.1-.8-.4-1.5-.4-2.3 0-.1 0-.2.1-.2a2.27 2.27 0 0 1 .5-1.8c.4-.7 1.1-1.1 1.5-1.8.5-.7.5-1.4.4-2.2v-1.1c-.1-.4-.3-.7-.5-1.1-.2-.7-.1-1.4.4-1.9.4-.2.5-.4.4-.7zm-23.3-1.2l-.7 1c-.5.9-.8 1.9-.6 2.9.2.9.7 1.7 1.3 2.5.2-2 .2-4.1.1-6.1-.1-.1-.1-.2-.1-.3z" fill="#e2e4e7"/><path d="M38.3 76.1c.5-.1 6.5-1.1 8.9.4-3.8-2.6-8.9-.4-8.9-.4zM54.4 16c-2.6-3.4-3.8-4.4-5.5-4.8 1.8 3.4 4.7 10.7-2.7 52.9v.1-.1c.3-1.8.6-3.7 1-5.5L50 46.1v-.2c1-4.4 2.2-8.7 3.4-13.1 1.1-4.1 2.2-8.2 2.8-12.4v-.1c0-.2.1-.3.2-.3-.3-.6-.8-2.5-2-4zM56 65.8c-.1-.3-.2-.6-.4-.8-.4-.6-.6-.7-1.3-.8-.3 0-.6-.1-.8-.3.1.6.2 1.1.1 1.7-.2 1.3-.5 3-1.5 4.1-.2.2-.5.2-.7.1.1.3.2.6.2.9 0 .1.1.3.1.4.1.2.1.4.2.6.1.4.3.9.3 1.3 0 .1-.1.1-.1.1L52 73l-.3-.6c-.2-.5-.3-1.1-.5-1.6l-.6-2.2-1.2-4.6c0-.1.2-.2.2-.1l1.3 4.5c0 .1.1.3.1.4.1-.1.1-.2.2-.3.3-.6.5-1.2.7-1.9l.3-1.1c0-.1 0-.4.1-.6 0-.2 0-.3-.1-.5l-.3-1.9-.9-4.9c-.5-2.2-.9-4.4-1.1-6.7-.1-.8-.1-1.6-.1-2.5l-1 4.6c-.9 3.9-1.8 7.7-2.3 11.7l-.3 2.9.3 4c.2.4.3.7.5 1.1.4 1 .8 2.1 1.3 3.1.2.3-.3.5-.5.2a15.95 15.95 0 0 1-1.2-2.7l.1 1.4 1.5 2.1 2.8 2.4.5.9c-.6 5.2-3.4 7.6-13.3 7.6h-2.6c1 .3 2 .3 3 .4s2.5 0 3.5 0c2 0 4-.2 6-.2 1 0 1.8-.1 2.6-.7.6-.5 1.1-.9 1.5-1.6.8-1.3 1.4-2.6 1.5-4.2V81l-.1-.1-.1-2.3c-.1-.5-.3-1-.3-1.6 0-.1 0-.2.1-.2 0-.3 0-.6.1-.9v-.3h.1c0-.9-.2-1.7-.5-2.6 0-.1.1-.2.2-.1.4.6.6 1.3.7 2 .4-.6 1-1.1 1.5-1.7.5-.7.4-1.4.4-2.2v-1.1c-.1-.4-.3-.7-.5-1.1-.2-.7-.1-1.4.4-2 .3-.5.4-.7.3-1z" fill="#bebec2"/><path d="M57 66.1c0-.5-.2-1.1-.5-1.5-.1-.1-.2-.3-.3-.4-.2-.3-.5-.6-.7-.7s-.5-.2-.7-.2-.8 0-.9-.2-.3-.2-.5-.1l-.8-4.3-1.2-6.3c-.2-1.3-.3-2.6-.2-3.9 0-1.4.3-2.7.5-4 1.8-8 4.2-15.9 5.3-24.1 0-.4-.3-.5-.6-.3-.1.1-.2.2-.2.3v.1c-.7 4.2-1.8 8.3-2.8 12.4L50 46v.2l-2.8 12.5c-.4 1.8-.7 3.7-1 5.5v.1c-.2 1.5-.3 3.1-.4 4.6-.1.5-.1 1.1 0 1.6.1.6.5 1.1.7 1.7.1.3.3.6.4.9.4.9.7 1.8 1.2 2.7.2.3.6 0 .5-.3-.5-1-.9-2-1.3-3.1-.2-.4-.3-.8-.5-1.1-.1-.1-.1-.3-.2-.4-.3-.6-.3-1.2-.3-1.8s.1-1.2.2-1.7l.3-2.9c.5-3.9 1.4-7.8 2.3-11.7.3-1.5.7-3 1-4.6 0 .8 0 1.7.1 2.5.2 2.3.6 4.5 1.1 6.7l.9 4.9c.1.7.2 1.3.3 1.9a.9.9 0 0 0 .1.5c-.1.2-.1.5-.1.6s-.1.3-.1.4c-.1.3-.1.5-.2.7-.2.7-.5 1.3-.7 1.9-.1.1-.1.3-.2.4v-.1c0-.1-.1-.3-.1-.4-.4-1.5-.8-3-1.3-4.5 0-.1-.3-.1-.2.1.3 1.5.8 3.1 1.2 4.6l.6 2.2c.2.5.3 1 .5 1.6.1.2.1.4.3.6 0 .1.2 0 .2-.1-.1-.7-.3-1.3-.5-1.9 0-.1-.1-.3-.1-.4-.1-.3-.2-.6-.2-.9.2.1.5.1.7-.1.9-1.1 1.2-2.7 1.5-4.1.1-.6 0-1.1-.1-1.7.2.2.5.2.8.3.6.1.9.3 1.3.8.2.3.3.5.4.8.1.4-.1.5-.3.8-.5.6-.6 1.2-.4 2 .1.4.4.7.5 1.1.1.3 0 .7 0 1.1.1.8.1 1.5-.4 2.2-.4.6-1.1 1.1-1.5 1.7-.1-.7-.3-1.4-.7-2-.1-.1-.2-.1-.2.1.3.9.5 1.7.5 2.6 0 .1-.1.2-.1.3-.1.3-.1.6-.1.9 0 .1-.1.1-.1.2 0 .6.2 1.1.3 1.6 0 .2.1.4.1.7.1.6.1 1.2.1 1.8v.4c-.1 1.5-.7 2.9-1.5 4.2-.4.6-.9 1.1-1.5 1.6-.8.7-1.6.8-2.6.7-2 0-4 .2-6 .2-1 0-2.5.1-3.5 0s-2-.1-3-.4h-.2c-1.4-1-1.8-3-2.3-4.6-.5-1.8-.3-3.4.1-5.2.3-1.5.7-3.1.3-4.7.1-.1.1-.2.2-.3a23.48 23.48 0 0 0 .3-6.5c-.1-1.9-.4-3.8-.5-5.7-.2-1.6.3-3.1.7-4.6.5-1.8.7-3.5.8-5.3 1 3.6 2 7.3 2.6 11a60.94 60.94 0 0 1 .6 6c0 1.5.1 3-.6 4.4s-1.7 2.7-2.2 4.2c0 .2.2.3.3.1.4-.8.8-1.6 1.2-2.3.3-.6.7-1.1.9-1.7.6-1.2.7-2.4.7-3.7 0-4-.7-7.9-1.6-11.8-.5-2.2-1.2-4.4-1.8-6.7 0-.1-.1-.1-.1-.1 0-8.8.1-17.6-.5-26.3l-.6-7.3c-.1-1.2-.3-2.4-.4-3.7-.1-1-.2-2.1-.5-3.1-.3 0-.4-.2-.4-.4-.1-.4-.7-.4-.7.1 0 1.1.2 2.1.3 3.2l.3 3.4.5 6.5c.3 4.4.4 8.8.5 13.2l.1 13.1c0 2 .1 4.1-.4 6.1-.4 1.5-1 3-1.1 4.5-.1.9 0 1.7.2 2.6 0 .3.1.6.1.8-.7.5-1.2 1.5-1.6 2.2-.5.8-.9 1.8-1 2.7a4.61 4.61 0 0 0 .6 2.8c.4.8 1 1.4 1.5 2.2 1 1.6.4 3.5.1 5.2-.4 1.9-.6 3.7 0 5.5.6 1.9 1.3 4.7 3.4 5.2h.1c1.6 1.1 4.1.7 6 .8 2.3.1 4.6-.2 6.9-.1 1 0 2-.1 2.9-.6.8-.5 1.4-1 2-1.7 1.1-1.4 1.8-2.9 2-4.7.2-1 .2-1.9.1-2.9-.1-.9-.2-1.9-.8-2.6v-.1c0-.4.1-.8.3-1.2s.5-.7.8-1c.5-.5 1-1.1 1.2-1.8s0-1.4 0-2.2c0-.3 0-.6-.1-1s-.4-.7-.5-1.1v-.6c-.2-.4.4-.8.4-1.4zM32.7 71c-.5-.8-1.1-1.6-1.3-2.5-.2-1 .1-2.1.6-2.9.2-.3.5-.7.7-1v.3c.2 2 .2 4.1 0 6.1z" fill="#67666a"/></svg>