<svg xmlns="http://www.w3.org/2000/svg" viewBox="0 0 440 120"><linearGradient id="A" gradientUnits="userSpaceOnUse" x1="82.044" y1="113.798" x2="12.964" y2="22.126"><stop offset="0" stop-color="#477ea2"/><stop offset=".69" stop-color="#6ab3d0"/></linearGradient><path d="M110.3 89.65l-.27.38-2.86 3.68-3.23 3.53c-.07.08-.15.15-.23.23-.66.57-1.6.7-2.38.36l-.42-.24-7.16-4.12a2.67 2.67 0 0 0-.43-.25 2.23 2.23 0 0 0-2.11.17c.01-.01-2.72 1.5-4.06 2.34l-3.84 2.64-.47.3c-.3.38-.5.85-.52 1.35a1.66 1.66 0 0 0 .03.44l.56 8.74c-.03.84-.54 1.6-1.3 1.96l-.45.15-4.48 1.3-4.7.96-.32.05c-.87.07-1.7-.37-2.14-1.1l-.2-.44-3.37-7.54a2.67 2.67 0 0 0-.2-.46c-.33-.56-.9-.95-1.52-1.07l-.2-.03c-.03 0-.07-.01-.1-.01h.03l-4.7-.5-4.76-.12c-.5.12-.94.4-1.25.8a2.35 2.35 0 0 0-.24.37l-4.68 7.4a2.25 2.25 0 0 1-2.21.81l-.45-.14L41.3 110l-4.36-2-.28-.14c-.75-.45-1.16-1.3-1.08-2.15l.1-.47 1.7-8.08c.05-.16.1-.33.1-.5.03-.34-.01-.68-.13-1-.17-.1-.94-.86-1-.94l-3.56-3.2-3.7-2.83-.57-.4a2.4 2.4 0 0 0-.92.06 2.05 2.05 0 0 0-.41.16l-7.7 3.06-.42.17a2.27 2.27 0 0 1-2.27-.64l-.28-.38-2.6-3.86-2.36-4.17-.14-.28a2.25 2.25 0 0 1 .39-2.37l.36-.32 6.13-5.53c.14-.1.26-.2.37-.33.17-.2.3-.4.4-.64-.08-.2-.86-4.52-1.26-6.08l-1.58-5.43c-.2-.16-.42-.3-.66-.38-.14-.05-.28-.1-.43-.1l-8.48-2.17c-.8-.3-1.36-1-1.46-1.85l-.01-.47.15-4.66.54-4.76.05-.32c.2-.85.87-1.5 1.7-1.7l.48-.05 8.2-.87c.17 0 .34-.02.5-.05.24-.05.47-.15.68-.27.04-.15 1.9-3.98 2.5-5.47l2-5.46c-.06-.27-.17-.53-.33-.76-.08-.12-.17-.23-.28-.34L15.8 25.3c-.47-.7-.5-1.6-.1-2.36l.27-.38 2.86-3.68 3.23-3.53c.07-.08.15-.15.23-.22.52-.45 1.22-.63 1.87-.5 1.42 1.04 8.3 7.28 11.3 16.5.87 2.68-.3 5.4-.66 6.12s-4.52 5.8-4.4 9.98c.28 3.5 3.67 6.04 7.8 7.9s15.67 4.1 21.44 8.68 13.5 13.12 16.48 14.78c3 1.66 8.1 2.03 11.12 1.07 1.43.87 7.76 1.67 9.73 1.02 1.55-.5 3.72-1.76 5.02-3.48l1.66 2.15c.9 1.06 6.25 7.64 6.25 7.64l.3.35c.5.66.53 1.58.1 2.32z" fill="url(#A)"/><linearGradient id="B" gradientUnits="userSpaceOnUse" x1="111.544" y1="61.96" x2="51.058" y2="14.703"><stop offset="0" stop-color="#182b36"/><stop offset="1" stop-color="#284759"/></linearGradient><path d="M102.85 73.1c-.18-.22-.45-.35-.83-.35-1.2.03-3.28.26-4.96-.57-1.68-.82-4.14-3.2-7.23-3.2-4.95-.65-9.2-10.3-9.2-10.3s-4.15-8.5-7.54-14.3c-3.26-5.6-16.58-24.25-21.62-30.2a42.68 42.68 0 0 1 10.75-2.09c23.33-1.48 43.44 16.22 44.93 39.55.48 7.68-1.1 15.02-4.3 21.45z" fill="url(#B)"/><linearGradient id="C" gradientUnits="userSpaceOnUse" x1="91.624" y1="93.251" x2="9.406" y2="35.681"><stop offset="0" stop-color="#182b36"/><stop offset="1" stop-color="#284759"/></linearGradient><path d="M100.46 80.23c-1.77 1.67-3.4 2.53-4.6 2.95a42.15 42.15 0 0 1-28.28 13.39c-23.33 1.48-43.44-16.22-44.93-39.55-.63-9.87 2.18-19.16 7.4-26.7-.1-4.37.95-6.6-5.86-15.74 1.42 1.04 8.3 7.28 11.3 16.5.87 2.68-.3 5.4-.66 6.12s-4.52 5.8-4.4 9.98c.28 3.5 3.67 6.04 7.8 7.9s15.67 4.1 21.44 8.68 13.5 13.12 16.48 14.78c3 1.66 8.1 2.03 11.12 1.07 1.43.87 7.76 1.67 9.73 1.02s4.95-2.5 5.87-5c.12-.44.2-.84.23-1.2.13 1.4-.2 3.52-2.62 5.8z" fill="url(#C)"/><path d="M152.4 80.9l-7.8-14.65c-.18-.33-.52-.53-.88-.53-.08 0-.16.01-.24.03a.99.99 0 0 0-.76.97V80.9h-11.28V38.7h11.28v14.18c0 .46.3.86.76.97.08.02.16.03.24.03.36 0 .7-.2.88-.53l7.8-14.65h13.2l-10.98 20.66a.98.98 0 0 0 0 .94l10.98 20.6h-13.2zm37.34 0V58.34c0-.55-.45-1-1-1h-7.38c-.55 0-1 .45-1 1V80.9h-11.28V49.73h28.5c.9 0 1.7.34 2.4 1.04s1.04 1.48 1.04 2.4V80.9h-11.27zm20.18 0c-.9 0-1.7-.34-2.4-1.04s-1.04-1.48-1.04-2.4v-24.3c0-.9.34-1.7 1.04-2.4s1.48-1.04 2.4-1.04H235c.9 0 1.7.34 2.4 1.04s1.04 1.48 1.04 2.4v24.32c0 .9-.34 1.7-1.04 2.4s-1.48 1.04-2.4 1.04h-25.08zm8.85-23.56c-.55 0-1 .45-1 1v14c0 .55.45 1 1 1h7.38c.55 0 1-.45 1-1v-14c0-.55-.45-1-1-1h-7.38zm28.55 23.56c-.9 0-1.7-.34-2.4-1.04s-1.04-1.48-1.04-2.4V49.73h11.28v22.6c0 .55.45 1 1 1h7.38c.55 0 1-.45 1-1v-22.6h11.28v22.6c0 .55.45 1 1 1h7.34c.55 0 1-.45 1-1v-22.6h11.28v27.75c0 .9-.34 1.7-1.04 2.4s-1.48 1.04-2.4 1.04h-45.7zm53.6 0V38.7h34.28l-3.47 7.57H313.2c-.55 0-1 .45-1 1v8.85c0 .55.45 1 1 1h18.18v7.38H313.2c-.55 0-1 .45-1 1v15.4h-11.28zm39.18 0c-.9 0-1.7-.34-2.4-1.04s-1.04-1.48-1.04-2.4v-24.3c0-.9.34-1.7 1.04-2.4s1.48-1.04 2.4-1.04h25.08c.9 0 1.7.34 2.4 1.04s1.04 1.48 1.04 2.4v24.32c0 .9-.34 1.7-1.04 2.4s-1.48 1.04-2.4 1.04H340.1zm8.85-23.56c-.55 0-1 .45-1 1v14c0 .55.45 1 1 1h7.38c.55 0 1-.45 1-1v-14c0-.55-.45-1-1-1h-7.38zM377.5 80.9c-.9 0-1.7-.34-2.4-1.04s-1.04-1.48-1.04-2.4v-24.3c0-.9.34-1.7 1.04-2.4s1.48-1.04 2.4-1.04h25.08c.9 0 1.7.34 2.4 1.04s1.04 1.48 1.04 2.4v24.32c0 .9-.34 1.7-1.04 2.4s-1.48 1.04-2.4 1.04H377.5zm8.85-23.56c-.55 0-1 .45-1 1v14c0 .55.45 1 1 1h7.38c.55 0 1-.45 1-1v-14c0-.55-.45-1-1-1h-7.38zm30.23 23.56c-.9 0-1.7-.34-2.4-1.04s-1.04-1.48-1.04-2.4V56.1c0-.55-.45-1-1-1h-2.67v-5.38h2.67c.55 0 1-.45 1-1V38.7h11.28v10.04c0 .55.45 1 1 1h6.38v5.38h-6.38c-.55 0-1 .45-1 1v16.23c0 .55.45 1 1 1h6.74l3.5 7.57h-19.1z" fill="#3298be"/></svg>