<svg id="Camada_1_cópia" data-name="Camada 1 cópia" xmlns="http://www.w3.org/2000/svg" viewBox="0 0 2242.9 484.45"><defs><style>.cls-1{fill:none;stroke:#000;stroke-miterlimit:10;stroke-width:15px;}</style></defs><title>logo-nome_knowfoot</title><path class="cls-1" d="M501,364.52c-.43.61-10,13.45-14.71,19.07-4.88,5.78-15.89,17.28-16.24,17.63a10.61,10.61,0,0,1-11.18,1.69s-36.89-21.36-37.6-21.67c-3.22-1.4-6.94-.67-9.91.78s-12.75,7-19.06,11-17.92,11.43-20.21,13.79a10.67,10.67,0,0,0-2.43,6.36h0c0,.68,2.74,43.09,2.74,43.09a10.58,10.58,0,0,1-6.16,9.19c-.7.24-16,5-23.1,6.78-7.35,1.81-23,4.64-23.51,4.72a10.6,10.6,0,0,1-10-5.2s-17.29-39-17.68-39.63a10.6,10.6,0,0,0-7.12-5c-.29,0-15.8-2-23.22-2.5s-22.19-.54-22.35-.54a10.7,10.7,0,0,0-5.89,3.76h0c-.41.53-23.11,36.47-23.11,36.47a10.61,10.61,0,0,1-10.39,3.81c-.7-.21-15.86-5.32-22.67-8.09-7-2.85-21.35-9.78-21.79-10a10.59,10.59,0,0,1-5.06-10.1s8.91-41.7,9-42.46c.15-1.6,1.08-3-5.37-9.07q-8-7.78-16.69-15-8.49-7-17.37-13.29c-2.49-1.59-3.49-2.59-7-1.62h0c-.65.19-40.13,15.92-40.13,15.92a10.6,10.6,0,0,1-10.65-3c-.44-.6-9.7-13.64-13.58-19.89-4-6.42-11.53-20.45-11.75-20.89a10.61,10.61,0,0,1,1.78-11.18S70.28,291,70.79,290.39c.8-.91,2.17-2.14,1.87-3s-4-21.25-5.92-28.58c-1.82-7.13-6.49-24.67-7.44-25.5a9.4,9.4,0,0,0-3.08-1.78h0c-1.82-1-41.83-10.71-41.83-10.71a10.63,10.63,0,0,1-6.84-8.7c0-.74.16-16.73.69-24.07.55-7.54,2.7-23.32,2.78-23.81a10.59,10.59,0,0,1,8.05-7.93s42-4.35,43.15-4.58a6.29,6.29,0,0,0,4.13-3.28c1-2,7.91-16.74,10.7-23.76,2.72-6.84,9.56-24.07,9.43-25.65A7,7,0,0,0,85,95.45h0C84.57,94.89,57.4,62.2,57.4,62.2A10.59,10.59,0,0,1,57,51.15c.43-.61,10-13.45,14.71-19.07,4.87-5.75,15.88-17.25,16.24-17.63,2.45-2.13,5.14-2.82,8.78-2.41,32,42.89,27,53.37,27.52,73.88a197.81,197.81,0,0,0-34.68,125.4C96.55,320.83,190.94,404,300.46,397a198,198,0,0,0,132.78-62.88c5.61-1.94,13.24-6,21.55-13.82a43.35,43.35,0,0,0,9.23-12c8.53,10.69,36.53,45.13,36.53,45.13A10.64,10.64,0,0,1,501,364.52Z" transform="translate(-0.05 -0.04)"/><path d="M466,286.79a4.69,4.69,0,0,0-3.91-1.62c-5.63.12-15.39,1.2-23.28-2.66s-19.42-15-33.92-15c-23.24-3.06-43.17-48.3-43.17-48.3s-19.48-39.84-35.42-67.2C311,125.77,248.43,38.18,224.77,10.23A199,199,0,0,1,275.22.45c109.52-7,204,76.16,210.92,185.67A197.91,197.91,0,0,1,466,286.79Z" transform="translate(-0.05 -0.04)"/><path d="M464,308.33a43.35,43.35,0,0,1-9.23,12c-8.31,7.82-15.94,11.88-21.55,13.82A198,198,0,0,1,300.46,397C190.94,404,96.52,320.86,89.55,211.35A197.81,197.81,0,0,1,124.23,86c-.54-20.51,4.45-31-27.52-73.88,4.17,3,18.33,15.61,31.8,35.18l.28.41a166.05,166.05,0,0,1,19.55,37.88c.48,1.33.94,2.68,1.38,4,4.07,12.56-1.45,25.4-3.1,28.71s-21.24,27.21-20.69,46.84c1.31,16.48,17.25,28.34,36.63,37.08S236.12,221.45,263.2,243s63.31,61.57,77.38,69.38,38.07,9.52,52.19,5c6.7,4.09,36.45,7.84,45.69,4.8l.69-.24.57-.2.52-.2.75-.29a52.73,52.73,0,0,0,6.06-2.92l1-.58,1-.6c.34-.21.68-.42,1-.64l1-.66c.67-.46,1.33-.94,2-1.44l.93-.7c.21-.16.42-.32.62-.49l.62-.5c.88-.72,1.74-1.47,2.56-2.26l.84-.82a37.58,37.58,0,0,0,3.33-3.8,27.9,27.9,0,0,0,4-7.07,34,34,0,0,0,1.1-5.65A28.42,28.42,0,0,1,464,308.33Z" transform="translate(-0.05 -0.04)"/><path d="M755.34,330.22,667.9,235.37v94.85H628V121.73H667.9v106L750.78,122h49L714,229.67l94,100.55Z" transform="translate(-0.05 -0.04)"/><path d="M994.6,330.22l-137-123.9v123.9H817.71V122H822L959,247.9V122h39.88V330.22Z" transform="translate(-0.05 -0.04)"/><path d="M1122.18,334.2a103.75,103.75,0,0,1-41.86-8.54,109.23,109.23,0,0,1-57.54-57.53,108,108,0,0,1,0-84.17,108.91,108.91,0,0,1,57.54-57.68,107.6,107.6,0,0,1,84,0A108.94,108.94,0,0,1,1221.87,184a107.85,107.85,0,0,1,0,84.17,109.25,109.25,0,0,1-57.53,57.53A104.53,104.53,0,0,1,1122.18,334.2Zm.15-179.15a61.48,61.48,0,0,0-26.58,5.84,72.23,72.23,0,0,0-21.6,15.52,73.35,73.35,0,0,0-14.64,22.65,70.12,70.12,0,0,0,0,54,75.61,75.61,0,0,0,14.64,22.64,71,71,0,0,0,21.6,15.67,63.38,63.38,0,0,0,53.15,0,71,71,0,0,0,21.6-15.67A75.61,75.61,0,0,0,1185.14,253a70.12,70.12,0,0,0,0-54,73.35,73.35,0,0,0-14.64-22.65,72.23,72.23,0,0,0-21.6-15.52A61.47,61.47,0,0,0,1122.33,155.05Z" transform="translate(-0.05 -0.04)"/><path d="M1539.45,157V208.6H1640v36.74H1539.45v84.88h-39.88V121.73h153.24V157Z" transform="translate(-0.05 -0.04)"/><path d="M1763,334.2a103.8,103.8,0,0,1-41.87-8.54,109.25,109.25,0,0,1-57.53-57.53,107.85,107.85,0,0,1,0-84.17,108.94,108.94,0,0,1,57.53-57.68,107.6,107.6,0,0,1,84,0A108.91,108.91,0,0,1,1862.72,184a108,108,0,0,1,0,84.17,109.23,109.23,0,0,1-57.54,57.53A104.48,104.48,0,0,1,1763,334.2Zm.14-179.15a61.47,61.47,0,0,0-26.57,5.84A72.15,72.15,0,0,0,1715,176.41a73.32,73.32,0,0,0-14.63,22.65,70.12,70.12,0,0,0,0,54A75.58,75.58,0,0,0,1715,275.67a70.9,70.9,0,0,0,21.61,15.67,63.38,63.38,0,0,0,53.15,0,71,71,0,0,0,21.6-15.67A75.61,75.61,0,0,0,1826,253a70.12,70.12,0,0,0,0-54,73.35,73.35,0,0,0-14.64-22.65,72.23,72.23,0,0,0-21.6-15.52A61.54,61.54,0,0,0,1763.17,155.05Z" transform="translate(-0.05 -0.04)"/><path d="M1984.34,334.2a103.8,103.8,0,0,1-41.87-8.54,109.32,109.32,0,0,1-57.54-57.53,108,108,0,0,1,0-84.17,109,109,0,0,1,57.54-57.68,107.6,107.6,0,0,1,84,0A108.94,108.94,0,0,1,2084,184a107.85,107.85,0,0,1,0,84.17,109.25,109.25,0,0,1-57.53,57.53A104.51,104.51,0,0,1,1984.34,334.2Zm.14-179.15a61.48,61.48,0,0,0-26.58,5.84,72.23,72.23,0,0,0-21.6,15.52,73.35,73.35,0,0,0-14.64,22.65,70.12,70.12,0,0,0,0,54,75.61,75.61,0,0,0,14.64,22.64,71,71,0,0,0,21.6,15.67,63.38,63.38,0,0,0,53.15,0,71,71,0,0,0,21.6-15.67A75.61,75.61,0,0,0,2047.29,253a70.12,70.12,0,0,0,0-54,73.35,73.35,0,0,0-14.64-22.65,72.23,72.23,0,0,0-21.6-15.52A61.47,61.47,0,0,0,1984.48,155.05Z" transform="translate(-0.05 -0.04)"/><path d="M2243,157h-59.52V330.22h-39.88V157h-59.81V121.73H2243Z" transform="translate(-0.05 -0.04)"/><path d="M1488.68,124.84l-77.45,207.38h-4l-55.89-66-57,66.32h-3.69l-76.59-207.66h42.27L1306.9,270.6l42.77-62.09h2.55L1395,270.88l51.42-146Z" transform="translate(-0.05 -0.04)"/></svg>