<svg xmlns="http://www.w3.org/2000/svg" viewBox="0 0 500 327.2"><defs><filter id="A" filterUnits="userSpaceOnUse" x="-100" y="98.1" width="702.4" height="229.5"><feColorMatrix values="1 0 0 0 0 0 1 0 0 0 0 0 1 0 0 0 0 0 1 0"/></filter></defs><mask maskUnits="userSpaceOnUse" x="-100" y="98.1" width="702.4" height="229.5" id="B"><g filter="url(#A)"><radialGradient id="C" cx="254.473" cy="207.546" r="194.691" fx="254.567" fy="207.488" gradientTransform="matrix(1 0 0 0.4458 0 115.0158)" gradientUnits="userSpaceOnUse"><stop offset=".452" stop-color="#fff"/><stop offset=".543" stop-color="#fcfcfc"/><stop offset=".615" stop-color="#f2f2f2"/><stop offset=".68" stop-color="#e1e1e1"/><stop offset=".741" stop-color="#cacaca"/><stop offset=".8" stop-color="#ababab"/><stop offset=".856" stop-color="#868686"/><stop offset=".911" stop-color="#595959"/><stop offset=".964" stop-color="#272727"/><stop offset="1"/></radialGradient><ellipse cx="254.5" cy="207.5" rx="215.1" ry="100.2" opacity=".4" fill="url(#C)"/></g></mask><g mask="url(#B)" fill="#95c1e3"><path d="M255.9 327.6l-.2-.1L-100 204.8 246.5 98.1l.2.1 355.7 122.7-346.5 106.7zm-353-122.8l353 121.8 343.5-105.8L246.5 99-97.1 204.8z"/><path d="M287.1 317.8L-67.4 195.6l.5-.8L287.5 317zm31.4-9.6L-36 185.9l.4-.8 354.5 122.3zm31.3-9.7L-4.6 176.3l.4-.9 354.5 122.3zm31.4-9.6L26.7 166.6l.5-.8L381.6 288zm31.4-9.7L58.1 156.9l.4-.8L413 278.4zm31.3-9.7L89.5 147.3l.4-.8 354.5 122.2zm31.4-9.6L120.8 137.6l.5-.8 354.4 122.3zm31.4-9.7L152.2 128l.4-.9 354.5 122.3zm31.3-9.6L183.6 118.3l.4-.8 354.5 122.2zm31.4-9.7L214.9 108.6l.5-.8 354.4 122.3z"/><path d="M223.9 316.4l-.4-.8 345-106.3.4.8zm-32.2-11.1l-.4-.9 345-106.2.4.8zm-32.2-11.1l-.4-.9 345-106.2.4.8zM127.2 283l-.4-.8L471.9 176l.4.8zM95 271.9l-.4-.8 345.1-106.3.3.9zm-32.2-11.1l-.4-.8 345-106.3.4.9zm-32.2-11.1l-.4-.8 345-106.3.4.8zm-32.3-11.1l-.3-.8 345-106.3.4.8zm-32.2-11.1l-.4-.9 345.1-106.2.4.8zm-32.2-11.1l-.4-.9 345-106.2.4.8z"/></g><ellipse cx="249.2" cy="210" rx="137.6" ry="37.3" opacity=".4" fill="#c4e0f5"/><path d="M370 2.4c-1.2 2.1-24 107.4-24 117.8s8.8 58.5 8.8 64.5-5.2 17.6-6.8 20.8-8 14.8-28.5 14.4c-20.4-.4-36.5-9.2-47.3-9.4s-38.1 1-46.9 5.4-22.3 6.3-30.7 6.3-25-3.9-25-5.5-13.2 3.6-22.4.4-10-14.8-7.6-18.4 11.2-.8 13.2 0 7.6-5.6 11.6-5.2 10.8 1.6 14.4-.4 12.4-10 20.8-10.8 34.5-28.1 62.5-37.7C295.8 145 279 4 279 4l91-1.6z" fill="#fff"/><path d="M139.8 208.6c1 3.9 3.5 7.8 8.2 9.4 9.2 3.2 22.4-2 22.4-.4s16.5 5.4 24.9 5.4 21.8-1.8 30.6-6.2 36-5.6 46.8-5.4 26.8 9 47.2 9.4 26.8-11.2 28.4-14.4 6.8-14.8 6.8-20.8-8.8-53.9-8.8-64.3c0-9.4 24.5-117.9 24.5-117.9s-2.8-.9-2.7-1.1c-3.8 10.1-24.5 13-41.3 13 0 20.1-4.3 102-4.3 102l.4 7.5s3.2 7.6-3.1 19c-1.1 2-2.3 4-3.6 5.8-.1.2-6.1.3-10.1-3-3.7-3.4-6.1-6.6-6.3-6.3-.7 1 2.9 7 6.5 9.4 3.5 2.5 7.3 4.1 5.5 5.9-4.9 6.2-10.3 11.9-15.3 18-8.1 9.7-10.8 4.5-18.9 9.4s-26.3 12.5-36.9 12.9c-10.6.3-7.3 12.2-32.6 19.8s-36.4 0-36.4 0l2.5-6.1c0-.2-18.4 4.6-34.4-1z" fill="#e5e6e8"/><g fill="#748086"><path d="M372.4 3.1a2.33 2.33 0 0 0-2.1-1.3c-.9 0-1.6.4-2 1.1-.9 1.5-1.3 3.5-1.6 5.2l-.3 1.5-20.9 97.5c-1 6.6-1.8 13.9-.9 21.6 1 8.4 2.4 16.9 3.8 25.1 1.7 9.8 3.4 20 4.3 30.1.4 4.3-1.3 8.8-2.6 12.4-1.5 4.1-2.9 7.7-4.9 10.9-6.5 10.5-19.8 9.8-27.1 9.5-6.9-.3-14.2 0-23.7-2.7-1.5-.4-3-.9-4.4-1.3-4.3-1.3-8.7-2.6-13.2-3.3-4.2-.6-8.6-.5-12.8-.3-.6 0-1.1 0-1.7.1-6.9.2-13.1.7-18.9 1.4-5.6.7-10.7 1.3-15.5 2.9-1.4.5-2.8 1.1-4.2 1.7-1.3.6-2.6 1.2-4 1.6-3.1 1-6.5 1.9-10.3 2.6-4.9.9-9.9.7-14.7.6-3.6-.1-17.3-1.9-20.5-3h-.1l-1.8-.6c-.1-.3-.4-.8-.9-1-1.3-.6-2.7-.4-3.9-.1-.2 0-.4.1-.5.1-.8.1-1.5.3-2.3.4-5.4.9-10.9 1.9-16 .1-4.9-1.8-8-7.7-6.9-13.1.2-1 .6-1.7 1.3-2.1 1.6-1 4.7-.1 7.1.6 1.1.3 2 .6 2.9.7 2.8.5 4.9-1.1 7.1-2.7 1.7-1.3 3.3-2.4 5.1-2.4 1.6 0 3.1.1 4.6.3 4 .4 8.1.8 12.1-1.8 1.4-.9 2.8-1.9 4.2-2.8 4.1-2.9 8-5.6 12.8-6.6 3.9-.8 6.6-1.9 9.7-3.9 5.2-3.4 10.2-7.1 15-10.7 4.9-3.7 10-7.5 15.2-10.8 7-4.5 12.9-7.7 18.8-10.3l3.5-1.4c3.7-1.4 7.5-2.9 10.7-5.8 13.3-11.9 13.4-33.2 13.1-49.4l-3.4-88.2c-.1-.8-.6-1.4-1.3-1.7-.8-.3-1.7-.1-2.4.4s-1 1.4-.9 2.3l.3 9.2c1.7 11.7 2.3 80.1 1.9 92.9-.2 7.5-1.2 18.5-6.8 26.9-2.5 3.7-5.9 6.4-10.2 8.1-7.9 3.1-13.8 5.8-19.3 9-8.3 4.8-16.2 10.6-23.7 16.2l-9.7 7c-.3.2-.7.5-1 .7-2.7 1.9-5.5 3.9-8.5 4.6-6.2 1.4-11.5 4-17.9 8.5-2.6 1.9-4.6 3.2-7.7 3.4-1.7.1-3.3-.1-5-.3-1.4-.2-2.8-.3-4.2-.4-2.7 0-4.9 1.2-7.1 2.6l-1.2.9c-1.5 1.1-2.4 1.7-3.7 1.4-.6-.1-1.3-.3-2-.5-3.6-.9-8.1-2.1-11.5.5-4 3.1-2.7 9.8-2.3 11.8 3.7 15.8 22.4 12.5 28.6 11.4.4-.1.9-.1 1.4-.2l1.8-.3c.9.8 2 1.2 3.1 1.6 5.6 2 11.8 2.4 16.6 3 2.6.3 5.3.5 8 .5 10 0 20.5-1.7 30.2-6 4.7-2.1 9.8-2.8 15.7-3.5 5.8-.7 12-1.2 19.2-1.4.6 0 1.2 0 1.8-.1 4.5-.2 9.1-.4 13.5.5 4.1.8 8.2 2 12.2 3.2 2.2.7 4.4 1.3 6.7 1.9 7.7 2.1 16.1 2.2 24.2 2.2 6.1 0 12.2.6 17.7-2.1 6.2-3 10.6-8 14-15.8 2.2-5 4.7-10.7 5.2-16.6.2-2.4-.1-4.7-.5-7-.1-.5-.1-.9-.2-1.3-.9-6.7-2-13.4-3-19.9l-1.6-9.8-.9-5.7c-1.1-6.9-2.3-14.1-2.5-21.1-.2-7.4 1.3-15.2 2.7-22.7l.9-4.8c1-5.3 17.3-78 18.2-82.3.1-.6.2-1.3.4-2 .3-1.8.7-4 1.4-5.1.6-.9.6-1.8.2-2.5zM327 71.4l-2.7 27-1.3 15.1c-.3 5.1.7 10.2 1 15.2.2 3.9.3 7.9-.6 11.7-1 4.6-3.8 7.9-7.1 11.1-.7.7-1.7-.5-1-1.2 4.6-4.5 6.9-8.9 7.2-15.4.2-5-.3-10-.8-15-.5-4.7-.1-9.1.3-13.8l3.4-34.9c.1-1 1.7-.8 1.6.2z"/><path d="M271.9 209.9c7.4-.3 14.4-.4 21.8-1.6.4-.1.6.5.2.6-7.1 1.5-14.7 2.4-21.9 1.5-.4 0-.4-.5-.1-.5zm-50.7 6.5c5.9-1.4 11.6-3.1 15.5-8 .3-.3.9.1.6.5-3.4 5.4-10.1 7-16 8.3-.4.1-.6-.7-.1-.8z"/></g></svg>